<svg id="Layer_1" data-name="Layer 1" xmlns="http://www.w3.org/2000/svg" width="100" height="100" viewBox="0 0 100 100"><title>Artboard 1</title><circle cx="50" cy="50" r="50" fill="#f2f2f2"/><path d="M39.7,38.1H37.6l-.8-2.1H33l-.8,2.1h-2l3.7-9.4h2Zm-3.5-3.7-1.3-3.5-1.3,3.5Z" fill="#df6526"/><path d="M45.1,34.6V33h4.1v3.7a5.2,5.2,0,0,1-1.7,1,6.3,6.3,0,0,1-2.3.4,5.1,5.1,0,0,1-2.6-.6,3.9,3.9,0,0,1-1.6-1.8,5.7,5.7,0,0,1-.6-2.5,5.4,5.4,0,0,1,.6-2.6A4.1,4.1,0,0,1,42.8,29a4.9,4.9,0,0,1,2.3-.5,4.5,4.5,0,0,1,2.7.7,3.3,3.3,0,0,1,1.3,2l-1.9.4a2,2,0,0,0-.7-1.1,2.3,2.3,0,0,0-1.4-.4,2.6,2.6,0,0,0-2,.8,3.3,3.3,0,0,0-.7,2.3,3.7,3.7,0,0,0,.7,2.5,2.5,2.5,0,0,0,2,.8l1.2-.2,1-.6V34.6Z" fill="#df6526"/><path d="M50.9,38.1V28.7h1.9v9.4Z" fill="#df6526"/><path d="M54.6,38.1V28.8h1.9v7.7h4.7v1.6Z" fill="#df6526"/><path d="M62.6,38.1V28.7h7v1.6H64.5v2.1h4.7v1.6H64.5v2.6h5.3v1.6Z" fill="#df6526"/><path d="M7.5,55V45.6H9.4V55Z" fill="#7ccbbc"/><path d="M11.2,55V45.6h1.8l3.8,6.3V45.6h1.8V55H16.8L13,48.9V55Z" fill="#7ccbbc"/><path d="M22.8,55V47.2H20V45.6h7.5v1.6H24.7V55Z" fill="#7ccbbc"/><path d="M28.7,55V45.6h7v1.6H30.6v2.1h4.7v1.6H30.6v2.6h5.3V55Z" fill="#7ccbbc"/><path d="M37.6,55V45.7h1.9v7.7h4.7V55Z" fill="#7ccbbc"/><path d="M45.6,55V45.7h1.9v7.7h4.7V55Z" fill="#7ccbbc"/><path d="M53.5,55V45.6h1.9V55Z" fill="#7ccbbc"/><path d="M61.6,51.6V50h4.1v3.7a5.2,5.2,0,0,1-1.7,1,6.3,6.3,0,0,1-2.3.4,5.1,5.1,0,0,1-2.6-.6,3.9,3.9,0,0,1-1.6-1.8,5.7,5.7,0,0,1-.6-2.5,5.4,5.4,0,0,1,.6-2.6,4.1,4.1,0,0,1,1.8-1.8,4.9,4.9,0,0,1,2.3-.5,4.5,4.5,0,0,1,2.7.7,3.3,3.3,0,0,1,1.3,2l-1.9.4a2,2,0,0,0-.7-1.1,2.3,2.3,0,0,0-1.4-.4,2.6,2.6,0,0,0-2,.8,3.3,3.3,0,0,0-.7,2.3,3.7,3.7,0,0,0,.7,2.5,2.5,2.5,0,0,0,2,.8l1.2-.2,1-.6V51.6Z" fill="#7ccbbc"/><path d="M67.4,55V45.6h7v1.6H69.3v2.1h4.7v1.6H69.3v2.6h5.3V55Z" fill="#7ccbbc"/><path d="M76.2,55V45.6h1.8l3.8,6.3V45.6h1.8V55H81.8L78,48.9V55Z" fill="#7ccbbc"/><path d="M87.8,55V47.2H85V45.6h7.5v1.6H89.7V55Z" fill="#7ccbbc"/><path d="M27.1,72V62.6h6.4v1.6H29v2.2h3.9V68H29v4Z" fill="#d2de43"/><path d="M35,72V62.6h1.9V72Z" fill="#d2de43"/><path d="M47.2,72H45.2l-.8-2.1H40.6L39.8,72h-2l3.7-9.4h2Zm-3.5-3.7-1.3-3.5-1.3,3.5Z" fill="#d2de43"/><path d="M48.2,62.6h5.4l1,.4a2.4,2.4,0,0,1,.7.8,2.1,2.1,0,0,1,.3,1.1,2.2,2.2,0,0,1-1.3,2,2.5,2.5,0,0,1,1.3.9,2.3,2.3,0,0,1,.5,1.4,2.8,2.8,0,0,1-.3,1.2,2.5,2.5,0,0,1-.8,1,2.7,2.7,0,0,1-1.3.4H48.2Zm1.9,1.6v2.2h2.6a1.3,1.3,0,0,0,.8-.3,1,1,0,0,0,.3-.7,1,1,0,0,0-.2-.7,1.1,1.1,0,0,0-.7-.3H50.1Zm0,3.7v2.5h3.1a1.2,1.2,0,0,0,.7-.4,1.2,1.2,0,0,0,.3-.8,1.2,1.2,0,0,0-.2-.7l-.6-.4H50.1Z" fill="#d2de43"/><path d="M57.8,72V62.6h1.9v7.7h4.7V72Z" fill="#d2de43"/><path d="M65.8,72V62.6h7v1.6H67.7v2.1h4.7v1.6H67.7v2.6h5.3V72Z" fill="#d2de43"/></svg>