<svg id="Layer_1" data-name="Layer 1" xmlns="http://www.w3.org/2000/svg" xmlns:xlink="http://www.w3.org/1999/xlink" width="1920" height="300" viewBox="0 0 1920 300"><defs><clipPath id="clip-path"><rect y="120" width="1920" height="180" fill="none"/></clipPath></defs><title>Artboard 1</title><g clip-path="url(#clip-path)"><path d="M29.1,134.2v10.3a20.9,20.9,0,1,0,19.3,19.3H58.7a31.2,31.2,0,0,1-62,6.4l6.6-6.6-6-6.1a31.2,31.2,0,0,1,31.8-23.4" fill="#008ab1"/><polygon points="-21.8 185.2 -36.8 200.2 -44.1 192.9 -7.5 156.4 -0.2 163.7 -14.5 177.9 22.4 214.7 15.1 222.1 -21.8 185.2" fill="#008ab1"/><path d="M138.7,159.7V170A20.9,20.9,0,1,0,158,189.4h10.3a31.2,31.2,0,0,1-62,6.4l6.6-6.6-6-6.1a31.2,31.2,0,0,1,31.8-23.4" fill="#00698c"/><polygon points="87.8 210.7 72.8 225.7 65.5 218.4 102 181.8 109.3 189.1 95.1 203.4 131.9 240.2 124.6 247.5 87.8 210.7" fill="#00698c"/><path d="M160.6,229.3V219a20.9,20.9,0,1,0-19.3-19.3H131a31.2,31.2,0,0,1,62-6.4l-6.6,6.6,6,6.1a31.2,31.2,0,0,1-31.8,23.4" fill="#008ab1"/><polygon points="211.5 178.4 226.5 163.4 233.8 170.7 197.3 207.2 190 199.9 204.2 185.7 167.3 148.8 174.7 141.5 211.5 178.4" fill="#008ab1"/><path d="M.2,220.9v10.3a20.9,20.9,0,0,0-16.3,6.1,20.9,20.9,0,0,0,0,29.6,20.9,20.9,0,0,0,29.6,0,20.9,20.9,0,0,0,6.1-16.3H29.9a31.1,31.1,0,0,1-9.1,23.6,31.2,31.2,0,0,1-44.2,0,31.1,31.1,0,0,1-8.8-17.2l6.6-6.6-6-6.1A31.1,31.1,0,0,1-23.4,230,31.1,31.1,0,0,1,.2,220.9" fill="#00698c"/><path d="M22.2,290.5V280.2A20.9,20.9,0,1,0,2.9,260.8H-7.5a31.2,31.2,0,0,1,62-6.4L47.9,261l6,6.1a31.2,31.2,0,0,1-31.8,23.4" fill="#7cccbd"/><polygon points="73 239.5 88 224.5 95.4 231.8 58.8 268.4 51.5 261.1 65.7 246.8 28.9 210 36.2 202.7 73 239.5" fill="#7cccbd"/><path d="M386.7,124v10.3A20.9,20.9,0,1,0,406,153.7h10.3a31.2,31.2,0,0,1-62,6.4l6.6-6.6-6-6.1A31.2,31.2,0,0,1,386.7,124" fill="#00698c"/><polygon points="335.8 175 320.8 190 313.5 182.7 350.1 146.2 357.4 153.5 343.1 167.7 380 204.6 372.7 211.9 335.8 175" fill="#00698c"/><path d="M248.2,185.2v10.3a20.9,20.9,0,1,0,19.3,19.3h10.3a31.2,31.2,0,0,1-62,6.4l6.6-6.6-6-6.1a31.2,31.2,0,0,1,31.8-23.4" fill="#d3df44"/><polygon points="197.4 236.2 182.4 251.2 175.1 243.9 211.6 207.3 218.9 214.6 204.7 228.9 241.5 265.7 234.2 273 197.4 236.2" fill="#d3df44"/><path d="M270.2,254.8V244.5a20.9,20.9,0,1,0-19.3-19.3H240.6a31.2,31.2,0,0,1,62-6.4l-6.6,6.6,6,6.1a31.2,31.2,0,0,1-31.8,23.4" fill="#7cccbd"/><polygon points="321.1 203.8 336.1 188.8 343.4 196.1 306.8 232.7 299.5 225.4 313.8 211.1 276.9 174.3 284.2 167 321.1 203.8" fill="#7cccbd"/><path d="M109.8,246.4v10.3A20.9,20.9,0,1,0,129.1,276h10.3a31.2,31.2,0,0,1-62,6.4l6.6-6.6-6-6.1a31.2,31.2,0,0,1,31.8-23.4" fill="#00698c"/><polygon points="58.9 297.3 43.9 312.3 36.6 305 73.1 268.5 80.5 275.8 66.2 290 103.1 326.9 95.8 334.2 58.9 297.3" fill="#00698c"/><path d="M131.8,316V305.6a20.9,20.9,0,1,0-19.3-19.3H102.1a31.2,31.2,0,0,1,62-6.4l-6.6,6.6,6,6.1A31.2,31.2,0,0,1,131.8,316" fill="#df6420"/><polygon points="182.6 265 197.6 250 204.9 257.3 168.4 293.8 161.1 286.5 175.3 272.3 138.5 235.4 145.8 228.1 182.6 265" fill="#df6420"/><polygon points="44.2 326.2 59.2 311.2 66.5 318.5 29.9 355 22.6 347.7 36.9 333.5 0 296.6 7.3 289.3 44.2 326.2" fill="#008ab1"/><path d="M496.3,149.5v10.3a20.9,20.9,0,1,0,19.3,19.3h10.3a31.2,31.2,0,0,1-62,6.4l6.6-6.6-6-6.1a31.2,31.2,0,0,1,31.8-23.4" fill="#df6420"/><polygon points="445.4 200.5 430.4 215.5 423.1 208.2 459.6 171.6 466.9 178.9 452.7 193.2 489.6 230 482.2 237.3 445.4 200.5" fill="#df6420"/><path d="M518.2,219.1V208.8a20.9,20.9,0,1,0-19.3-19.3H488.6a31.2,31.2,0,0,1,62-6.4l-6.6,6.6,6,6.1a31.2,31.2,0,0,1-31.8,23.4" fill="#00698c"/><polygon points="569.1 168.2 584.1 153.2 591.4 160.5 554.9 197 547.6 189.7 561.8 175.5 525 138.6 532.3 131.3 569.1 168.2" fill="#00698c"/><path d="M357.8,210.7V221a20.9,20.9,0,1,0,19.3,19.3h10.3a31.2,31.2,0,0,1-62,6.4l6.6-6.6-6-6.1a31.2,31.2,0,0,1,31.8-23.4" fill="#00698c"/><polygon points="306.9 261.6 291.9 276.6 284.6 269.3 321.2 232.8 328.5 240.1 314.2 254.3 351.1 291.2 343.8 298.5 306.9 261.6" fill="#00698c"/><path d="M379.8,280.3V270a20.9,20.9,0,1,0-19.3-19.3H350.1a31.2,31.2,0,0,1,62-6.4l-6.6,6.6,6,6.1a31.2,31.2,0,0,1-31.8,23.4" fill="#008ab1"/><polygon points="430.7 229.3 445.7 214.3 453 221.6 416.4 258.2 409.1 250.9 423.4 236.6 386.5 199.8 393.8 192.5 430.7 229.3" fill="#008ab1"/><path d="M219.4,271.8v10.3a20.9,20.9,0,1,0,19.3,19.3H249a31.2,31.2,0,0,1-62,6.4l6.6-6.6-6-6.1a31.2,31.2,0,0,1,31.8-23.4" fill="#00698c"/><polygon points="168.5 322.8 153.5 337.8 146.2 330.5 182.7 294 190 301.3 175.8 315.5 212.6 352.4 205.3 359.7 168.5 322.8" fill="#00698c"/><path d="M241.3,341.4V331.1A20.9,20.9,0,1,0,222,311.8H211.7a31.2,31.2,0,0,1,62-6.4l-6.6,6.6,6,6.1a31.2,31.2,0,0,1-31.8,23.4" fill="#008ab1"/><polygon points="292.2 290.5 307.2 275.5 314.5 282.8 278 319.3 270.7 312 284.9 297.8 248 260.9 255.3 253.6 292.2 290.5" fill="#008ab1"/><path d="M605.8,175v10.3a20.9,20.9,0,1,0,19.3,19.3h10.3a31.2,31.2,0,0,1-62,6.4l6.6-6.6-6-6.1A31.2,31.2,0,0,1,605.8,175" fill="#7cccbd"/><polygon points="555 226 540 241 532.7 233.7 569.2 197.1 576.5 204.4 562.3 218.7 599.1 255.5 591.8 262.8 555 226" fill="#7cccbd"/><path d="M627.8,244.6V234.3A20.9,20.9,0,1,0,608.5,215H598.2a31.2,31.2,0,0,1,62-6.4l-6.6,6.6,6,6.1a31.2,31.2,0,0,1-31.8,23.4" fill="#008ab1"/><polygon points="678.7 193.6 693.7 178.6 701 185.9 664.5 222.5 657.1 215.2 671.4 200.9 634.5 164.1 641.8 156.8 678.7 193.6" fill="#008ab1"/><path d="M467.4,236.2v10.3a20.9,20.9,0,1,0,19.3,19.3H497a31.2,31.2,0,0,1-62,6.4l6.6-6.6-6-6.1a31.2,31.2,0,0,1,31.8-23.4" fill="#d3df44"/><polygon points="416.5 287.1 401.5 302.1 394.2 294.8 430.8 258.3 438.1 265.6 423.8 279.8 460.7 316.7 453.4 324 416.5 287.1" fill="#d3df44"/><path d="M489.4,305.8V295.4A20.9,20.9,0,1,0,470,276.1H459.7a31.2,31.2,0,0,1,62-6.4l-6.6,6.6,6,6.1a31.2,31.2,0,0,1-31.8,23.4" fill="#00698c"/><polygon points="540.2 254.8 555.2 239.8 562.5 247.1 526 283.7 518.7 276.3 532.9 262.1 496.1 225.3 503.4 217.9 540.2 254.8" fill="#00698c"/><path d="M328.9,297.3v10.3A20.9,20.9,0,1,0,348.3,327h10.3a31.2,31.2,0,0,1-62,6.4l6.6-6.6-6-6.1a31.2,31.2,0,0,1,31.8-23.4" fill="#df6420"/><polygon points="401.8 316 416.8 301 424.1 308.3 387.5 344.8 380.2 337.5 394.5 323.3 357.6 286.4 364.9 279.1 401.8 316" fill="#7cccbd"/><path d="M853.9,139.3v10.3A20.9,20.9,0,1,0,873.2,169h10.3a31.2,31.2,0,0,1-62,6.4l6.6-6.6-6-6.1a31.2,31.2,0,0,1,31.8-23.4" fill="#00698c"/><polygon points="803 190.3 788 205.3 780.7 198 817.2 161.4 824.6 168.8 810.3 183 847.2 219.8 839.9 227.2 803 190.3" fill="#00698c"/><path d="M715.4,200.5v10.3a20.9,20.9,0,1,0,19.3,19.3h10.3a31.2,31.2,0,0,1-62,6.4l6.6-6.6-6-6.1a31.2,31.2,0,0,1,31.8-23.4" fill="#df6420"/><polygon points="664.5 251.5 649.6 266.5 642.2 259.1 678.8 222.6 686.1 229.9 671.9 244.2 708.7 281 701.4 288.3 664.5 251.5" fill="#df6420"/><path d="M737.4,270.1V259.8a20.9,20.9,0,1,0-19.3-19.3H707.7a31.2,31.2,0,0,1,62-6.4l-6.6,6.6,6,6.1a31.2,31.2,0,0,1-31.8,23.4" fill="#7cccbd"/><polygon points="788.3 219.1 803.3 204.1 810.6 211.4 774 248 766.7 240.7 781 226.4 744.1 189.6 751.4 182.3 788.3 219.1" fill="#7cccbd"/><path d="M577,261.6V272a20.9,20.9,0,1,0,19.3,19.3h10.3a31.2,31.2,0,0,1-62,6.4l6.6-6.6-6-6.1A31.2,31.2,0,0,1,577,261.6" fill="#008ab1"/><polygon points="526.1 312.6 511.1 327.6 503.8 320.3 540.3 283.8 547.6 291.1 533.4 305.3 570.3 342.2 562.9 349.5 526.1 312.6" fill="#008ab1"/><path d="M598.9,331.3V320.9a20.9,20.9,0,1,0-19.3-19.3H569.3a31.2,31.2,0,0,1,62-6.4l-6.6,6.6,6,6.1a31.2,31.2,0,0,1-31.8,23.4" fill="#d3df44"/><polygon points="649.8 280.3 664.8 265.3 672.1 272.6 635.6 309.1 628.3 301.8 642.5 287.6 605.7 250.7 613 243.4 649.8 280.3" fill="#d3df44"/><path d="M963.4,164.8v10.3a20.9,20.9,0,1,0,19.3,19.3h10.3a31.2,31.2,0,0,1-62,6.4l6.6-6.6-6-6.1a31.2,31.2,0,0,1,31.8-23.4" fill="#7cccbd"/><polygon points="912.6 215.8 897.6 230.8 890.3 223.5 926.8 186.9 934.1 194.2 919.9 208.5 956.7 245.3 949.4 252.6 912.6 215.8" fill="#7cccbd"/><path d="M985.4,234.4V224.1a20.9,20.9,0,1,0-19.3-19.3H955.8a31.2,31.2,0,0,1,62-6.4l-6.6,6.6,6,6.1a31.2,31.2,0,0,1-31.8,23.4" fill="#00698c"/><polygon points="1036.3 183.4 1051.3 168.4 1058.6 175.8 1022.1 212.3 1014.8 205 1029 190.8 992.1 153.9 999.4 146.6 1036.3 183.4" fill="#00698c"/><path d="M825,226v10.3a20.9,20.9,0,1,0,19.3,19.3h10.3a31.2,31.2,0,0,1-62,6.4l6.6-6.6-6-6.1A31.2,31.2,0,0,1,825,226" fill="#d3df44"/><polygon points="774.1 276.9 759.1 291.9 751.8 284.6 788.4 248.1 795.7 255.4 781.4 269.6 818.3 306.5 811 313.8 774.1 276.9" fill="#d3df44"/><path d="M847,295.6V285.3a20.9,20.9,0,1,0-19.3-19.3H817.3a31.2,31.2,0,0,1,62-6.4l-6.6,6.6,6,6.1A31.2,31.2,0,0,1,847,295.6" fill="#00698c"/><polygon points="897.8 244.6 912.8 229.6 920.1 236.9 883.6 273.5 876.3 266.2 890.5 251.9 853.7 215.1 861 207.8 897.8 244.6" fill="#00698c"/><path d="M686.5,287.1v10.3a20.9,20.9,0,1,0,19.3,19.3h10.3a31.2,31.2,0,0,1-62,6.4l6.6-6.6-6-6.1a31.2,31.2,0,0,1,31.8-23.4" fill="#7cccbd"/><path d="M708.5,356.7V346.4a20.9,20.9,0,1,0-19.3-19.3H678.9a31.2,31.2,0,0,1,62-6.4l-6.6,6.6,6,6.1a31.2,31.2,0,0,1-31.8,23.4" fill="#008ab1"/><polygon points="759.4 305.8 774.4 290.8 781.7 298.1 745.1 334.6 737.8 327.3 752.1 313.1 715.2 276.2 722.5 268.9 759.4 305.8" fill="#008ab1"/><path d="M1211.5,129.1v10.3a20.9,20.9,0,1,0,19.3,19.3h10.3a31.2,31.2,0,0,1-62,6.4l6.6-6.6-6-6.1a31.2,31.2,0,0,1,31.8-23.4" fill="#00698c"/><polygon points="1160.6 180.1 1145.6 195.1 1138.3 187.8 1174.9 151.3 1182.2 158.6 1167.9 172.8 1204.8 209.7 1197.5 217 1160.6 180.1" fill="#00698c"/><path d="M1073,190.3v10.3a20.9,20.9,0,1,0,19.3,19.3h10.3a31.2,31.2,0,0,1-62,6.4l6.6-6.6-6-6.1a31.2,31.2,0,0,1,31.8-23.4" fill="#008ab1"/><polygon points="1022.2 241.3 1007.2 256.3 999.9 249 1036.4 212.4 1043.7 219.7 1029.5 234 1066.3 270.8 1059 278.1 1022.2 241.3" fill="#008ab1"/><path d="M1095,259.9V249.6a20.9,20.9,0,1,0-19.3-19.3h-10.3a31.2,31.2,0,0,1,62-6.4l-6.6,6.6,6,6.1a31.2,31.2,0,0,1-31.8,23.4" fill="#d3df44"/><polygon points="1145.9 208.9 1160.9 193.9 1168.2 201.2 1131.6 237.8 1124.3 230.5 1138.6 216.2 1101.7 179.4 1109 172.1 1145.9 208.9" fill="#d3df44"/><path d="M934.6,251.5v10.3a20.9,20.9,0,1,0,19.3,19.3h10.3a31.2,31.2,0,0,1-62,6.4l6.6-6.6-6-6.1a31.2,31.2,0,0,1,31.8-23.4" fill="#008ab1"/><polygon points="883.7 302.4 868.7 317.4 861.4 310.1 897.9 273.6 905.2 280.9 891 295.1 927.9 332 920.6 339.3 883.7 302.4" fill="#008ab1"/><path d="M956.6,321.1V310.7a20.9,20.9,0,1,0-19.3-19.3H926.9a31.2,31.2,0,0,1,62-6.4l-6.6,6.6,6,6.1a31.2,31.2,0,0,1-31.8,23.4" fill="#00698c"/><polygon points="1007.4 270.1 1022.4 255.1 1029.7 262.4 993.2 298.9 985.9 291.6 1000.1 277.4 963.3 240.5 970.6 233.2 1007.4 270.1" fill="#00698c"/><polygon points="869 331.2 884 316.3 891.3 323.6 854.7 360.1 847.4 352.8 861.7 338.6 824.8 301.7 832.1 294.4 869 331.2" fill="#7cccbd"/><path d="M1321.1,154.6v10.3a20.9,20.9,0,1,0,19.3,19.3h10.3a31.2,31.2,0,0,1-62,6.4l6.6-6.6-6-6.1a31.2,31.2,0,0,1,31.8-23.4" fill="#00698c"/><polygon points="1270.2 205.6 1255.2 220.6 1247.9 213.3 1284.4 176.7 1291.7 184 1277.5 198.3 1314.3 235.1 1307 242.4 1270.2 205.6" fill="#00698c"/><path d="M1343,224.2V213.9a20.9,20.9,0,1,0-19.3-19.3h-10.3a31.2,31.2,0,0,1,62-6.4l-6.6,6.6,6,6.1a31.2,31.2,0,0,1-31.8,23.4" fill="#df6420"/><polygon points="1393.9 173.3 1408.9 158.3 1416.2 165.6 1379.7 202.1 1372.4 194.8 1386.6 180.6 1349.7 143.7 1357.1 136.4 1393.9 173.3" fill="#df6420"/><path d="M1182.6,215.8v10.3a20.9,20.9,0,1,0,19.3,19.3h10.3a31.2,31.2,0,0,1-62,6.4l6.6-6.6-6-6.1a31.2,31.2,0,0,1,31.8-23.4" fill="#00698c"/><polygon points="1131.7 266.7 1116.7 281.7 1109.4 274.4 1146 237.9 1153.3 245.2 1139 259.4 1175.9 296.3 1168.6 303.6 1131.7 266.7" fill="#00698c"/><path d="M1204.6,285.4V275.1a20.9,20.9,0,1,0-19.3-19.3h-10.3a31.2,31.2,0,0,1,62-6.4l-6.6,6.6,6,6.1a31.2,31.2,0,0,1-31.8,23.4" fill="#7cccbd"/><polygon points="1255.5 234.4 1270.4 219.4 1277.8 226.7 1241.2 263.3 1233.9 256 1248.1 241.7 1211.3 204.9 1218.6 197.6 1255.5 234.4" fill="#7cccbd"/><path d="M1044.1,276.9v10.3a20.9,20.9,0,1,0,19.3,19.3h10.3a31.2,31.2,0,0,1-62,6.4l6.6-6.6-6-6.1a31.2,31.2,0,0,1,31.8-23.4" fill="#df6420"/><polygon points="993.3 327.9 978.3 342.9 971 335.6 1007.5 299.1 1014.8 306.4 1000.6 320.6 1037.4 357.5 1030.1 364.8 993.3 327.9" fill="#df6420"/><path d="M1066.1,346.5V336.2a20.9,20.9,0,1,0-19.3-19.3h-10.3a31.2,31.2,0,0,1,62-6.4l-6.6,6.6,6,6.1a31.2,31.2,0,0,1-31.8,23.4" fill="#7cccbd"/><polygon points="1117 295.6 1132 280.6 1139.3 287.9 1102.8 324.4 1095.4 317.1 1109.7 302.9 1072.8 266 1080.1 258.7 1117 295.6" fill="#7cccbd"/><path d="M1430.6,180.1v10.3a20.9,20.9,0,1,0,19.3,19.3h10.3a31.2,31.2,0,0,1-62,6.4l6.6-6.6-6-6.1a31.2,31.2,0,0,1,31.8-23.4" fill="#00698c"/><polygon points="1379.8 231.1 1364.8 246.1 1357.5 238.8 1394 202.2 1401.3 209.5 1387.1 223.8 1423.9 260.6 1416.6 267.9 1379.8 231.1" fill="#00698c"/><path d="M1452.6,249.7V239.4a20.9,20.9,0,1,0-19.3-19.3H1423a31.2,31.2,0,0,1,62-6.4l-6.6,6.6,6,6.1a31.2,31.2,0,0,1-31.8,23.4" fill="#7cccbd"/><polygon points="1503.5 198.7 1518.5 183.7 1525.8 191 1489.2 227.6 1481.9 220.3 1496.2 206 1459.3 169.2 1466.6 161.9 1503.5 198.7" fill="#7cccbd"/><path d="M1292.2,241.3v10.3a20.9,20.9,0,1,0,19.3,19.3h10.3a31.2,31.2,0,0,1-62,6.4l6.6-6.6-6-6.1a31.2,31.2,0,0,1,31.8-23.4" fill="#008ab1"/><polygon points="1241.3 292.2 1226.3 307.2 1219 299.9 1255.5 263.4 1262.9 270.7 1248.6 284.9 1285.5 321.8 1278.2 329.1 1241.3 292.2" fill="#008ab1"/><path d="M1314.2,310.9V300.5a20.9,20.9,0,1,0-19.3-19.3h-10.3a31.2,31.2,0,0,1,62-6.4l-6.6,6.6,6,6.1a31.2,31.2,0,0,1-31.8,23.4" fill="#00698c"/><polygon points="1365 259.9 1380 244.9 1387.3 252.2 1350.8 288.7 1343.5 281.4 1357.7 267.2 1320.9 230.3 1328.2 223 1365 259.9" fill="#00698c"/><polygon points="1226.6 321.1 1241.6 306.1 1248.9 313.4 1212.3 349.9 1205 342.6 1219.3 328.4 1182.4 291.5 1189.7 284.2 1226.6 321.1" fill="#00698c"/><path d="M1678.7,144.4v10.3a20.9,20.9,0,1,0,19.3,19.3h10.3a31.2,31.2,0,0,1-62,6.4l6.6-6.6-6-6.1a31.2,31.2,0,0,1,31.8-23.4" fill="#00698c"/><polygon points="1627.8 195.4 1612.8 210.4 1605.5 203.1 1642 166.5 1649.3 173.8 1635.1 188.1 1672 224.9 1664.7 232.2 1627.8 195.4" fill="#00698c"/><path d="M1700.6,214V203.7a20.9,20.9,0,1,0-19.3-19.3H1671a31.2,31.2,0,0,1,62-6.4l-6.6,6.6,6,6.1a31.2,31.2,0,0,1-31.8,23.4" fill="#7cccbd"/><polygon points="1751.5 163.1 1766.5 148.1 1773.8 155.4 1737.3 191.9 1730 184.6 1744.2 170.4 1707.4 133.5 1714.7 126.2 1751.5 163.1" fill="#7cccbd"/><path d="M1540.2,205.6v10.3a20.9,20.9,0,1,0,19.3,19.3h10.3a31.2,31.2,0,0,1-62,6.4l6.6-6.6-6-6.1a31.2,31.2,0,0,1,31.8-23.4" fill="#00698c"/><polygon points="1489.3 256.6 1474.3 271.6 1467 264.2 1503.6 227.7 1510.9 235 1496.6 249.2 1533.5 286.1 1526.2 293.4 1489.3 256.6" fill="#00698c"/><path d="M1562.2,275.2V264.9a20.9,20.9,0,1,0-19.3-19.3h-10.3a31.2,31.2,0,0,1,62-6.4l-6.6,6.6,6,6.1a31.2,31.2,0,0,1-31.8,23.4" fill="#008ab1"/><polygon points="1613.1 224.2 1628.1 209.2 1635.4 216.5 1598.8 253.1 1591.5 245.8 1605.8 231.5 1568.9 194.7 1576.2 187.4 1613.1 224.2" fill="#008ab1"/><path d="M1401.8,266.7v10.3a20.9,20.9,0,1,0,19.3,19.3h10.3a31.2,31.2,0,0,1-62,6.4l6.6-6.6-6-6.1a31.2,31.2,0,0,1,31.8-23.4" fill="#d3df44"/><polygon points="1350.9 317.7 1335.9 332.7 1328.6 325.4 1365.1 288.9 1372.4 296.2 1358.2 310.4 1395 347.3 1387.7 354.6 1350.9 317.7" fill="#d3df44"/><path d="M1423.7,336.4V326a20.9,20.9,0,1,0-19.3-19.3h-10.3a31.2,31.2,0,0,1,62-6.4l-6.6,6.6,6,6.1a31.2,31.2,0,0,1-31.8,23.4" fill="#7cccbd"/><polygon points="1474.6 285.4 1489.6 270.4 1496.9 277.7 1460.4 314.2 1453.1 306.9 1467.3 292.7 1430.4 255.8 1437.8 248.5 1474.6 285.4" fill="#7cccbd"/><path d="M1788.2,169.9v10.3a20.9,20.9,0,1,0,19.3,19.3h10.3a31.2,31.2,0,0,1-62,6.4l6.6-6.6-6-6.1a31.2,31.2,0,0,1,31.8-23.4" fill="#00698c"/><polygon points="1737.4 220.9 1722.4 235.9 1715.1 228.6 1751.6 192 1758.9 199.3 1744.7 213.6 1781.5 250.4 1774.2 257.7 1737.4 220.9" fill="#00698c"/><path d="M1810.2,239.5V229.2a20.9,20.9,0,1,0-19.3-19.3h-10.3a31.2,31.2,0,0,1,62-6.4l-6.6,6.6,6,6.1a31.2,31.2,0,0,1-31.8,23.4" fill="#d3df44"/><polygon points="1861.1 188.5 1876.1 173.5 1883.4 180.9 1846.9 217.4 1839.5 210.1 1853.8 195.8 1816.9 159 1824.2 151.7 1861.1 188.5" fill="#d3df44"/><path d="M1649.8,231.1v10.3a20.9,20.9,0,1,0,19.3,19.3h10.3a31.2,31.2,0,0,1-62,6.4l6.6-6.6-6-6.1a31.2,31.2,0,0,1,31.8-23.4" fill="#df6420"/><polygon points="1598.9 282 1583.9 297 1576.6 289.7 1613.2 253.2 1620.5 260.5 1606.2 274.7 1643.1 311.6 1635.8 318.9 1598.9 282" fill="#df6420"/><path d="M1671.8,300.7V290.4a20.9,20.9,0,1,0-19.3-19.3h-10.3a31.2,31.2,0,0,1,62-6.4l-6.6,6.6,6,6.1a31.2,31.2,0,0,1-31.8,23.4" fill="#00698c"/><polygon points="1722.6 249.7 1737.6 234.7 1744.9 242 1708.4 278.6 1701.1 271.2 1715.3 257 1678.5 220.2 1685.8 212.9 1722.6 249.7" fill="#00698c"/><path d="M1511.3,292.2v10.3a20.9,20.9,0,1,0,19.3,19.3H1541a31.2,31.2,0,0,1-62,6.4l6.6-6.6-6-6.1a31.2,31.2,0,0,1,31.8-23.4" fill="#00698c"/><path d="M1533.3,361.8V351.5a20.9,20.9,0,1,0-19.3-19.3h-10.3a31.2,31.2,0,0,1,62-6.4l-6.6,6.6,6,6.1a31.2,31.2,0,0,1-31.8,23.4" fill="#7cccbd"/><polygon points="1584.2 310.9 1599.2 295.9 1606.5 303.2 1569.9 339.7 1562.6 332.4 1576.9 318.2 1540 281.3 1547.3 274 1584.2 310.9" fill="#7cccbd"/><path d="M1897.8,195.4v10.3a20.9,20.9,0,1,0,19.3,19.3h10.3a31.2,31.2,0,0,1-62,6.4l6.6-6.6-6-6.1a31.2,31.2,0,0,1,31.8-23.4" fill="#00698c"/><polygon points="1847 246.4 1832 261.4 1824.6 254.1 1861.2 217.5 1868.5 224.8 1854.3 239.1 1891.1 275.9 1883.8 283.2 1847 246.4" fill="#00698c"/><path d="M1919.8,265V254.7a20.9,20.9,0,1,0-19.3-19.3h-10.3a31.2,31.2,0,0,1,62-6.4l-6.6,6.6,6,6.1a31.2,31.2,0,0,1-31.8,23.4" fill="#7cccbd"/><path d="M1759.4,256.5v10.3a20.9,20.9,0,1,0,19.3,19.3H1789a31.2,31.2,0,0,1-62,6.4l6.6-6.6-6-6.1a31.2,31.2,0,0,1,31.8-23.4" fill="#7cccbd"/><polygon points="1708.5 307.5 1693.5 322.5 1686.2 315.2 1722.7 278.7 1730 286 1715.8 300.2 1752.7 337.1 1745.3 344.4 1708.5 307.5" fill="#7cccbd"/><path d="M1781.3,326.2V315.8a20.9,20.9,0,1,0-19.3-19.3h-10.3a31.2,31.2,0,0,1,62-6.4l-6.6,6.6,6,6.1a31.2,31.2,0,0,1-31.8,23.4" fill="#df6420"/><polygon points="1832.2 275.2 1847.2 260.2 1854.5 267.5 1818 304 1810.7 296.7 1824.9 282.5 1788.1 245.6 1795.4 238.3 1832.2 275.2" fill="#df6420"/><polygon points="1693.8 336.3 1708.8 321.3 1716.1 328.7 1679.5 365.2 1672.2 357.9 1686.4 343.6 1649.6 306.8 1656.9 299.5 1693.8 336.3" fill="#d3df44"/><path d="M1868.9,282v10.3a20.9,20.9,0,1,0,19.3,19.3h10.3a31.2,31.2,0,0,1-62,6.4l6.6-6.6-6-6.1a31.2,31.2,0,0,1,31.8-23.4" fill="#00698c"/><path d="M1890.9,351.6V341.3a20.9,20.9,0,1,0-19.3-19.3h-10.3a31.2,31.2,0,0,1,62-6.4l-6.6,6.6,6,6.1a31.2,31.2,0,0,1-31.8,23.4" fill="#008ab1"/><polygon points="1941.8 300.7 1956.8 285.7 1964.1 293 1927.5 329.5 1920.2 322.2 1934.5 308 1897.6 271.1 1904.9 263.8 1941.8 300.7" fill="#008ab1"/></g></svg>