<svg id="Layer_1" data-name="Layer 1" xmlns="http://www.w3.org/2000/svg" width="200" height="140" viewBox="0 0 200 140"><title>Artboard 1</title><rect width="200" height="140" fill="#00698c"/><rect x="118.3" y="70.1" width="5.4" height="11.74" rx="2.7" ry="2.7" transform="translate(151 -63.7) rotate(70)" fill="#ceab97"/><rect x="119.9" y="75" width="5.4" height="12.61" rx="2.7" ry="2.7" transform="translate(157 -61.7) rotate(70)" fill="#ceab97"/><rect x="120.4" y="80.6" width="5.4" height="12.09" rx="2.7" ry="2.7" transform="translate(162.4 -58.7) rotate(70)" fill="#ceab97"/><rect x="120.3" y="86.7" width="5.4" height="10.56" rx="2.7" ry="2.7" transform="translate(167.3 -55) rotate(70)" fill="#ceab97"/><rect x="113.3" y="68.4" width="5.4" height="12.47" rx="2.7" ry="2.7" transform="translate(190.7 -41.4) rotate(90)" fill="#dabbaa"/><polygon points="153.3 64.7 134.5 64.7 134.5 40.8 153.3 40.8 146.3 52.8 153.3 64.7" fill="#90292a"/><rect x="121.4" y="43.4" width="15.7" height="23.89" fill="#98252b"/><polygon points="134.5 43.4 134.5 40.8 137.1 43.4 134.5 43.4" fill="#862d2c"/><circle cx="122.6" cy="47.5" r="1.1" fill="#862d2c"/><circle cx="122.6" cy="63.2" r="1.1" fill="#862d2c"/><rect x="119" y="40.4" width="2.3" height="58.07" fill="#4d4e4e"/><circle cx="120.3" cy="40.4" r="2.5" fill="#4d4e4e"/><rect x="117.6" y="46.8" width="5.5" height="1.44" rx="0.7" ry="0.7" fill="#4d4e4e"/><rect x="117.6" y="62.5" width="5.5" height="1.44" rx="0.7" ry="0.7" fill="#4d4e4e"/><rect x="91.5" y="67.9" width="13.8" height="39.57" transform="translate(167.6 -24.4) rotate(80)" fill="#dabbaa"/><rect x="104" y="77.1" width="21.5" height="15.23" rx="7.1" ry="7.1" transform="translate(178.3 -42.9) rotate(80)" fill="#dabbaa"/><rect x="116.9" y="68.6" width="5.4" height="14.24" rx="2.7" ry="2.7" transform="translate(173.4 -55.3) rotate(80)" fill="#dabbaa"/><rect x="118.4" y="73.2" width="5.4" height="15.3" rx="2.6" ry="2.6" transform="translate(179.7 -52.4) rotate(80)" fill="#dabbaa"/><rect x="119" y="78.9" width="5.4" height="14.67" rx="2.7" ry="2.7" transform="matrix(0.17, 0.98, -0.98, 0.17, 185.51, -48.57)" fill="#dabbaa"/><rect x="119" y="85.3" width="5.4" height="12.81" rx="2.7" ry="2.7" transform="translate(190.9 -44.1) rotate(80)" fill="#dabbaa"/><rect x="108.3" y="71.5" width="5.4" height="10.52" rx="2.7" ry="2.7" transform="translate(64.1 -49.8) rotate(35)" fill="#dabbaa"/><rect x="128.2" y="55.7" width="34" height="45" transform="translate(97.8 -79.7) rotate(45)" fill="#e6e6e5"/><rect x="124.8" y="55.7" width="34" height="45" transform="translate(96.9 -77.4) rotate(45)" fill="#f2f2f2"/><path d="M133.8,74.8l-2.6-2.6a.3.3,0,0,1,0-.4l2.6-2.6a.3.3,0,0,1,.4,0l2.6,2.6a.3.3,0,0,1,0,.4l-2.6,2.6A.3.3,0,0,1,133.8,74.8Zm-2-2.8,2.2,2.2,2.2-2.2L134,69.9Z" fill="#666667"/><path d="M150.4,86.3,138.8,74.6a.3.3,0,0,1,.4-.4l11.6,11.6a.3.3,0,1,1-.4.4Z" fill="#666667"/><path d="M149.1,87.6,137.5,75.9a.3.3,0,1,1,.4-.4l11.6,11.6a.3.3,0,1,1-.4.4Z" fill="#666667"/><path d="M147.8,88.9,136.2,77.2a.3.3,0,1,1,.4-.4l11.6,11.6a.3.3,0,1,1-.4.4Z" fill="#666667"/><polygon points="138.4 73.1 133.4 73.1 133.4 72.1 138.4 73.1" fill="#a02140"/><polygon points="133.4 73.1 133.4 71 134.3 73.1 133.4 73.1" fill="#a02140"/><path d="M128.6,80,126,77.4a.3.3,0,0,1,0-.4l2.6-2.6a.3.3,0,0,1,.4,0l2.6,2.6a.3.3,0,0,1,0,.4L129,80A.3.3,0,0,1,128.6,80Zm-2-2.8,2.2,2.2,2.2-2.2L128.8,75Z" fill="#666667"/><path d="M145.2,91.4,133.6,79.8a.3.3,0,0,1,.4-.4l11.6,11.6a.3.3,0,1,1-.4.4Z" fill="#666667"/><path d="M143.9,92.7,132.3,81.1a.3.3,0,1,1,.4-.4l11.6,11.6a.3.3,0,1,1-.4.4Z" fill="#666667"/><path d="M142.6,94,131,82.4a.3.3,0,0,1,.4-.4L143,93.6a.3.3,0,0,1-.4.4Z" fill="#666667"/><polygon points="133.6 77.9 128.6 77.9 128.6 76.9 133.6 77.9" fill="#a02140"/><polygon points="128.6 77.9 128.6 75.8 129.5 77.9 128.6 77.9" fill="#a02140"/><path d="M123.7,85l-2.6-2.6a.3.3,0,0,1,0-.4l2.6-2.6a.3.3,0,0,1,.4,0l2.6,2.6a.3.3,0,0,1,0,.4L124,85A.3.3,0,0,1,123.7,85Zm-2-2.8,2.2,2.2,2.2-2.2L123.9,80Z" fill="#666667"/><path d="M140.3,96.4,128.6,84.8a.3.3,0,0,1,.4-.4L140.6,96a.3.3,0,0,1-.4.4Z" fill="#666667"/><path d="M139,97.7,127.3,86a.3.3,0,0,1,.4-.4l11.6,11.6a.3.3,0,1,1-.4.4Z" fill="#666667"/><path d="M137.7,99,126.1,87.3a.3.3,0,0,1,.4-.4l11.6,11.6a.3.3,0,0,1-.4.4Z" fill="#666667"/><polygon points="128.6 82.9 123.6 82.9 123.6 81.9 128.6 82.9" fill="#a02140"/><polygon points="123.6 82.9 123.6 80.8 124.6 82.9 123.6 82.9" fill="#a02140"/><polygon points="146.6 76.3 146.1 76.8 136.2 66.9 143.5 59.6 144 60.1 137.2 66.9 146.6 76.3" fill="#50748a"/><rect x="140.8" y="61.7" width="1.7" height="8.02" transform="translate(88 -81) rotate(45)" fill="#933235"/><rect x="142.1" y="65.8" width="1.7" height="5.68" transform="translate(90.4 -81) rotate(45)" fill="#0076a9"/><rect x="143.5" y="69.4" width="1.7" height="3.86" transform="translate(92.7 -81.2) rotate(45)" fill="#ffd100"/><rect x="146.5" y="68.9" width="1.7" height="6.74" transform="translate(94.3 -83) rotate(45)" fill="#3fae2a"/><path d="M160.5,78.2l-6.7-6.7c-.1-.1,0-.2.1-.3h.3l6.7,6.7c.1.1,0,.2-.1.3Z" fill="#666667"/><path d="M159.2,79.5l-6.7-6.7c-.1-.1,0-.2.1-.3h.3l6.7,6.7c.1.1,0,.2-.1.3Z" fill="#666667"/><path d="M157.9,80.8l-6.7-6.7c-.1-.1,0-.2.1-.3h.3l6.7,6.7c.1.1,0,.2-.1.3Z" fill="#666667"/><path d="M156.6,82.1l-6.7-6.7c-.1-.1,0-.2.1-.3h.3l6.7,6.7c.1.1,0,.2-.1.3Z" fill="#666667"/><path d="M155.3,83.4l-6.7-6.7c-.1-.1,0-.2.1-.3h.3l6.7,6.7c.1.1,0,.2-.1.3Z" fill="#666667"/><path d="M154,84.7,147.3,78c-.1-.1,0-.2.1-.3h.3l6.7,6.7c.1.1,0,.2-.1.3Z" fill="#666667"/><rect x="145.3" y="64.2" width="18.2" height="2.74" transform="translate(91.6 -90) rotate(45)" fill="#666667"/><path d="M164.3,73.9h0a2.8,2.8,0,0,1,2.8,2.8V94.2a0,0,0,0,1,0,0h-5.6a0,0,0,0,1,0,0V76.7a2.8,2.8,0,0,1,2.8-2.8Z" transform="translate(248.3 -80.3) rotate(90)" fill="#98252b"/><rect x="167.8" y="83.7" width="6.3" height="0.77" rx="0.3" ry="0.3" transform="translate(255 -86.9) rotate(90)" fill="#862d2c"/><rect x="151" y="83.3" width="4.8" height="1.49" transform="translate(237.4 -69.4) rotate(90)" fill="#862d2c"/><path d="M148.5,86.7h0a13.4,13.4,0,0,0-4.7-2.5h-.1V84h.1a13.4,13.4,0,0,0,4.7-2.5h0l4.1.6v4Z" fill="#989898"/><rect x="146.3" y="81.5" width="0.2" height="5.14" transform="translate(230.4 -62.3) rotate(90)" fill="#666667"/><circle cx="148.9" cy="84" r="0.3" fill="#666667"/><path d="M68.7,40h0Z" fill="#daeff1"/><path d="M68.7,42.5h0Z" fill="#daeff1"/><path d="M68.7,44.9h0Z" fill="#daeff1"/><path d="M68.7,47.4h0Z" fill="#daeff1"/><path d="M68.7,49.9h0Z" fill="#daeff1"/><path d="M68.7,52.4h0Z" fill="#daeff1"/><path d="M68.7,54.8h0Z" fill="#daeff1"/><path d="M68.7,57.3h0Z" fill="#daeff1"/><path d="M45.2,59.5h0V37.7h.1V59.5Z" fill="#daeff1"/><path d="M47.7,59.5h0V37.7h.1V59.5Z" fill="#daeff1"/><path d="M50.1,59.5h0V37.7h.1V59.5Z" fill="#daeff1"/><path d="M52.6,59.5h0V37.7h.1V59.5Z" fill="#daeff1"/><path d="M55.1,59.5h0V37.7h.1V59.5Z" fill="#daeff1"/><path d="M57.6,59.5h0V37.7h.1V59.5Z" fill="#daeff1"/><path d="M60,59.5h0V37.7h.1V59.5Z" fill="#daeff1"/><path d="M62.5,59.5h0V37.7h.1V59.5Z" fill="#daeff1"/><path d="M65,59.5h0V37.7H65V59.5Z" fill="#daeff1"/><path d="M67.5,59.5h0V37.7h.1V59.5Z" fill="#daeff1"/><rect x="42.1" y="36.2" width="1" height="24.32" fill="#3e5160"/><rect x="56.4" y="45.2" width="1" height="29.57" transform="translate(116.9 3.1) rotate(90)" fill="#3e5160"/><rect x="45.2" y="49.9" width="2.5" height="9.64" fill="#57c9e8"/><rect x="50.1" y="47.4" width="2.5" height="12.11" fill="#99daea"/><rect x="55.1" y="44.9" width="2.5" height="14.59" fill="#57c9e8"/><rect x="60" y="49.9" width="2.5" height="9.64" fill="#99daea"/><rect x="65" y="47.4" width="2.5" height="12.11" fill="#57c9e8"/><polygon points="43.9 37 41.3 37 42.6 34.4 43.9 37" fill="#3e5160"/><polygon points="70.4 61.3 70.4 58.7 73 60 70.4 61.3" fill="#3e5160"/><circle cx="46.4" cy="47.4" r="0.6" fill="#d9272e"/><circle cx="51.4" cy="44.9" r="0.6" fill="#d9272e"/><circle cx="56.3" cy="42.4" r="0.6" fill="#d9272e"/><circle cx="61.3" cy="47.4" r="0.6" fill="#d9272e"/><circle cx="66.2" cy="44.9" r="0.6" fill="#d9272e"/><path d="M43.1,49.4H43a.1.1,0,0,1,0-.2l3.3-1.9h0l9.9-4.9h.2l4.9,4.9,4.9-2.4h0l5.4-2.1h.2a.1.1,0,0,1-.1.2L66.3,45l-4.9,2.5h-.2l-4.9-4.9-9.8,4.9-3.3,1.9Z" fill="#d9272e"/><path d="M71.7,42.9h0l-1-.4a.1.1,0,0,1-.1-.2h.2l1,.4a.1.1,0,0,1,.1.2Z" fill="#d9272e"/><path d="M71.3,43.9h0a.1.1,0,0,1-.1-.2l.4-1h.2a.1.1,0,0,1,.1.2l-.4,1Z" fill="#d9272e"/><path d="M86.7,41.2A11.1,11.1,0,1,1,75.6,30.1V41.2Z" fill="#df6420"/><path d="M87.5,40.4H76.4V29.3A11.1,11.1,0,0,1,87.5,40.4Z" fill="#a74b18"/><rect y="95.9" width="102.8" height="12.59" fill="#4c8b2b"/><path d="M102.9,49.9V37.3A35.6,35.6,0,0,0,67.3,72.9H80A23,23,0,0,1,102.9,49.9Z" fill="#3fae2a"/><path d="M102.9,37.3V49.9a23,23,0,0,1,23,23h12.7A35.6,35.6,0,0,0,102.9,37.3Z" fill="#4a7628"/><path d="M80,72.9H67.3a35.6,35.6,0,0,0,35.6,35.6V95.9A23,23,0,0,1,80,72.9Z" fill="#75b159"/><path d="M102.9,95.9v12.7a35.6,35.6,0,0,0,35.6-35.6H125.9A23,23,0,0,1,102.9,95.9Z" fill="#4c8b2b"/><polygon points="73.1 83.8 64.5 72.9 81.6 72.9 73.1 83.8" fill="#3fae2a"/><polygon points="200 102.2 189.1 110.7 189.1 93.6 200 102.2" fill="#75b159"/><polygon points="92 43.8 102.9 35.2 102.9 52.3 92 43.8" fill="#4a7628"/><polygon points="132.1 63.8 140.6 74.7 123.5 74.7 132.1 63.8" fill="#4c8b2b"/><rect x="102.8" y="95.9" width="86.4" height="12.59" fill="#75b159"/><path d="M56.1,79.3,43,66.2l7.5-7.5A50,50,0,0,1,74.3,45.4l1.5-.4a1.2,1.2,0,0,1,1.4,1.4l-.4,1.5A50,50,0,0,1,63.6,71.8Z" fill="#a4a9ad"/><path d="M63.6,71.8A50,50,0,0,0,76.9,47.9l.4-1.5a1.2,1.2,0,0,0-.3-1.1L49.5,72.8l6.6,6.6Z" fill="#c3c6c8"/><circle cx="62.3" cy="59.9" r="5.2" transform="translate(-24.1 61.6) rotate(-45)" fill="#7d868c"/><circle cx="62.3" cy="59.9" r="4.8" transform="translate(-24.1 61.6) rotate(-45)" fill="#a02140"/><circle cx="62.3" cy="59.9" r="3.5" transform="translate(-24.1 61.6) rotate(-45)" fill="#8eb8c9"/><polygon points="43 66.2 50.5 58.7 42.9 59 35.9 73.2 43 66.2" fill="#a02140"/><polygon points="56.1 79.3 63.6 71.8 63.2 79.4 49 86.3 56.1 79.3" fill="#a02140"/><rect x="41.9" y="72.4" width="13.5" height="2.35" transform="translate(66.3 -12.9) rotate(45)" fill="#a02140"/><path d="M75.9,45l-1.5.4A50,50,0,0,0,68.7,47l6.5,6.5a50,50,0,0,0,1.7-5.6l.4-1.5A1.2,1.2,0,0,0,75.9,45Z" fill="#a02140"/><path d="M50.4,76.9c-.8,3.1-1.3,8.4-10.2,10.9a3.6,3.6,0,0,0,1.4-2.6c-.8,1.8-5.2,3.9-6.6,4.7-1-2.8,0-6.6,1.3-7.9a4.6,4.6,0,0,0-2.1,1.7c1.2-10.5,7.2-11.8,10.4-12.7Z" fill="#f1f1f2" opacity="0.2"/><path d="M46.3,72.9c-1.4.4-3.6.6-4.8,4.6a1.4,1.4,0,0,1,1-.6c-.8.4-.7,2-2.1,3a3.9,3.9,0,0,0,3.6-.6,1.6,1.6,0,0,1-.7.8c4.8-.5,5.3-3.1,5.7-4.6Z" fill="#ffd100"/><path d="M43.9,77.4h0a12.3,12.3,0,0,1,2.4-3.1l.8-.7,1,1-.7.8a12.3,12.3,0,0,1-3.1,2.4h0A.3.3,0,0,1,43.9,77.4Z" fill="#f8eb60"/><path d="M32.2,82.5H61.1a.5.5,0,0,1,.5.5v18a0,0,0,0,1,0,0H31.7a0,0,0,0,1,0,0V83A.5.5,0,0,1,32.2,82.5Z" fill="#222"/><path d="M28.2,101H65.1a.2.2,0,0,1,.2.2v.9a0,0,0,0,1,0,0H28a0,0,0,0,1,0,0v-.9A.2.2,0,0,1,28.2,101Z" fill="#b1b1b1"/><path d="M62.9,102.8H30.4a4.1,4.1,0,0,1-2.4-.8H65.3A4.1,4.1,0,0,1,62.9,102.8Z" fill="#cacac9"/><rect x="32.9" y="84" width="27.5" height="15.92" fill="#222944"/><rect x="39" y="78.5" width="15.4" height="26.95" transform="translate(138.7 45.3) rotate(90)" fill="#003764"/><path d="M42.1,101h9.1a0,0,0,0,1,0,0v.3a.3.3,0,0,1-.3.3H42.4a.3.3,0,0,1-.3-.3V101a0,0,0,0,1,0,0Z" fill="#959595"/><circle cx="46.7" cy="83.4" r="0.3" fill="#959595"/><path d="M57.8,89.6h7.6a0,0,0,0,1,0,0v3.2a1.3,1.3,0,0,1-1.3,1.3H59.1a1.3,1.3,0,0,1-1.3-1.3V89.6A0,0,0,0,1,57.8,89.6Z" fill="#989898"/><rect x="57.8" y="88" width="7.6" height="1.58" fill="gray"/><rect x="57.8" y="88.5" width="7.6" height="0.68" fill="#666667"/><rect x="57.8" y="89.9" width="7.6" height="0.56" fill="gray"/><rect x="57.8" y="90.8" width="7.6" height="0.56" fill="gray"/><rect x="57.8" y="91.6" width="7.6" height="0.56" fill="gray"/><rect x="57.8" y="92.4" width="7.6" height="0.56" fill="gray"/><path d="M69,77.4A7.4,7.4,0,1,0,55.8,82a9.3,9.3,0,0,1,2,5.7V88h7.6v-.4a9,9,0,0,1,2-5.6A7.4,7.4,0,0,0,69,77.4Z" fill="#f8eb60"/><path d="M60.4,88c0-1.9,0-4.7,0-6.9l-1.9-.5c-1.1-.4-1.6-1-1.5-1.6S59,77.6,60,77.7s.8.5.8.7,0,.7,0,1.3v1h1.5V78.4c0-.2.1-.6.8-.7s2.8.4,3,1.2-.3,1.1-1.4,1.6l-1.9.6V88h-.5V81.2H60.9c0,2.1,0,4.9,0,6.8Zm3.2-9.8h-.3c-.1,0-.4.1-.4.2v2.3l1.7-.5c.8-.4,1.2-.7,1.1-1.1S64.4,78.2,63.6,78.2Zm-3.9,0c-.9,0-2.2.5-2.3,1s.4.7,1.2,1l1.8.5v-1c0-.6,0-1.1,0-1.3s-.3-.2-.4-.2Z" fill="#989898"/><path d="M59,94.1h5.1a.7.7,0,0,0-.7-.7H59.7a.7.7,0,0,0-.7.7Z" fill="gray"/><path d="M69,77.4A7.4,7.4,0,1,0,55.8,82a9.3,9.3,0,0,1,2,5.7V88h7.6v-.4a9,9,0,0,1,2-5.6A7.4,7.4,0,0,0,69,77.4Z" fill="#ffd100" opacity="0.5"/><path d="M62.1,95.6h-1a1.3,1.3,0,0,1-1.3-.9l-.2-.6h3.9l-.2.6A1.3,1.3,0,0,1,62.1,95.6Z" fill="#666667"/><path d="M61.9,71.1a6.3,6.3,0,0,0-4.2,1.6,6.3,6.3,0,0,1,3.4-1,6.2,6.2,0,0,1,6.3,6.2,6.2,6.2,0,0,1-2.1,4.6,6.2,6.2,0,0,0,2.9-5.2A6.2,6.2,0,0,0,61.9,71.1Z" fill="#f1edb9" opacity="0.45"/><path d="M61.6,67.2a.2.2,0,0,1-.2-.2V63.3a.2.2,0,1,1,.5,0v3.6A.2.2,0,0,1,61.6,67.2Z" fill="#f1d235"/><path d="M65.4,68.5h-.2a.2.2,0,0,1,0-.3l2.6-2.6h.3a.2.2,0,0,1,0,.3l-2.6,2.6Z" fill="#f1d235"/><path d="M57.8,68.5h-.2L55,65.8a.2.2,0,0,1,0-.3h.3L58,68a.2.2,0,0,1,0,.3Z" fill="#f1d235"/><path d="M54.8,71.6h-.1l-3.5-.9a.2.2,0,0,1,.1-.5l3.5.9a.2.2,0,0,1,.2.3Z" fill="#f1d235"/><path d="M68.4,71.6l-.2-.2a.2.2,0,0,1,.2-.3l3.5-.9a.2.2,0,0,1,.1.5l-3.5.9Z" fill="#f1d235"/><rect x="118.3" y="70.1" width="5.4" height="11.74" rx="2.7" ry="2.7" transform="translate(151 -63.7) rotate(70)" fill="#ceab97"/><rect x="119.9" y="75" width="5.4" height="12.61" rx="2.7" ry="2.7" transform="translate(157 -61.7) rotate(70)" fill="#ceab97"/><rect x="120.4" y="80.6" width="5.4" height="12.09" rx="2.7" ry="2.7" transform="translate(162.4 -58.7) rotate(70)" fill="#ceab97"/><rect x="120.3" y="86.7" width="5.4" height="10.56" rx="2.7" ry="2.7" transform="translate(167.3 -55) rotate(70)" fill="#ceab97"/><rect x="113.3" y="68.4" width="5.4" height="12.47" rx="2.7" ry="2.7" transform="translate(190.7 -41.4) rotate(90)" fill="#dabbaa"/><polygon points="153.3 64.7 134.5 64.7 134.5 40.8 153.3 40.8 146.3 52.8 153.3 64.7" fill="#a74b18"/><rect x="121.4" y="43.4" width="15.7" height="23.89" fill="#df6420"/><polygon points="134.5 43.4 134.5 40.8 137.1 43.4 134.5 43.4" fill="#703210"/><circle cx="122.6" cy="47.5" r="1.1" fill="#a74b18"/><circle cx="122.6" cy="63.2" r="1.1" fill="#a74b18"/><rect x="119" y="40.4" width="2.3" height="58.07" fill="#4d4e4e"/><circle cx="120.3" cy="40.4" r="2.5" fill="#4d4e4e"/><rect x="117.6" y="46.8" width="5.5" height="1.44" rx="0.7" ry="0.7" fill="#4d4e4e"/><rect x="117.6" y="62.5" width="5.5" height="1.44" rx="0.7" ry="0.7" fill="#4d4e4e"/><rect x="100.3" y="75.3" width="13.8" height="21.6" transform="translate(173.3 -34.4) rotate(80)" fill="#dabbaa"/><rect x="104" y="77.1" width="21.5" height="15.23" rx="7.1" ry="7.1" transform="translate(178.3 -42.9) rotate(80)" fill="#dabbaa"/><rect x="116.9" y="68.6" width="5.4" height="14.24" rx="2.7" ry="2.7" transform="translate(173.4 -55.3) rotate(80)" fill="#dabbaa"/><rect x="118.4" y="73.2" width="5.4" height="15.3" rx="2.6" ry="2.6" transform="translate(179.7 -52.4) rotate(80)" fill="#dabbaa"/><rect x="119" y="78.9" width="5.4" height="14.67" rx="2.7" ry="2.7" transform="matrix(0.17, 0.98, -0.98, 0.17, 185.51, -48.57)" fill="#dabbaa"/><rect x="119" y="85.3" width="5.4" height="12.81" rx="2.7" ry="2.7" transform="translate(190.9 -44.1) rotate(80)" fill="#dabbaa"/><rect x="108.3" y="71.5" width="5.4" height="10.52" rx="2.7" ry="2.7" transform="translate(64.1 -49.8) rotate(35)" fill="#dabbaa"/></svg>