<svg id="Layer_1" data-name="Layer 1" xmlns="http://www.w3.org/2000/svg" width="200" height="140" viewBox="0 0 200 140"><title>Artboard 1</title><rect width="200" height="140" fill="#eae8dd"/><path d="M152.8,38.9a19.9,19.9,0,0,0-33.7-14.2A48.9,48.9,0,0,0,104.1,21v9.3a39.6,39.6,0,0,1,9.9,2.3A19.9,19.9,0,0,0,138.1,58a39.7,39.7,0,0,1,1.6,7.9H149a48.9,48.9,0,0,0-2.7-12.5A19.8,19.8,0,0,0,152.8,38.9ZM144,40.9a10.9,10.9,0,0,1-18.2,5.2L123.9,48a1,1,0,0,1-1.6-.6l-.3-6.8a1,1,0,0,1,1-1l6.7.5a1,1,0,0,1,.6,1.6l-1.9,1.8a7.3,7.3,0,0,0,11.9-3,.6.6,0,0,1,.6-.4h2.5A.6.6,0,0,1,144,40.9Zm-.3-3.8-6.7-.5a1,1,0,0,1-.6-1.6l2-1.9a7.3,7.3,0,0,0-11.8,3,.6.6,0,0,1-.6.4h-2.5a.6.6,0,0,1-.6-.8,10.9,10.9,0,0,1,18-5.2l1.8-1.8a1,1,0,0,1,1.6.6l.3,6.8A1,1,0,0,1,143.7,37.1Z" fill="#7ccbbd"/><path d="M146.6,86a49,49,0,0,0,2.5-12.6h-9.3a39.7,39.7,0,0,1-1.5,7.9,19.9,19.9,0,0,0-24,26,39.7,39.7,0,0,1-10.1,2.4V119a48.9,48.9,0,0,0,15.4-3.9,19.9,19.9,0,0,0,27-29.2Zm-19.7,14.7,10.3-5.9-.6-1a.4.4,0,0,1,.3-.6l4.3-.2a.4.4,0,0,1,.4.6l-2.3,3.6a.4.4,0,0,1-.7,0l-.6-1-10.3,5.9a.3.3,0,0,1-.4-.1l-.5-.9A.3.3,0,0,1,126.8,100.7Zm-5.8,8.9V89.7h1.8v18.2h2.1v-4.1h3.5v4.1h1.7v-5.5h3.5v5.5h1.7v-7.6h3.5v7.6h1.7V96.3h3.5v11.6h3.7v1.8Z" fill="#b3bf35"/><path d="M63.4,96.9h0Z" fill="#038ab1"/><path d="M70.8,97h0Z" fill="#038ab1"/><path d="M63.4,97h0Zm0,0h0Zm0,0h0Zm0,0h0Zm7.8-.9-.2-.2v.2l.3.3Zm-.5.9h0Zm-7.4,0h0Zm0,0h0Z" fill="#038ab1"/><path d="M86,107.4A19.9,19.9,0,0,0,61.9,82a39.8,39.8,0,0,1-1.7-8.6H50.9a49,49,0,0,0,2.7,13.2,19.9,19.9,0,1,0,27.3,28.9,49,49,0,0,0,15.8,3.7v-9.3A39.7,39.7,0,0,1,86,107.4ZM73.8,91a3.2,3.2,0,0,1,2.6,5.1l-.4.4-.6.4a3.2,3.2,0,0,1-3.3,0l-.6-.4h-.1l-.3-.3v-.2A3.2,3.2,0,0,1,73.8,91Zm-10,5.4.2-.2a4.4,4.4,0,0,1,5.3-.6l.8.6.2.2v.2l.3.4h0l.3.6a4.4,4.4,0,0,1-.5,4.5l-.4.4-.5.4a4.4,4.4,0,0,1-1.5.7H65.9a4.3,4.3,0,0,1-1.5-.7l-.5-.4-.4-.4a4.4,4.4,0,0,1-.2-5h0l.3-.4ZM60.4,91a3.2,3.2,0,0,1,2.7,4.9v.2l-.3.3h-.1l-.6.4a3.2,3.2,0,0,1-3.2.1h-.1l-.6-.4-.4-.4a3.2,3.2,0,0,1-.6-1.8h0A3.2,3.2,0,0,1,60.4,91Zm-6,11.4v-2a3.4,3.4,0,0,1,3-3.4,4.1,4.1,0,0,0,2.3,1.2h.7a4,4,0,0,0,1.6-.3,5.3,5.3,0,0,0,.4,3.8l.2.3a5.6,5.6,0,0,0-3.3,2H56.1A1.7,1.7,0,0,1,54.4,102.3Zm20.9,7.8a2.4,2.4,0,0,1-2.4,2.4H61.4a2.4,2.4,0,0,1-2.4-2.4v-2.6a4.7,4.7,0,0,1,.8-2.6l.3-.4.4-.4a4.7,4.7,0,0,1,2.7-1.2l1,.8.6.3.7.3.6.2h1.9l.6-.2h0l.7-.3a5.3,5.3,0,0,0,1.6-1.2,4.7,4.7,0,0,1,2.7,1.2l.4.4.3.4a4.7,4.7,0,0,1,.8,2.6Zm4.6-7.8a1.7,1.7,0,0,1-.9,1.5l-.8.2H74.9a5.6,5.6,0,0,0-3.3-2,5.2,5.2,0,0,0,.8-2.7,5.3,5.3,0,0,0,0-.6,5,5,0,0,0-.2-.8,4,4,0,0,0,1.6.3,4.1,4.1,0,0,0,3-1.3,3.4,3.4,0,0,1,3,3.4Z" fill="#038ab1"/><path d="M63.3,43.8h0Zm-.3.3h0l.2-.2Zm-.3-.9h0Zm-.3.3.2-.2Zm-1.6-1.4h0Zm.3-.3h0Zm1.3,1.8h0Zm14.6-6.1-2.4-4.2h-.1v.3l2.4,4.1.8,1.4h.1Z" fill="#df6426"/><path d="M96.7,20.9a48.9,48.9,0,0,0-15.8,3.7A19.9,19.9,0,1,0,53.6,53.5,49,49,0,0,0,51,65.9h9.3A39.7,39.7,0,0,1,61.9,58,19.9,19.9,0,0,0,86,32.6a39.7,39.7,0,0,1,10.7-2.4ZM56.4,38.4a1.3,1.3,0,0,1-.9-.3l-1.9-1.5,5.4-7,1.9,1.5a1.3,1.3,0,0,1,.2,1.8l-3.9,5A1.3,1.3,0,0,1,56.4,38.4Zm21.3.6h0a4.3,4.3,0,0,1-1.5,2.3l-.3.3-.3.3c.7.7,1,1.2.9,1.6s-.2.5-.6.7a2,2,0,0,1-1.4.2l-2.8-2.4-.6-.5-.3.3-.3.3.6.5L74,45a1.2,1.2,0,0,1,.2.7.9.9,0,0,1-.5.6,1.5,1.5,0,0,1-1.3,0l-.5-.2h-.1l-2-2-1.1-1.1-.3.3-.3.3,1.1,1.1L71,46.5a.6.6,0,0,1-.5.4,1.6,1.6,0,0,1-1.5-.3l-.8-.8L67,44.7l-.2.2v.3h0a1.5,1.5,0,0,1-.1.4l.8.8.3.3h-.6l-.8-.4-.3.3-.3.3h0a2.7,2.7,0,0,1-1.7.7,1.3,1.3,0,0,1-.8-.3,1.2,1.2,0,0,1-.4-1v-.3h-.4a1.2,1.2,0,0,1-.9-.4,1.2,1.2,0,0,1-.3-.9v-.3h-.1a1.3,1.3,0,0,1-1-.4,1.2,1.2,0,0,1-.3-.9h-.2a1.1,1.1,0,0,1-.8-.3h-.1a1.2,1.2,0,0,1-.3-.8A2.1,2.1,0,0,1,59,41l.3-.3.3-.3h0l-.5-.5a4.6,4.6,0,0,1-.9-1.6l3.6-4.7.4-.2a3.8,3.8,0,0,1,2.4-.4l1.1.3.3-.3.4-.3a7.8,7.8,0,0,1,3-1.1h1.5a7,7,0,0,1,3.5,1.7h.1l2.4,4.2.8,1.4Zm2.5-.1a1.3,1.3,0,0,1-1,.1,1.3,1.3,0,0,1-.8-.6L77.6,37l-2.3-4a1.3,1.3,0,0,1,.5-1.8L77.8,30,80.7,35l1.5,2.6Z" fill="#df6426"/><path d="M76.9,37.4l-2.4-4.2h-.1v.3l2.4,4.1.8,1.4h.1Z" fill="#df6426"/><path d="M62.3,43.5h0Z" fill="#df6426"/><path d="M62.6,43.3l-.2.2Z" fill="#df6426"/><path d="M62.6,43.3h0Z" fill="#df6426"/><path d="M63.2,43.9l-.2.2h0Z" fill="#df6426"/><path d="M63.3,43.9h0Z" fill="#df6426"/><path d="M60.8,42h0Z" fill="#df6426"/><path d="M61,41.8h0Z" fill="#df6426"/><path d="M63.3,43.8h0Zm-.7-.6h0ZM61,41.8h0Zm2.2,2h0Zm-.7-.6h0ZM61,41.8h0Zm2.2,2h0Zm-.7-.6h0ZM61,41.8h0Zm2.2,2h0Zm-.7-.6h0ZM61,41.8h0Zm-.3.3h0Zm.3-.3h0Zm2.2,2h0Zm-.3.3h0l.2-.2Zm-.3-.9h0Zm-.3.3.2-.2Zm0,0h0ZM61,41.8h0Zm1.6,1.5h0Zm.7.6h0Zm-2.2-2h0Zm1.6,1.5h0Zm.7.6h0Zm-2.2-2h0Zm1.6,1.5h0Zm.7.6h0Zm-2.2-2h0Zm1.6,1.5h0Zm.7.6h0Zm-2.2-2h0Zm1.6,1.5h0Zm.7.6h0Z" fill="#df6426"/><path d="M60.7,42.1h0Zm.3-.3h0Z" fill="#df6426"/><path d="M60.7,42.1h0Zm.3-.3h0Z" fill="#df6426"/><path d="M61,41.8h-.3l-.4.2c-.4.2-.7.2-.8.1a.4.4,0,0,1-.1-.3h0l.2-.5.3-.4.3-.3h0l.2-.2h0a1.3,1.3,0,0,1,.8-.4l.3.2C61.6,40.7,61.9,41,61,41.8Z" fill="#df6426"/><path d="M62.6,43.3h0Zm-.3.3.2-.2Zm0,0h0Z" fill="#df6426"/><path d="M62.3,43.6h0Zm.7.6h0l.2-.2Zm-.3-.9h0Z" fill="#df6426"/><path d="M63.4,42.1c0,.2-.1.5-.8,1.2h0l-.2.2h0l-.4.3-.7.2h-.3a.4.4,0,0,1-.1-.3,1.2,1.2,0,0,1,.2-.5l.3-.3h.1l.2-.2a2.7,2.7,0,0,1,1.3-.7h.3A.3.3,0,0,1,63.4,42.1Z" fill="#df6426"/><path d="M63.3,43.8h0Zm-.3.3h0l.2-.2Z" fill="#df6426"/><path d="M63.3,43.8h0Zm-.9-.3.2-.2Z" fill="#df6426"/><path d="M64.8,43.7a1.6,1.6,0,0,1-.6,1h-.1l-.3.2-.4.3c-.5.3-1,.4-1.2.3a.3.3,0,0,1-.1-.2,1.4,1.4,0,0,1,.4-.7l.3-.3H63l.2-.2h.1a2.1,2.1,0,0,1,1.2-.5h.3A.3.3,0,0,1,64.8,43.7Z" fill="#df6426"/><path d="M66.1,45.4a1.1,1.1,0,0,1-.2.6l-.3.3-.2.2h-.1c-.7.5-1.1.5-1.3.3a.3.3,0,0,1-.1-.3,1.4,1.4,0,0,1,.4-.8l.2-.2h.1l.4-.3.8-.3h.2A.5.5,0,0,1,66.1,45.4Z" fill="#df6426"/><path d="M76.9,37.4l-2.4-4.2h-.1v.3l2.4,4.1.8,1.4h.1Z" fill="#df6426"/><path d="M76.8,39a4.2,4.2,0,0,1-1.2,1.6l-.3.3-.3.3h0L73.6,40,68.1,35h-.2c-.2.1-.5.3-.8,1.1s-1.6,2.6-2.3,2.4a.6.6,0,0,1-.5-.4V38a.6.6,0,0,1,.1-.4A8,8,0,0,0,66,34.4h0a1.4,1.4,0,0,1,.5-.8l.4-.3.4-.3.5-.2h0a7,7,0,0,1,3-.5,6.2,6.2,0,0,1,3,1.5L76.2,38Z" fill="#df6426"/><polygon points="56 36.3 55.5 37.1 54.6 36.5 55.2 35.7 56 36.3" fill="#df6426"/><polygon points="81.5 37.6 80.6 38.1 80.1 37.3 80.9 36.8 81.5 37.6" fill="#df6426"/></svg>