<svg id="Layer_1" data-name="Layer 1" xmlns="http://www.w3.org/2000/svg" width="200" height="140" viewBox="0 0 200 140"><title>Artboard 1</title><rect width="200" height="140" fill="#eae8dd"/><path d="M58.3,75.6h1.9l-1.3,6.8v.5a2.9,2.9,0,0,0,0,.4,1.2,1.2,0,0,0,.3.9,1,1,0,0,0,.8.3l1.4-.3a3.5,3.5,0,0,0,1.2-.9,4.4,4.4,0,0,0,.9-1.5,6.6,6.6,0,0,0,.3-2.2,7.3,7.3,0,0,0-.7-3.3A6.3,6.3,0,0,0,61.1,74a8,8,0,0,0-2.8-1.3,14,14,0,0,0-3.4-.4,10.6,10.6,0,0,0-4,.7,10.1,10.1,0,0,0-3.2,2,9.1,9.1,0,0,0-2.9,6.7,9.6,9.6,0,0,0,.6,3.6A7.4,7.4,0,0,0,47.3,88a8.4,8.4,0,0,0,3.1,1.8,13.3,13.3,0,0,0,4.2.6l1.8-.2,1.8-.5.8,2.7-2.3.7-2.7.2a15.6,15.6,0,0,1-5-.8,11,11,0,0,1-3.9-2.2,10.2,10.2,0,0,1-2.5-3.6,13.1,13.1,0,0,1,.1-10,11.9,11.9,0,0,1,2.9-3.9,12.9,12.9,0,0,1,4.2-2.5,14.4,14.4,0,0,1,5.1-.9,14.9,14.9,0,0,1,4.7.7,11.2,11.2,0,0,1,3.7,2,9.4,9.4,0,0,1,3.4,7.4,7.4,7.4,0,0,1-.6,3A7.8,7.8,0,0,1,64.4,85a8,8,0,0,1-2.5,1.6,7.9,7.9,0,0,1-3.1.6H57.5l-1-.5a2,2,0,0,1-.6-.9,3.2,3.2,0,0,1-.1-1.4h-.1l-.9,1.1-1.1.9-1.3.6-1.5.2L49.7,87a2.9,2.9,0,0,1-1-.8,3.8,3.8,0,0,1-.7-1.2,4.3,4.3,0,0,1-.3-1.5,8.4,8.4,0,0,1,.5-3A9,9,0,0,1,49.8,78a7.8,7.8,0,0,1,2.2-1.9,5.3,5.3,0,0,1,2.7-.7,4.3,4.3,0,0,1,1.6.3l1.2.7Zm-1.7,3.2-.7-.4h-1a2.9,2.9,0,0,0-1.5.4,4.4,4.4,0,0,0-1.2,1.1,5.1,5.1,0,0,0-.8,1.4,4.4,4.4,0,0,0-.3,1.5,2.3,2.3,0,0,0,.4,1.3,1.5,1.5,0,0,0,1.3.5l.8-.2.8-.6.8-.9.7-1Z" fill="#1e252b"/><path d="M84.1,73.4H78.4V87.8H74.7V73.4H69.1V70.1h15Z" fill="#1e252b"/><path d="M98,87.1a5.8,5.8,0,0,1-2.2.8l-2.8.3a10.5,10.5,0,0,1-3.3-.5,7.4,7.4,0,0,1-2.8-1.6A7.9,7.9,0,0,1,85,83.2a11.3,11.3,0,0,1-.7-4.2,10.4,10.4,0,0,1,.8-4.3,8.1,8.1,0,0,1,2.1-2.8A8,8,0,0,1,90,70.2a10.2,10.2,0,0,1,3-.5l2.8.2,1.9.5L97,73.6l-1.5-.4H93.3a5.6,5.6,0,0,0-2.1.4,4.2,4.2,0,0,0-1.6,1.1,5.1,5.1,0,0,0-1,1.9,9.2,9.2,0,0,0,0,5,5.2,5.2,0,0,0,1,1.9,4.4,4.4,0,0,0,1.7,1.2,6,6,0,0,0,2.4.4l2.1-.2,1.5-.6Z" fill="#1e252b"/><path d="M40,50.9h3.7a7.7,7.7,0,0,1,2.8.5,5.4,5.4,0,0,1,2,1.3,5.3,5.3,0,0,1,1.2,2,7.8,7.8,0,0,1,.4,2.5,7.9,7.9,0,0,1-.4,2.4,5.6,5.6,0,0,1-1.2,2.1,5.7,5.7,0,0,1-2,1.4,7.4,7.4,0,0,1-3,.5H40Zm3.7,1.4h-2v9.4h1.8a5.2,5.2,0,0,0,2.2-.4,3.8,3.8,0,0,0,1.4-1.1,4.2,4.2,0,0,0,.8-1.6,7.3,7.3,0,0,0,.2-1.8,6.5,6.5,0,0,0-.2-1.6,4.2,4.2,0,0,0-.7-1.5,3.9,3.9,0,0,0-1.4-1.1A4.6,4.6,0,0,0,43.7,52.2Z" fill="#00698c"/><path d="M52.6,50.9H60v1.5H54.4v3.7h5.2v1.5H54.4v4h5.8v1.5H52.6Z" fill="#00698c"/><path d="M68.9,59.9a1.4,1.4,0,0,0-.5-1.1l-1.2-.7-1.5-.6-1.5-.7A3.8,3.8,0,0,1,63,55.7a2.9,2.9,0,0,1-.5-1.7,3,3,0,0,1,1.1-2.4,4.8,4.8,0,0,1,3.1-.9l2.2.2,1.5.5-.5,1.5-1.3-.4-1.9-.2a2.7,2.7,0,0,0-1.8.5,1.5,1.5,0,0,0-.6,1.2,1.4,1.4,0,0,0,.5,1.1l1.2.7,1.5.6,1.5.7a4.2,4.2,0,0,1,1.2,1.1,2.7,2.7,0,0,1,.5,1.6,3.5,3.5,0,0,1-.3,1.5,3.2,3.2,0,0,1-.9,1.1,4.3,4.3,0,0,1-1.4.7l-1.9.3-2.4-.2-1.5-.5.6-1.5,1.3.4,2,.2h1.1l.9-.3a1.7,1.7,0,0,0,.6-.6A1.7,1.7,0,0,0,68.9,59.9Z" fill="#00698c"/><path d="M78.2,50.9h3.7a7.7,7.7,0,0,1,2.8.5,5.4,5.4,0,0,1,2,1.3,5.3,5.3,0,0,1,1.2,2,7.8,7.8,0,0,1,.4,2.5,7.9,7.9,0,0,1-.4,2.4,5.6,5.6,0,0,1-1.2,2.1,5.7,5.7,0,0,1-2,1.4,7.4,7.4,0,0,1-3,.5H78.2ZM82,52.2H80v9.4h1.8a5.2,5.2,0,0,0,2.2-.4,3.8,3.8,0,0,0,1.4-1.1,4.2,4.2,0,0,0,.8-1.6,7.3,7.3,0,0,0,.2-1.8,6.5,6.5,0,0,0-.2-1.6,4.2,4.2,0,0,0-.7-1.5,3.9,3.9,0,0,0-1.4-1.1A4.6,4.6,0,0,0,82,52.2Z" fill="#1e252b"/><path d="M90.3,57a8.9,8.9,0,0,1,.4-2.7,5.6,5.6,0,0,1,1.1-2,4.7,4.7,0,0,1,1.7-1.3,6.6,6.6,0,0,1,4.8,0,4.7,4.7,0,0,1,1.7,1.3,5.5,5.5,0,0,1,1,2,9.3,9.3,0,0,1,.3,2.6,8.9,8.9,0,0,1-.4,2.7,5.5,5.5,0,0,1-1.1,2A4.7,4.7,0,0,1,98.2,63a6.6,6.6,0,0,1-4.8,0,4.7,4.7,0,0,1-1.7-1.3,5.6,5.6,0,0,1-1-2A9.3,9.3,0,0,1,90.3,57Zm1.9,0a7.6,7.6,0,0,0,.2,1.9,4.8,4.8,0,0,0,.7,1.5,3.3,3.3,0,0,0,1.1,1,3.7,3.7,0,0,0,4.3-.8,5.6,5.6,0,0,0,1-3.7,7.6,7.6,0,0,0-.2-1.9,4.8,4.8,0,0,0-.7-1.5,3.2,3.2,0,0,0-2.8-1.5,3.3,3.3,0,0,0-2.7,1.2A5.6,5.6,0,0,0,92.2,57Z" fill="#1e252b"/><path d="M106.6,55.3l-1.1-1.7h-.1l.2,1.7v7.8H104V50.7h1l6.3,8,1,1.6h.1l-.2-1.6V50.9h1.7V63.4h-1Z" fill="#1e252b"/><path d="M119.5,55.3l-1.1-1.7h-.1l.2,1.7v7.8h-1.7V50.7h1l6.3,8,1,1.6h.1l-.2-1.6V50.9h1.7V63.4h-1Z" fill="#1e252b"/><path d="M129.9,50.9h7.4v1.5h-5.7v3.7h5.2v1.5h-5.2v4h5.8v1.5h-7.5Zm4.7-3h2.3v.4l-3.1,1.7h-1.4Z" fill="#1e252b"/><path d="M140.2,50.9h7.4v1.5h-5.7v3.7h5.2v1.5h-5.2v4h5.8v1.5h-7.5Z" fill="#1e252b"/><path d="M156.5,59.9a1.4,1.4,0,0,0-.5-1.1l-1.2-.7-1.5-.6-1.5-.7a3.8,3.8,0,0,1-1.2-1.1,2.9,2.9,0,0,1-.5-1.7,3,3,0,0,1,1.1-2.4,4.8,4.8,0,0,1,3.1-.9l2.2.2,1.5.5-.5,1.5-1.3-.4-1.9-.2a2.7,2.7,0,0,0-1.8.5,1.5,1.5,0,0,0-.6,1.2,1.4,1.4,0,0,0,.5,1.1l1.2.7,1.5.6,1.5.7a4.2,4.2,0,0,1,1.2,1.1,2.7,2.7,0,0,1,.5,1.6,3.5,3.5,0,0,1-.3,1.5,3.2,3.2,0,0,1-.9,1.1,4.3,4.3,0,0,1-1.4.7l-1.9.3-2.4-.2-1.5-.5.6-1.5,1.3.4,2,.2h1.1l.9-.3a1.7,1.7,0,0,0,.6-.6A1.7,1.7,0,0,0,156.5,59.9Z" fill="#1e252b"/><path d="M56.7,35.6V44H41V41.1H54.1V35.6Z" fill="#dcaa00"/><path d="M41,34.4V26.5h2.6v5h3.9V27h2.6v4.6h4.1V26.4h2.6v8Z" fill="#dcaa00"/><path d="M60.6,26.6l2.3-.3h2.5l2.6.2a6.6,6.6,0,0,1,2.4.9A5,5,0,0,1,72.3,29a5.9,5.9,0,0,1,.7,3,6.2,6.2,0,0,1-.6,2.8,5.4,5.4,0,0,1-1.5,1.9,6.2,6.2,0,0,1-2.2,1.1,9.8,9.8,0,0,1-2.5.3h-2v6.1H60.6Zm5.2,2.6H64.1V35h2.9l1.2-.5a2.4,2.4,0,0,0,.8-1,3.5,3.5,0,0,0,.3-1.6,2.8,2.8,0,0,0-.3-1.4,2.5,2.5,0,0,0-.8-.9l-1.1-.5Z" fill="#00698c"/><path d="M74.3,35.3q0-4.4,2-6.8A6.8,6.8,0,0,1,81.8,26a7.8,7.8,0,0,1,3.3.7,6.3,6.3,0,0,1,2.4,1.9,8.2,8.2,0,0,1,1.4,2.9,14.6,14.6,0,0,1,.5,3.8q0,4.4-2,6.8a6.8,6.8,0,0,1-5.6,2.4,7.9,7.9,0,0,1-3.3-.7A6.1,6.1,0,0,1,76.1,42,8.3,8.3,0,0,1,74.7,39,14.6,14.6,0,0,1,74.3,35.3Zm3.7,0a12.5,12.5,0,0,0,.2,2.5,6.4,6.4,0,0,0,.7,1.9,3.5,3.5,0,0,0,1.2,1.3,3.3,3.3,0,0,0,1.7.5,3.3,3.3,0,0,0,2.9-1.4,8.4,8.4,0,0,0,1-4.7,12.7,12.7,0,0,0-.2-2.4,6.7,6.7,0,0,0-.7-2,3.5,3.5,0,0,0-1.2-1.3,3.6,3.6,0,0,0-4.7,1A8.4,8.4,0,0,0,77.9,35.3Z" fill="#00698c"/><path d="M101.5,26.4h3.3V37.8a8.6,8.6,0,0,1-.5,3,5.6,5.6,0,0,1-1.3,2.1,4.9,4.9,0,0,1-2,1.2,8.2,8.2,0,0,1-2.6.4q-6.7,0-6.7-6.2V26.4h3.5V37.6a7,7,0,0,0,.2,1.8,2.7,2.7,0,0,0,.6,1.2,2.3,2.3,0,0,0,1,.6l1.4.2a2.8,2.8,0,0,0,2.3-.9,4.6,4.6,0,0,0,.7-2.9Z" fill="#00698c"/><path d="M113.5,36.8l.5,3h.1l.5-3L118,26.4h3.7l-6.6,17.9h-2.5L106,26.4h4Z" fill="#00698c"/><path d="M121.5,35.3q0-4.4,2-6.8A6.8,6.8,0,0,1,129,26a7.8,7.8,0,0,1,3.3.7,6.3,6.3,0,0,1,2.4,1.9,8.2,8.2,0,0,1,1.4,2.9,14.6,14.6,0,0,1,.5,3.8q0,4.4-2,6.8a6.8,6.8,0,0,1-5.6,2.4,7.9,7.9,0,0,1-3.3-.7,6.1,6.1,0,0,1-2.3-1.9,8.3,8.3,0,0,1-1.4-2.9A14.6,14.6,0,0,1,121.5,35.3Zm3.7,0a12.5,12.5,0,0,0,.2,2.5,6.4,6.4,0,0,0,.7,1.9,3.5,3.5,0,0,0,1.2,1.3,3.3,3.3,0,0,0,1.7.5,3.3,3.3,0,0,0,2.9-1.4,8.4,8.4,0,0,0,1-4.7,12.7,12.7,0,0,0-.2-2.4,6.7,6.7,0,0,0-.7-2,3.5,3.5,0,0,0-1.2-1.3,3.6,3.6,0,0,0-4.7,1A8.4,8.4,0,0,0,125.1,35.3Z" fill="#00698c"/><path d="M139.4,26.4h3.5V44.1h-3.5Z" fill="#00698c"/><path d="M146.3,26.6l1.3-.2h3.8l2.4.2a6.7,6.7,0,0,1,2.2.8,4.2,4.2,0,0,1,1.5,1.5,4.8,4.8,0,0,1,.6,2.4,5.8,5.8,0,0,1-1,3.5,5.2,5.2,0,0,1-2.7,1.9l1.2.8,4.1,6.8h-4l-4-6.9-1.8-.3v7.3h-3.5Zm5.3,2.7h-1.9v5.1h1.5a3.7,3.7,0,0,0,2.3-.7,2.6,2.6,0,0,0,.9-2.2,2.3,2.3,0,0,0-.7-1.8A3,3,0,0,0,151.6,29.2Z" fill="#00698c"/><path d="M85.1,96h4.6a.4.4,0,0,1,.4.4v6.8a2.7,2.7,0,0,1-2.7,2.7h0a2.7,2.7,0,0,1-2.7-2.7V96.4a.4.4,0,0,1,.4-.4Z" fill="#ac8a00"/><path d="M92.6,96h4.6a.4.4,0,0,1,.4.4v10.7a2.7,2.7,0,0,1-2.7,2.7h0a2.7,2.7,0,0,1-2.7-2.7V96.4a.4.4,0,0,1,.4-.4Z" fill="#ac8a00"/><path d="M100.1,96h4.6a.4.4,0,0,1,.4.4v6.8a2.7,2.7,0,0,1-2.7,2.7h0a2.7,2.7,0,0,1-2.7-2.7V96.4a.4.4,0,0,1,.4-.4Z" fill="#ac8a00"/><path d="M128.2,91.6h-47a3.9,3.9,0,0,0-3.9,3.9h50.9Z" fill="#dcaa00"/><path d="M77.3,95.6h0a4,4,0,0,0,4,4h46.9v-4Z" fill="#ac8a00"/><path d="M141.6,83.9a11.6,11.6,0,0,1,11.6,11.6H160a18.4,18.4,0,1,0-36.8,0H130A11.6,11.6,0,0,1,141.6,83.9Z" fill="#dcaa00"/><path d="M153.2,95.6h0a11.6,11.6,0,0,1-23.3,0h-6.8a18.4,18.4,0,0,0,36.8,0h-6.8Z" fill="#ac8a00"/></svg>