<svg id="Layer_1" data-name="Layer 1" xmlns="http://www.w3.org/2000/svg" width="200" height="140" viewBox="0 0 200 140"><title>Artboard 1</title><rect width="200" height="140" fill="#eae8dd"/><path d="M41.9,62.6l1.7-.2H49a13.9,13.9,0,0,1,5.8,1.1,9.2,9.2,0,0,1,3.7,3,12.3,12.3,0,0,1,2,4.7,28.9,28.9,0,0,1,.6,6.1,29.2,29.2,0,0,1-.6,5.8,13.4,13.4,0,0,1-2,4.9,10.2,10.2,0,0,1-3.8,3.4,13.2,13.2,0,0,1-6.1,1.3H41.9ZM49.6,67H47.2V87.3h2.2a5.1,5.1,0,0,0,3.1-.9,6,6,0,0,0,1.9-2.3,11.8,11.8,0,0,0,1-3.4,28.2,28.2,0,0,0,.3-4,29.4,29.4,0,0,0-.2-3.7,10.4,10.4,0,0,0-.9-3.2,5.4,5.4,0,0,0-1.8-2.2A5.3,5.3,0,0,0,49.6,67Z" fill="#1e252b"/><path d="M75.1,85.2H68.2l-1.7,6.7H61.2l8.5-29.5h4.1l8.5,29.5H76.9Zm-5.8-4.3h4.8l-1.7-6.8-.7-4.6h-.2l-.7,4.6Z" fill="#1e252b"/><path d="M99,67.5H92.1V91.9H86.8V67.5H79.9V62.6H99Z" fill="#1e252b"/><path d="M110.2,85.2h-6.9l-1.7,6.7H96.4l8.5-29.5H109l8.5,29.5H112Zm-5.8-4.3h4.8l-1.7-6.8-.7-4.6h-.2l-.7,4.6Z" fill="#1e252b"/><path d="M134,67.3h1.2l-.9,4.4v.6a.8.8,0,0,0,.2.6l.5.2.9-.2.8-.6a2.9,2.9,0,0,0,.6-1,4.3,4.3,0,0,0,.2-1.4,4.7,4.7,0,0,0-.5-2.2,4.1,4.1,0,0,0-1.2-1.5,5.2,5.2,0,0,0-1.8-.8l-2.2-.3a6.9,6.9,0,0,0-2.6.5,6.6,6.6,0,0,0-2.1,1.3,5.9,5.9,0,0,0-1.9,4.3,6.2,6.2,0,0,0,.4,2.3,4.8,4.8,0,0,0,1.2,1.8,5.4,5.4,0,0,0,2,1.1,8.6,8.6,0,0,0,2.7.4h1.1l1.2-.4.5,1.7-1.5.5h-1.7a10.1,10.1,0,0,1-3.2-.5,7.1,7.1,0,0,1-2.5-1.4,6.6,6.6,0,0,1-1.6-2.3,8.5,8.5,0,0,1,.1-6.4,7.7,7.7,0,0,1,1.9-2.5,8.4,8.4,0,0,1,2.7-1.6,9.4,9.4,0,0,1,3.3-.6,9.7,9.7,0,0,1,3,.5,7.2,7.2,0,0,1,2.4,1.3,6.1,6.1,0,0,1,2.2,4.8,4.8,4.8,0,0,1-.4,1.9,5,5,0,0,1-1.1,1.6,5.2,5.2,0,0,1-1.6,1.1,5.1,5.1,0,0,1-2,.4h-.8l-.6-.3a1.3,1.3,0,0,1-.4-.6,2.1,2.1,0,0,1-.1-.9h-.1l-.6.7-.7.6-.8.4-1,.2-.8-.2-.7-.5a2.4,2.4,0,0,1-.4-.8,2.8,2.8,0,0,1-.2-1,5.4,5.4,0,0,1,.4-1.9,5.9,5.9,0,0,1,1-1.7,5.1,5.1,0,0,1,1.4-1.2,3.4,3.4,0,0,1,1.7-.5l1.1.2.8.5Zm-1.1,2.1-.5-.3h-.6l-1,.3-.8.7a3.3,3.3,0,0,0-.5.9,2.8,2.8,0,0,0-.2,1,1.5,1.5,0,0,0,.2.9,1,1,0,0,0,.8.3h.5l.5-.4.5-.6.4-.7Z" fill="#00698c"/><path d="M150.7,65.9h-3.6v9.4h-2.4V65.9H141V63.8h9.7Z" fill="#00698c"/><path d="M159.7,74.8a3.7,3.7,0,0,1-1.4.5l-1.8.2a6.8,6.8,0,0,1-2.1-.3,4.8,4.8,0,0,1-1.8-1.1,5.1,5.1,0,0,1-1.2-1.9,7.3,7.3,0,0,1-.5-2.7,6.7,6.7,0,0,1,.5-2.8,5.2,5.2,0,0,1,1.3-1.8,5.2,5.2,0,0,1,1.8-1,6.6,6.6,0,0,1,2-.3h1.8l1.2.3-.5,2-1-.3h-1.4l-1.3.2a2.7,2.7,0,0,0-1,.7,3.3,3.3,0,0,0-.7,1.2,6,6,0,0,0,0,3.2,3.4,3.4,0,0,0,.6,1.2,2.8,2.8,0,0,0,1.1.8,3.9,3.9,0,0,0,1.5.3h1.4l1-.4Z" fill="#00698c"/><path d="M49.7,47.5H45.8v10H44.2v-10H40.3V46h9.4Z" fill="#00698c"/><path d="M58.9,52.4H53.1v5.1H51.5V46h1.6v4.9h5.8V46h1.6V57.5H58.9Z" fill="#00698c"/><path d="M63.5,46h6.9v1.4H65.1v3.5H70v1.4H65.1v3.7h5.4v1.4h-7Z" fill="#00698c"/><path d="M77.9,46.1l1.5-.2h3.3l1.6.5a3.1,3.1,0,0,1,1.6,2.9,3.6,3.6,0,0,1-.4,1.8,3.5,3.5,0,0,1-1.1,1.2,4.8,4.8,0,0,1-1.6.7l-1.8.2H79.5v4.3H77.9ZM81,47.3H79.5v4.4H82l1-.3a2,2,0,0,0,.8-.7,2.3,2.3,0,0,0,.3-1.2,1.9,1.9,0,0,0-.3-1.1,2,2,0,0,0-.7-.7l-1-.3Z" fill="#1e252b"/><path d="M87.2,51.8a8.3,8.3,0,0,1,.4-2.5,5.2,5.2,0,0,1,1-1.9,4.4,4.4,0,0,1,1.6-1.2,6.1,6.1,0,0,1,4.4,0,4.4,4.4,0,0,1,1.6,1.2,5.1,5.1,0,0,1,1,1.9,8.7,8.7,0,0,1,.3,2.4,8.3,8.3,0,0,1-.4,2.5,5.2,5.2,0,0,1-1,1.9,4.4,4.4,0,0,1-1.6,1.2,6.1,6.1,0,0,1-4.5,0,4.3,4.3,0,0,1-1.6-1.2,5.2,5.2,0,0,1-1-1.9A8.7,8.7,0,0,1,87.2,51.8Zm1.7,0a7.1,7.1,0,0,0,.2,1.7,4.5,4.5,0,0,0,.6,1.4,3.1,3.1,0,0,0,1.1,1,3.5,3.5,0,0,0,4.1-.7,5.2,5.2,0,0,0,.9-3.4,7.1,7.1,0,0,0-.2-1.7,4.5,4.5,0,0,0-.6-1.4,3,3,0,0,0-2.6-1.4,3.1,3.1,0,0,0-2.5,1.1A5.2,5.2,0,0,0,88.9,51.8Z" fill="#1e252b"/><path d="M102.2,53.5l.3,1.9h0l.3-2,2.5-7.4h.8l2.6,7.5.3,1.9h0l.3-2,2-7.4H113l-3.5,11.7h-.9l-2.5-7.5-.3-1.7h-.1l-.3,1.8-2.5,7.5h-1L98.3,46H100Z" fill="#1e252b"/><path d="M114.6,46h6.9v1.4h-5.3v3.5h4.8v1.4h-4.8v3.7h5.4v1.4h-7Z" fill="#1e252b"/><path d="M124.2,46.1h3.3l1.6.2,1.3.5a2.9,2.9,0,0,1,.9,1,2.9,2.9,0,0,1,.4,1.5,3.5,3.5,0,0,1-.2,1.2,3.2,3.2,0,0,1-.6,1l-.9.7-1.1.4.9.6,3.1,4.5h-1.9l-3.4-4.8-1.7-.2v5.1h-1.6Zm3.3,1.2h-1.7v4h2.4l.9-.4a1.8,1.8,0,0,0,.6-.7,2.2,2.2,0,0,0,.2-1,1.7,1.7,0,0,0-.6-1.4A2.8,2.8,0,0,0,127.5,47.3Z" fill="#1e252b"/><path d="M139.2,51.8a8.3,8.3,0,0,1,.4-2.5,5.2,5.2,0,0,1,1-1.9,4.4,4.4,0,0,1,1.6-1.2,6.1,6.1,0,0,1,4.4,0,4.4,4.4,0,0,1,1.6,1.2,5.2,5.2,0,0,1,1,1.9,8.7,8.7,0,0,1,.3,2.4,8.3,8.3,0,0,1-.4,2.5,5.1,5.1,0,0,1-1,1.9,4.4,4.4,0,0,1-1.6,1.2,6.1,6.1,0,0,1-4.5,0,4.3,4.3,0,0,1-1.6-1.2,5.2,5.2,0,0,1-1-1.9A8.7,8.7,0,0,1,139.2,51.8Zm1.7,0a7.1,7.1,0,0,0,.2,1.7,4.5,4.5,0,0,0,.6,1.4,3.1,3.1,0,0,0,1.1,1,3.5,3.5,0,0,0,4.1-.7,5.2,5.2,0,0,0,.9-3.4,7.1,7.1,0,0,0-.2-1.7,4.5,4.5,0,0,0-.6-1.4,3,3,0,0,0-2.6-1.4,3.1,3.1,0,0,0-2.5,1.1A5.2,5.2,0,0,0,140.9,51.8Z" fill="#00698c"/><path d="M151.9,46h6.9v1.4h-5.3v3.6h4.9v1.4h-4.9v5h-1.6Z" fill="#00698c"/><path d="M40.1,32.6V30.3h8.8a5.6,5.6,0,0,1,3.8,1.1,3.8,3.8,0,0,1,1.2,3,4.2,4.2,0,0,1-1.2,3.3,5.1,5.1,0,0,1-3.5,1H40.1V36.2h8.7a4.2,4.2,0,0,0,2.2-.4,1.6,1.6,0,0,0,.6-1.4A1.5,1.5,0,0,0,51,33a4.4,4.4,0,0,0-2.2-.4Z" fill="#dcaa00"/><path d="M47,25.6l-2.4.9h0l2.3-.3h6.7v2.3H40V26.7l6.8-3.9,2.3-.8h0l-2.3.3H40.1V19.8H53.8v1.9Z" fill="#dcaa00"/><path d="M69.7,38.5H57.8V19.7h3.7V35.3h8.2Z" fill="#00698c"/><path d="M68.5,29.1q0-4.7,2.1-7.2a7.2,7.2,0,0,1,5.9-2.5,8.3,8.3,0,0,1,3.5.7,6.6,6.6,0,0,1,2.5,2A8.7,8.7,0,0,1,84,25.1a15.4,15.4,0,0,1,.5,4q0,4.7-2.1,7.2a7.2,7.2,0,0,1-5.9,2.5,8.3,8.3,0,0,1-3.5-.7,6.5,6.5,0,0,1-2.5-2A8.8,8.8,0,0,1,69,33.1,15.4,15.4,0,0,1,68.5,29.1Zm3.9,0a13.2,13.2,0,0,0,.2,2.6,6.8,6.8,0,0,0,.7,2.1,3.8,3.8,0,0,0,1.3,1.3,3.4,3.4,0,0,0,1.9.5,3.5,3.5,0,0,0,3-1.5,8.9,8.9,0,0,0,1.1-5,13.5,13.5,0,0,0-.2-2.6,7.1,7.1,0,0,0-.7-2.1,3.7,3.7,0,0,0-1.3-1.4,3.8,3.8,0,0,0-4.9,1.1A8.9,8.9,0,0,0,72.4,29.1Z" fill="#00698c"/><path d="M99.8,37.8a5.6,5.6,0,0,1-2.2.9l-2.7.3a9.8,9.8,0,0,1-3.2-.5A6.9,6.9,0,0,1,89,36.7a8.3,8.3,0,0,1-1.8-3,13.2,13.2,0,0,1-.7-4.5,12.3,12.3,0,0,1,.8-4.6,8.4,8.4,0,0,1,2-3A7.3,7.3,0,0,1,92,19.9a9.5,9.5,0,0,1,3-.5l2.7.2,1.8.5-.7,3.1-1.5-.4H95.3a4.5,4.5,0,0,0-3.6,1.6,7.5,7.5,0,0,0-1.4,4.9,10.2,10.2,0,0,0,.3,2.7,5.7,5.7,0,0,0,1,2,4.5,4.5,0,0,0,1.6,1.3,5.2,5.2,0,0,0,2.3.5l2-.2,1.5-.6Z" fill="#00698c"/><path d="M106.7,30.5h-1v8h-3.7V19.7h3.7v8.3l.9-.4,5.2-7.9H116l-5.5,7.9-1.5,1,1.5,1,6.3,8.8h-4.5Z" fill="#00698c"/><path d="M119.1,19.7h3.7V38.5h-3.7Z" fill="#00698c"/><path d="M131.1,28.7l-1.5-3h-.1l.4,3v9.8h-3.5V19.6h2.7l7.1,10,1.4,2.9h.1l-.4-2.9V19.7h3.5V38.7h-2.7Z" fill="#00698c"/><path d="M150.7,28.7h7v8.4a7.1,7.1,0,0,1-2.7,1.4,11.7,11.7,0,0,1-3.1.4,9.7,9.7,0,0,1-3.3-.6,6.9,6.9,0,0,1-2.7-1.8,8.4,8.4,0,0,1-1.8-3,13.4,13.4,0,0,1-.6-4.4,11.9,11.9,0,0,1,.8-4.5,8.5,8.5,0,0,1,2-3,7.6,7.6,0,0,1,2.8-1.7,9.9,9.9,0,0,1,3.2-.5l2.8.2,1.9.5-.8,3.1-1.5-.4h-2.1a6.2,6.2,0,0,0-2.1.3,4.1,4.1,0,0,0-1.7,1.1,5.4,5.4,0,0,0-1.1,2,10.1,10.1,0,0,0-.4,3,10,10,0,0,0,.4,2.9,5.6,5.6,0,0,0,1,2,4.1,4.1,0,0,0,1.6,1.2,4.9,4.9,0,0,0,1.9.4l1.4-.2,1.1-.5V31.4l-4.1-.4Z" fill="#00698c"/><path d="M80.6,101.6h4.8a.4.4,0,0,1,.4.4v7.2a2.9,2.9,0,0,1-2.9,2.9h0a2.9,2.9,0,0,1-2.9-2.9v-7.2a.4.4,0,0,1,.4-.4Z" fill="#ac8a00"/><path d="M88.6,101.6h4.8a.4.4,0,0,1,.4.4v11.3a2.9,2.9,0,0,1-2.9,2.9h0a2.9,2.9,0,0,1-2.9-2.9V102.1a.4.4,0,0,1,.4-.4Z" fill="#ac8a00"/><path d="M96.6,101.6h4.8a.4.4,0,0,1,.4.4v7.2a2.9,2.9,0,0,1-2.9,2.9h0a2.9,2.9,0,0,1-2.9-2.9v-7.2A.4.4,0,0,1,96.6,101.6Z" fill="#ac8a00"/><path d="M126.3,97H76.6a4.2,4.2,0,0,0-4.2,4.2h53.9Z" fill="#dcaa00"/><path d="M72.4,101.2h0a4.3,4.3,0,0,0,4.3,4.3h49.6v-4.3Z" fill="#ac8a00"/><path d="M140.5,88.8a12.3,12.3,0,0,1,12.3,12.3H160a19.5,19.5,0,1,0-39,0h7.2A12.3,12.3,0,0,1,140.5,88.8Z" fill="#dcaa00"/><path d="M152.8,101.2h0a12.3,12.3,0,0,1-24.6,0H121a19.5,19.5,0,0,0,39,0h-7.2Z" fill="#ac8a00"/></svg>