<svg id="Layer_1" data-name="Layer 1" xmlns="http://www.w3.org/2000/svg" width="200" height="140" viewBox="0 0 200 140"><title>Artboard 1</title><rect width="200" height="140" fill="#eae8dd"/><circle cx="99.7" cy="69.8" r="37.6" fill="#fff"/><path d="M100,15.1A54.7,54.7,0,0,0,67.7,25.6l1.7,11.8,10.3,4.7A34.4,34.4,0,0,1,100,35.5l-5.6-9.9Z" fill="#186b8d"/><path d="M79.7,42.1,69.3,37.3,67.6,25.5h0A54.6,54.6,0,0,1,100,15h.1L94.5,25.6l5.6,10H100a34.2,34.2,0,0,0-20.3,6.6ZM69.4,37.3,79.7,42a34.3,34.3,0,0,1,20.2-6.6l-5.5-9.8h0l5.5-10.4A54.5,54.5,0,0,0,67.8,25.6Z" fill="#b5dee2"/><path d="M100,15.1,94.4,25.6l5.6,9.9a34.4,34.4,0,0,1,20.3,6.6l1.3-11.3,10.7-5.2A54.7,54.7,0,0,0,100,15.1Z" fill="#95d3c8"/><path d="M120.3,42.2h-.1A34.2,34.2,0,0,0,100,35.5h-.1l-5.6-9.9h0L100,15h0a54.6,54.6,0,0,1,32.3,10.5h.1l-10.7,5.3ZM100,35.4a34.3,34.3,0,0,1,20.2,6.5l1.3-11.2,10.6-5.2A54.5,54.5,0,0,0,100,15.1L94.5,25.6Z" fill="#b5dee2"/><path d="M132.3,25.6l-10.7,5.2-1.3,11.3a34.6,34.6,0,0,1,12.6,17.3l7.7-8.3,11.7,2A55,55,0,0,0,132.3,25.6Z" fill="#7bcabc"/><path d="M132.8,59.4h0a34.8,34.8,0,0,0-12.5-17.2h0l1.3-11.3h0l10.7-5.2h0a55.1,55.1,0,0,1,20,27.5h0l-11.8-2ZM120.4,42a34.9,34.9,0,0,1,12.5,17.2l7.7-8.3h0l11.6,2a55,55,0,0,0-19.9-27.3l-10.6,5.2Z" fill="#b5dee2"/><path d="M67.1,80.7,59.4,89,47.7,87a55,55,0,0,0,20,27.5l10.7-5.2,1.3-11.3A34.6,34.6,0,0,1,67.1,80.7Z" fill="#e78148"/><path d="M67.7,114.5h0A55.1,55.1,0,0,1,47.7,87h.1l11.7,2,7.8-8.4h0A34.8,34.8,0,0,0,79.7,97.9h0l-1.3,11.3h0ZM47.8,87.1a55,55,0,0,0,19.9,27.3l10.6-5.2L79.6,98A34.9,34.9,0,0,1,67.1,80.8l-7.7,8.3h0Z" fill="#b5dee2"/><path d="M152.3,53l-11.7-2-7.7,8.3a34.7,34.7,0,0,1,0,21.4L144,78.5l8.3,8.5a55.2,55.2,0,0,0,0-34Z" fill="#5a9bbf"/><path d="M152.3,87.1h-.1L144,78.5l-11.2,2.2h0a34.6,34.6,0,0,0,0-21.3h0l7.7-8.4h0l11.7,2h0a55.2,55.2,0,0,1,0,34ZM144,78.4h0l8.2,8.4a55.1,55.1,0,0,0,0-33.8l-11.6-2-7.7,8.3a34.7,34.7,0,0,1,0,21.3Z" fill="#b5dee2"/><path d="M144,78.5l-11.1,2.2a34.6,34.6,0,0,1-12.6,17.3l10.3,4.7,1.7,11.8a55,55,0,0,0,20-27.5Z" fill="#168bb3"/><path d="M132.2,114.5l-1.7-11.8L120.2,98h.1a34.8,34.8,0,0,0,12.5-17.2h0L144,78.4h0l8.3,8.5h0a55.1,55.1,0,0,1-20,27.5ZM120.4,97.9l10.3,4.7,1.7,11.7A55,55,0,0,0,152.2,87L144,78.5l-11.1,2.2A34.9,34.9,0,0,1,120.4,97.9Z" fill="#b5dee2"/><path d="M65.5,70a34.5,34.5,0,0,0,1.7,10.7L59.4,89,47.7,87a55.2,55.2,0,0,1,0-34L56,61.5l11.1-2.2A34.5,34.5,0,0,0,65.5,70Z" fill="#e16526"/><path d="M59.5,89.1h0L47.7,87h0a55.2,55.2,0,0,1,0-34h0L56,61.5l11.2-2.2h0a34.6,34.6,0,0,0,0,21.3h0ZM47.8,86.9l11.6,2,7.7-8.3a34.7,34.7,0,0,1,0-21.3L56,61.6h0l-8.2-8.5a55.1,55.1,0,0,0,0,33.8Z" fill="#b5dee2"/><path d="M130.6,102.7l-10.3-4.7a34.4,34.4,0,0,1-20.3,6.6l5.6,9.9L100,124.9a54.7,54.7,0,0,0,32.3-10.5Z" fill="#d0dd41"/><path d="M100,125h-.1l5.6-10.6-5.6-10h.1a34.2,34.2,0,0,0,20.3-6.6h0l10.4,4.8h0l1.7,11.8h0A54.6,54.6,0,0,1,100,125Zm.1-20.4,5.5,9.8h0l-5.5,10.4a54.5,54.5,0,0,0,32.1-10.5l-1.7-11.7L120.3,98A34.3,34.3,0,0,1,100.1,104.6Z" fill="#b5dee2"/><path d="M100,104.5a34.4,34.4,0,0,1-20.3-6.6l-1.3,11.3-10.7,5.2A54.7,54.7,0,0,0,100,124.9l5.6-10.5Z" fill="#aab35f"/><path d="M100,125h0a54.6,54.6,0,0,1-32.3-10.5h0l10.6-5.2,1.3-11.3h.1a34.2,34.2,0,0,0,20.3,6.6h0l5.6,10ZM67.8,114.5A54.5,54.5,0,0,0,100,124.9l5.5-10.4-5.5-9.9A34.3,34.3,0,0,1,79.7,98l-1.3,11.2h0Z" fill="#b5dee2"/><path d="M69.4,37.3,67.7,25.6A55,55,0,0,0,47.7,53L56,61.5l11.1-2.2A34.6,34.6,0,0,1,79.7,42.1Z" fill="#527d9c"/><path d="M56,61.6h0L47.7,53h0a55.1,55.1,0,0,1,20-27.5h.1l1.7,11.8L79.8,42h-.1A34.8,34.8,0,0,0,67.2,59.3h0ZM47.8,53,56,61.5l11.1-2.2A34.9,34.9,0,0,1,79.6,42.1L69.3,37.3,67.7,25.7A55,55,0,0,0,47.8,53Z" fill="#b5dee2"/><circle cx="89.8" cy="40.4" r="4" fill="#186b8d"/><path d="M89.8,44.4a4,4,0,1,1,4-4A4,4,0,0,1,89.8,44.4Zm0-7.9a3.9,3.9,0,1,0,3.9,3.9A3.9,3.9,0,0,0,89.8,36.5Z" fill="#b5dee2"/><circle cx="89.8" cy="39" r="0.9" fill="#fff"/><path d="M91,42.1H88.6V40.5A.5.5,0,0,1,89,40h.3l.5,1,.5-1h.3a.5.5,0,0,1,.4.5Z" fill="#fff"/><path d="M89.9,40.3h-.2V40H90Z" fill="#fff"/><polygon points="89.9 40.5 89.8 40.8 89.6 40.5 89.7 40.3 89.9 40.3 89.9 40.5" fill="#fff"/><circle cx="91" cy="41.8" r="0.8" fill="#186b8d"/><path d="M91,42.7a.9.9,0,1,1,.9-.9A.9.9,0,0,1,91,42.7Zm0-1.5a.7.7,0,1,0,.7.7A.7.7,0,0,0,91,41.2Z" fill="#fff"/><path d="M91,42.2h-.1l-.4-.4.2-.2.3.3L92,41l.2.2-1,1Z" fill="#fff"/><circle cx="110.3" cy="40.4" r="4" fill="#95d3c8"/><path d="M110.3,44.4a4,4,0,1,1,4-4A4,4,0,0,1,110.3,44.4Zm0-7.9a3.9,3.9,0,1,0,3.9,3.9A3.9,3.9,0,0,0,110.3,36.5Z" fill="#b5dee2"/><polygon points="109.6 41.2 109.6 40.7 110.1 40.7 110.1 40.9 109.8 40.9 109.8 41.2 109.6 41.2" fill="#fff"/><polygon points="109.4 39.7 109.2 39.7 109.2 39.4 108.9 39.4 108.9 39.2 109.4 39.2 109.4 39.7" fill="#fff"/><polygon points="111.9 39.1 111.4 39.1 111.4 38.9 111.7 38.9 111.7 38.6 111.9 38.6 111.9 39.1" fill="#fff"/><path d="M110.3,41.2l-.6-.2h.1l.5.2a.6.6,0,1,0-.6-.6h-.2a.8.8,0,1,1,.8.8Z" fill="#fff"/><path d="M110.2,41.9a1.5,1.5,0,0,1-1.1-2.6h.1a1.3,1.3,0,1,0,.9-.4v-.2a1.5,1.5,0,1,1,0,3.1Z" fill="#fff"/><path d="M110.3,42.5a2.2,2.2,0,1,1,1.5-3.7h-.1a2,2,0,1,0,.6,1.4h.2A2.2,2.2,0,0,1,110.3,42.5Z" fill="#fff"/><circle cx="74.8" cy="51.4" r="4" fill="#527d9c"/><path d="M74.8,55.4a4,4,0,1,1,4-4A4,4,0,0,1,74.8,55.4Zm0-7.9a3.9,3.9,0,1,0,3.9,3.9A3.9,3.9,0,0,0,74.8,47.5Z" fill="#b5dee2"/><circle cx="74.8" cy="51.4" r="0.5" fill="#fff"/><path d="M74.8,52.4a.9.9,0,1,1,.9-.9A.9.9,0,0,1,74.8,52.4Zm0-1.7a.8.8,0,1,0,.8.8A.8.8,0,0,0,74.8,50.6Z" fill="#fff"/><path d="M74.8,52.4a3.1,3.1,0,0,1-2.2-.9h0a3.2,3.2,0,0,1,4.5,0h0A3.1,3.1,0,0,1,74.8,52.4Zm-2.1-1a3,3,0,0,0,4.2,0,3,3,0,0,0-4.2,0Z" fill="#fff"/><rect x="74.7" y="49.2" width="0.1" height="0.95" fill="#fff"/><rect x="75.6" y="49.7" width="0.9" height="0.11" transform="translate(3.2 104.2) rotate(-70)" fill="#fff"/><rect x="76.5" y="50.3" width="0.9" height="0.11" transform="translate(-5.1 91.8) rotate(-60)" fill="#fff"/><rect x="72.7" y="49.9" width="0.1" height="0.87" transform="translate(-15.3 58.5) rotate(-40)" fill="#fff"/><rect x="73.5" y="49.4" width="0.1" height="0.87" transform="translate(-12.6 28.2) rotate(-20)" fill="#fff"/><rect x="74.7" y="52.7" width="0.1" height="0.95" fill="#fff"/><rect x="75.9" y="52.6" width="0.1" height="0.87" transform="translate(-13.6 29.2) rotate(-20)" fill="#fff"/><rect x="76.8" y="52.1" width="0.1" height="0.87" transform="translate(-15.9 45.5) rotate(-30)" fill="#fff"/><rect x="72.3" y="52.4" width="0.9" height="0.11" transform="translate(-14.2 74.4) rotate(-50)" fill="#fff"/><rect x="73.1" y="53" width="0.9" height="0.11" transform="translate(-1.4 104) rotate(-70)" fill="#fff"/><circle cx="89.6" cy="99.6" r="4" fill="#aab35f"/><path d="M89.6,103.6a4,4,0,1,1,4-4A4,4,0,0,1,89.6,103.6Zm0-7.9a3.9,3.9,0,1,0,3.9,3.9A3.9,3.9,0,0,0,89.6,95.7Z" fill="#b5dee2"/><path d="M89.6,102h-.1a3,3,0,0,1-1.7-2.7V98l1.7-.9,1.7.9v1.3a3,3,0,0,1-1.7,2.7Zm-1.5-3.8v1.1a2.8,2.8,0,0,0,1.5,2.4,2.8,2.8,0,0,0,1.5-2.4V98.2l-1.5-.7Z" fill="#fff"/><polygon points="89.1 100.9 88.4 100.1 88.6 99.9 89.1 100.5 90.6 99 90.8 99.2 89.1 100.9" fill="#fff"/><polygon points="91.2 98.8 89.6 98 88 98.8 88 98.6 89.6 97.8 91.2 98.6 91.2 98.8" fill="#fff"/><polygon points="91.3 99 89.6 98.1 87.9 99 87.9 98.6 89.6 97.7 91.3 98.6 91.3 99" fill="#fff"/><circle cx="125.3" cy="88.5" r="4" fill="#168bb3"/><path d="M125.3,92.5a4,4,0,1,1,4-4A4,4,0,0,1,125.3,92.5Zm0-7.9a3.9,3.9,0,1,0,3.9,3.9A3.9,3.9,0,0,0,125.3,84.5Z" fill="#b5dee2"/><path d="M125.3,86a1.2,1.2,0,0,0-1.2,1.2v.9h.4v-.9a.7.7,0,1,1,1.5,0v.9h.4v-.9A1.2,1.2,0,0,0,125.3,86Z" fill="#fff"/><path d="M126.3,90.9h-1.9a.6.6,0,0,1-.6-.6v-2a.3.3,0,0,1,.3-.3h2.6a.3.3,0,0,1,.3.3v2A.6.6,0,0,1,126.3,90.9Zm-2.2-2.6v2a.3.3,0,0,0,.3.3h1.9a.3.3,0,0,0,.3-.3v-2Z" fill="#fff"/><circle cx="125.3" cy="89.3" r="0.4" fill="#fff"/><path d="M125.2,89.5h.3a0,0,0,0,1,0,0V90a.1.1,0,0,1-.1.1h-.1a.1.1,0,0,1-.1-.1v-.5a0,0,0,0,1,0,0Z" fill="#fff"/><circle cx="68.7" cy="70.3" r="4" fill="#e16526"/><path d="M68.7,74.3a4,4,0,1,1,4-4A4,4,0,0,1,68.7,74.3Zm0-7.9a3.9,3.9,0,1,0,3.9,3.9A3.9,3.9,0,0,0,68.7,66.4Z" fill="#b5dee2"/><circle cx="68.7" cy="69.2" r="0.5" fill="#fff"/><rect x="68.2" y="69.8" width="0.9" height="1.31" fill="#fff"/><rect x="69" y="70.8" width="0.4" height="1.46" rx="0.1" ry="0.1" transform="translate(-26.5 44.2) rotate(-30)" fill="#fff"/><rect x="67.5" y="71.3" width="1.5" height="0.38" rx="0.1" ry="0.1" transform="translate(-27.9 94.8) rotate(-60)" fill="#fff"/><rect x="67.7" y="69.2" width="0.4" height="1.31" rx="0.1" ry="0.1" transform="translate(-21 109.8) rotate(-70)" fill="#fff"/><rect x="68.8" y="69.7" width="1.3" height="0.38" rx="0.1" ry="0.1" transform="translate(-19.7 28) rotate(-20)" fill="#fff"/><rect x="65.9" y="70.2" width="1.2" height="0.21" fill="#fff"/><rect x="67" y="67.9" width="0.2" height="1.24" transform="translate(-28.6 75.9) rotate(-50)" fill="#fff"/><rect x="66.3" y="72" width="1.2" height="0.21" transform="translate(-30.7 59.8) rotate(-40)" fill="#fff"/><rect x="70.2" y="70.2" width="1.2" height="0.21" fill="#fff"/><rect x="69.6" y="68.5" width="1.2" height="0.21" transform="translate(-27.6 61.2) rotate(-40)" fill="#fff"/><rect x="70.3" y="71.5" width="0.2" height="1.24" transform="translate(-30 79.7) rotate(-50)" fill="#fff"/><circle cx="125.2" cy="51.4" r="4" fill="#7bcabc"/><path d="M125.2,55.4a4,4,0,1,1,4-4A4,4,0,0,1,125.2,55.4Zm0-7.9a3.9,3.9,0,1,0,3.9,3.9A3.9,3.9,0,0,0,125.2,47.5Z" fill="#b5dee2"/><circle cx="126.1" cy="53.2" r="0.6" fill="#fff"/><circle cx="123.7" cy="51.4" r="0.6" fill="#fff"/><circle cx="126.1" cy="49.6" r="0.6" fill="#fff"/><rect x="123.4" y="50.4" width="3" height="0.27" transform="translate(-5 86.4) rotate(-37.4)" fill="#fff"/><rect x="124.8" y="50.8" width="0.3" height="2.98" transform="translate(7.4 119.7) rotate(-52.6)" fill="#fff"/><circle cx="74.7" cy="88.5" r="4" fill="#e78148"/><path d="M74.7,92.5a4,4,0,1,1,4-4A4,4,0,0,1,74.7,92.5Zm0-7.9a3.9,3.9,0,1,0,3.9,3.9A3.9,3.9,0,0,0,74.7,84.5Z" fill="#b5dee2"/><path d="M76.6,90.8H72.8V86.1h3.8Zm-3.7-.2h3.5V86.3H72.9Z" fill="#fff"/><rect x="73.1" y="86.6" width="3" height="0.96" fill="#fff"/><rect x="73.4" y="86.8" width="0.5" height="0.54" fill="#e78148"/><rect x="73.1" y="88" width="3" height="0.96" fill="#fff"/><rect x="73.4" y="88.2" width="0.5" height="0.54" fill="#e78148"/><rect x="73.1" y="89.3" width="3" height="0.96" fill="#fff"/><rect x="73.4" y="89.5" width="0.5" height="0.54" fill="#e78148"/><circle cx="110.3" cy="99.6" r="4" fill="#d0dd41"/><path d="M110.3,103.6a4,4,0,1,1,4-4A4,4,0,0,1,110.3,103.6Zm0-7.9a3.9,3.9,0,1,0,3.9,3.9A3.9,3.9,0,0,0,110.3,95.7Z" fill="#b5dee2"/><rect x="108.9" y="97.6" width="3.1" height="4.33" fill="#fff"/><path d="M112.1,102.1h-3.3V97.5h3.3Zm-3.1-.2h2.8V97.8H109Z" fill="#fff"/><rect x="108.7" y="97.4" width="3.1" height="4.33" fill="#d0dd41"/><path d="M111.9,101.9h-3.3V97.3h3.3Zm-3.1-.2h2.8V97.5h-2.8Z" fill="#fff"/><rect x="110.2" y="98" width="1.1" height="0.22" fill="#fff"/><rect x="110.2" y="98.4" width="1.1" height="0.22" fill="#fff"/><rect x="109.1" y="98.9" width="2.2" height="0.22" fill="#fff"/><rect x="109.1" y="99.3" width="2.2" height="0.22" fill="#fff"/><rect x="109.1" y="99.7" width="2.2" height="0.22" fill="#fff"/><rect x="109.1" y="100.2" width="2.2" height="0.22" fill="#fff"/><rect x="109.1" y="100.6" width="2.2" height="0.22" fill="#fff"/><rect x="109.1" y="101.1" width="2.2" height="0.22" fill="#fff"/><polygon points="109.8 98.5 109.4 98.3 109.1 98.5 109.1 97.2 109.8 97.2 109.8 98.5" fill="#d0dd41"/><path d="M109.9,98.7l-.5-.3-.5.3V97.1h.9Zm-.5-.6.2.2v-1h-.5v1Z" fill="#fff"/><circle cx="131.4" cy="70.3" r="4" fill="#5a9bbf"/><path d="M131.4,74.3a4,4,0,1,1,4-4A4,4,0,0,1,131.4,74.3Zm0-7.9a3.9,3.9,0,1,0,3.9,3.9A3.9,3.9,0,0,0,131.4,66.4Z" fill="#b5dee2"/><path d="M131.4,72.7a.6.6,0,0,1-.4-.2l-.2-.2H130a.6.6,0,0,1-.2-.4v-.3l-.2-.2c-.1-.1-.3-.2-.4-.3a.6.6,0,0,1,.1-.5V70a.6.6,0,0,1-.1-.5c.1-.2.2-.2.4-.3l.2-.2v-.3a.6.6,0,0,1,.2-.4h.8l.2-.2a.5.5,0,0,1,.8,0l.2.2h.8a.6.6,0,0,1,.2.4v.3l.2.2c.1.1.3.2.4.3a.6.6,0,0,1-.1.5v.5a.6.6,0,0,1,.1.5c-.1.2-.2.2-.4.3l-.2.2v.3a.6.6,0,0,1-.2.4H132l-.2.2A.6.6,0,0,1,131.4,72.7Zm-.7-.6h.2l.3.2.3.2.3-.2.3-.2h.7c.1,0,.1-.2.1-.3a.8.8,0,0,1,.1-.4l.3-.2.3-.2c0-.1,0-.2-.1-.3a.6.6,0,0,1,0-.7c.1-.1.1-.2.1-.3l-.3-.2-.3-.2a.8.8,0,0,1-.1-.4c0-.1,0-.3-.1-.3h-.7l-.3-.2-.3-.2-.3.2-.3.2h-.7c-.1,0-.1.2-.1.3a.8.8,0,0,1-.1.4l-.3.2-.3.2c0,.1,0,.2.1.3a.6.6,0,0,1,0,.7c-.1.1-.1.2-.1.3l.3.2.3.2a.8.8,0,0,1,.1.4c0,.1,0,.3.1.3h.5Z" fill="#fff"/><circle cx="131.4" cy="70.3" r="1.6" transform="translate(50.1 195.2) rotate(-85.1)" fill="#fff"/><circle cx="131.4" cy="70.3" r="1.4" fill="#5a9bbf"/><polygon points="131.2 71 130.4 70.3 130.7 70 131.2 70.4 132.7 68.9 133 69.2 131.2 71" fill="#fff"/><path d="M71.9,33.4l.4-.3h.8l.3.3.2.4a.8.8,0,0,1,.1.3v.2l-.2.2-.4.3Zm.4.1.7.9h.4v-.2l-.2-.3-.2-.2h-.6Z" fill="#fff"/><path d="M74.1,34l-1-1.5.9-.6.2.2-.6.4.2.3.6-.4.2.2-.6.4.3.4.7-.5.2.2Z" fill="#fff"/><path d="M74.9,32.8l.2-.2q.2.3.4.1v-.2a.2.2,0,0,0,0-.2h-1l-.2-.2v-.3a.4.4,0,0,1,.1-.2l.2-.2h.4l.3.3-.2.2h-.5a.1.1,0,0,0,0,.1h1l.2.2a.6.6,0,0,1,.1.4.6.6,0,0,1-1.1.2Z" fill="#fff"/><path d="M76.4,32.5,75.4,31l.2-.2.9,1.5Z" fill="#fff"/><path d="M77.1,31.3l-.2-.3.5-.3.4.6v.3l-.3.2h-.8l-.3-.4a1.2,1.2,0,0,1-.2-.5.7.7,0,0,1,.1-.4l.3-.3h.4l.4.2-.2.2h-.4l-.2.3a.7.7,0,0,0,.1.4l.4.4h.5v-.4Z" fill="#fff"/><path d="M78.2,31.4l-.8-1.6h.3l1.1.8-.6-1h.2l.8,1.6h-.3l-1.1-.7.5,1Z" fill="#fff"/><path d="M80.1,30.4,79.1,29h.3l.7,1-.3-1.2.3-.2.8,1-.3-1.2h.3l.4,1.7H81L80.1,29l.3,1.3Z" fill="#fff"/><path d="M81.7,29.7,81,28.1h.3l.7,1.6Z" fill="#fff"/><path d="M82.5,29.3,81.9,28l-.4.2v-.3l1.1-.4v.3l-.4.2.6,1.4Z" fill="#fff"/><path d="M83.3,29l-.6-1.7H83l.2.7.5-.2-.2-.7h.3l.6,1.7h-.3l-.3-.7-.5.2.3.7Z" fill="#fff"/><path d="M84.6,26.6h.3l.3.9v.3h.5v-.3l-.3-.9h.3l.3.9v.5a.4.4,0,0,1-.1.3l-.3.2h-.4l-.2-.2-.2-.5Z" fill="#fff"/><path d="M86.3,27.3h.3q.1.3.4.2h.2a.2.2,0,0,0,0-.2h-.9v-.2a.5.5,0,0,1,0-.3v-.2H87l.3.3H87v-.2h-.4a.1.1,0,0,0,0,.1h.9V27a.6.6,0,0,1,0,.4l-.4.3Q86.6,27.9,86.3,27.3Z" fill="#fff"/><path d="M87.9,27.5l-.5-1.7,1-.3v.3l-.8.2v.4l.7-.2v.3l-.7.2v.5l.8-.2v.3Z" fill="#fff"/><path d="M89.2,27.1l-.4-1.7h1.1v.3a.5.5,0,0,1,0,.3l-.2.2H90l.2.2.2.3h-.3l-.3-.3-.2-.2h-.3l.2.7Zm.1-1.1h.5a.3.3,0,0,0,0-.1h-.6Z" fill="#fff"/><path d="M90.4,26.2h.3q.1.3.4.3h.2a.2.2,0,0,0,0-.2h-.9v-.2a.5.5,0,0,1,0-.3V25h.7a.6.6,0,0,1,.2.4h-.3v-.2h.5v.3a.6.6,0,0,1-.1.4l-.4.2Q90.6,26.8,90.4,26.2Z" fill="#fff"/><path d="M127.1,32.7l.2.3-.4.2h-.4a.6.6,0,0,1-.2-.4,1.1,1.1,0,0,1,.2-.7,1.1,1.1,0,0,1,.6-.5h.5a.6.6,0,0,1,.2.4.7.7,0,0,1-.1.4h-.3a.4.4,0,0,0,0-.2v-.2H127l-.4.3a.9.9,0,0,0-.2.4.3.3,0,0,0,.1.3h.2Z" fill="#fff"/><path d="M127.6,32.8l.4-.4h.7a.6.6,0,0,1,.3.5,1,1,0,0,1-.3.7,1.1,1.1,0,0,1-.6.4h-.5a.6.6,0,0,1-.3-.5A1,1,0,0,1,127.6,32.8Zm.2.2a.8.8,0,0,0-.2.4.3.3,0,0,0,.1.3h.3l.4-.3a.8.8,0,0,0,.2-.4.3.3,0,0,0-.1-.3h-.3Z" fill="#fff"/><path d="M128.4,34.5l1.1-1.4.2.2-.9,1.1.6.5-.2.2Z" fill="#fff"/><path d="M129.3,35.2l1.1-1.3.2.2-.9,1.1.6.5-.2.2Z" fill="#fff"/><path d="M131.2,36.9l-.2-.2.2-.4-.4-.4-.4.2-.2-.2,1.6-.9.2.2Zm.1-.9.3-.6-.6.4Z" fill="#fff"/><path d="M132.6,35.7l.4.4.2.3a.4.4,0,0,1,0,.2v.2h-.4a.4.4,0,0,1,0,.3v.2l-.3.2H132l-.3-.3-.4-.3Zm-.5.9-.3.3.2.2h.5a.2.2,0,0,0,0-.1l-.2-.2Zm.5-.5-.3.3h.6l-.2-.2Z" fill="#fff"/><path d="M133,37.4l.4-.3h.4l.3.2a.6.6,0,0,1,.2.5,1,1,0,0,1-.3.6l-.6.3-.5-.2a.6.6,0,0,1-.2-.5A1,1,0,0,1,133,37.4Zm.2.2-.2.4a.3.3,0,0,0,.1.3h.3l.4-.2.2-.4a.3.3,0,0,0-.1-.3h-.3Z" fill="#fff"/><path d="M133.5,39.2l1.3-1.2.4.5.2.3a.4.4,0,0,1,0,.2l-.2.2-.3.2h-.3a.7.7,0,0,1,0,.2v.7l-.2-.3v-.7a.2.2,0,0,0,0-.1h-.1l-.5.5Zm1-.5v.2l.2.2h.3a.2.2,0,0,0,0-.1l-.2-.2-.2-.2Z" fill="#fff"/><path d="M135.3,41.2l-.2-.2.2-.4-.4-.4-.4.2-.2-.2,1.7-.7.2.2Zm.2-.9.4-.6-.6.3Z" fill="#fff"/><path d="M135.5,41.5l1.1-.9-.3-.3.2-.2.7.9-.2.2-.3-.3-1.1.9Z" fill="#fff"/><path d="M136.1,42.2l1.4-1.1.7.9-.2.2-.5-.6-.3.2.4.6-.2.2-.4-.6-.4.3.5.6-.2.2Z" fill="#fff"/><path d="M137.3,43.9l1.3-1.3.2.2-.9.9,1.2-.5.2.3-.9.9,1.1-.5.2.2-1.7.7-.2-.3.9-1-1.3.5Z" fill="#fff"/><path d="M138.3,45.3l1.5-1,.2.2-1.5,1Z" fill="#fff"/><path d="M140.1,44.8l.3.5v.3a.5.5,0,0,1,0,.2l-.2.3-.3.3-.4.2h-.5l-.2-.2-.3-.5Zm-.1.4-1,.6v.3h.6l.2-.2v-.2a.3.3,0,0,0,0-.2v-.2Z" fill="#fff"/><path d="M139.3,47l1.5-.9.5.9-.3.2-.4-.7-.3.2.4.6-.3.2-.4-.6-.4.2.4.7-.3.2Z" fill="#fff"/><path d="M140,48.1l1.5-.8v.3l-1.3.7.3.6h-.3Z" fill="#fff"/><path d="M140.7,49.4l.7-.3.7-.9.2.3-.5.6h.8l.2.3h-1.2l-.7.3Z" fill="#fff"/><path d="M99.4,24.6V22.8h.3v1.8Z" fill="#fff"/><path d="M100.3,24.5V23.1h-.4v-.3H101v.3h-.4v1.5Z" fill="#fff"/><path d="M101.2,24.6V22.8h1.1v.3h-.8v.4h.7v.3h-.7v.5h.8v.3Z" fill="#fff"/><path d="M102.5,24.6V22.9h.9l.2.2a.6.6,0,0,1,0,.3.5.5,0,0,1-.1.3h-.3v.5l.2.4h-.3l-.2-.4V24h-.3v.7Zm.4-1h0Z" fill="#fff"/><path d="M105.3,24.9h-.3v-.4h-.6l-.2.4h-.3l.7-1.7h.3Zm-.5-.8v-.7l-.3.6Z" fill="#fff"/><path d="M105.6,24.9l.2-1.5h-.4v-.3h1.1v.3h-.4l-.2,1.5Z" fill="#fff"/><path d="M106.5,25l.3-1.7,1.1.2v.3H107V24h.7v.3h-.7v.5h.8v.3Z" fill="#fff"/><path d="M109.6,25.6h-.3v-.4h-.6l-.2.4h-.3l.9-1.6h.3Zm-.4-.8v-.7l-.3.6Z" fill="#fff"/><path d="M109.7,25.6l.4-1.7h.3l.3,1.3.3-1.2h.3l-.4,1.7h-.3l-.3-1.3-.3,1.1Z" fill="#fff"/><path d="M111.6,24.2h.8v.2a.8.8,0,0,1,.1.3,1.6,1.6,0,0,1-.1.4l-.2.4-.2.2h-1Zm.2.4-.3,1.1h.6v-.8h-.5Z" fill="#fff"/><path d="M113,26.5l.5-1.7h.3l-.5,1.7Z" fill="#fff"/><path d="M113.6,26.6l.6-1.7h.4v1.2l.6-1.1h.4l-.6,1.7h-.3l.4-1.3-.7,1.2h-.3l.2-1.4-.4,1.3Z" fill="#fff"/><path d="M115.2,27.2l.6-1.7.4.2h.3V26a.6.6,0,0,1,0,.4l-.2.3h-.8l-.2.6Zm.8-1.3-.2.5h.6a.3.3,0,0,0,0-.2h-.4Z" fill="#fff"/><path d="M116.4,27.6l.7-1.6.6.2.3.2v.2a.6.6,0,0,1,0,.3l-.2.3h-.3v.9h-.3v-.7H117l-.3.7Zm.7-.8h.6a.2.2,0,0,0,0-.1h-.5Z" fill="#fff"/><path d="M118.1,27.3l.3-.4.3-.2h.4a.6.6,0,0,1,.4.4,1,1,0,0,1-.1.7,1.1,1.1,0,0,1-.5.6h-.5a.6.6,0,0,1-.4-.4A1,1,0,0,1,118.1,27.3Zm.3.1a.8.8,0,0,0-.1.5l.2.3h.3l.3-.4a.8.8,0,0,0,.1-.5l-.2-.3h-.3Z" fill="#fff"/><path d="M119.5,29l.3-1.8h.3l-.2,1.3.9-1h.3l-1.2,1.4Z" fill="#fff"/><path d="M120.4,29.4l.8-1.6,1,.5v.3l-.7-.4-.2.3.6.3v.3l-.6-.3-.2.4.7.4v.3Z" fill="#fff"/><path d="M103.1,26.9V25.2h1v.3h-.7v.4h.6v.3h-.6v.7Z" fill="#fff"/><path d="M104.3,27l.2-1.8h.9v.2a.6.6,0,0,1,0,.3.5.5,0,0,1-.1.3h-.3v.8h-.3l-.2-.4v-.3h-.3v.7Zm.4-1h.6a.2.2,0,0,0,0-.1h-.5Z" fill="#fff"/><path d="M105.7,27.2l.3-1.8,1.1.2v.3h-.8v.4h.7v.3h-.7v.5h.8v.3Z" fill="#fff"/><path d="M108.2,27.4l.2.2-.2.2h-.1l-.2-.2h-.3a.6.6,0,0,1-.5-.3,1.3,1.3,0,0,1,.2-1.3h.5a.6.6,0,0,1,.5.3,1,1,0,0,1,.1.7v.4Zm-.2-.2a1,1,0,0,0,.2-.9L108,26h-.3a.8.8,0,0,0-.2.4.8.8,0,0,0,0,.5l.2.2h0v-.2Z" fill="#fff"/><path d="M109,25.9h.3l-.2.9v.5h.5v-.3l.2-1h.3l-.2.9v.5l-.2.2h-.4l-.3-.2v-.3a1.7,1.7,0,0,1,.1-.5Z" fill="#fff"/><path d="M110,28l.4-1.7,1,.3v.3l-.8-.2V27l.7.2v.3l-.7-.2v.5l.8.2v.3Z" fill="#fff"/><path d="M111.3,28.3l.5-1.7h.3l.2,1.3.3-1.1h.3l-.5,1.7h-.3l-.2-1.3-.3,1.1Z" fill="#fff"/><path d="M113,28.8l.4-1.4h-.4V27l1.1.4v.3h-.4l-.4,1.4Z" fill="#fff"/><path d="M113.9,29.1l.6-1.7h.3l-.5,1.4.7.2v.3Z" fill="#fff"/><path d="M115.2,29.6l.3-.7V27.7h.3v.8l.6-.5h.3l-.9.8-.3.7Z" fill="#fff"/><path d="M144.9,56.5l1.7-.5.3,1h-.3l-.2-.8H146l.2.7h-.3l-.2-.7h-.5l.2.8h-.3Z" fill="#fff"/><path d="M145.3,57.8l1.7-.4v.4l-1.1.5h1.2v.4l-1.7.4v-.3l1.4-.3h-1.4v-.3l1.3-.6-1.4.3Z" fill="#fff"/><path d="M145.7,59.4l1.7-.4v1l-.3.2h-.5v-.5h-.7Zm1.5,0h-.5v.4h.4v-.2Z" fill="#fff"/><path d="M146.8,60.5h.5l.3.2.2.3a.6.6,0,0,1-.1.5l-.6.3h-.7a.7.7,0,0,1-.2-1Zm.1.3-.4.2a.4.4,0,0,0-.1.3l.2.3h.5l.4-.2a.3.3,0,0,0,.1-.3l-.2-.3Z" fill="#fff"/><path d="M146.2,62.4l1.7-.6v.3l-1.2.4h1.2V63l-1.2.4h1.3v.3h-1.8v-.3l1.3-.5h-1.4Z" fill="#fff"/><path d="M146.5,64.1l1.8-.2V65h-.3v-.8h-.4V65h-.3v-.7h-.5v.8h-.3Z" fill="#fff"/><path d="M146.6,65.4h1.8v.6a.9.9,0,0,1,0,.3l-.2.2h-.6l-.2-.3v.2l-.3.2-.3.2v-.3l.4-.2.2-.2h.1a.4.4,0,0,0,0-.1h-.7Zm1,.2v.5h.4a1.2,1.2,0,0,0,0-.2v-.2Z" fill="#fff"/><path d="M147.3,67.4v.3q-.3.1-.3.3v.2h.3v-.5h.7l.2.2v.3a.6.6,0,0,1-.1.4l-.4.2v-.3h.2v-.4H148v.6l-.2.2h-.7a.6.6,0,0,1-.2-.4Q146.7,67.4,147.3,67.4Z" fill="#fff"/><path d="M146.8,69.1h1.5v-.4h.3v1.2h-.3v-.4h-1.5Z" fill="#fff"/><path d="M146.8,71.2v-.3h.4v-.6h-.4v-.3l1.8.6v.3Zm.7-.5.7-.2-.7-.2Z" fill="#fff"/><path d="M146.8,71.3h1.8v1h-.3v-.7h-.4v.6h-.3v-.6h-.8Z" fill="#fff"/><path d="M146.7,72.6h1.8v1h-.3v-.7h-.4v.6h-.3v-.6h-.8Z" fill="#fff"/><path d="M146.6,74.7l1.5.2v-.4h.3v1.1H148v-.4l-1.5-.2Z" fill="#fff"/><path d="M147.3,75.6l.5.2.3.3a.6.6,0,0,1,.1.4.6.6,0,0,1-.3.5h-.7l-.7-.3a.7.7,0,0,1,.1-1Zm0,.3h-.5l-.2.3a.3.3,0,0,0,.1.3l.4.2h.5l.2-.3a.3.3,0,0,0-.1-.3Z" fill="#fff"/><path d="M144.5,57.7v.5a.8.8,0,0,1,0,.3v.2l-.2.2-.4.2h-.9v-.8Zm-.2.4-1.1.3v.4h1v-.4Z" fill="#fff"/><path d="M143.2,59.5l1.7-.4.2,1.1h-.3l-.2-.8h-.4l.2.7h-.3l-.2-.7h-.5l.2.8h-.3Z" fill="#fff"/><path d="M143.5,60.8l1.7-.3v.3l-1.4.3v.7h-.3Z" fill="#fff"/><path d="M143.7,62l1.7-.3V62l-1.7.3Z" fill="#fff"/><path d="M143.8,63l1.7-.8v.3l-1.2.6,1.3.2v.3l-1.8-.3Z" fill="#fff"/><path d="M144,63.9l1.8-.2v1.1h-.3V64h-.4v.7h-.3v-.7h-.5V65h-.3Z" fill="#fff"/><path d="M144.1,65.2l1.8-.2v.6a.9.9,0,0,1,0,.3l-.2.2h-.6L145,66v.2l-.3.2-.3.2v-.3l.4-.2.2-.2h.1a.4.4,0,0,0,0-.1h-.7Zm1,.2v.5h.4a1.2,1.2,0,0,0,0-.2v-.2Z" fill="#fff"/><path d="M146,67.2v.6a.9.9,0,0,1,0,.3v.2h-.6v.2h-.6l-.2-.2a2.3,2.3,0,0,1,0-.4v-.5Zm-1,.3h-.5V68h.4a.9.9,0,0,0,0-.3Zm.7,0h-.4v.4h.4a1.8,1.8,0,0,0,0-.3Z" fill="#fff"/><path d="M144.3,68.7h1.8v1.1h-.3V69h-.4v.7h-.3V69h-.5v.8h-.3Z" fill="#fff"/><path d="M144.3,70.4h1.5V70h.3v1.2h-.3v-.4h-1.5Z" fill="#fff"/><path d="M144.3,71.6h1.5v-.4h.3v1.2h-.3v-.4h-1.5Z" fill="#fff"/><path d="M144.3,72.5H146v1.1h-.3v-.8h-.4v.7H145v-.7h-.5v.8h-.3Z" fill="#fff"/><path d="M144.2,73.8l1.8.2V75H145a.4.4,0,0,1-.1-.3H144v-.3l.4-.2h-.3Zm1,.4v.2a1.1,1.1,0,0,0,0,.3h.4v-.5Z" fill="#fff"/><path d="M141.5,61.5v.3q-.3.1-.3.4v.2h.3v-.7h.7v.3a.6.6,0,0,1-.1.4l-.4.2v-.3h.2a.3.3,0,0,0,0-.2v-.2h-.2v.6l-.2.2h-.7a.6.6,0,0,1-.2-.4Q140.9,61.6,141.5,61.5Z" fill="#fff"/><path d="M141.2,63l1.8-.3.2,1.1h-.3V63h-.4v.7h-.3v-.7h-.5V64h-.3Z" fill="#fff"/><path d="M141.4,64.3l1.8-.2v.6a.9.9,0,0,1,0,.3v.2h-.6l-.2-.3v.2l-.3.2-.3.2v-.3l.4-.3.2-.2h.1a.4.4,0,0,0,0-.1h-.7Zm1,.2v.5h.4a1.2,1.2,0,0,0,0-.2v-.2Z" fill="#fff"/><path d="M141.6,66.1l1.7-.7v.3l-1.3.5,1.3.2v.3l-1.8-.4Z" fill="#fff"/><path d="M141.6,67h1.8v.3h-1.8Z" fill="#fff"/><path d="M142.3,68.5v.3l-.4-.2a.6.6,0,0,1-.2-.4.6.6,0,0,1,.2-.5l.7-.2.7.2a.6.6,0,0,1,.2.5.6.6,0,0,1-.2.4l-.3.2v-.3h.2v-.2a.3.3,0,0,0-.1-.3h-.9a.3.3,0,0,0-.1.3v.2Z" fill="#fff"/><path d="M141.7,69h1.8v1.1h-.3v-.8h-.4V70h-.3v-.7H142v.8h-.3Z" fill="#fff"/><path d="M142.3,70.3v.3q-.3,0-.3.3v.2h.3v-.5h.7l.2.2a.6.6,0,0,1,.1.3.6.6,0,0,1-.1.4H143v-.3h.2v-.4h-.2v.6h-.5l-.4-.2a.6.6,0,0,1-.1-.4Q141.7,70.4,142.3,70.3Z" fill="#fff"/><path d="M56.3,55.7l-1.8-.3v-.3l1.2.2-1.1-.7v-.3l1.3.2L55.1,54v-.3l1.6.9v.3l-1.3-.2,1.2.7Z" fill="#fff"/><path d="M56.1,53.9l-.4-.3-.2-.3a.6.6,0,0,1,0-.4.6.6,0,0,1,.4-.4h.7a1.1,1.1,0,0,1,.6.4.7.7,0,0,1-.4.9Zm.1-.3h.5l.2-.2a.3.3,0,0,0,0-.3l-.4-.3H56l-.2.2a.3.3,0,0,0,0,.3Z" fill="#fff"/><path d="M57.5,52.7,55.9,52l.2-.6.2-.3h.5l.3.2a.4.4,0,0,1,0,.3H58v.3h-.9l.7.3Zm-.8-.7v-.4h-.4v.4Z" fill="#fff"/><path d="M58.1,51.4l-1.6-.8v-.3l.7.3-.5-.9.2-.4.4.8h1.2l-.2.3h-.9l.2.3.5.2Z" fill="#fff"/><path d="M59,49.6l-1.6-.8v-.3l1.6.8Z" fill="#fff"/><path d="M59.2,49.1l-1.6-.8V48h1.3l-1-.6v-.2l1.6.8v.3H58.3l1,.6Z" fill="#fff"/><path d="M60.4,47l-1.3-.8-.2.4-.3-.2.6-1,.3.2-.2.4,1.3.8Z" fill="#fff"/><path d="M60.8,46.3l-1.5-1,.2-.2.6.4.3-.5-.6-.4.2-.2,1.5,1-.2.2-.7-.4-.3.5.7.4Z" fill="#fff"/><path d="M61.6,45l-1.5-1,.6-.9.2.2-.4.6.3.2.4-.6.2.2-.4.6.4.3L62,44l.2.2Z" fill="#fff"/><path d="M62,43l-.4-.4a.7.7,0,0,1-.1-.4.6.6,0,0,1,.1-.4l.5-.3.7.2a1.1,1.1,0,0,1,.4.6.6.6,0,0,1-.1.5l-.5.3Zm.2-.2.4.2h.3a.3.3,0,0,0,.1-.3l-.3-.4-.4-.2h-.3a.3.3,0,0,0-.1.3Z" fill="#fff"/><path d="M63.6,42.2l-1.4-1.1.3-.4.2-.3h.3l.3.2.2.3a.4.4,0,0,1,0,.3l-.2.3v.2l.5.4Zm-1-1.1.4.3h.1v-.2a.2.2,0,0,0,0-.1h-.4l-.2.2Z" fill="#fff"/><path d="M64.5,41.2,63.1,40l.7-.8.2.2-.5.6.3.3.5-.6.2.2-.5.6.4.3.5-.6.2.2Z" fill="#fff"/><path d="M65.3,40.2,64,39l.2-.2,1.3.4-.9-.8.2-.2,1.3,1.2-.2.2-1.2-.3.9.8Z" fill="#fff"/><path d="M58,52.8l.2-.5.2-.3H59v.2h.5l.3.2a.4.4,0,0,1,.1.3v.4l-.2.5Zm.4-.1.4.2v-.4a.2.2,0,0,0,0-.1h-.3v.4Zm.6.3.4.2v-.5h-.4V53Z" fill="#fff"/><path d="M60.3,51.9l-.7-.3H58.5v-.3h.8l-.5-.6v-.3l.7.9.7.3Z" fill="#fff"/><path d="M59.4,49.7l.3-.5.2-.2h.5l.4.2.3.2.2.2a.5.5,0,0,1,0,.2v.3l-.3.5Zm.4-.1,1,.5v-.4h-.1l-.3-.2H60v.2Z" fill="#fff"/><path d="M61.7,49.3l-1.5-.9.5-.9h.3l-.4.7.3.2.4-.6h.3l-.4.6.4.2.4-.7h.3Z" fill="#fff"/><path d="M62.3,48.1l-1.5-.9.5-.8.3.2-.4.6.4.2.3-.5.3.2-.3.5.6.4Z" fill="#fff"/><path d="M63.6,46.1l-.2.3h-.4l-.3.5.3.3-.2.3-1.2-1.4.2-.3Zm-.9.1-.7-.2.4.5Z" fill="#fff"/><path d="M62.3,44.9l.2-.2.8.5.2.2h.4v-.2h-.1l-.3-.2-.8-.6.2-.2.8.5.4.3a.4.4,0,0,1,.1.3.6.6,0,0,1-.1.3l-.3.2h-.3l-.5-.3Z" fill="#fff"/><path d="M64.6,44.8l-1.4-1.1.2-.2,1.2.9.4-.6.2.2Z" fill="#fff"/><path d="M65.4,43.6l-1.2-.9-.3.3-.2-.2.7-.9.2.2-.3.3,1.2.9Z" fill="#fff"/><path d="M55.5,86.6l-.2-.5v-.5h.6v-.2l.2-.2h.3l.2.2.2.4.2.5Zm.2-.4H56v-.4h-.4v.4Zm.7-.2.4-.2v-.5h-.4V86Z" fill="#fff"/><path d="M55,85.2v-.3l.9-.3h.4a.3.3,0,0,0,0-.2h-.6l-.9.3v-.3l.9-.3h.8l.2.3a.7.7,0,0,1,0,.4l-.2.2-.5.2Z" fill="#fff"/><path d="M56.2,83.3l-1.7.5v-.3l1.7-.5Z" fill="#fff"/><path d="M56.1,82.8l-1.7.5v-.3l1.4-.4-.2-.7h.3Z" fill="#fff"/><path d="M54,82v-.5a.8.8,0,0,1,0-.3v-.2l.2-.2h1.1l.2.2v.8Zm.2-.4,1.1-.3V81h-1v.4Z" fill="#fff"/><path d="M55.3,79.6l-1.7.3v-.3l1.7-.3Z" fill="#fff"/><path d="M55.2,79.1l-1.7.3v-.3l1.1-.8-1.2.2v-.3l1.7-.3v.3L54,79l1.1-.2Z" fill="#fff"/><path d="M54.7,75.9v.3l-.4.2v.6h.4v.3L53.1,77v-.3Zm-.6.6-.6.3h.7Z" fill="#fff"/><path d="M54,74.9v-.3l.5.2a.6.6,0,0,1,.2.4.6.6,0,0,1-.2.5l-.7.3h-.7a.6.6,0,0,1-.3-.5.6.6,0,0,1,.1-.4l.3-.2v.3h-.2a.3.3,0,0,0-.1.2l.2.2h.9a.3.3,0,0,0,.1-.3V75Z" fill="#fff"/><path d="M53.9,73.4v-.3l.4.2a.6.6,0,0,1,.2.4.6.6,0,0,1-.2.5l-.7.2-.7-.2a.6.6,0,0,1-.3-.5.6.6,0,0,1,.1-.4l.3-.2v.3h-.2v.2l.2.3h.9a.3.3,0,0,0,.1-.3v-.2Z" fill="#fff"/><path d="M54.5,72.8H52.7V71.8H53v.8h.4v-.7h.3v.7h.5v-.8h.3Z" fill="#fff"/><path d="M53.8,71.6v-.3q.3-.1.3-.3v-.2h-.3v.5h-.7l-.2-.2a.6.6,0,0,1-.1-.3.6.6,0,0,1,.1-.4l.4-.2v.3H53v.4h.2v-.6l.2-.2h.7a.6.6,0,0,1,.2.4Q54.5,71.5,53.8,71.6Z" fill="#fff"/><path d="M53.8,70.2v-.3q.3,0,.3-.3v-.2h-.3V70h-.7l-.2-.2a.6.6,0,0,1-.1-.3.6.6,0,0,1,.1-.4h.4v.3H53v.4h.2v-.6h.8a.6.6,0,0,1,.1.4Q54.4,70.2,53.8,70.2Z" fill="#fff"/><path d="M54.4,68.8H52.7v-.3h1.8Z" fill="#fff"/><path d="M52.7,68.2v-.6a.9.9,0,0,1,.1-.3l.2-.2h.5v.2l.2-.2h.6l.2.2a2.3,2.3,0,0,1,0,.4v.5Zm.3-.3h.4v-.2a2.1,2.1,0,0,0,0-.2H53v.4Zm.7,0h.5v-.3a.9.9,0,0,0,0-.2h-.4v.5Z" fill="#fff"/><path d="M54.6,66.8H52.8v-.3h1.8Z" fill="#fff"/><path d="M54.6,66.2l-1.7-.2v-.3h1.4v-.7h.3Z" fill="#fff"/><path d="M54.7,65,53,64.8v-.3l1.8.2Z" fill="#fff"/><path d="M54.8,64.2,53.4,64v.4H53l.2-1.1h.3v.4l1.5.2Z" fill="#fff"/><path d="M55,62.9h-.7l-1.1.4v-.3l.7-.2-.6-.4v-.3l.9.7h.7Z" fill="#fff"/><path d="M58.2,81.8l-1.7.4-.2-1h.3l.2.7h.4l-.2-.6h.3l.2.6.7-.2Z" fill="#fff"/><path d="M57.9,80.7l-1.7.4v-.6a.9.9,0,0,1,0-.3v-.2h.6l.2.2v-.2l.2-.2.3-.2v.3l-.3.3-.2.2h-.1a.4.4,0,0,0,0,.1h0l.7-.2Zm-1.1-.1v-.5h-.4v.5Z" fill="#fff"/><path d="M56.7,79.5h-.5l-.3-.2-.2-.3a.6.6,0,0,1,.1-.5l.6-.3h.7a.7.7,0,0,1,.2,1Zm-.1-.3.4-.2a.3.3,0,0,0,.1-.3l-.2-.3h-.5l-.4.2a.3.3,0,0,0-.1.3l.2.3Z" fill="#fff"/><path d="M57.3,77.7l-1.8.3v-.4l1.2-.4H55.4v-.4l1.8-.3v.3l-1.4.2h1.4v.3l-1.3.5,1.4-.2Z" fill="#fff"/><path d="M56.9,75.2l-1.5.2v.4h-.3V74.6h.3V75l1.5-.2Z" fill="#fff"/><path d="M56.8,74.3H55.1v-.3h.7v-.6H55v-.3h1.8v.3H56V74h.8Z" fill="#fff"/><path d="M56.7,72.8H55V71.8h.3v.8h.4v-.7h.3v.7h.5v-.8h.3Z" fill="#fff"/><path d="M56.1,71v-.3q.3,0,.3-.3v-.2H56v.5h-.7l-.2-.2a.6.6,0,0,1-.1-.3A.6.6,0,0,1,55,70h.4v.3h-.2v.4h.2V70h.8a.6.6,0,0,1,.1.4Q56.7,70.9,56.1,71Z" fill="#fff"/><path d="M56.7,69.3H55.2v.4h-.3V68.5h.3v.4h1.5Z" fill="#fff"/><path d="M56.8,67.2v.3h-.4v.6h.4v.3L55,68v-.3Zm-.7.5-.7.2.6.2Z" fill="#fff"/><path d="M56.8,67.1,55,66.9V66l.2-.2H56a.4.4,0,0,1,.1.3h.8v.3l-.4.2h.3Zm-1-.4v-.2a1.1,1.1,0,0,0,0-.3h-.4v.5Z" fill="#fff"/><path d="M57,65.3l-1.5-.2v.4h-.3V64.4h.3v.4L57,65Z" fill="#fff"/><path d="M65.3,93l.3.5v.3a.4.4,0,0,1,0,.2l-.2.2h-.4a.4.4,0,0,1,0,.3l-.2.2h-.6l-.2-.3-.3-.4Zm-.7.8-.4.3v.4h.3a.2.2,0,0,0,0-.1v-.4Zm.6-.4-.3.2V94h.3a.1.1,0,0,0,0-.1v-.2Z" fill="#fff"/><path d="M64.7,95.2l1.4-1,.6.9-.2.2-.5-.6-.3.2.4.6-.2.2-.4-.6-.4.3.5.7-.2.2Z" fill="#fff"/><path d="M66.7,96.9l.2-.2.4.5-.6.4h-.3l-.3-.2A.7.7,0,0,1,66,97a.7.7,0,0,1,.1-.4l.3-.4.5-.2h.4l.3.2a.6.6,0,0,1,0,.8l-.2-.2v-.4l-.3-.2-.4.2-.3.4a.3.3,0,0,0,.1.3h.5Z" fill="#fff"/><path d="M67.4,97.4l.5-.3h.4l.3.2a.6.6,0,0,1,.1.5,1,1,0,0,1-.4.6l-.7.3-.5-.2A.6.6,0,0,1,67,98,1,1,0,0,1,67.4,97.4Zm.2.2-.3.4a.3.3,0,0,0,.1.3h.3l.4-.2.3-.4a.3.3,0,0,0-.1-.3H68Z" fill="#fff"/><path d="M68.3,98.6l.5-.3h.4l.3.2a.6.6,0,0,1,.2.5,1,1,0,0,1-.4.6l-.7.3-.5-.2a.6.6,0,0,1-.2-.5A1,1,0,0,1,68.3,98.6Zm.2.2-.3.4a.3.3,0,0,0,.1.3h.3l.4-.2.3-.4a.3.3,0,0,0-.1-.3H69Z" fill="#fff"/><path d="M70.1,99.1l.4.4.2.3a.5.5,0,0,1,0,.2v.3l-.3.3-.3.2h-.5l-.2-.2-.4-.4Zm0,.4-.8.8.2.2h.5l.2-.2.2-.2v-.3l-.2-.2Z" fill="#fff"/><path d="M61.6,91.3l.3.5v.3a.5.5,0,0,1,0,.2l-.2.3-.4.2h-.9l-.2-.2-.3-.5Zm-.1.4-1,.6v.4h.6l.3-.2v-.2a.3.3,0,0,0,0-.2v-.2Z" fill="#fff"/><path d="M61.4,94.6l-.2-.3.3-.3-.3-.5h-.4l-.2-.3,1.8-.4.2.3Zm.3-.8.5-.5-.7.2Z" fill="#fff"/><path d="M61.5,94.9l1.2-.8-.2-.4.3-.2.6,1-.3.2-.2-.4-1.2.8Z" fill="#fff"/><path d="M62.7,96.6l-.2-.3.3-.3-.3-.5H62l-.2-.3,1.8-.5.2.3Zm.3-.8.4-.5-.7.2Z" fill="#fff"/><path d="M63.5,96.7l.2.2q-.2.2-.1.5H64a.2.2,0,0,0,0-.1v-.8l.2-.2h.5l.2.2a.5.5,0,0,1-.1.8l-.2-.2v-.4h-.3v.8l-.2.2h-.4l-.4-.3A.6.6,0,0,1,63.5,96.7Z" fill="#fff"/><path d="M64,98.5l1.2-.9-.3-.3.2-.2.7.9-.2.2-.3-.3-1.2.9Z" fill="#fff"/><path d="M64.6,99.2l1.4-1.1.7.8-.2.2-.5-.6-.3.2.5.6-.2.2-.5-.6-.4.3.5.6-.2.2Z" fill="#fff"/><path d="M65.5,100.4l1.1-1.4.2.2-.8,1,1.1-.6.2.3-.8,1,1.1-.6.2.2-1.6.9-.2-.2.8-1.1-1.2.7Z" fill="#fff"/><path d="M67.5,102.5l-.2-.2.2-.4-.4-.4-.4.2-.2-.2,1.7-.8.2.2Zm.1-.9.3-.6-.6.3Z" fill="#fff"/><path d="M67.6,102.6l1.3-1.2.4.4.2.3a.4.4,0,0,1,0,.2l-.2.2-.3.2h-.3a.7.7,0,0,1,0,.2v.7l-.2-.2v-.7a.2.2,0,0,0,0-.1h-.1l-.5.5Zm.9-.5.2.2.2.2h.3a.2.2,0,0,0,0-.1l-.2-.2-.2-.2Z" fill="#fff"/><path d="M69.8,102.4l.4.4.2.2a.5.5,0,0,1,0,.2v.3l-.3.3-.3.3h-.5L69,104l-.4-.4Zm0,.4-.8.9.2.2h.5l.2-.2.2-.2V103l-.2-.2Z" fill="#fff"/><path d="M70,104.2l.2.2q-.2.3,0,.5h.4v-.5a.5.5,0,0,1,0-.2v-.2l.2-.2h.5a.5.5,0,0,1,.1.8l-.2-.2v-.4h-.3v.6a.5.5,0,0,1,0,.2v.2l-.4.2L70,105A.6.6,0,0,1,70,104.2Z" fill="#fff"/><path d="M80.4,107.3h.3l-.4.9v.3a.3.3,0,0,0,0,.2h.4l.2-.3.4-.9h.3l-.4.8-.3.4-.3.2h-.4l-.3-.2a.5.5,0,0,1-.1-.3l.2-.5Z" fill="#fff"/><path d="M81.1,109h.3q-.1.3.1.4h.3l-.2-.2-.2-.2v-.4l.2-.2h.5l.3.3a.6.6,0,0,1,0,.4h-.3a.3.3,0,0,0,0-.2h-.4a.2.2,0,0,0,0,.1l.2.2.2.3v.5l-.3.3h-.5A.6.6,0,0,1,81.1,109Z" fill="#fff"/><path d="M82.1,110.1l.7-1.6,1,.4v.3l-.7-.3-.2.4.7.3v.3l-.7-.3-.2.4.7.3v.3Z" fill="#fff"/><path d="M84.1,110l.3-.5.3-.2h.4a.6.6,0,0,1,.4.4,1,1,0,0,1-.1.7,1.1,1.1,0,0,1-.4.6h-.5a.6.6,0,0,1-.4-.4A1,1,0,0,1,84.1,110Zm.3.1a.8.8,0,0,0-.1.5l.2.2h.3l.3-.4a.8.8,0,0,0,.1-.5l-.2-.2h-.3Z" fill="#fff"/><path d="M85.3,111.4l.6-1.7.4.2h.3v.2a.6.6,0,0,1,0,.4l-.2.3h-.8l-.2.6Zm.8-1.3-.2.5h.6a.3.3,0,0,0,0-.2h-.4Z" fill="#fff"/><path d="M86.6,111.8l.5-1.7,1,.3v.3l-.8-.2v.4l.7.2v.3l-.7-.2v.5l.8.2v.3Z" fill="#fff"/><path d="M87.9,112.2l.5-1.7h.3l.3,1.3.3-1.1h.3l-.5,1.7h-.3l-.3-1.3-.3,1.1Z" fill="#fff"/><path d="M89.9,112.1h.3q0,.3.2.4h.2v-.2a.2.2,0,0,0,0-.1h-.3l-.2-.2v-.2a.5.5,0,0,1,0-.2v-.2h.5l.4.2a.6.6,0,0,1,.1.4h-.3a.3.3,0,0,0,0-.2h-.4l.2.2.3.2v.2a.6.6,0,0,1,0,.3l-.2.3h-.5Q89.8,112.7,89.9,112.1Z" fill="#fff"/><path d="M91.4,113.1l.3-1.4h-.4v-.3l1.1.2v.3H92l-.3,1.4Z" fill="#fff"/><path d="M93.5,113.4h-.3v-.4h-.6l-.2.4H92l.8-1.7h.3Zm-.4-.8v-.7l-.3.6Z" fill="#fff"/><path d="M93.6,113.4l.2-1.8h.3l.4,1.2.2-1.2H95l-.2,1.8h-.3l-.4-1.2v1.1Z" fill="#fff"/><path d="M95.2,111.8H96l.2.2v.3a1.6,1.6,0,0,1,0,.4v.4l-.2.3H95Zm.3.3v1.2h.5v-.5a1.4,1.4,0,0,0,0-.3v-.2h-.5Z" fill="#fff"/><path d="M97.8,113.8h-.3v-.4h-.6v.4h-.3L97,112h.3Zm-.5-.7-.2-.7-.2.6Z" fill="#fff"/><path d="M97.9,113.8v-1.8h1l.2.2a.6.6,0,0,1,.1.3.5.5,0,0,1-.1.3l-.3.2.2.2.2.3.2.4h-.3l-.2-.4v-.3h-.3v.7Zm.3-1h0Z" fill="#fff"/><path d="M99.4,112.1h1v.3a1.6,1.6,0,0,1,.1.4,1.4,1.4,0,0,1,0,.4v.3l-.2.2h-.8Zm.3.3v1.2h.5v-.2a1.8,1.8,0,0,0,0-.6v-.2h-.5Z" fill="#fff"/><path d="M100.8,113.3h.3q.1.3.3.3h.2v-.2H101v-.4a.5.5,0,0,1,.1-.3l.2-.2h.7a.6.6,0,0,1,.2.4h-.3v-.2h.2l.2.2v.3a.6.6,0,0,1-.1.4l-.4.2Q100.9,113.9,100.8,113.3Z" fill="#fff"/><path d="M83.5,113.3h-.3v-.4l-.5-.2-.3.3h-.3l1.2-1.4h.3Zm-.2-.9v-.7l-.4.5Z" fill="#fff"/><path d="M83.6,113.3l.6-1.7h.3l.2,1.3.4-1.1h.3l-.6,1.7h-.3l-.2-1.3-.4,1.1Z" fill="#fff"/><path d="M85.5,112.1l.5.2h.3v.2a.8.8,0,0,1,0,.3v.4l-.2.4-.2.2h-.5l-.5-.2Zm.2.4-.4,1.1H86V113a.4.4,0,0,0,0-.2h-.5Z" fill="#fff"/><path d="M87,113.8h.3q0,.3.2.4h.3a.2.2,0,0,0,0-.1h-.1l-.2-.2-.2-.2v-.2a.5.5,0,0,1,0-.2v-.2h.5l.3.2a.6.6,0,0,1,0,.4H88a.3.3,0,0,0,0-.2h-.4a.2.2,0,0,0,0,.1l.2.2.3.2v.2a.6.6,0,0,1,0,.3l-.2.3h-.5Q86.9,114.4,87,113.8Z" fill="#fff"/><path d="M88.3,113.9l.2-.5.3-.2h.4a.6.6,0,0,1,.4.4,1,1,0,0,1,0,.7,1.1,1.1,0,0,1-.4.6h-.5a.6.6,0,0,1-.4-.3A1,1,0,0,1,88.3,113.9Zm.3.1a.8.8,0,0,0,0,.5l.2.2h.3a.8.8,0,0,0,.2-.4.8.8,0,0,0,0-.5l-.2-.2h-.3A.8.8,0,0,0,88.6,114Z" fill="#fff"/><path d="M89.7,115.2l.4-1.7h.3l-.3,1.4.7.2v.3Z" fill="#fff"/><path d="M91.2,113.7h.3l-.2.9v.5h.5v-.3l.2-1h.3l-.2.9v.5l-.2.2h-.7v-.3a1.7,1.7,0,0,1,0-.5Z" fill="#fff"/><path d="M92.7,115.7l.2-1.5h-.4v-.3l1.1.2v.3h-.4l-.2,1.5Z" fill="#fff"/><path d="M93.6,115.8l.2-1.8h.3l-.2,1.8Z" fill="#fff"/><path d="M94.1,115a1.3,1.3,0,0,1,.2-.5l.3-.3h.4a.6.6,0,0,1,.5.3,1,1,0,0,1,.1.7,1.1,1.1,0,0,1-.3.7l-.5.2-.5-.3A1,1,0,0,1,94.1,115Zm.3,0a.8.8,0,0,0,.1.5l.3.2h.3a.8.8,0,0,0,.2-.5.8.8,0,0,0-.1-.5l-.3-.2h-.3A.8.8,0,0,0,94.4,115.1Z" fill="#fff"/><path d="M95.7,116.1v-1.8h.3l.5,1.2v-1.2H97v1.8h-.3L96,115v1.2Z" fill="#fff"/><path d="M97.1,115.6h.3q0,.3.3.4h.2v-.2h-.6v-.2a.5.5,0,0,1,0-.2v-.3l.2-.2h.3l.4.2a.6.6,0,0,1,.1.4h-.3v-.2h.2v.2a.6.6,0,0,1,0,.3.6.6,0,0,1-.2.4h-.5Q97.1,116.2,97.1,115.6Z" fill="#fff"/><path d="M132.5,100.7l-.2.2-.4-.2-.4.4.2.4-.2.2-.9-1.6.2-.2Zm-.9-.1-.6-.3.3.6Z" fill="#fff"/><path d="M131.3,99.4l.4-.4.2-.2h.5l.4.2.3.3v.3a.5.5,0,0,1,0,.2l-.2.2-.4.4Zm.4,0,.9.8v-.3a.2.2,0,0,0,0-.1v-.2l-.2-.2-.2-.2H132l-.2.2Z" fill="#fff"/><path d="M132.2,98.4l.3-.4.2-.2h.5l.4.2.3.3v.3a.5.5,0,0,1,0,.2v.3l-.4.4Zm.4,0,.9.8v-.3a.2.2,0,0,0,0-.1v-.2l-.2-.2-.3-.2h-.3l-.2.2Z" fill="#fff"/><path d="M134.5,98.4l-1.4-1.1.4-.5.2-.2h.5l.2.3a.4.4,0,0,1,0,.3h.9l-.2.3h-1l.6.5Zm-.6-.9v-.4a.2.2,0,0,0,0-.1h-.3l-.2.2v.2Z" fill="#fff"/><path d="M135.4,97.2l-1.4-1,.6-.9.2.2-.5.6.3.2.4-.6.2.2-.4.6.4.3.5-.7.2.2Z" fill="#fff"/><path d="M135.7,95.9v-.3q.3.2.5-.1a.3.3,0,0,0,.1-.2v-.2H136l-.2.2-.3.2h-.4l-.2-.2a.4.4,0,0,1,0-.2v-.3l.3-.2h.4l-.2.3h-.4v.2h.2l.2-.2.3-.2h.5l.2.3a.6.6,0,0,1-1,.6Z" fill="#fff"/><path d="M136.4,94.8v-.3q.3.1.5-.1a.3.3,0,0,0,.1-.2v-.2h-.2l-.2.2-.3.2h-.4l-.2-.2a.4.4,0,0,1,0-.2v-.3l.3-.3h.4v.3H136V94h.2l.2-.2.3-.2h.5l.2.3a.6.6,0,0,1-.9.6Z" fill="#fff"/><path d="M137.4,93.2V93q.3.1.5-.1a.3.3,0,0,0,0-.2v-.2h-.2l-.2.2-.2.2h-.4l-.2-.2a.4.4,0,0,1-.1-.2v-.3l.3-.3h.4v.3h-.4v.2h.2l.2-.2.3-.2h.5l.3.3a.6.6,0,0,1-.9.7Z" fill="#fff"/><path d="M138.7,92.3l-1.6-.9.5-.9h.3l-.4.7.3.2.4-.6h.3l-.4.6.4.2.4-.7h.3Z" fill="#fff"/><path d="M139.1,90l.2-.2.3.4a.6.6,0,0,1-.1.4.6.6,0,0,1-.4.3h-.7a1.1,1.1,0,0,1-.5-.5.6.6,0,0,1,0-.5l.3-.3h.4v.3h-.4a.3.3,0,0,0,0,.3l.4.3h.5l.2-.2a.3.3,0,0,0,0-.2Z" fill="#fff"/><path d="M138.3,89.1v-.3l.9.4h.6a.3.3,0,0,0,0-.2h-.1l-.3-.2-.9-.4V88l.8.4.5.3.2.3a.6.6,0,0,1-.1.4l-.2.3h-.3l-.5-.2Z" fill="#fff"/><path d="M140.6,88.5l-1.6-.7.2-.6.2-.3h.5l.3.2a.4.4,0,0,1,0,.3h.9v.3H140l.7.3Zm-.8-.7v-.4h-.4v.4Z" fill="#fff"/><path d="M141.1,87.2l-1.6-.7v-.3l1.6.7Z" fill="#fff"/><path d="M141.4,86.3l-1.4-.5-.2.4h-.3L140,85h.3l-.2.4,1.4.5Z" fill="#fff"/><path d="M141.9,85.1l-.7-.2-1.1.2v-.3h.8l-.6-.5v-.3l.8.8.7.2Z" fill="#fff"/><path d="M134.3,102.4l-.2.2-.4-.2-.4.4.2.4-.2.2-.9-1.6.2-.2Zm-.9-.1-.6-.3.3.6Z" fill="#fff"/><path d="M134.4,102.3l-1.3-1.2.2-.2,1.3.3-.9-.8.2-.2,1.3,1.2-.2.2-1.2-.3.9.8Z" fill="#fff"/><path d="M134,100l.3-.4.2-.2h.5l.4.2.3.3v.3a.5.5,0,0,1,0,.2v.3l-.4.4Zm.4,0,.9.8v-.3a.2.2,0,0,0,0-.1v-.2l-.2-.2-.3-.2h-.3l-.2.2Z" fill="#fff"/><path d="M136.7,99.6l-1.4-1.1.3-.4.2-.3h.6l.2.3a.4.4,0,0,1,0,.3l-.2.3V99l.5.4Zm-1-1.1.4.3h.1v-.2a.2.2,0,0,0,0-.1h-.4l-.2.2Z" fill="#fff"/><path d="M137.5,98.6l-1.4-1,.4-.5.2-.2h.5l.2.3a.4.4,0,0,1,0,.3h.9l-.2.3h-1l.6.4Zm-.7-.8v-.4a.2.2,0,0,0,0-.1h-.3l-.2.2v.2Z" fill="#fff"/><path d="M138.3,97.4l-1.5-1,.2-.2,1.5,1Z" fill="#fff"/><path d="M138.9,96.6l-1.8-.6.2-.3,1.3.4-.9-1,.2-.3,1.2,1.4Z" fill="#fff"/><path d="M140,94.8l-.2.3h-.4l-.3.5.3.3-.2.3L138,94.6l.2-.3Zm-.9.1-.7-.2.5.5Z" fill="#fff"/><path d="M140,93.6l.2-.2.3.4a.6.6,0,0,1-.1.4l-.4.3-.7-.2a1.1,1.1,0,0,1-.5-.5.6.6,0,0,1,.1-.5l.4-.3h.4v.3h-.4a.3.3,0,0,0,0,.3l.3.3.5.2.3-.2a.3.3,0,0,0,0-.2Z" fill="#fff"/><path d="M141,93.1l-.7-.4h-1.2l.2-.3h.8l-.5-.6.2-.3.6,1,.7.4Z" fill="#fff"/><path d="M141.7,91.8l-1.6-.8.3-.6.2-.3h.5l.3.2a.4.4,0,0,1,0,.3h.9l-.2.3h-1l.7.3Zm-.8-.7v-.4h-.4v.4Z" fill="#fff"/><path d="M142.3,90.5l-1.6-.8v-.3l1.6.8Z" fill="#fff"/><path d="M142,89.8v-.3q.3.1.4-.2a.3.3,0,0,0,0-.2h-.3l-.2.2-.2.2h-.4l-.2-.2v-.2a.6.6,0,0,1,.1-.3l.3-.3h.4v.3h-.3a.3.3,0,0,0,0,.2h.2l.2-.2.3-.2h.5l.3.3a.6.6,0,0,1-.8.8Z" fill="#fff"/><path d="M143.1,88.8l-1.6-.7v-.3l.7.3-.5-.8v-.4l.4.8h1.2v.4h-.9l.2.3.5.2Z" fill="#fff"/><path d="M143.1,87.3V87q.3.1.4-.2a.3.3,0,0,0,0-.2h-.3l-.2.2-.2.2h-.4l-.2-.2v-.2a.6.6,0,0,1,0-.3l.3-.3h.4v.3h-.2v.2a.3.3,0,0,0,0,.2h.2l.2-.2.2-.3h.5l.3.3a.6.6,0,0,1-.8.8Z" fill="#fff"/><path d="M109,111.4h1l.2.2v.4a1.4,1.4,0,0,1,0,.4v.3l-.2.2h-.8Zm.4.2.3,1.1h.5v-.9h-.5Z" fill="#fff"/><path d="M110.8,112.8l-.5-1.7,1-.3v.3l-.8.2v.4l.7-.2v.3l-.7.2v.5l.8-.2v.3Z" fill="#fff"/><path d="M111.9,111.9h.3q.1.3.4.2h.2a.2.2,0,0,0,0-.2h-.9v-.2a.5.5,0,0,1,0-.3v-.2h.7l.3.3h-.3v-.2H112a.1.1,0,0,0,0,.1h.9v.2a.6.6,0,0,1,0,.4l-.4.3Q112.1,112.5,111.9,111.9Z" fill="#fff"/><path d="M113.4,112.1l-.6-1.7h.3l.6,1.7Z" fill="#fff"/><path d="M114.4,111.1v-.3l.6-.2.2.7-.2.3-.3.2h-.4l-.4-.2-.3-.4a1.2,1.2,0,0,1-.1-.5.7.7,0,0,1,.1-.4l.3-.2h.4l.3.3-.3.2-.2-.2h-.2l-.2.2a.7.7,0,0,0,0,.5l.3.4h.5v-.4Z" fill="#fff"/><path d="M115.4,111.4l-.7-1.6h.3l1,.9-.4-1.1h.3l.7,1.6h-.3l-1-.9.4,1.1Z" fill="#fff"/><path d="M117.3,110.6l-.7-1.6,1-.4v.3l-.7.3.2.4.7-.3v.3l-.7.3.2.4.7-.3v.3Z" fill="#fff"/><path d="M118.8,109.9l-.6-1.3-.4.2v-.3l1-.5v.3l-.4.2.6,1.3Z" fill="#fff"/><path d="M119.6,109.5l-.8-1.6h.3l.3.6.5-.3-.3-.6h.3l.8,1.6h-.3l-.4-.7-.5.3.4.7Z" fill="#fff"/><path d="M120.9,108.8l-.9-1.5h.3l.9,1.5Z" fill="#fff"/><path d="M121.8,107.5h.3a.8.8,0,0,1,0,.5l-.3.3h-.5a1.1,1.1,0,0,1-.5-.5,1.1,1.1,0,0,1-.2-.7.6.6,0,0,1,.3-.4h.4l.3.2-.2.2h-.4l-.2.3a.8.8,0,0,0,.1.5l.3.4h.3v-.2A.6.6,0,0,0,121.8,107.5Z" fill="#fff"/><path d="M123.7,107.1l-.3.2-.3-.3-.5.3v.4l-.3.2-.5-1.8.3-.2Zm-.8-.3-.5-.4.2.7Z" fill="#fff"/><path d="M123.9,107l-1-1.5.2-.2.8,1.2.6-.4.2.2Z" fill="#fff"/><path d="M113.6,113.9h.3q.2.3.4.2h.2a.2.2,0,0,0,0-.2h-.9v-.2a.5.5,0,0,1,0-.3v-.2h.7l.3.3h-.3v-.2h-.3a.1.1,0,0,0,0,.1h.9v.2a.6.6,0,0,1,0,.4l-.4.3Q113.8,114.5,113.6,113.9Z" fill="#fff"/><path d="M115.1,114l-.6-1.7,1-.4v.3l-.7.3v.4l.7-.2v.3l-.7.2.2.5.8-.3v.3Z" fill="#fff"/><path d="M116.4,113.6l-.7-1.6.6-.2h.5l.2.2a.5.5,0,0,1,0,.3l-.2.3h.2l.3.2.3.3h-.3l-.3-.3-.2-.2h-.3l.3.7Zm-.1-1.1h-.2Z" fill="#fff"/><path d="M118,112.9l-1.2-1.4h.3l.9,1.1-.2-1.3h.3l.2,1.8Z" fill="#fff"/><path d="M118.9,112.5l-.7-1.6h.3l.7,1.6Z" fill="#fff"/><path d="M120,111.3h.3a.8.8,0,0,1,0,.5l-.3.3h-.5a1.1,1.1,0,0,1-.5-.5,1.1,1.1,0,0,1-.1-.7.6.6,0,0,1,.3-.4h.4l.3.2-.2.2-.2-.2h-.2l-.2.2a.8.8,0,0,0,.1.5l.3.4h.3v-.2A.6.6,0,0,0,120,111.3Z" fill="#fff"/><path d="M120.7,111.6l-.8-1.6,1-.5v.3l-.7.4.2.3.6-.3v.3l-.6.3.2.4.7-.4v.3Z" fill="#fff"/><path d="M121.6,110.6l.2-.2q.2.3.4.1v-.2a.2.2,0,0,0,0-.2h-1l-.2-.2v-.5l.2-.2h.4l.3.3-.2.2h-.5a.1.1,0,0,0,0,.1h1l.2.2a.6.6,0,0,1,.1.4.6.6,0,0,1-1.1.1Z" fill="#fff"/><path d="M79.7,56.9v-.3h1v1.1l-.5.3h-.5l-.6-.2-.4-.5a1.8,1.8,0,0,1-.2-.8,1.9,1.9,0,0,1,.2-.8,1.2,1.2,0,0,1,.4-.5l.6-.2h.4l.3.3.2.5h-.3v-.4l-.2-.2h-.8L79,56a1.6,1.6,0,0,0-.1.6,1.3,1.3,0,0,0,.2.9.8.8,0,0,0,.6.3h.4l.3-.2v-.5Z" fill="#e16526"/><path d="M81.1,56.7a1.7,1.7,0,0,1,.3-1.1,1,1,0,0,1,.8-.4l.6.2.4.5a1.9,1.9,0,0,1,.1.8,1.7,1.7,0,0,1-.3,1,1,1,0,0,1-1.7,0A1.7,1.7,0,0,1,81.1,56.7Zm.3,0a1.3,1.3,0,0,0,.2.8.7.7,0,0,0,1.1,0,1.4,1.4,0,0,0,.2-.9,1.7,1.7,0,0,0-.1-.7l-.3-.4h-.4a.7.7,0,0,0-.6.3A1.5,1.5,0,0,0,81.4,56.7Z" fill="#e16526"/><path d="M84.4,58l-.9-2.8h.3l.6,2.1v0l.6-2.1h.3L84.7,58Z" fill="#e16526"/><path d="M85.9,58V55.2h1.7v.3H86.2v.9h1.3v.3H86.2v1h1.4V58Z" fill="#e16526"/><path d="M88,58V55.2h1.5l.3.3a.9.9,0,0,1,.1.4.8.8,0,0,1-.2.5l-.5.3.2.2.2.4.4.8h-.4l-.3-.6-.3-.5-.2-.2h-.6V58Zm.3-1.6h1l.2-.2V56a.5.5,0,0,0-.1-.3H88.4Z" fill="#e16526"/><path d="M90.4,58V55.2h.3l1.2,2.2V55.2h.3V58h-.3l-1.2-2.2V58Z" fill="#e16526"/><path d="M92.7,58V55.2h.5l.6,2v0l.6-2H95V58h-.3V55.7L94,58h-.3L93,55.6V58Z" fill="#e16526"/><path d="M95.5,58V55.2h1.7v.3H95.8v.9h1.3v.3H95.8v1h1.4V58Z" fill="#e16526"/><path d="M97.6,58V55.2h.3l1.2,2.2V55.2h.3V58h-.3l-1.2-2.2V58Z" fill="#e16526"/><path d="M100.6,58V55.5h-.8v-.3h1.8v.3h-.8V58Z" fill="#e16526"/><path d="M102.7,56.7a1.7,1.7,0,0,1,.3-1.1,1,1,0,0,1,.8-.4l.6.2.4.5a1.9,1.9,0,0,1,.1.8,1.7,1.7,0,0,1-.3,1,1,1,0,0,1-1.7,0A1.7,1.7,0,0,1,102.7,56.7Zm.3,0a1.3,1.3,0,0,0,.2.8.7.7,0,0,0,1.1,0,1.4,1.4,0,0,0,.2-.9,1.7,1.7,0,0,0-.1-.7l-.3-.4h-.4a.7.7,0,0,0-.6.3A1.5,1.5,0,0,0,103.1,56.7Z" fill="#e16526"/><path d="M105.4,58V55.2H107v.3h-1.3v.9h1.1v.3h-1.1V58Z" fill="#e16526"/><path d="M109.9,57h.3a1.3,1.3,0,0,1-.4.7l-.6.2-.6-.2a1.1,1.1,0,0,1-.4-.5,2.1,2.1,0,0,1-.1-.8,1.9,1.9,0,0,1,.1-.8l.4-.5.6-.2.6.2a1.1,1.1,0,0,1,.3.6h-.3q-.2-.6-.6-.6h-.4l-.3.4a1.7,1.7,0,0,0-.1.6,1.5,1.5,0,0,0,.2.9.6.6,0,0,0,.5.3l.4-.2A1,1,0,0,0,109.9,57Z" fill="#e16526"/><path d="M110.4,58l.9-2.8h.3l1,2.8h-.4l-.3-.9h-1l-.3.9Zm.7-1.2h.8l-.2-.8-.2-.6V56Z" fill="#e16526"/><path d="M112.8,58V55.2h.3l1.2,2.2V55.2h.3V58h-.3l-1.2-2.2V58Z" fill="#e16526"/><path d="M114.9,58l.9-2.8h.3l1,2.8h-.4l-.3-.9h-1l-.3.9Zm.7-1.2h.8l-.2-.8-.2-.6V56Z" fill="#e16526"/><path d="M117.3,58V55.2h1.3l.4.2.2.5a2.2,2.2,0,0,1,.1.7,2.1,2.1,0,0,1-.1.8,1,1,0,0,1-.4.5h-1.4Zm.3-.3h1l.2-.3a1.9,1.9,0,0,0,.1-.7,1.6,1.6,0,0,0-.1-.7l-.3-.3h-.9Z" fill="#e16526"/><path d="M119.4,58l.9-2.8h.3l1,2.8h-.4l-.3-.9h-1l-.3.9Zm.7-1.2h.8l-.2-.8-.2-.6V56Z" fill="#e16526"/><path d="M78.6,60h3a4.4,4.4,0,0,1,1.7.3,2.9,2.9,0,0,1,1.1.9,4.4,4.4,0,0,1,.8,1.6,8.7,8.7,0,0,1,.3,2.4,7.6,7.6,0,0,1-.3,2.2,4.5,4.5,0,0,1-.7,1.5,2.8,2.8,0,0,1-1.1.8,4,4,0,0,1-1.6.3H78.6Zm1.6,1.7v6.5h2.4l.6-.4a2.6,2.6,0,0,0,.4-.9,7.9,7.9,0,0,0,.1-1.7,7.8,7.8,0,0,0-.2-1.7,2.3,2.3,0,0,0-.5-1,1.5,1.5,0,0,0-.8-.5H80.2Z" fill="#186b8d"/><path d="M86.7,69.9V60h1.6v9.9Z" fill="#186b8d"/><path d="M93.7,66.2V64.6h3.5v3.9a4.3,4.3,0,0,1-1.5,1.1,4.6,4.6,0,0,1-2,.5,3.8,3.8,0,0,1-2.1-.6,4,4,0,0,1-1.5-1.8,6.6,6.6,0,0,1-.5-2.8,6.5,6.5,0,0,1,.5-2.8,4.1,4.1,0,0,1,1.4-1.7,3.7,3.7,0,0,1,2.1-.6,3.2,3.2,0,0,1,3.4,2.9l-1.6.4a2.1,2.1,0,0,0-.7-1.2,1.7,1.7,0,0,0-1.2-.4,2.1,2.1,0,0,0-1.7.8,3.9,3.9,0,0,0-.6,2.5,4.5,4.5,0,0,0,.7,2.7,1.9,1.9,0,0,0,1.6.8l1-.2.9-.6V66.2Z" fill="#186b8d"/><path d="M98.7,69.9V60h1.6v9.9Z" fill="#186b8d"/><path d="M103.7,69.9V61.7h-2.4V60h6.4v1.7h-2.4v8.2Z" fill="#186b8d"/><path d="M115.2,69.9h-1.8l-.7-2.2h-3.2l-.7,2.2h-1.7l3.1-9.9H112Zm-3-3.9-1.1-3.7L110,66Z" fill="#186b8d"/><path d="M116.1,69.9V60.1h1.6v8.1h4.1v1.7Z" fill="#186b8d"/><path d="M78.1,75.8h1q.2,1.2,1.1,1.2a1,1,0,0,0,.7-.2.8.8,0,0,0,.3-.6.7.7,0,0,0-.1-.4l-.3-.2-.9-.3-1-.4a1.6,1.6,0,0,1-.5-.6,1.9,1.9,0,0,1-.2-.8,1.8,1.8,0,0,1,.2-.9,1.5,1.5,0,0,1,.6-.6l1-.2a1.8,1.8,0,0,1,1.9,1.9h-1a1.1,1.1,0,0,0-.3-.7l-.6-.2-.6.2a.5.5,0,0,0-.2.4.5.5,0,0,0,.2.4l.9.4,1.1.5a1.6,1.6,0,0,1,.5.6,2.2,2.2,0,0,1,.2.9,1.9,1.9,0,0,1-.5,1.4,2,2,0,0,1-1.6.5Q78.4,78,78.1,75.8Z" fill="#186b8d"/><path d="M84.3,77.9V72.7H82.8v-1h4v1H85.3v5.1Z" fill="#186b8d"/><path d="M91.5,77.9H90.4L90,76.4h-2l-.4,1.4H86.4l2-6.2h1.1Zm-1.9-2.5-.7-2.3-.7,2.3Z" fill="#186b8d"/><path d="M92.1,77.9V71.7h1l2.1,4.1V71.7h1v6.2h-1l-2-4v4Z" fill="#186b8d"/><path d="M97.2,71.7h1.9l1.1.2.7.5a2.8,2.8,0,0,1,.5,1,5.5,5.5,0,0,1,.2,1.5,4.8,4.8,0,0,1-.2,1.4,2.8,2.8,0,0,1-.5.9l-.7.5-1,.2H97.2Zm1,1v4.1h1.5l.4-.3a1.6,1.6,0,0,0,.2-.6,5,5,0,0,0,.1-1.1,4.9,4.9,0,0,0-.1-1.1,1.4,1.4,0,0,0-.3-.6l-.5-.3H98.2Z" fill="#186b8d"/><path d="M106.9,77.9h-1.1l-.4-1.4h-2l-.4,1.4h-1.1l2-6.2h1.1ZM105,75.4l-.7-2.3-.7,2.3Z" fill="#186b8d"/><path d="M107.4,77.9V71.7h2.2l1.2.2a1.3,1.3,0,0,1,.6.6,2,2,0,0,1,.2,1,1.8,1.8,0,0,1-.3,1.2,1.6,1.6,0,0,1-1,.6l.5.5.6,1,.6,1.2h-1.2l-.7-1.3-.5-.9-.3-.3h-.7v2.6Zm1-3.6h1.6l.3-.2a.9.9,0,0,0,.1-.5.9.9,0,0,0-.1-.5l-.3-.2h-1.6Z" fill="#186b8d"/><path d="M112.6,71.7h1.9l1.1.2.7.5a2.7,2.7,0,0,1,.5,1,5.5,5.5,0,0,1,.2,1.5,4.8,4.8,0,0,1-.2,1.4,2.8,2.8,0,0,1-.5.9l-.7.5-1,.2h-1.9Zm1,1v4.1h1.5l.4-.3a1.6,1.6,0,0,0,.2-.6,5,5,0,0,0,.1-1.1,4.9,4.9,0,0,0-.1-1.1,1.4,1.4,0,0,0-.3-.6l-.5-.3h-1.3Z" fill="#186b8d"/><path d="M117.4,75.8h1q.2,1.2,1.1,1.2a1,1,0,0,0,.7-.2.8.8,0,0,0,.3-.6.7.7,0,0,0-.1-.4l-.3-.2-.9-.3-1-.4a1.6,1.6,0,0,1-.5-.6,1.9,1.9,0,0,1-.2-.8,1.8,1.8,0,0,1,.2-.9,1.5,1.5,0,0,1,.6-.6l1-.2a1.8,1.8,0,0,1,1.9,1.9h-1a1.1,1.1,0,0,0-.3-.7l-.6-.2-.6.2a.5.5,0,0,0-.2.4.5.5,0,0,0,.2.4l.9.4,1.1.5a1.6,1.6,0,0,1,.5.6,2.2,2.2,0,0,1,.2.9,1.9,1.9,0,0,1-.5,1.4,2,2,0,0,1-1.6.5Q117.6,78,117.4,75.8Z" fill="#186b8d"/><path d="M82.5,83.8h-.3v-.5h.4v-.6h-.5v-.5h.6l.2-.8h.5l-.2.8h.5l.2-.8h.5l-.2.8h.3v.5h-.4v.6h.5v.5H84l-.2.8h-.5l.2-.8H83l-.2.8h-.5Zm.7-1.1v.6h.5v-.6Z" fill="#186b8d"/><path d="M85.5,84.6V82h-.9v-.5h2.5V82h-.9v2.6Z" fill="#186b8d"/><path d="M89.4,83.4l.6.2a1.4,1.4,0,0,1-.5.8,1.5,1.5,0,0,1-1.9-.2,1.6,1.6,0,0,1-.4-1.2,1.7,1.7,0,0,1,.4-1.2,1.4,1.4,0,0,1,1.1-.4,1.3,1.3,0,0,1,.9.3,1.2,1.2,0,0,1,.3.6l-.6.2a.7.7,0,0,0-.2-.4h-.4a.7.7,0,0,0-.6.3,1.2,1.2,0,0,0-.2.8,1.3,1.3,0,0,0,.2.9.7.7,0,0,0,.6.3l.4-.2A.9.9,0,0,0,89.4,83.4Z" fill="#186b8d"/><path d="M90.6,84.6V81.4h2.2V82H91.3v.7h1.3v.5H91.3v1.3Z" fill="#186b8d"/><path d="M94.8,84.6v-.3l-.3.3h-.8l-.3-.3a1.3,1.3,0,0,1-.1-.5V82.3h.6v1.1a2.9,2.9,0,0,0,0,.6v.2h.5l.2-.2a2.5,2.5,0,0,0,0-.6v-1h.6v2.3Z" fill="#186b8d"/><path d="M97.1,82.3v.5h-.4v.9a2.3,2.3,0,0,0,0,.3h.4v.5h-1v-.2a2.9,2.9,0,0,1,0-.4v-1h-.3v-.5h.3v-.5l.6-.4v.8Z" fill="#186b8d"/><path d="M99,84.6v-.3l-.3.3h-.8l-.3-.3a1.3,1.3,0,0,1-.1-.5V82.3h.6v1.1a2.9,2.9,0,0,0,0,.6v.2h.5l.2-.2a2.5,2.5,0,0,0,0-.6v-1h.6v2.3Z" fill="#186b8d"/><path d="M100.8,84.6h-.6V82.3h.6v.3l.3-.3h.7l-.2.5H101v.3a3.6,3.6,0,0,0-.1.8Z" fill="#186b8d"/><path d="M103.2,83.9h.6a1,1,0,0,1-.4.5l-.6.2a1,1,0,0,1-.9-.4,1.3,1.3,0,0,1-.2-.8,1.3,1.3,0,0,1,.3-.9,1,1,0,0,1,.8-.3,1,1,0,0,1,.8.3,1.5,1.5,0,0,1,.3,1h-1.5a.6.6,0,0,0,.1.4h.6Zm0-.6a.6.6,0,0,0-.1-.4h-.6a.6.6,0,0,0-.1.4Z" fill="#186b8d"/><path d="M104.5,84.6V81.4h2.1l.4.3a.9.9,0,0,1,.1.5.8.8,0,0,1-.2.6l-.6.3.3.3.4.5.4.6h-.8l-.5-.7-.3-.5h-.6v1.3Zm.6-1.8h1.2v-.2a.4.4,0,0,0-.1-.3h-1.2Z" fill="#186b8d"/><path d="M109,83.9h.6a1,1,0,0,1-.4.5l-.6.2a1,1,0,0,1-.9-.4,1.3,1.3,0,0,1-.2-.8,1.3,1.3,0,0,1,.3-.9,1,1,0,0,1,.8-.3,1,1,0,0,1,.8.3,1.5,1.5,0,0,1,.3,1h-1.5a.6.6,0,0,0,.1.4h.6Zm0-.6a.6.6,0,0,0-.1-.4h-.6a.6.6,0,0,0-.1.4Z" fill="#186b8d"/><path d="M110.7,83h-.5a.9.9,0,0,1,.3-.5l.7-.2h.6l.3.2a1.3,1.3,0,0,1,.1.5v.7a2.4,2.4,0,0,0,0,.4v.3h-.6v-.2h0l-.3.2h-.4l-.6-.2a.6.6,0,0,1-.2-.5.7.7,0,0,1,.1-.3l.3-.2h1.1a.3.3,0,0,0-.1-.2h-.6Zm.8.5h-.7v.4h.6v-.2a1.2,1.2,0,0,0,0-.3Z" fill="#186b8d"/><path d="M114.8,84.6h-.6v-.3l-.3.3h-.4a.9.9,0,0,1-.7-.3,1.3,1.3,0,0,1-.3-.9,1.3,1.3,0,0,1,.3-.9.9.9,0,0,1,.7-.3.9.9,0,0,1,.7.3V81.4h.6Zm-1.6-1.2a1,1,0,0,0,.1.5.5.5,0,0,0,.4.2l.4-.2a.8.8,0,0,0,.1-.5.9.9,0,0,0-.1-.6l-.4-.2-.4.2A.8.8,0,0,0,113.2,83.4Z" fill="#186b8d"/><path d="M115.1,82.3h.6l.5,1.6.5-1.6h.6l-.8,2.2v.4l-.2.3-.2.2h-.9V85h.6l.2-.3Z" fill="#186b8d"/><path d="M85.1,88.5h-.6l-.2-.6H83.2l-.2.6h-.6l1-2.7H84Zm-1-1.1-.4-1-.4,1Z" fill="#e16526"/><path d="M85.4,88.7h1.3a.8.8,0,0,0,0-.2v-.3a.7.7,0,0,1-.6.3.7.7,0,0,1-.6-.3,1.1,1.1,0,0,1-.2-.6,1.1,1.1,0,0,1,.2-.7.8.8,0,0,1,.6-.3.7.7,0,0,1,.6.3v-.3h.5v1.7a1.7,1.7,0,0,1-.1.5l-.2.3-.3.2h-.4l-.7-.2a.5.5,0,0,1-.2-.4Zm.5-1.1a.7.7,0,0,0,.1.4h.6a.6.6,0,0,0,.1-.4.7.7,0,0,0-.1-.4H86A.7.7,0,0,0,85.9,87.5Z" fill="#e16526"/><path d="M87.7,86.4v-.5h.5v.5Zm0,2.2V86.6h.5v1.9Z" fill="#e16526"/><path d="M88.9,88.5V85.9h.5v2.7Z" fill="#e16526"/><path d="M91.1,87.9h.5l-.3.4h-.5a.9.9,0,0,1-.7-.3,1.1,1.1,0,0,1-.2-.7,1.1,1.1,0,0,1,.3-.7.8.8,0,0,1,.6-.3.9.9,0,0,1,.7.3,1.3,1.3,0,0,1,.2.9H90.4a.5.5,0,0,0,.1.4H91Zm0-.5a.5.5,0,0,0-.1-.3h-.5a.5.5,0,0,0-.1.3Z" fill="#e16526"/><path d="M92.5,87.7h.5a.6.6,0,0,0,.2.4H94v-.4h-.6l-.6-.3a.7.7,0,0,1-.2-.5.7.7,0,0,1,.1-.4l.3-.3h.5l.8.2a.8.8,0,0,1,.3.6h-.5v-.3h-.7v.3l.5.2.6.2.3.3a.8.8,0,0,1,.1.4.8.8,0,0,1-.1.4l-.4.3h-.6a1.2,1.2,0,0,1-.8-.2A1,1,0,0,1,92.5,87.7Z" fill="#7bcabc"/><path d="M95.1,86.6h.5v.3a.8.8,0,0,1,.6-.3h.3l.2.2.3-.2h.7l.2.3a1.1,1.1,0,0,1,.1.4v1.2h-.5V87.4a.8.8,0,0,0-.1-.4H97v.2a1.4,1.4,0,0,0,0,.4v.9h-.5V87.5a1.5,1.5,0,0,0,0-.4h-.5v.2a1.4,1.4,0,0,0,0,.4v.9h-.5Z" fill="#7bcabc"/><path d="M98.9,87.2h-.5a.7.7,0,0,1,.3-.4h1.1l.2.2a1.1,1.1,0,0,1,.1.5v.6a2.1,2.1,0,0,0,0,.4v.3h-.5v-.2h0l-.3.2H99l-.5-.2a.5.5,0,0,1-.2-.4.5.5,0,0,1,.1-.3l.2-.2h.9V87H99Zm.7.4H99v.4h.5V88a1,1,0,0,0,0-.2Z" fill="#7bcabc"/><path d="M101,88.5h-.5V86.6h.5v.3l.2-.3h.6l-.2.4h-.4v.2a3,3,0,0,0,0,.6Z" fill="#7bcabc"/><path d="M102.8,86.6V87h-.3v.8a1.9,1.9,0,0,0,0,.3h.3v.4H102v-.2a2.5,2.5,0,0,1,0-.4V87h-.2v-.4h.2v-.4l.5-.3v.7Z" fill="#7bcabc"/><path d="M104.8,88.5V86.3H104v-.4h2.1v.4h-.8v2.2Z" fill="#aab35f"/><path d="M106.8,88.5h-.5V86.6h.5v.3l.2-.3h.6l-.2.4H107v.2a3,3,0,0,0,0,.6Z" fill="#aab35f"/><path d="M109,88.5v-.3l-.3.2H108l-.2-.2a1.1,1.1,0,0,1-.1-.4V86.6h.5v.9a2.4,2.4,0,0,0,0,.5h.5v-.2a2,2,0,0,0,0-.5v-.8h.5v1.9Z" fill="#aab35f"/><path d="M109.8,88h.5v.2h.4l-.8-.2a.5.5,0,0,1-.2-.4.5.5,0,0,1,.2-.4l.6-.2h.6l.3.4h-.5V87h-.1l.6.2a.5.5,0,0,1,.2.4.6.6,0,0,1-.2.5l-.7.2-.6-.2A.7.7,0,0,1,109.8,88Z" fill="#aab35f"/><path d="M113,86.6V87h-.3v.8a1.9,1.9,0,0,0,0,.3h.3v.4h-.8v-.2a2.5,2.5,0,0,1,0-.4V87h-.2v-.4h.2v-.4l.5-.3v.7Z" fill="#aab35f"/><path d="M114.5,87.9h.5l-.3.4h-.5a.9.9,0,0,1-.7-.3,1.1,1.1,0,0,1-.2-.7,1.1,1.1,0,0,1,.3-.7.8.8,0,0,1,.6-.3.9.9,0,0,1,.7.3,1.3,1.3,0,0,1,.2.9h-1.3a.5.5,0,0,0,.1.4h.5Zm0-.5a.5.5,0,0,0-.1-.3h-.5a.5.5,0,0,0-.1.3Z" fill="#aab35f"/><path d="M117.3,88.5h-.5v-.3l-.3.2h-.3a.7.7,0,0,1-.6-.3,1.1,1.1,0,0,1-.2-.7,1.1,1.1,0,0,1,.2-.7.7.7,0,0,1,.6-.3.7.7,0,0,1,.6.3v-1h.5Zm-1.4-1a.9.9,0,0,0,.1.4l.3.2h.3a.7.7,0,0,0,.1-.4.8.8,0,0,0-.1-.5h-.6A.7.7,0,0,0,115.9,87.5Z" fill="#aab35f"/></svg>