<svg id="Layer_1" data-name="Layer 1" xmlns="http://www.w3.org/2000/svg" width="200" height="140" viewBox="0 0 200 140"><title>Artboard 1</title><rect width="200" height="140" fill="#eae8dd"/><ellipse cx="99.9" cy="69.8" rx="37.6" ry="37.6" fill="#fff"/><path d="M100.1,15A54.7,54.7,0,0,0,67.8,25.5l1.7,11.8L79.8,42a34.4,34.4,0,0,1,20.3-6.6l-5.6-9.9Z" fill="#186b8d"/><path d="M79.8,42.1,69.4,37.3,67.7,25.5h0A54.6,54.6,0,0,1,100.1,15h.1L94.6,25.5l5.6,10h-.1a34.3,34.3,0,0,0-20.3,6.6ZM69.5,37.2,79.8,42A34.4,34.4,0,0,1,100,35.4l-5.5-9.8h0L100,15.1A54.5,54.5,0,0,0,67.9,25.6Z" fill="#b5dee2"/><path d="M100.1,15,94.6,25.5l5.6,9.9A34.4,34.4,0,0,1,120.4,42l1.3-11.3,10.7-5.2A54.7,54.7,0,0,0,100.1,15Z" fill="#95d3c8"/><path d="M120.5,42.1h-.1a34.3,34.3,0,0,0-20.3-6.6h-.1l-5.6-9.9h0L100.1,15h0a54.6,54.6,0,0,1,32.3,10.5h.1l-10.7,5.3Zm-20.3-6.8a34.4,34.4,0,0,1,20.2,6.5l1.3-11.2,10.6-5.2a54.5,54.5,0,0,0-32.1-10.4L94.6,25.5Z" fill="#b5dee2"/><path d="M132.4,25.5l-10.7,5.2L120.4,42A34.6,34.6,0,0,1,133,59.3l7.7-8.3,11.7,2A55,55,0,0,0,132.4,25.5Z" fill="#7bcabc"/><path d="M67.2,80.7,59.5,89,47.8,87a55,55,0,0,0,20,27.5l10.7-5.2,1.3-11.3A34.6,34.6,0,0,1,67.2,80.7Z" fill="#e78148"/><path d="M67.8,114.5h0A55.1,55.1,0,0,1,47.8,87h.1l11.7,2,7.8-8.4h0A34.8,34.8,0,0,0,79.8,97.9h0l-1.3,11.3h0ZM47.9,87a55,55,0,0,0,19.9,27.3l10.6-5.2,1.3-11.2A34.9,34.9,0,0,1,67.2,80.8l-7.7,8.3h0Z" fill="#b5dee2"/><path d="M152.4,53l-11.7-2L133,59.3a34.7,34.7,0,0,1,0,21.4l11.1-2.2,8.3,8.5a55.1,55.1,0,0,0,0-34Z" fill="#5a9bbf"/><path d="M152.4,87.1h-.1l-8.2-8.5-11.2,2.2h0a34.6,34.6,0,0,0,0-21.3h0l7.7-8.4h0l11.7,2h0a55.2,55.2,0,0,1,0,34Zm-8.3-8.7h0l8.2,8.4a55.1,55.1,0,0,0,0-33.8l-11.6-2-7.7,8.3a34.7,34.7,0,0,1,0,21.3Z" fill="#b5dee2"/><path d="M144.1,78.4,133,80.7a34.6,34.6,0,0,1-12.6,17.3l10.3,4.7,1.7,11.8a55,55,0,0,0,20-27.5Z" fill="#168bb3"/><path d="M65.6,70a34.5,34.5,0,0,0,1.7,10.7L59.5,89,47.8,87a55.1,55.1,0,0,1,0-34l8.3,8.5,11.1-2.2A34.5,34.5,0,0,0,65.6,70Z" fill="#e16526"/><path d="M130.8,102.7l-10.3-4.7a34.4,34.4,0,0,1-20.3,6.6l5.6,9.9-5.6,10.5a54.7,54.7,0,0,0,32.3-10.5Z" fill="#d0dd41"/><path d="M100.1,125H100l5.6-10.6-5.6-10h.1a34.3,34.3,0,0,0,20.3-6.6h0l10.4,4.8h0l1.7,11.8h0A54.6,54.6,0,0,1,100.1,125Zm.1-20.4,5.5,9.8h0l-5.5,10.4a54.5,54.5,0,0,0,32.1-10.5l-1.7-11.7L120.4,98A34.4,34.4,0,0,1,100.2,104.6Z" fill="#b5dee2"/><path d="M100.1,104.5a34.4,34.4,0,0,1-20.3-6.6l-1.3,11.3-10.7,5.2a54.7,54.7,0,0,0,32.3,10.5l5.6-10.5Z" fill="#aab35f"/><path d="M69.5,37.3,67.8,25.5A55,55,0,0,0,47.8,53l8.3,8.5,11.1-2.2A34.6,34.6,0,0,1,79.8,42Z" fill="#527d9c"/><path d="M56.1,61.6h0L47.8,53h0a55.1,55.1,0,0,1,20-27.5h.1l1.7,11.8L79.9,42h-.1A34.8,34.8,0,0,0,67.3,59.3h0ZM47.9,53l8.2,8.5,11.1-2.2A34.9,34.9,0,0,1,79.7,42L69.4,37.3,67.8,25.6A55,55,0,0,0,47.9,53Z" fill="#b5dee2"/><circle cx="89.9" cy="40.3" r="4" fill="#186b8d"/><path d="M89.9,44.4a4,4,0,1,1,4-4A4,4,0,0,1,89.9,44.4Zm0-7.9a3.9,3.9,0,1,0,3.9,3.9A3.9,3.9,0,0,0,89.9,36.4Z" fill="#b5dee2"/><circle cx="89.9" cy="38.9" r="0.9" fill="#fff"/><path d="M91.1,42H88.7V40.5a.5.5,0,0,1,.4-.5h.3l.5,1,.5-1h.3a.5.5,0,0,1,.4.5Z" fill="#fff"/><path d="M90,40.2h-.2V40h.3Z" fill="#fff"/><polygon points="90 40.5 89.9 40.8 89.8 40.5 89.8 40.3 90 40.3 90 40.5" fill="#fff"/><circle cx="91.1" cy="41.8" r="0.8" fill="#186b8d"/><path d="M91.1,42.7a.9.9,0,1,1,.9-.9A.9.9,0,0,1,91.1,42.7Zm0-1.5a.7.7,0,1,0,.7.7A.7.7,0,0,0,91.1,41.1Z" fill="#fff"/><path d="M91.2,42.1h-.1l-.4-.4.2-.2.3.3.9-.9.2.2-1,1Z" fill="#fff"/><circle cx="110.4" cy="40.3" r="4" fill="#95d3c8"/><path d="M110.4,44.4a4,4,0,1,1,4-4A4,4,0,0,1,110.4,44.4Zm0-7.9a3.9,3.9,0,1,0,3.9,3.9A3.9,3.9,0,0,0,110.4,36.4Z" fill="#b5dee2"/><polygon points="109.7 41.2 109.7 40.7 110.2 40.7 110.2 40.9 109.9 40.9 109.9 41.2 109.7 41.2" fill="#fff"/><polygon points="109.5 39.7 109.3 39.7 109.3 39.3 109 39.3 109 39.1 109.5 39.1 109.5 39.7" fill="#fff"/><polygon points="112 39.1 111.5 39.1 111.5 38.9 111.8 38.9 111.8 38.6 112 38.6 112 39.1" fill="#fff"/><path d="M110.4,41.2l-.6-.2h.1l.5.2a.6.6,0,1,0-.6-.6h-.2a.8.8,0,1,1,.8.8Z" fill="#fff"/><path d="M110.3,41.9a1.5,1.5,0,0,1-1.1-2.6h.1a1.3,1.3,0,1,0,.9-.4v-.2a1.5,1.5,0,1,1,0,3.1Z" fill="#fff"/><path d="M110.4,42.5a2.2,2.2,0,1,1,1.5-3.7h-.1a2,2,0,1,0,.6,1.4h.2A2.2,2.2,0,0,1,110.4,42.5Z" fill="#fff"/><circle cx="74.9" cy="51.4" r="4" fill="#527d9c"/><path d="M74.9,55.4a4,4,0,1,1,4-4A4,4,0,0,1,74.9,55.4Zm0-7.9a3.9,3.9,0,1,0,3.9,3.9A3.9,3.9,0,0,0,74.9,47.5Z" fill="#b5dee2"/><circle cx="74.9" cy="51.4" r="0.5" fill="#fff"/><path d="M74.9,52.3a.9.9,0,1,1,.9-.9A.9.9,0,0,1,74.9,52.3Zm0-1.7a.8.8,0,1,0,.8.8A.8.8,0,0,0,74.9,50.6Z" fill="#fff"/><path d="M74.9,52.4a3.1,3.1,0,0,1-2.2-.9h0a3.2,3.2,0,0,1,4.5,0h0A3.1,3.1,0,0,1,74.9,52.4Zm-2.1-1a3,3,0,0,0,4.2,0,3,3,0,0,0-4.2,0Z" fill="#fff"/><rect x="74.8" y="49.1" width="0.1" height="0.95" fill="#fff"/><rect x="75.7" y="49.7" width="0.9" height="0.11" transform="translate(3.3 104.3) rotate(-70)" fill="#fff"/><rect x="76.6" y="50.3" width="0.9" height="0.11" transform="translate(-5.1 91.9) rotate(-60)" fill="#fff"/><rect x="72.8" y="49.9" width="0.1" height="0.87" transform="translate(-15.3 58.6) rotate(-40)" fill="#fff"/><rect x="73.6" y="49.3" width="0.1" height="0.87" transform="translate(-12.6 28.2) rotate(-20)" fill="#fff"/><rect x="74.8" y="52.7" width="0.1" height="0.95" fill="#fff"/><rect x="76.1" y="52.6" width="0.1" height="0.87" transform="translate(-13.5 29.2) rotate(-20)" fill="#fff"/><rect x="77" y="52" width="0.1" height="0.87" transform="translate(-15.9 45.6) rotate(-30)" fill="#fff"/><rect x="72.4" y="52.4" width="0.9" height="0.11" transform="translate(-14.2 74.5) rotate(-50)" fill="#fff"/><rect x="73.2" y="53" width="0.9" height="0.11" transform="translate(-1.3 104.1) rotate(-70)" fill="#fff"/><circle cx="89.7" cy="99.6" r="4" fill="#aab35f"/><path d="M89.7,103.6a4,4,0,1,1,4-4A4,4,0,0,1,89.7,103.6Zm0-7.9a3.9,3.9,0,1,0,3.9,3.9A3.9,3.9,0,0,0,89.7,95.7Z" fill="#b5dee2"/><path d="M89.7,102h-.1A3,3,0,0,1,88,99.3V98l1.7-.9,1.7.9v1.3a3,3,0,0,1-1.7,2.7Zm-1.5-3.8v1.1a2.8,2.8,0,0,0,1.5,2.4,2.8,2.8,0,0,0,1.5-2.4V98.2l-1.5-.7Z" fill="#fff"/><polygon points="89.3 100.8 88.5 100.1 88.7 99.9 89.3 100.5 90.7 99 90.9 99.2 89.3 100.8" fill="#fff"/><polygon points="91.3 98.8 89.7 98 88.1 98.8 88.1 98.6 89.7 97.8 91.3 98.6 91.3 98.8" fill="#fff"/><polygon points="91.4 99 89.7 98.1 88 99 88 98.5 89.7 97.7 91.4 98.5 91.4 99" fill="#fff"/><circle cx="125.5" cy="88.4" r="4" fill="#168bb3"/><path d="M125.5,92.4a4,4,0,1,1,4-4A4,4,0,0,1,125.5,92.4Zm0-7.9a3.9,3.9,0,1,0,3.9,3.9A3.9,3.9,0,0,0,125.5,84.5Z" fill="#b5dee2"/><path d="M125.5,86a1.2,1.2,0,0,0-1.2,1.2v.9h.4v-.9a.7.7,0,1,1,1.5,0v.9h.4v-.9A1.2,1.2,0,0,0,125.5,86Z" fill="#fff"/><path d="M126.4,90.9h-1.9a.6.6,0,0,1-.6-.6v-2a.3.3,0,0,1,.3-.3h2.6a.3.3,0,0,1,.3.3v2A.6.6,0,0,1,126.4,90.9Zm-2.2-2.6v2a.3.3,0,0,0,.3.3h1.9a.3.3,0,0,0,.3-.3v-2Z" fill="#fff"/><circle cx="125.5" cy="89.3" r="0.4" fill="#fff"/><path d="M125.3,89.5h.3a0,0,0,0,1,0,0V90a.1.1,0,0,1-.1.1h-.1a.1.1,0,0,1-.1-.1v-.5A0,0,0,0,1,125.3,89.5Z" fill="#fff"/><circle cx="68.8" cy="70.3" r="4" fill="#e16526"/><path d="M68.8,74.3a4,4,0,1,1,4-4A4,4,0,0,1,68.8,74.3Zm0-7.9a3.9,3.9,0,1,0,3.9,3.9A3.9,3.9,0,0,0,68.8,66.4Z" fill="#b5dee2"/><circle cx="68.8" cy="69.1" r="0.5" fill="#fff"/><rect x="68.3" y="69.8" width="0.9" height="1.31" fill="#fff"/><rect x="69.1" y="70.8" width="0.4" height="1.46" rx="0.1" ry="0.1" transform="translate(-26.5 44.2) rotate(-30)" fill="#fff"/><rect x="67.6" y="71.3" width="1.5" height="0.38" rx="0.1" ry="0.1" transform="translate(-27.8 94.9) rotate(-60)" fill="#fff"/><rect x="67.8" y="69.2" width="0.4" height="1.31" rx="0.1" ry="0.1" transform="translate(-20.9 109.8) rotate(-70)" fill="#fff"/><rect x="68.9" y="69.7" width="1.3" height="0.38" rx="0.1" ry="0.1" transform="translate(-19.7 28) rotate(-20)" fill="#fff"/><rect x="66" y="70.2" width="1.2" height="0.21" fill="#fff"/><rect x="67.1" y="67.9" width="0.2" height="1.24" transform="translate(-28.5 76) rotate(-50)" fill="#fff"/><rect x="66.4" y="71.9" width="1.2" height="0.21" transform="translate(-30.6 59.9) rotate(-40)" fill="#fff"/><rect x="70.3" y="70.2" width="1.2" height="0.21" fill="#fff"/><rect x="69.7" y="68.4" width="1.2" height="0.21" transform="translate(-27.6 61.3) rotate(-40)" fill="#fff"/><rect x="70.5" y="71.4" width="0.2" height="1.24" transform="translate(-30 79.8) rotate(-50)" fill="#fff"/><circle cx="125.4" cy="51.4" r="4" fill="#7bcabc"/><path d="M125.4,55.4a4,4,0,1,1,4-4A4,4,0,0,1,125.4,55.4Zm0-7.9a3.9,3.9,0,1,0,3.9,3.9A3.9,3.9,0,0,0,125.4,47.5Z" fill="#b5dee2"/><circle cx="126.3" cy="53.2" r="0.6" fill="#fff"/><circle cx="123.9" cy="51.4" r="0.6" fill="#fff"/><circle cx="126.3" cy="49.6" r="0.6" fill="#fff"/><rect x="123.6" y="50.4" width="3" height="0.27" transform="matrix(0.79, -0.61, 0.61, 0.79, -4.92, 86.48)" fill="#fff"/><rect x="124.9" y="50.8" width="0.3" height="2.98" transform="translate(7.5 119.8) rotate(-52.6)" fill="#fff"/><circle cx="74.8" cy="88.4" r="4" fill="#e78148"/><path d="M74.8,92.4a4,4,0,1,1,4-4A4,4,0,0,1,74.8,92.4Zm0-7.9a3.9,3.9,0,1,0,3.9,3.9A3.9,3.9,0,0,0,74.8,84.5Z" fill="#b5dee2"/><path d="M76.7,90.7H72.9V86.1h3.8ZM73,90.6h3.5V86.3H73Z" fill="#fff"/><rect x="73.3" y="86.6" width="3" height="0.96" fill="#fff"/><rect x="73.5" y="86.8" width="0.5" height="0.54" fill="#e78148"/><rect x="73.3" y="87.9" width="3" height="0.96" fill="#fff"/><rect x="73.5" y="88.2" width="0.5" height="0.54" fill="#e78148"/><rect x="73.3" y="89.3" width="3" height="0.96" fill="#fff"/><rect x="73.5" y="89.5" width="0.5" height="0.54" fill="#e78148"/><circle cx="110.5" cy="99.6" r="4" fill="#d0dd41"/><path d="M110.5,103.6a4,4,0,1,1,4-4A4,4,0,0,1,110.5,103.6Zm0-7.9a3.9,3.9,0,1,0,3.9,3.9A3.9,3.9,0,0,0,110.5,95.7Z" fill="#b5dee2"/><rect x="109" y="97.6" width="3.1" height="4.33" fill="#fff"/><path d="M112.2,102.1h-3.3V97.5h3.3Zm-3.1-.2H112V97.7h-2.8Z" fill="#fff"/><rect x="108.8" y="97.4" width="3.1" height="4.33" fill="#d0dd41"/><path d="M112,101.8h-3.3V97.3H112Zm-3.1-.2h2.8V97.5h-2.8Z" fill="#fff"/><rect x="110.4" y="97.9" width="1.1" height="0.22" fill="#fff"/><rect x="110.4" y="98.4" width="1.1" height="0.22" fill="#fff"/><rect x="109.2" y="98.8" width="2.2" height="0.22" fill="#fff"/><rect x="109.2" y="99.3" width="2.2" height="0.22" fill="#fff"/><rect x="109.2" y="99.7" width="2.2" height="0.22" fill="#fff"/><rect x="109.2" y="100.2" width="2.2" height="0.22" fill="#fff"/><rect x="109.2" y="100.6" width="2.2" height="0.22" fill="#fff"/><rect x="109.2" y="101.1" width="2.2" height="0.22" fill="#fff"/><polygon points="109.9 98.5 109.6 98.3 109.2 98.5 109.2 97.2 109.9 97.2 109.9 98.5" fill="#d0dd41"/><path d="M110,98.7l-.5-.3-.5.3V97.1h.9Zm-.5-.6.2.2v-1h-.5v1Z" fill="#fff"/><circle cx="131.5" cy="70.3" r="4" fill="#5a9bbf"/><path d="M131.5,74.3a4,4,0,1,1,4-4A4,4,0,0,1,131.5,74.3Zm0-7.9a3.9,3.9,0,1,0,3.9,3.9A3.9,3.9,0,0,0,131.5,66.4Z" fill="#b5dee2"/><path d="M131.5,72.7a.6.6,0,0,1-.4-.2l-.2-.2h-.8a.6.6,0,0,1-.2-.4v-.3l-.2-.2c-.1-.1-.3-.2-.4-.3a.6.6,0,0,1,.1-.5V70a.6.6,0,0,1-.1-.5c.1-.2.2-.2.4-.3l.2-.2v-.3a.6.6,0,0,1,.2-.4h.8l.2-.2a.5.5,0,0,1,.8,0l.2.2h.8a.6.6,0,0,1,.2.4v.3l.2.2c.1.1.3.2.4.3a.6.6,0,0,1-.1.5v.5a.6.6,0,0,1,.1.5c-.1.2-.2.2-.4.3l-.2.2v.3a.6.6,0,0,1-.2.4h-.8l-.2.2A.6.6,0,0,1,131.5,72.7Zm-.7-.6h.2l.3.2.3.2.3-.2.3-.2h.7c.1,0,.1-.2.1-.3a.8.8,0,0,1,.1-.4l.3-.2.3-.2c0-.1,0-.2-.1-.3a.6.6,0,0,1,0-.7c.1-.1.1-.2.1-.3l-.3-.2-.3-.2a.8.8,0,0,1-.1-.4c0-.1,0-.3-.1-.3h-.7l-.3-.2-.3-.2-.3.2-.3.2h-.7c-.1,0-.1.2-.1.3a.8.8,0,0,1-.1.4l-.3.2-.3.2c0,.1,0,.2.1.3a.6.6,0,0,1,0,.7c-.1.1-.1.2-.1.3l.3.2.3.2a.8.8,0,0,1,.1.4c0,.1,0,.3.1.3h.5Z" fill="#fff"/><circle cx="131.5" cy="70.3" r="1.6" transform="translate(50.3 195.3) rotate(-85.1)" fill="#fff"/><circle cx="131.5" cy="70.3" r="1.4" fill="#5a9bbf"/><polygon points="131.3 71 130.6 70.2 130.9 69.9 131.3 70.4 132.9 68.8 133.2 69.1 131.3 71" fill="#fff"/><path d="M129,38.1l1.1-1.2.2.2-.9,1,.5.5-.2.2Z" fill="#fff"/><path d="M130.7,39.7l-.2-.2.2-.3-.4-.4-.3.2-.2-.2,1.5-.8.2.2Zm.1-.8.3-.6-.6.3Z" fill="#fff"/><path d="M130.8,39.8l1.2-1.1.4.4.2.3a.3.3,0,0,1,0,.2l-.2.2h-.6a.7.7,0,0,1,0,.2v.6l-.2-.2v-.7a.2.2,0,0,0,0-.1h-.1l-.5.5Zm.9-.4h.1l.2.2h.3a.2.2,0,0,0,0-.1v-.3Z" fill="#fff"/><path d="M132.6,40.9l.2-.2.4.4-.5.4h-.3l-.3-.2L132,41a.7.7,0,0,1,.1-.4l.3-.4.4-.2h.4l.3.2a.6.6,0,0,1,.2.4.6.6,0,0,1-.1.4l-.2-.2v-.4h-.3l-.4.2-.3.4a.3.3,0,0,0,.1.3h.5Z" fill="#fff"/><path d="M132.7,41.9l1.3-1,.6.8-.2.2-.5-.6-.3.2.4.5-.2.2-.4-.5-.3.3.5.6-.2.2Z" fill="#fff"/><path d="M133.5,42.9l1.3-1,.2.3-.7.9,1-.5.2.3-1.3,1-.2-.2,1-.8-1.2.6-.2-.2.9-1-1,.8Z" fill="#fff"/><path d="M134.4,44.1l1.3-1,.6.8-.2.2-.4-.6-.3.2.4.5-.2.2-.4-.5-.4.3.4.6-.2.2Z" fill="#fff"/><path d="M135.1,45.1l1.4-.9v.2l-.6,1.1.9-.6v.2l-1.4.9-.2-.2.6-1.1-.9.6Z" fill="#fff"/><path d="M136.1,46.5l1.2-.7-.2-.3h.2l.6.9h-.2l-.2-.3-1.2.7Z" fill="#fff"/><path d="M131.5,36.2v.3l-.4.2h-.3a.5.5,0,0,1-.2-.4,1,1,0,0,1,.3-.6l.6-.4h.5a.5.5,0,0,1,.2.4.7.7,0,0,1-.1.3h-.3v-.4h-.3l-.4.3-.2.4a.3.3,0,0,0,.1.3h.5Z" fill="#fff"/><path d="M132,36.3l.4-.3h.4l.3.2a.6.6,0,0,1,.2.5,1,1,0,0,1-.3.6l-.6.3-.5-.2a.6.6,0,0,1-.2-.5A1,1,0,0,1,132,36.3Zm.2.2-.2.4a.3.3,0,0,0,.1.3h.3l.4-.2.2-.4a.3.3,0,0,0-.1-.3h-.3Z" fill="#fff"/><path d="M132.5,38l1.2-1.1.2.2-1,.9.5.5-.2.2Z" fill="#fff"/><path d="M133.3,38.8l1.2-1.1.2.2-1,.9.5.5-.2.2Z" fill="#fff"/><path d="M134.9,40.5l-.2-.2.2-.3-.4-.4-.4.2-.2-.2,1.6-.7.2.2Zm.2-.8.3-.5-.6.3Z" fill="#fff"/><path d="M136.2,39.6l.3.4.2.3a.3.3,0,0,1,0,.2v.2h-.4a.4.4,0,0,1,0,.2v.2h-.5l-.3-.3-.3-.4Zm-.5.8-.3.3.2.2.2.2h.3a.2.2,0,0,0,0-.1v-.4Zm.5-.4-.3.2h.6a.1.1,0,0,0,0-.1l-.2-.2Z" fill="#fff"/><path d="M136.4,41.1l.4-.2h.4l.3.2a.6.6,0,0,1,.1.5,1,1,0,0,1-.4.5l-.6.2-.4-.2a.6.6,0,0,1-.1-.5A1,1,0,0,1,136.4,41.1Zm.2.2-.3.3a.3.3,0,0,0,.1.3h.3l.4-.2.3-.3a.3.3,0,0,0-.1-.3H137Z" fill="#fff"/><path d="M136.7,42.8l1.3-1,.3.5.2.3a.3.3,0,0,1,0,.2l-.2.2h-.6v.5l-.2.3-.2-.3.2-.4v-.3a.2.2,0,0,0,0-.1h-.1l-.6.4Zm.9-.3v.2l.2.2h.3a.2.2,0,0,0,0-.1v-.4Z" fill="#fff"/><path d="M137.5,43.9l1.4-.9.6.8-.2.2-.4-.6-.3.2.4.6-.2.2-.4-.6-.4.3.4.6-.2.2Z" fill="#fff"/><path d="M138.2,44.9l1.4-.9.3.5v.3a.3.3,0,0,1,0,.2l-.2.2h-.6v.5l-.2.3-.2-.3.2-.4v-.3h-.1l-.6.4Zm.9-.3V45h.3a.2.2,0,0,0,0-.1v-.4Z" fill="#fff"/><path d="M105.9,22.9l.2-1.6h1v.3h-.7v.4h.7v.3h-.7v.4h.7V23Z" fill="#fff"/><path d="M107.2,23.1l.3-1.6h.9v.3h-.6v.4h.6v.3h-.6v.7Z" fill="#fff"/><path d="M108.3,23.2l.3-1.6.9.2v.3h-.6v.4h.6v.3h-.6v.7Z" fill="#fff"/><path d="M109.4,23.4l.3-1.6,1,.2v.3H110v.4h.7v.3h-.7v.4l.7.2v.3Z" fill="#fff"/><path d="M111.6,23.3l.2.2-.3.3h-.4l-.4-.3a1,1,0,0,1,0-.7,1,1,0,0,1,.3-.6h.5l.3.2a.7.7,0,0,1,.1.4h-.3a.4.4,0,0,0-.1-.2h-.4l-.2.4a.8.8,0,0,0,0,.5l.2.2h.2Z" fill="#fff"/><path d="M112.2,24.1l.4-1.3h-.4v-.3l1,.3V23h-.4l-.4,1.3Z" fill="#fff"/><path d="M113.5,22.7h.3l-.3.9v.3a.3.3,0,0,0,0,.2h.4v-.3l.3-.9h.3l-.2.8-.2.4-.2.2h-.3l-.3-.2v-.3a1.6,1.6,0,0,1,.1-.5Z" fill="#fff"/><path d="M114.3,24.7l.5-1.6,1,.3v.3l-.7-.2v.3l.6.2v.3l-.6-.2v.4l.7.2V25Z" fill="#fff"/><path d="M115.5,25.1l.5-1.5.5.2h.3v.2a.5.5,0,0,1,0,.3l-.2.3h-.3v.8h-.3v-.7H116l-.2.6Zm.6-.8h.6a.2.2,0,0,0,0-.1h-.5Z" fill="#fff"/><path d="M102.2,25.3V23.6h.9v.2a.5.5,0,0,1,0,.3.5.5,0,0,1-.1.3h-.1v.6H103l-.2-.4v-.3h-.3v.7Zm.3-.9h0Z" fill="#fff"/><path d="M103.5,25.4V23.7h1v.3h-.7v.4h.7v.3h-.7v.4h.8v.3Zm.5-1.7.2-.3h.3l-.3.3Z" fill="#fff"/><path d="M105.4,25v-.3h.6v.7H105l-.2-.3a1.1,1.1,0,0,1,0-.5,1.1,1.1,0,0,1,.1-.5l.3-.3h.4l.4.2a.6.6,0,0,1,.1.4h-.3v-.2h-.5a.7.7,0,0,0-.2.4.7.7,0,0,0,.1.5l.3.2h.3V25Z" fill="#fff"/><path d="M106.4,24h.3v1.3h.4V24.1h.3v1.3l-.2.2h-.7v-.2a1.6,1.6,0,0,1,0-.5Z" fill="#fff"/><path d="M107.5,25.9l.3-1.6h.3l-.2,1.3h.7V26Z" fill="#fff"/><path d="M108.6,26.1l.3-1.6h.3l-.3,1.6Z" fill="#fff"/><path d="M109.2,26.2l.3-1.6,1,.2V25l-.7-.2v.4h.7v.3h-.7v.4l.7.2v.3Zm1-1.6H110l-.2-.4h.3Z" fill="#fff"/><path d="M110.4,26.4l.4-1.6h.9v.2a.5.5,0,0,1,0,.3l-.2.3h-.3v.8h-.3V26h-.2l-.2.7Zm.5-.9h.6a.2.2,0,0,0,0-.1H111Z" fill="#fff"/><path d="M111.7,26.8l.4-1.6,1,.3v.3l-.7-.2v.4l.7.2v.3l-.7-.2v.4l.7.2V27Z" fill="#fff"/><path d="M112.9,27.1l.5-1.6h.4v1.1l.6-1h.4l-.5,1.6h-.2l.4-1.2-.6,1.2h-.3V25.9l-.4,1.2Z" fill="#fff"/><path d="M114.4,27.6l.5-1.6.9.3v.3l-.7-.2v.3l.6.2v.3l-.6-.2v.4l.7.2v.3Z" fill="#fff"/><path d="M115.5,28l.6-1.5h.2v1.2l.4-1h.2l-.6,1.5h-.3V27.1l-.4,1Z" fill="#fff"/><path d="M117.1,28.6l.5-1.3-.4-.2v-.3l1,.4v.3l-.4-.2-.5,1.3Z" fill="#fff"/><path d="M101.3,26.5h.9V27a1.5,1.5,0,0,1,0,.4,1.3,1.3,0,0,1-.1.4V28h-1Zm.3.3v1.1h.5v-.4a1.3,1.3,0,0,0,0-.3v-.2h-.5Z" fill="#fff"/><path d="M102.6,28.2V26.5h1v.3H103v.4h.7v.3h-.7v.4h.8v.3Z" fill="#fff"/><path d="M103.8,27.7h.3q0,.3.3.3h.2v-.2h-.6v-.2a.5.5,0,0,1,0-.2v-.2h.5l.4.2a.5.5,0,0,1,.1.4h-.3V27h-.1l.3.2v.2a.6.6,0,0,1,0,.3.5.5,0,0,1-.2.3h-.4Q103.8,28.3,103.8,27.7Z" fill="#fff"/><path d="M105.6,28.5l.2-1.6h.4V28l.4-1.1h.4l-.2,1.6h-.3l.2-1.3-.5,1.2h-.3V27.2l-.2,1.3Z" fill="#fff"/><path d="M107.1,28.7l.3-1.6h.3l-.3,1.6Z" fill="#fff"/><path d="M107.7,28.3h.3q0,.3.2.4h.3a.2.2,0,0,0,0-.1h-.3L108,28v-.2a.5.5,0,0,1,0-.2v-.2h.5l.3.2a.5.5,0,0,1,.1.4h-.3a.3.3,0,0,0,0-.2h-.2l.3.2v.2a.6.6,0,0,1,0,.3l-.2.3h-.4Q107.6,28.8,107.7,28.3Z" fill="#fff"/><path d="M108.9,29l.4-1.6,1,.2v.3l-.7-.2v.4h.7v.3h-.7v.4l.7.2v.3Z" fill="#fff"/><path d="M110.1,28.8h.3q0,.3.2.4h.3a.2.2,0,0,0,0-.1h-.3l-.2-.2v-.2a.5.5,0,0,1,0-.2v-.2h.5l.3.2a.5.5,0,0,1,0,.4h-.3a.3.3,0,0,0,0-.2h-.4a.1.1,0,0,0,0,.1l.2.2.3.2v.2a.6.6,0,0,1,0,.3l-.2.3h-.4Q110.1,29.3,110.1,28.8Z" fill="#fff"/><path d="M112.9,30.1h-.3v-.4l-.5-.2-.2.3h-.3l1-1.4h.3Zm-.3-.8v-.6l-.4.5Zm.3-1.1h-.2v-.4h.3Z" fill="#fff"/><path d="M114.6,28.9h.3l-.3,1-.2.3h-.5l-.2-.2a.6.6,0,0,1,0-.4h.3v.2h.2v-.2Z" fill="#fff"/><path d="M114.8,29.9l.3-.4.3-.2h.4a.6.6,0,0,1,.4.4,1,1,0,0,1-.1.7,1,1,0,0,1-.4.5h-.5a.6.6,0,0,1-.4-.4A1,1,0,0,1,114.8,29.9Zm.3.1a.7.7,0,0,0-.1.4l.2.2h.3l.3-.4a.7.7,0,0,0,.1-.4l-.2-.2h-.3Z" fill="#fff"/><path d="M116.5,29.7h.2l-.3.8v.3a.3.3,0,0,0,0,.2h.4v-.3l.4-.8h.2l-.3.8-.2.4-.2.2h-.3l-.3-.2a.4.4,0,0,1-.1-.3v-.5Z" fill="#fff"/><path d="M117.1,31.7l.7-1.5.5.2.3.2v.2a.5.5,0,0,1-.1.3l-.2.2h-.3v.9h-.3v-.7h-.2l-.3.6Zm.6-.7h.2Z" fill="#fff"/><path d="M145.5,58.3l1.6-.4v1l-.3.2h-.5v-.5h-.6Zm1.4-.1h-.4v.2h.4v-.2Z" fill="#fff"/><path d="M145.8,59.5l1.6-.3.2,1h-.3l-.2-.7h-.4v.7h-.3v-.7h-.4l.2.7H146Z" fill="#fff"/><path d="M146.1,60.7l1.6-.3V61a.8.8,0,0,1,0,.3v.2h-.6l-.2-.2v.2l-.2.2-.3.2v-.3l.3-.3.2-.2h.1a.4.4,0,0,0,0-.1h-.7Zm1,.1v.4h.4v-.4Z" fill="#fff"/><path d="M146.3,62l1.6-.2v.4l-1.1.4h1.1v.4l-1.6.2V63l1.3-.2h-1.3v-.3l1.2-.5-1.3.2Z" fill="#fff"/><path d="M146.6,63.6l1.6-.2v1H148v-.7h-.4v.7h-.3v-.7h-.4v.7h-.3Z" fill="#fff"/><path d="M146.7,65.1h1.4v-.4h.3v1.1h-.3v-.4h-1.4Z" fill="#fff"/><path d="M146.8,66.2h1.4v-.4h.3v1.1h-.3v-.4h-1.4Z" fill="#fff"/><path d="M146.9,67.1h1.6v.6a.8.8,0,0,1,0,.3V68h-.6l-.2-.3v.2l-.3.2-.3.2V68l.3-.2.2-.2h-.6Zm1,.2v.4h.4a1.1,1.1,0,0,0,0-.2v-.2Z" fill="#fff"/><path d="M146.9,68.4h1.6v1h-.3v-.7H148v.7h-.3v-.7h-.4v.8H147Z" fill="#fff"/><path d="M146.9,71.3V71h.4v-.5H147V70l1.6.6v.3Zm.7-.5.6-.2-.6-.2Z" fill="#fff"/><path d="M148.6,71.5v.3h-1.3v.3h1.3v.3h-1.3l-.2-.2a.5.5,0,0,1-.1-.3.6.6,0,0,1,.1-.3l.2-.2h1.4Z" fill="#fff"/><path d="M141.6,53.9l1.5-.6.2.4v.5l-.3.2h-.5l-.2-.3v-.2l-.6.2Zm1.4-.2-.4.2h.1v.2h.4v-.2Z" fill="#fff"/><path d="M142,55l1.6-.5.3.9h-.3l-.2-.7H143l.2.6H143l-.2-.6h-.4l.2.7h-.3Z" fill="#fff"/><path d="M142.4,56.2l1.6-.5.2.5a.8.8,0,0,1,0,.3v.2h-.6l-.2-.2v.2l-.2.2-.3.3v-.3l.3-.3.2-.2h0l-.7.2Zm1,0v.4h.4v-.4Z" fill="#fff"/><path d="M143.3,57.3v.2q-.3.1-.2.4v.2h.3v-.7h.6v.2a.5.5,0,0,1,0,.4l-.3.2v-.3h.2a.2.2,0,0,0,0-.2v-.2H144a.8.8,0,0,0,0,.3,1,1,0,0,1,0,.3v.2h-.6a.5.5,0,0,1-.2-.4Q142.8,57.5,143.3,57.3Z" fill="#fff"/><path d="M143.9,58.4h.5l.3.2.2.3a.6.6,0,0,1-.1.5l-.6.3h-.7a.6.6,0,0,1-.2-.9Zm.1.3-.4.2a.3.3,0,0,0-.1.3l.2.2h.4l.4-.2a.3.3,0,0,0,.1-.3l-.2-.2Z" fill="#fff"/><path d="M143.5,60.1l1.6-.3V60l-1,.8,1.1-.2v.2l-1.6.3v-.3l.9-.7-1.1.2Z" fill="#fff"/><path d="M143.7,61.4l1.6-.3v.3l-1,.7,1.1-.2v.2l-1.6.3v-.3l1-.7-1.1.2Z" fill="#fff"/><path d="M144,62.8l1.6-.2v1h-.3v-.7H145v.7h-.3v-.7h-.4v.7h-.3Z" fill="#fff"/><path d="M144.1,64l1.6-.2v.3l-1.3.2v.7h-.3Z" fill="#fff"/><path d="M145.9,65.5V66a.7.7,0,0,1,0,.3v.2h-1.3l-.2-.2v-.8Zm-.3.3h-1.1v.4h1a1.1,1.1,0,0,0,0-.2Z" fill="#fff"/><path d="M146,66.8v.3h-.5l-.2-.2h.7Z" fill="#fff"/><path d="M145.2,67.4h.5l.3.2a.6.6,0,0,1,.1.3.6.6,0,0,1-.2.5l-.6.2-.7-.2a.6.6,0,0,1,0-.9Zm0,.3h-.4a.3.3,0,0,0-.1.3.3.3,0,0,0,.2.3h.9a.3.3,0,0,0,0-.5Z" fill="#fff"/><path d="M144.5,68.9h1.6v.9h-.3v-.7h-.4v.6h-.3v-.6h-.7Z" fill="#fff"/><path d="M144.5,70.1h1.6V71h-.3v-.7h-.4v.6h-.3v-.6h-.7Z" fill="#fff"/><path d="M144.5,71.2h1.6v.6a.8.8,0,0,1-.1.3h-.7V72h-.7v-.3l.4-.2h-.3Zm.9.3v.2a1,1,0,0,0,0,.2h.4v-.4Z" fill="#fff"/><path d="M144.4,72.5H146v.3h-1.6Z" fill="#fff"/><path d="M144.4,73.1H146v.9h-.7v-.3h-.8v-.3l.4-.2h-.3Zm.9.4v.2a1,1,0,0,0,0,.2h.4v-.4Z" fill="#fff"/><path d="M145.8,75.1v.8l-.2.2h-1l-.2-.2v-.2a.7.7,0,0,1,0-.3v-.5Zm-.3.2h-1.1v.2a.5.5,0,0,0,0,.2h1v-.2Z" fill="#fff"/><path d="M144,76.3l1.6.3-.2,1h-.3v-.7h-.4v.7h-.3v-.7h-.4v.7h-.3Z" fill="#fff"/><path d="M139.5,55.9l1.6-.5v.4l-1,.6h1.1v.4l-1.6.5v-.2l1.2-.4-1.3.2v-.2l1.1-.7-1.2.4Z" fill="#fff"/><path d="M140,57.3l1.6-.5.3,1h-.3l-.2-.7H141l.2.6h-.3l-.2-.6h-.4l.2.7h-.3Z" fill="#fff"/><path d="M140.3,58.5l1.6-.4v.3l-1.6.4Z" fill="#fff"/><path d="M140.5,59l1.6-.4v.3l-1.3.3.2.7h-.3Z" fill="#fff"/><path d="M140.7,60.1l1.6-.4v.3l-1.3.3V61H141Z" fill="#fff"/><path d="M141,61.3l1.6-.3.2,1h-.3v-.7H142V62h-.3v-.7h-.4v.7h-.3Z" fill="#fff"/><path d="M142.9,62.2v.3h-1.3a.3.3,0,0,0,0,.2H143v.3h-1.6V63a.6.6,0,0,1,0-.3l.2-.2h1.4Z" fill="#fff"/><path d="M141.4,63.8l1.6-.2v.6a.8.8,0,0,1,0,.3v.2h-.6l-.2-.2v.2l-.2.2-.3.2v-.3l.3-.2.2-.2h.1a.4.4,0,0,0,0-.1h-.7Zm1,.1v.4h.4v-.4Z" fill="#fff"/><path d="M142.1,65v.3q-.3.1-.3.3v.2h.3v-.5h.6l.2.2v.3a.5.5,0,0,1-.1.4l-.4.2v-.3h.2a.2.2,0,0,0,0-.2v-.2h-.2v.6l-.2.2h-.6a.5.5,0,0,1-.2-.4Q141.6,65.1,142.1,65Z" fill="#fff"/><path d="M142.3,66.8v.3q-.3.1-.3.3v.2h.3V67h.6l.2.2v.3a.5.5,0,0,1-.1.4l-.4.2v-.3h.2v-.3h-.2v.6h-.8a.5.5,0,0,1-.2-.4Q141.7,66.9,142.3,66.8Z" fill="#fff"/><path d="M141.8,68.1h1.6v1h-.3v-.7h-.4v.7h-.3v-.7h-.4v.8h-.3Z" fill="#fff"/><path d="M141.9,69.4h1.6V70a.8.8,0,0,1,0,.3l-.2.2h-.6v-.3h-.1l-.3.2-.3.2v-.3l.4-.2h-.4Zm.9.3v.2a1,1,0,0,0,0,.2h.4v-.4Z" fill="#fff"/><path d="M141.8,71l1.7-.4v.3l-1.2.3,1.2.4v.3l-1.6-.5Z" fill="#fff"/><path d="M141.8,71.9h1.6v.3h-1.6Z" fill="#fff"/><path d="M142.3,73.4v.3l-.4-.2a.5.5,0,0,1-.1-.4.5.5,0,0,1,.2-.4h.6l.6.2a.5.5,0,0,1,.2.5.5.5,0,0,1-.2.4h-.3v-.3h.2v-.2a.3.3,0,0,0-.1-.3h-.9v.4Z" fill="#fff"/><path d="M141.7,73.8l1.6.2v1h-.3v-.7h-.4v.7h-.3v-.7h-.4v.7h-.3Z" fill="#fff"/><path d="M142.1,75.1v.3q-.3,0-.4.2a.3.3,0,0,0,0,.2h.3v-.5h.6v.2a.6.6,0,0,1,0,.3.5.5,0,0,1-.2.4h-.4v-.3h.2v-.2a.3.3,0,0,0,0-.2h-.2v.2l-.2.3h-.4l-.3-.2a.5.5,0,0,1-.1-.4Q141.5,75,142.1,75.1Z" fill="#fff"/><path d="M57.8,51.7l-1.2-.6-.2.4h-.3l.4-1h.3l-.2.4,1.2.6Z" fill="#fff"/><path d="M58.1,50.9l-1.5-.7.2-.5.2-.3h.5l.2.2a.4.4,0,0,1,0,.3h.9v.3h-.9l.6.3Zm-.7-.7v-.4h-.4v.4Z" fill="#fff"/><path d="M59.3,48.7v.3h-.4l-.2.5.3.3v.3l-1.2-1.2v-.3Zm-.8.1h-.6l.5.4Z" fill="#fff"/><path d="M59.4,48.4,57.8,48v-.3l1.2.3-.9-.9v-.3l1.2,1.2Z" fill="#fff"/><path d="M60.4,46.6v.3h-.4l-.3.5.3.3v.2l-1.2-1.3v-.2Zm-.8.1H59l.4.5Z" fill="#fff"/><path d="M60.5,46.5l-1.4-.9v-.2l1.4.9Z" fill="#fff"/><path d="M60.8,46.1l-1.4-.9V45l1.1.7.4-.6h.2Z" fill="#fff"/><path d="M61.4,45.1,60,44.2l.2-.2,1.1.8.4-.6.2.2Z" fill="#fff"/><path d="M62,44.2l-1.3-1,.6-.8.2.2-.4.6.3.2.4-.6.2.2-.4.6.4.3.4-.6.2.2Z" fill="#fff"/><path d="M62.7,43.2l-1.3-1,.3-.5.2-.2h.5l.2.3a.4.4,0,0,1,0,.3h.9l-.2.3h-.9l.5.4Zm-.6-.8V42a.1.1,0,0,0,0-.1h-.3v.3Z" fill="#fff"/><path d="M58.6,54.2l-.4-.3-.2-.3a.6.6,0,0,1,0-.3.6.6,0,0,1,.4-.4h.7a1,1,0,0,1,.5.4.6.6,0,0,1,0,.5.6.6,0,0,1-.4.4Zm.1-.3h.4l.2-.2a.3.3,0,0,0,0-.3l-.4-.3h-.4l-.2.2a.3.3,0,0,0,0,.3Z" fill="#fff"/><path d="M58.4,52.4v-.2l.8.4h.6a.3.3,0,0,0,0-.2h-.1l-.3-.2-.8-.4v-.2l.8.4.4.2.2.2a.5.5,0,0,1-.1.3l-.2.3h-.3l-.5-.2Z" fill="#fff"/><path d="M60.6,51.5l-1.7-.3V51l1.2.2-1-.8v-.3l1.3,1.2Z" fill="#fff"/><path d="M61,50.7,59.5,50l.5-.9h.2l-.3.6.3.2.3-.6h.2l-.3.6.4.2.3-.7h.2Z" fill="#fff"/><path d="M61.6,49.6l-1.4-.8.3-.5.2-.3h.5l.2.2a.4.4,0,0,1,0,.3h.9l-.2.3h-.9l.6.3Zm-.7-.7v-.4h-.3v.4Z" fill="#fff"/><path d="M62.4,48.2l-1.2-.7-.2.3h-.2l.5-.9h.2l-.2.3,1.2.7Z" fill="#fff"/><path d="M62.8,47.5l-1.4-.9.5-.8h.2l-.4.6.3.2.4-.6h.2l-.4.6.4.2.4-.6h.2Z" fill="#fff"/><path d="M63.5,46.4l-1.4-.9.2-.3,1.1.4-.8-.8.2-.3,1.4.9v.2L63,44.8l.9,1V46l-1.2-.5,1.1.7Z" fill="#fff"/><path d="M64.4,45.1l-1.3-1,.6-.8.2.2-.4.6.3.2.4-.5.2.2-.4.5.4.3.4-.6.2.2Z" fill="#fff"/><path d="M65.1,44.1l-1.3-1,.2-.2,1.2.2-.9-.7.2-.2,1.3,1-.2.2-1.2-.2.8.7Z" fill="#fff"/><path d="M66.1,42.8,65.1,42l-.3.3-.2-.2.7-.8.2.2-.3.3,1.1.9Z" fill="#fff"/><path d="M61.8,54.6l-1.5-.7.2-.4v-.3h.6l.2.2v.7l.6.2Zm-1.1-.8.4.2h.1v-.2h-.4v.2Z" fill="#fff"/><path d="M62.8,52.5v.3h-.4l-.2.5.3.3v.3l-1.3-1.2v-.3Zm-.8.2h-.6l.5.4Z" fill="#fff"/><path d="M62.8,52.4l-1.5-.7.3-.5.2-.3h.5l.2.2a.4.4,0,0,1,0,.3h.9v.3h-.9l.6.3Zm-.7-.7v-.4H62v.4Z" fill="#fff"/><path d="M62.3,49.9l.2-.4.2-.2h.5l.4.2.3.2.2.2a.5.5,0,0,1,0,.2v.3l-.3.4Zm.4-.1.9.5V50h-.1l-.2-.2h-.6v.2Z" fill="#fff"/><path d="M63.1,48.3l-.2-.3.2-.2.2.4Zm1.3,1.2L63,48.7l.5-.9h.2l-.4.6.3.2.4-.6h.2l-.4.6.4.2.4-.6h.2Z" fill="#fff"/><path d="M65,48.5l-1.4-.9.5-.8.2.2-.4.5.3.2.3-.5.2.2-.3.5.6.4Z" fill="#fff"/><path d="M66.3,46.6l-.2.2h-.4l-.3.4.2.3-.2.2-1.1-1.4.2-.2Zm-.8,0-.6-.2.4.5Z" fill="#fff"/><path d="M65,45.5l.2-.2.7.5.2.2h.4l-.2-.2-.7-.5.2-.2.7.5.4.3a.4.4,0,0,1,.1.3.5.5,0,0,1-.1.3l-.3.2h-.3l-.4-.3Z" fill="#fff"/><path d="M67.4,45.2l-1.1-.8-.2.3-.2-.2.7-.8.2.2-.2.3,1.1.8Z" fill="#fff"/><path d="M54.1,79.4l-1.6.3v-.3l1.6-.3Z" fill="#fff"/><path d="M54,78.9l-1.6.3v-.3l1-.7-1.1.2v-.2l1.6-.3v.3l-1,.7,1.1-.2Z" fill="#fff"/><path d="M53.7,77.2l-1.4.2v.4h-.3L52,76.8h.3v.4l1.4-.2Z" fill="#fff"/><path d="M51.8,76.3h-.3v-.3l.4.2Zm1.8.1-1.6.2v-1h.3v.7h.4v-.7h.3v.7h.4v-.7h.3Z" fill="#fff"/><path d="M52.8,74.6h-.3V74h.7l.2.2v.3a.6.6,0,0,1-.1.4l-.3.3h-.9l-.3-.2a.6.6,0,0,1-.1-.3.6.6,0,0,1,.1-.4l.3-.2v.3h-.2a.3.3,0,0,0-.1.2l.2.3h.4l.4-.2a.3.3,0,0,0,.1-.3v-.2h-.3Z" fill="#fff"/><path d="M53.4,73.7H51.7v-.6a.8.8,0,0,1,0-.3v-.2h.6l.2.3v-.2l.3-.2.3-.2v.3l-.3.2-.2.2h-.1a.4.4,0,0,0,0,.1h.7Zm-1-.2v-.4H52a1.1,1.1,0,0,0,0,.2v.2Z" fill="#fff"/><path d="M53.3,72.4H51.7v-1h.3v.7h.4v-.7h.3v.7H53v-.8h.3Z" fill="#fff"/><path d="M53.3,71.1H51.6v-.6a.8.8,0,0,1,0-.3l.2-.2h.6l.2.3h.1l.3-.2.3-.2v.3l-.4.2h.4Zm-1-.3v-.2a1,1,0,0,0,0-.2h-.4a1.1,1.1,0,0,0,0,.2v.2Z" fill="#fff"/><path d="M57.4,81.7l-1.6.4v-.3l1.3-.3-.2-.7h.3Z" fill="#fff"/><path d="M55.5,81v-.3h.1Z" fill="#fff"/><path d="M56.7,79v.3l-.3.2V80H57v.3l-1.7-.2v-.3Zm-.5.6-.6.3h.6Z" fill="#fff"/><path d="M56,78.1v-.3h.4l.2.3a.5.5,0,0,1-.1.5l-.6.3h-.7a.5.5,0,0,1-.3-.4.5.5,0,0,1,.1-.4l.3-.2v.3h-.2a.3.3,0,0,0,0,.2l.2.2h.4l.4-.2a.3.3,0,0,0,.1-.3v-.2Z" fill="#fff"/><path d="M55.8,76.7v-.3h.4a.5.5,0,0,1,.2.3.5.5,0,0,1-.1.5l-.6.3H55a.5.5,0,0,1-.3-.4.5.5,0,0,1,.1-.4l.3-.2v.3h-.2a.3.3,0,0,0,0,.2l.2.2h.4l.4-.2a.3.3,0,0,0,.1-.3v-.2Z" fill="#fff"/><path d="M56.3,76.2l-1.6.2v-1h.3v.7h.4v-.7h.3V76H56v-.7h.3Z" fill="#fff"/><path d="M55.6,75.1v-.3q.3-.1.3-.3v-.2h-.3v.5h-.6l-.2-.2v-.3a.5.5,0,0,1,.1-.4l.4-.2v.3h-.2a.2.2,0,0,0,0,.2v.2H55v-.6l.2-.2H56a.5.5,0,0,1,.2.4Q56.2,74.9,55.6,75.1Z" fill="#fff"/><path d="M55.5,73.8v-.3q.3-.1.3-.3V73h-.3v.5h-.6l-.2-.2v-.3a.5.5,0,0,1,.1-.4l.4-.2v.3h-.2v.3h.2v-.6h.8a.5.5,0,0,1,.2.4Q56.1,73.7,55.5,73.8Z" fill="#fff"/><path d="M56,72.5H54.3v-.3H56Z" fill="#fff"/><path d="M54.3,72v-.5a.8.8,0,0,1,0-.3V71h.6v-.2h.6l.2.2a2.1,2.1,0,0,1,0,.4v.5Zm.3-.3H55v-.4h-.4a1.7,1.7,0,0,0,0,.3Zm.7,0h.4v-.5h-.4a.9.9,0,0,0,0,.2Z" fill="#fff"/><path d="M55.9,70.6H54.3v-.3h1.6Z" fill="#fff"/><path d="M55.9,70.1H54.3v-.3h1.4v-.7h.3Z" fill="#fff"/><path d="M56,68.9H54.3v-.3H56Z" fill="#fff"/><path d="M56,68.1H54.6v.4h-.3V67.3h.3v.4H56Z" fill="#fff"/><path d="M54.3,66.8l-.3-.2v-.3l.3.3Zm1.7.5H54.4v-1h.3v.7h.4v-.7h.3v.7h.4v-.8h.3Z" fill="#fff"/><path d="M58.4,81.4v-.5a.7.7,0,0,1,0-.3v-.2l.2-.2h1.2V81Zm.2-.3,1.1-.3v-.4h-1V81Z" fill="#fff"/><path d="M57.8,79.5v.2l-.3.3v-.3Zm1.8.3-1.6.3-.2-1h.3l.2.7h.4V79h.3v.7h.4l-.2-.7h.3Z" fill="#fff"/><path d="M58.9,78.7v-.3q.3-.1.3-.3v-.2h-.3v.7h-.6v-.3a.5.5,0,0,1,.1-.4l.3-.2V78H58a.2.2,0,0,0,0,.2v.2h.2v-.7h.6a.5.5,0,0,1,.2.4Q59.4,78.5,58.9,78.7Z" fill="#fff"/><path d="M59.1,76.8l-1.6.2v-.3l1.3-.2v-.7H59Z" fill="#fff"/><path d="M58.9,75.6l-1.6.2v-1h.3v.7h.4v-.7h.3v.7h.4v-.7h.3Z" fill="#fff"/><path d="M57.1,74v-.5a.7.7,0,0,1,0-.3V73h1.3l.2.2v.8Zm.3-.3h1.1v-.4h-1a1.1,1.1,0,0,0,0,.2Z" fill="#fff"/><path d="M56.9,72.3h-.3v-.3l.3.2Zm1.8.3H57v-1h.3v.7h.4v-.7h.3v.7h.4v-.8h.3Z" fill="#fff"/><path d="M58.6,71.3H57v-.4a1.3,1.3,0,0,1,0-.3l.2-.2h.6l.2.2a.9.9,0,0,1,.1.3V71h.6ZM57.3,71h.5v-.4h-.4a.8.8,0,0,0,0,.2Z" fill="#fff"/><path d="M58.7,69v.3h-.4v.5h.4v.3L57,69.8v-.3Zm-.7.5-.6.2.6.2Z" fill="#fff"/><path d="M58.7,68.8H57v-.6a.8.8,0,0,1,.1-.3h.7v.3h.7V68l-.4.2h.3Zm-.9-.3v-.2a1,1,0,0,0,0-.2h-.4v.4Z" fill="#fff"/><path d="M58.8,67.2H57.4v.4h-.3V66.4h.3v.4h1.4Z" fill="#fff"/><path d="M63,92.3l1.4-.8.5.9h-.2l-.4-.6-.3.2.3.6h-.2l-.3-.6-.4.2.4.6h-.2Zm1.6-.7h.4v.2l-.2.3v-.4h-.2Z" fill="#fff"/><path d="M63.8,93.7l1.2-.7-.2-.3h.2l.6.9h-.2l-.2-.3-1.2.7Z" fill="#fff"/><path d="M64.2,94.4l1.4-.9.3.5v.3a.3.3,0,0,1,0,.2l-.2.2h-.6v.5l-.2.3-.2-.3.2-.4v-.3h-.1l-.6.4Zm.9-.3v.4h.3a.2.2,0,0,0,0-.1v-.4Z" fill="#fff"/><path d="M65,95.5l1.3-1,.6.8-.2.2-.4-.6-.3.2.4.6-.2.2-.4-.6-.4.3.4.6-.2.2Z" fill="#fff"/><path d="M67.3,95.9l.3.4v.2a.5.5,0,0,1,0,.2V97l-.3.3-.3.2h-.5l-.2-.2-.3-.4Zm-.1.4-.9.7v.2h.4l.2-.2.2-.2v-.2a.2.2,0,0,0,0-.2v-.2Z" fill="#fff"/><path d="M66.8,98l1.3-1,.6.8-.2.2-.5-.6-.3.2.4.5-.2.2-.4-.5-.3.3.5.6-.2.2Z" fill="#fff"/><path d="M69.2,98.2l.4.4.2.3a.3.3,0,0,1,0,.2v.2h-.4a.4.4,0,0,1,0,.2v.2h-.5l-.3-.3-.3-.3Zm-.5.8-.3.3.2.2H69a.2.2,0,0,0,0-.1V99Zm.5-.4-.3.3h.6a.1.1,0,0,0,0-.1l-.2-.2Z" fill="#fff"/><path d="M69.4,99.7l.4-.3h.4l.3.2a.6.6,0,0,1,.2.5,1,1,0,0,1-.3.6l-.6.3-.5-.2a.6.6,0,0,1-.2-.5A1,1,0,0,1,69.4,99.7Zm.2.2-.2.4a.3.3,0,0,0,.1.3h.3l.4-.2.2-.4a.3.3,0,0,0-.1-.3H70Z" fill="#fff"/><path d="M69.9,101.4l1.2-1.2.2.2-.4,1.2.8-.8.2.2-1.2,1.2-.2-.2.4-1.1-.8.8Z" fill="#fff"/><path d="M71.2,101.9l.2.2q-.2.3,0,.4h.4v-.5a.4.4,0,0,1,0-.2v-.2h.7a.5.5,0,0,1,0,.7l-.2-.2v-.3h-.3v.5a.4.4,0,0,1,0,.2v.2l-.3.2-.4-.2A.5.5,0,0,1,71.2,101.9Z" fill="#fff"/><path d="M62.3,93.4v.2l-.8.5h-.2v.2a.3.3,0,0,0,0,.2h.5l.8-.5v.2l-.7.5-.4.2h-.3l-.2-.2v-.6l.4-.3Z" fill="#fff"/><path d="M61.8,95.7l1.1-.7-.2-.3.2-.2.6.9-.2.2-.2-.3-1.1.7Z" fill="#fff"/><path d="M62.2,96.4l1.4-.9.2.2-1.4.9Z" fill="#fff"/><path d="M62.5,96.8l1.3-.9.2.2-1.1.8.4.6-.2.2Z" fill="#fff"/><path d="M63.2,97.7l1.3-1,.2.2-1.3,1Z" fill="#fff"/><path d="M63.9,97.8l.2.2q-.2.2-.1.4h.4a.2.2,0,0,0,0-.1v-.9h.5l.2.2a.5.5,0,0,1,.1.4l-.2.3-.2-.2v-.3h-.3v.8l-.2.2h-.4l-.4-.2A.5.5,0,0,1,63.9,97.8Z" fill="#fff"/><path d="M65,100.1l-.2-.2.2-.3-.3-.4h-.4l-.2-.2,1.6-.6.2.2Zm.2-.8.4-.5L65,99Z" fill="#fff"/><path d="M65.2,100.3l1-.9-.3-.3.2-.2.7.8-.2.2-.3-.3-1,.9Z" fill="#fff"/><path d="M65.7,101,67,99.9l.7.7-.2.2-.5-.5-.3.2.4.5-.2.2-.4-.5-.3.3.5.6-.2.2Z" fill="#fff"/><path d="M67.8,100.8l.2.2-.7.6-.2.2v.3h.3l.2-.2.7-.6.2.2-.6.6-.4.3h-.3l-.3-.2-.2-.3a.4.4,0,0,1,0-.3l.3-.4Z" fill="#fff"/><path d="M67.5,102.9l1.2-1.2.4.4.2.3a.3.3,0,0,1,0,.2v.2l-.3.2h-.3a.7.7,0,0,1,0,.2v.6l-.2-.2v-.7a.2.2,0,0,0,0-.1h-.1l-.5.5Zm.9-.5h.1l.2.2H69v-.2l-.2-.2Z" fill="#fff"/><path d="M68.8,103.4l.2.2q-.2.3,0,.4h.4v-.5a.4.4,0,0,1,0-.2v-.2h.7a.5.5,0,0,1,0,.7l-.2-.2v-.3h-.3v.5a.4.4,0,0,1,0,.2v.2l-.3.2-.4-.2A.5.5,0,0,1,68.8,103.4Z" fill="#fff"/><path d="M60.1,95.5l.3.4v.3a.5.5,0,0,1,0,.2l-.2.2-.3.2-.3.2h-.5l-.2-.2-.3-.4Zm-.1.4-.9.6v.2h.7l.2-.2v-.2a.2.2,0,0,0,0-.2V96Z" fill="#fff"/><path d="M59.5,97.5l1.4-.9.6.8-.2.2-.4-.6-.3.2.4.6-.2.2-.4-.6-.4.2.4.6-.2.2Z" fill="#fff"/><path d="M61.8,98l.3.4v.3a.5.5,0,0,1,0,.2v.3l-.3.3-.3.2H61l-.2-.2-.3-.4Zm-.1.4-.9.6v.2h.7l.2-.2v-.2a.2.2,0,0,0,0-.2v-.2Z" fill="#fff"/><path d="M61.9,99.5l.4-.2h.4l.3.2a.6.6,0,0,1,.1.5,1,1,0,0,1-.4.5l-.6.2-.4-.2a.6.6,0,0,1-.1-.5A1,1,0,0,1,61.9,99.5Zm.2.2-.3.3a.3.3,0,0,0,0,.3h.3l.4-.2.3-.3a.3.3,0,0,0-.1-.3h-.3Z" fill="#fff"/><path d="M62.1,101.2l1.3-1,.2.2-.5,1.1.9-.7.2.2-1.3,1-.2-.2.5-1.1-.8.7Z" fill="#fff"/><path d="M63,102.3l1.2-1.1.2.2-.5,1.1.8-.7.2.2-1.2,1.1-.2-.2.5-1.1-.8.7Z" fill="#fff"/><path d="M63.9,103.3l1.2-1.1.7.7-.2.2-.5-.5-.3.2.5.5-.2.2-.5-.5-.3.3.5.6-.2.2Zm1.5-.9h.3l.2.2h-.5Z" fill="#fff"/><path d="M64.7,104.2l1.2-1.1.7.7-.2.2-.5-.5-.3.3.5.5-.2.2-.5-.5-.3.3.5.5-.2.2Z" fill="#fff"/><path d="M65.9,104.7l.2.2q-.2.3,0,.4h.4a.2.2,0,0,0,0-.1v-.5a.4.4,0,0,1,0-.2v-.2h.7a.5.5,0,0,1,0,.7l-.2-.2v-.3h-.3v.5a.4.4,0,0,1,0,.2v.2l-.3.2-.4-.2A.5.5,0,0,1,65.9,104.7Z" fill="#fff"/><path d="M84.9,108.8h.3l-.3.8v.3a.3.3,0,0,0,0,.2h.4v-.3l.3-.9h.3l-.3.8-.2.4-.2.2h-.3l-.3-.2v-.3a1.6,1.6,0,0,1,.1-.5Z" fill="#fff"/><path d="M85.9,110.9l.4-1.3H86v-.3l1,.3v.3h-.4l-.4,1.3Z" fill="#fff"/><path d="M86.7,111.2l.5-1.6h.3l-.5,1.6Z" fill="#fff"/><path d="M87.2,111.3l.5-1.6h.3l-.4,1.3.6.2v.3Z" fill="#fff"/><path d="M88.3,111.7l.4-1.6H89l-.4,1.6Z" fill="#fff"/><path d="M88.8,111.3h.3q0,.3.2.4h.3a.2.2,0,0,0,0-.1h-.3l-.2-.2v-.2a.5.5,0,0,1,0-.2v-.2h.5l.3.2a.5.5,0,0,1,0,.4h-.3a.3.3,0,0,0,0-.2h-.4a.1.1,0,0,0,0,.1l.2.2.3.2v.2a.6.6,0,0,1,0,.3l-.2.3h-.4Q88.7,111.8,88.8,111.3Z" fill="#fff"/><path d="M90,112.1l.4-1.6,1,.2v.3l-.7-.2v.4h.7v.3h-.7v.4l.7.2v.3Z" fill="#fff"/><path d="M91.2,112.4l.3-1.6h.9v.2a.5.5,0,0,1,0,.3l-.2.3h-.3v.8h-.3v-.7h-.3v.7Zm.4-.9h.6a.2.2,0,0,0,0-.1h-.5Z" fill="#fff"/><path d="M93.3,111.1H94l.2.2v.3a1.5,1.5,0,0,1,0,.4v.4l-.2.2H93Zm.2.3-.2,1.1h.6V112a1.3,1.3,0,0,0,0-.3v-.2h-.5Z" fill="#fff"/><path d="M94.4,112.9l.2-1.6h1v.3h-.7v.4h.7v.3h-.7v.4h.7v.3Z" fill="#fff"/><path d="M95.6,112.5h.3q0,.3.3.3h.2v-.2h-.6v-.2a.5.5,0,0,1,0-.2v-.2h.5l.4.2a.5.5,0,0,1,.1.4h-.3v-.2h-.1l.3.2v.2a.6.6,0,0,1,0,.3.5.5,0,0,1-.2.3h-.4Q95.6,113.1,95.6,112.5Z" fill="#fff"/><path d="M82.1,112.2l.6-1.5H83V112l.4-1h.2l-.6,1.5h-.3v-1.2l-.4,1Z" fill="#fff"/><path d="M83.6,111.9l.3-.4.3-.2h.4a.6.6,0,0,1,.4.4,1,1,0,0,1-.1.7,1,1,0,0,1-.4.5h-.5a.6.6,0,0,1-.4-.4A1,1,0,0,1,83.6,111.9Zm.3.1a.7.7,0,0,0,0,.4l.2.2h.3l.3-.4a.7.7,0,0,0,.1-.4l-.2-.2h-.3Z" fill="#fff"/><path d="M84.7,113.2l.5-1.6.5.2h.3v.2a.5.5,0,0,1,0,.3l-.2.3h-.3v.8h-.3v-.7h-.2l-.2.6Zm.6-.8h.6a.2.2,0,0,0,0-.1h-.5Z" fill="#fff"/><path d="M86,113.6l.5-1.6h.4v1.1l.6-1h.4l-.5,1.6H87l.4-1.2-.6,1.2h-.3v-1.3l-.4,1.2Z" fill="#fff"/><path d="M87.5,114.1l.4-1.6,1,.3v.3l-.7-.2v.4l.7.2v.3l-.7-.2v.4l.7.2v.3Z" fill="#fff"/><path d="M88.8,113.9H89q0,.3.2.4h.3a.2.2,0,0,0,0-.1h-.3l-.2-.2v-.2a.5.5,0,0,1,0-.2V113h.5l.3.2a.5.5,0,0,1,.1.4h-.3a.3.3,0,0,0,0-.2h-.4l.2.2.3.2v.2a.6.6,0,0,1,0,.3l-.2.3h-.4Q88.7,114.4,88.8,113.9Z" fill="#fff"/><path d="M90.4,114.8l.3-1.6,1,.2v.3H91v.4h.7v.3h-.7v.4h.7v.3Z" fill="#fff"/><path d="M91.9,115.1l.2-1.3h-.4v-.3l1.1.2v.3h-.4l-.2,1.3Z" fill="#fff"/><path d="M93.5,113.7h.8l.2.2v.3a1.5,1.5,0,0,1,0,.4v.4l-.2.2h-1Zm.2.3v1.1h.6v-.3a1.3,1.3,0,0,0,0-.3v-.2h-.5Z" fill="#fff"/><path d="M94.6,115.5l.2-1.6h1v.3H95v.4h.7v.3H95v.4h.7v.3Z" fill="#fff"/><path d="M95.8,115.1h.3q0,.3.3.3h.2v-.2h-.6v-.2a.5.5,0,0,1,0-.2v-.2h.5l.4.2a.5.5,0,0,1,.1.4h-.3v-.2h.2v.2a.6.6,0,0,1,0,.3.5.5,0,0,1-.2.3h-.4Q95.9,115.7,95.8,115.1Z" fill="#fff"/><path d="M78.6,112.8h.3q-.1.3.1.4h.3l-.2-.2-.2-.2v-.4l.2-.2h.5l.3.3a.5.5,0,0,1,0,.4h-.3a.3.3,0,0,0,0-.2h-.4a.1.1,0,0,0,0,.1l.2.2.2.2v.5l-.3.3h-.4A.5.5,0,0,1,78.6,112.8Z" fill="#fff"/><path d="M79.8,113.1l.3-.4.3-.2h.3a.6.6,0,0,1,.3.4,1,1,0,0,1-.1.6,1,1,0,0,1-.4.5H80a.6.6,0,0,1-.3-.4A1,1,0,0,1,79.8,113.1Zm.3.1a.7.7,0,0,0-.1.4l.2.2h.3l.3-.3a.7.7,0,0,0,.1-.4l-.2-.2h-.3Z" fill="#fff"/><path d="M80.8,114.4l.6-1.5h.2l-.5,1.2.6.3v.3Z" fill="#fff"/><path d="M82.5,113.3h.3l-.3.8v.3a.3.3,0,0,0,0,.2h.4v-.3l.3-.8h.3l-.3.8-.2.4-.2.2h-.3l-.3-.2a.4.4,0,0,1-.1-.3v-.5Z" fill="#fff"/><path d="M83.4,115.5l.5-1.3h-.4v-.3l1,.4v.3h-.4l-.5,1.3Z" fill="#fff"/><path d="M84.2,115.8l.5-1.6H85l-.5,1.6Z" fill="#fff"/><path d="M84.9,115.1l.2-.4.3-.2h.4a.6.6,0,0,1,.4.4,1,1,0,0,1,0,.7,1,1,0,0,1-.4.6h-.5a.6.6,0,0,1-.4-.3A1,1,0,0,1,84.9,115.1Zm.3.1a.7.7,0,0,0,0,.4l.2.2h.3l.2-.4a.7.7,0,0,0,0-.4l-.2-.2h-.3Z" fill="#fff"/><path d="M86.1,116.4l.5-1.6h.3l.2,1.2.3-1.1h.2l-.5,1.6h-.3l-.2-1.2-.3,1Z" fill="#fff"/><path d="M87.5,116.2h.3q0,.3.2.4h.3a.2.2,0,0,0,0-.1H88l-.2-.2v-.2a.5.5,0,0,1,0-.2v-.2h.5l.3.2a.5.5,0,0,1,0,.4h-.3a.3.3,0,0,0,0-.2h-.4a.1.1,0,0,0,0,.1l.2.2.3.2v.2a.6.6,0,0,1,0,.3l-.2.3h-.4Q87.4,116.8,87.5,116.2Z" fill="#fff"/><path d="M89.2,116.4l.2-.5.3-.2H90a.6.6,0,0,1,.4.3,1,1,0,0,1,0,.7,1,1,0,0,1-.3.6h-.5l-.4-.3A1,1,0,0,1,89.2,116.4Zm.3.1a.7.7,0,0,0,0,.4l.2.2H90a.7.7,0,0,0,.2-.4.7.7,0,0,0,0-.4L90,116h-.3A.7.7,0,0,0,89.5,116.4Z" fill="#fff"/><path d="M90.8,115.9h.3l-.2.9v.4h.4v-.3l.2-.9h.3l-.2.8v.5l-.2.2h-.6v-.2a1.6,1.6,0,0,1,0-.5Z" fill="#fff"/><path d="M92.2,117.8l-.2-1.7h.3v1.3l.5-1.1h.3l-.7,1.5Z" fill="#fff"/><path d="M93.1,117.9l.2-1.6h1v.3h-.7v.4h.7v.3h-.7v.4h.7v.3Z" fill="#fff"/><path d="M94.3,118.1l.2-1.6h.9v.2a.5.5,0,0,1,0,.3v.3h-.3v.8h-.3l-.2-.4v-.3h-.3v.7Zm.4-.9h0Z" fill="#fff"/><path d="M96,118.3v-1.4h-.4v-.3h1.1v.3h-.4v1.4Z" fill="#fff"/><path d="M96.8,118.3v-1.6h1v.3h-.7v.4h.7v.3h-.7v.4h.8v.3Z" fill="#fff"/><path d="M98,117.9h.3q0,.3.3.3h.2V118h-.6V117l.2-.2h.6a.5.5,0,0,1,.1.4h-.3v-.2h.2v.2a.6.6,0,0,1,0,.3.5.5,0,0,1-.1.4h-.4Q98,118.4,98,117.9Z" fill="#fff"/><path d="M129.9,98.2l-.2-.2.4-.4.5.4a.7.7,0,0,1,0,.3l-.2.3-.3.2h-.4l-.4-.2-.3-.4a.7.7,0,0,1-.1-.4l.2-.3.4-.2h.4v.2h-.4a.3.3,0,0,0-.1.3l.2.4.4.2h.4v-.2h-.2Z" fill="#fff"/><path d="M129.8,96.6l-.2-.3.2-.2v.4Zm1.1,1.4-1.2-1.1.7-.8.2.2-.5.5.3.2.4-.5.2.2-.4.5.3.3.5-.6.2.2Z" fill="#fff"/><path d="M131.7,97l-1.3-1,.4-.4.2-.2h.5l.2.3a.4.4,0,0,1-.1.3h.9l-.2.3h-.9l.5.4Zm-.6-.8v-.3a.2.2,0,0,0,0-.1h-.3V96Z" fill="#fff"/><path d="M132.5,96l-1.3-1,.6-.8.2.2-.4.6.3.2.4-.5.2.2-.4.5.4.3.5-.6.2.2Z" fill="#fff"/><path d="M133.3,95,132,94l.3-.5.2-.2h.5l.2.3a.4.4,0,0,1,0,.3h.9l-.2.3h-.9l.6.4Zm-.6-.8v-.4a.2.2,0,0,0,0-.1h-.3V94Z" fill="#fff"/><path d="M134.4,93.5l-1.4-.9v-.2l1.1.7.4-.6.2.2Z" fill="#fff"/><path d="M135,92.5l-1.4-.9.5-.9h.2l-.4.6.3.2.4-.6h.2l-.4.6.4.2.4-.6h.2Z" fill="#fff"/><path d="M135.1,91.2V91q.3.1.4-.1a.3.3,0,0,0,0-.2h-.3l-.2.2-.2.2h-.4l-.2-.2v-.5l.3-.3h.4v.2h-.3v.2h.2l.2-.2.3-.2h.5l.2.3a.6.6,0,0,1-.8.6Z" fill="#fff"/><path d="M136.5,89.9l-1.5-.8.3-.5.2-.3h.5l.2.2a.4.4,0,0,1,0,.3h.9v.3H136l.6.3Zm-.7-.7v-.4h-.3V89Z" fill="#fff"/><path d="M137.1,88.7l-1.5-.7v-.2l1.5.7Z" fill="#fff"/><path d="M136.8,88.1v-.3q.3.1.4-.1a.3.3,0,0,0,0-.2h-.3l-.2.2-.2.2h-.4l-.2-.2v-.5l.3-.3h.4v.3h-.3a.3.3,0,0,0,0,.2h.2l.2-.2.2-.2h.5l.3.3a.6.6,0,0,1-.8.7Z" fill="#fff"/><path d="M138.1,86h.2l.2.2h-.3a.6.6,0,0,1-.1.3.6.6,0,0,1-.4.3h-.7l-.5-.4a.6.6,0,0,1,0-.5.6.6,0,0,1,.4-.3h.7l.3.2Zm-.3.1-.4-.3h-.4l-.2.2a.3.3,0,0,0,0,.3l.4.3h.4l.2-.2h-.3Z" fill="#fff"/><path d="M136.9,85.2v-.3l.8.3h.6a.3.3,0,0,0,0-.2H138l-.8-.3v-.3l.8.3.4.2.2.2a.5.5,0,0,1,0,.3l-.2.3h-.8Z" fill="#fff"/><path d="M138.9,84.5l-1.6-.5.3-.9h.3l-.2.7h.3l.2-.6h.3l-.2.6h.4l.2-.7h.3Z" fill="#fff"/><path d="M138.8,83.2V83q.3.1.4-.2a.3.3,0,0,0,0-.2h-.3l-.2.2-.2.2h-.6v-.2a.6.6,0,0,1,0-.3l.2-.3h.4v.3h-.3a.3.3,0,0,0,0,.2h.2l.2-.2.2-.2h.5l.3.2a.6.6,0,0,1-.7.8Z" fill="#fff"/><path d="M130.5,101.7l-1.2-1.2.7-.7.2.2-.5.5.3.3.5-.5.2.2-.5.5.3.3.5-.5.2.2Z" fill="#fff"/><path d="M131.4,100.8l-1.2-1.1.2-.2,1.2.4-.8-.8.2-.2,1.2,1.1-.2.2-1.2-.3.8.7Z" fill="#fff"/><path d="M132.7,99.4l-1.2-1.1.3-.3,1,.5-.7-.9.3-.3,1.2,1.1-.2.2-1-.8.8,1-.2.2-1.2-.6,1,.8Z" fill="#fff"/><path d="M134.4,97.3l-.2.2h-.4l-.3.4.2.3-.2.2-1-1.4.2-.2Zm-.8,0L133,97l.4.5Z" fill="#fff"/><path d="M134.6,97.1l-1.1-.8-.2.3-.2-.2.7-.9.2.2-.2.3,1.1.8Z" fill="#fff"/><path d="M135.1,96.4l-1.3-1,.2-.2,1.3,1Z" fill="#fff"/><path d="M134.4,94.4h-.5l.2-.2Zm1.1,1.5-1.3-.9.6-.8.2.2-.4.6.3.2.4-.6.2.2-.4.6.4.3.4-.6.2.2Z" fill="#fff"/><path d="M136.1,95l-1.4-.9.3-.5.2-.2h.5l.2.2a.4.4,0,0,1,0,.3h.9l-.2.3h-.9l.6.4Zm-.6-.7v-.4a.2.2,0,0,0,0-.1h-.3V94Z" fill="#fff"/><path d="M136.9,93.8l-1.4-.9.5-.9h.2l-.4.6.3.2.4-.6h.2l-.4.6.4.2.4-.6h.2Z" fill="#fff"/><path d="M136.4,91.5l.2-.4.2-.2h.5l.4.2.3.2.2.2a.5.5,0,0,1,0,.2v.3l-.3.4Zm.4-.1.9.5v-.4h-.1l-.2-.2h-.6v.2Z" fill="#fff"/><path d="M138.5,91.1l-1.5-.8.5-.9h.2l-.3.6.3.2.3-.6h.2l-.3.6.4.2.4-.7h.2Z" fill="#fff"/><path d="M138.7,89.4v-.3q.3.1.4-.1a.3.3,0,0,0,0-.2H139l-.2.2-.2.2h-.4l-.2-.2v-.5l.3-.3h.4v.3h-.3a.3.3,0,0,0,0,.2h.2l.2-.2.2-.2h.5l.3.3a.6.6,0,0,1-.8.7Z" fill="#fff"/><path d="M138.3,87.4l-.3-.3v-.3l.2.4Zm1.5,1-1.5-.7.4-.9h.3l-.3.7h.3l.3-.6h.3l-.3.6.4.2.3-.7h.3Z" fill="#fff"/><path d="M140.1,86.3l.2-.2.3.3a.5.5,0,0,1,0,.4.5.5,0,0,1-.3.3h-.7l-.5-.4a.5.5,0,0,1,0-.5l.3-.3h.4v.3h-.4a.3.3,0,0,0,0,.3l.4.2h.4l.2-.2a.2.2,0,0,0,0-.2Z" fill="#fff"/><path d="M139.2,85.5v-.3l.8.3h.6a.3.3,0,0,0,0-.2h-.4l-.9-.3v-.3l.8.3.4.2.2.2a.5.5,0,0,1,0,.3l-.2.3h-.8Z" fill="#fff"/><path d="M141.3,84.8l-1.6-.5.2-.5v-.3h.5l.3.2a.4.4,0,0,1,.1.3h.8v.3h-.8l.7.2Zm-.8-.6v-.4h-.4v.4Z" fill="#fff"/><path d="M141.7,83.5l-1.6-.5v-.3l1.6.5Z" fill="#fff"/><path d="M141.9,82.7l-1.3-.4v.4h-.3l.3-1h.3v.4l1.3.4Z" fill="#fff"/><path d="M140.5,81.1l-.3-.2v-.3l.3.3Zm1.6.8-1.6-.4.3-1h.3l-.2.7h.4l.2-.7h.3l-.2.7h.4l.2-.7h.3Z" fill="#fff"/><path d="M133.3,102.4l-1.2-1.1.7-.7.2.2-.5.5.3.2.5-.5.2.2-.5.5.3.3.5-.5.2.2Z" fill="#fff"/><path d="M134.3,101.2l-1-.9-.3.3-.2-.2.7-.8.2.2-.3.3,1,.9Z" fill="#fff"/><path d="M134,99.2l.3-.4.2-.2h.5l.3.2.3.3v.3a.5.5,0,0,1,0,.2v.2l-.3.4Zm.4,0,.8.7v-.3a.2.2,0,0,0,0-.1h-.1l-.2-.2-.2-.2h-.3l-.2.2Z" fill="#fff"/><path d="M136.1,99.2l-1.3-1,.6-.8.2.2-.4.6.3.2.4-.5.2.2-.4.5.4.3.5-.6.2.2Z" fill="#fff"/><path d="M137.2,97.8l-1.3-1,.3-.4.2-.2h.6l.2.2a.4.4,0,0,1,0,.2l-.2.3h-.1l.5.4Zm-1-1,.4.3h.1v-.2a.2.2,0,0,0,0-.1h-.3v.2Z" fill="#fff"/><path d="M137.9,96.7l-1.4-.9.3-.5.2-.2h.5l.2.3a.4.4,0,0,1,0,.3h.9l-.2.3h-.9l.6.4Zm-.6-.8v-.4a.2.2,0,0,0,0-.1h-.3v.4Z" fill="#fff"/><path d="M137.9,95.2l-.4-.3a.7.7,0,0,1-.1-.3.6.6,0,0,1,.1-.3l.4-.3.6.2a1,1,0,0,1,.4.5.6.6,0,0,1-.1.5l-.4.3Zm.1-.2h.7a.3.3,0,0,0,0-.3l-.3-.3h-.4l-.3.2a.3.3,0,0,0,0,.3Z" fill="#fff"/><path d="M139.6,94.1l-1.2-.7-.2.3H138l.5-.9h.2l-.2.3,1.2.7Z" fill="#fff"/><path d="M140,93.4l-1.4-.8.5-.9h.2l-.4.6.3.2.3-.6h.2l-.3.6.4.2.4-.7h.2Z" fill="#fff"/><path d="M140.5,91.3l.2-.2.3.4a.5.5,0,0,1-.1.4l-.4.3h-.6a1,1,0,0,1-.5-.5.5.5,0,0,1,0-.5l.3-.3h.4V91h-.4a.3.3,0,0,0,0,.3l.3.3h.4l.2-.2a.2.2,0,0,0,0-.2Z" fill="#fff"/><path d="M141.4,90.9l-1.2-.6-.2.4h-.2l.5-1h.2l-.2.4,1.2.6Z" fill="#fff"/><path d="M141.7,90.1l-1.5-.7v-.2l1.5.7Z" fill="#fff"/><path d="M141.2,89.4l-.4-.3-.2-.3a.6.6,0,0,1,.1-.3.6.6,0,0,1,.4-.3h.6a1,1,0,0,1,.5.4.6.6,0,0,1,0,.5.6.6,0,0,1-.4.3Zm.1-.3h.4l.2-.2a.3.3,0,0,0,0-.3l-.4-.3h-.4l-.2.2a.3.3,0,0,0,0,.3Z" fill="#fff"/><path d="M142.5,88.3l-1.5-.6v-.2h1.2l-1-.4v-.2l1.5.6v.3h-1.2l1,.4Z" fill="#fff"/><path d="M141.7,86l.2-.5v-.3h.9l.3.2.2.2v.2a.7.7,0,0,1,0,.3l-.2.5Zm.4-.2,1,.4v-.4h-1v.2Z" fill="#fff"/><path d="M143.7,85.3l-1.6-.5.3-1h.3l-.2.7h.3l.2-.6h.3l-.2.6h.4l.2-.7h.3Z" fill="#fff"/><path d="M143.5,84v-.3q.3,0,.4-.2a.3.3,0,0,0,0-.2h-.3l-.2.2-.2.2h-.6v-.2a.6.6,0,0,1,0-.3l.2-.3h.4v.3h-.3a.3.3,0,0,0,0,.2h.2l.2-.2.2-.2h.5l.3.2a.5.5,0,0,1,0,.4Q144.1,84.1,143.5,84Z" fill="#fff"/><path d="M136.4,102.6l-1.2-1.1.4-.4.2-.2h.5l.2.3a.4.4,0,0,1-.1.3h.9l-.2.2H136l.5.4Zm-.5-.8v-.3a.2.2,0,0,0,0-.1h-.3l-.2.2v.2Z" fill="#fff"/><path d="M137.2,101.6l-1.3-1,.6-.8.2.2-.5.6.3.2.4-.5.2.2-.4.5.3.3.5-.6.2.2Z" fill="#fff"/><path d="M138,100.7l-1.3-1,.2-.2,1.2.2-.9-.7.2-.2,1.3,1-.2.2-1.2-.2.8.7Z" fill="#fff"/><path d="M138.4,99.3v-.2q.3.2.4-.1v-.3h-1.1l-.2-.2a.4.4,0,0,1,0-.2v-.2l.3-.2h.4v.2H138v.2h.4l.3-.2h.5l.2.3a.6.6,0,0,1-.9.5Z" fill="#fff"/><path d="M139.6,98.6l-1.4-.9.6-.8.2.2-.4.6.3.2.4-.6.2.2-.4.6.4.3.4-.6.2.2Z" fill="#fff"/><path d="M140.3,97.6l-1.4-.9.2-.2,1.4.9Z" fill="#fff"/><path d="M140.4,96.3h-.2l.3-.5.6.4a.7.7,0,0,1,0,.3v.3l-.3.2h-.4l-.4-.2-.3-.3a.7.7,0,0,1-.1-.4.6.6,0,0,1,.1-.3l.3-.3h.4v.3h-.4a.3.3,0,0,0,0,.3l.3.3h.4l.3-.2v-.2a.5.5,0,0,0,0-.2h-.2Z" fill="#fff"/><path d="M141.4,95.9,140,95v-.2h1.2l-.9-.6v-.2l1.4.8v.2h-1.2l.9.6Z" fill="#fff"/><path d="M142.1,94.7l-1.4-.8.5-.9h.2l-.4.6.3.2.3-.6h.2l-.3.6.4.2.4-.7h.2Z" fill="#fff"/><path d="M142.7,93.7l-1.5-.8.2-.4,1.1.3-.9-.7.2-.4,1.5.8v.2l-1.1-.6,1,.8v.2l-1.3-.4,1.1.6Z" fill="#fff"/><path d="M143.4,92.3l-1.5-.7.4-.9h.2l-.3.7.3.2.3-.6h.2l-.3.6.4.2.3-.7h.2Z" fill="#fff"/><path d="M143.9,91.1l-1.5-.7v-.2h1.2l-1-.5v-.2l1.5.7v.2h-1.2l1,.4Z" fill="#fff"/><path d="M144.6,89.6l-1.3-.5-.2.4h-.3l.4-1h.3l-.2.4,1.3.5Z" fill="#fff"/><path d="M144.4,88.7v-.3q.3.1.4-.2a.3.3,0,0,0,0-.2h-.3l-.2.2-.2.2h-.6v-.2a.6.6,0,0,1,0-.3l.3-.3h.4v.3h-.3a.3.3,0,0,0,0,.2h.2l.2-.2.2-.2h.5l.3.3a.6.6,0,0,1-.7.7Z" fill="#fff"/><path d="M140,102.1l-1.3-1,.3-.3.2-.2h.6l.2.2a.4.4,0,0,1,0,.2l-.2.3h-.1l.5.4Zm-.9-1.1.4.3h.1V101a.2.2,0,0,0,0-.1h-.3l-.2.2Z" fill="#fff"/><path d="M140.8,101.1l-1.3-1,.6-.8.2.2-.4.6.3.2.4-.5.2.2-.4.5.4.3.4-.6.2.2Z" fill="#fff"/><path d="M141.5,100.1l-1.3-.9.3-.5.2-.2h.5l.2.3a.4.4,0,0,1,0,.3h.9l-.2.3h-.9l.6.4Zm-.6-.8v-.4a.1.1,0,0,0,0-.1h-.3v.3Z" fill="#fff"/><path d="M141.8,98.7v-.2q.3.1.4-.1a.3.3,0,0,0,.1-.2h-.3l-.2.2h-.6l-.2-.2a.4.4,0,0,1,0-.2v-.3l.3-.2h.4v.2h-.3V98h.2l.2-.2.3-.2h.5l.2.3a.6.6,0,0,1-.9.6Z" fill="#fff"/><path d="M142.3,97.5l-.4-.3a.7.7,0,0,1-.1-.3.6.6,0,0,1,.1-.3l.4-.3.6.2a1,1,0,0,1,.4.5.6.6,0,0,1-.1.5l-.4.3Zm.1-.2h.4l.3-.2a.3.3,0,0,0,0-.3l-.3-.3h-.4l-.3.2a.3.3,0,0,0,0,.3Z" fill="#fff"/><path d="M143.7,96.7l-1.4-.8v-.2h1.2l-.9-.6v-.2l1.4.8V96h-1.2l.9.5Z" fill="#fff"/><path d="M144.4,95.5l-1.4-.8v-.2h1.2l-1-.5v-.2l1.4.8v.2h-1.2l.9.5Z" fill="#fff"/><path d="M145.1,94.3l-1.5-.8.5-.9h.2l-.3.6.3.2.3-.6h.2l-.3.6.4.2.3-.7h.2Z" fill="#fff"/><path d="M145.6,93.2l-1.5-.7v-.2l1.2.6.3-.6h.2Z" fill="#fff"/><path d="M145.6,92v-.3q.3.1.4-.1a.3.3,0,0,0,0-.2h-.3l-.2.2-.2.2H145l-.2-.2v-.5l.3-.3h.4v.3h-.3a.3.3,0,0,0,0,.2h.2l.2-.2.2-.2h.5l.3.3a.6.6,0,0,1-.8.7Z" fill="#fff"/><path d="M110.9,112.2h.3a.7.7,0,0,1-.1.4l-.3.2h-.5a1,1,0,0,1-.3-.6,1,1,0,0,1,0-.7.5.5,0,0,1,.4-.3h.4l.2.3h-.2v-.2h-.2l-.2.2a.7.7,0,0,0,0,.4l.2.4h.4A.5.5,0,0,0,110.9,112.2Z" fill="#fff"/><path d="M111.2,111.9a1.2,1.2,0,0,1,0-.5v-.3l.3-.2h.5a1,1,0,0,1,.3.6,1,1,0,0,1,0,.7.6.6,0,0,1-.4.3h-.5A1,1,0,0,1,111.2,111.9Zm.3-.1.2.4h.3l.2-.2a.7.7,0,0,0,0-.4l-.2-.4h-.3l-.2.2A.7.7,0,0,0,111.5,111.8Z" fill="#fff"/><path d="M112.9,112.3l-.5-1.6h.3l.9.9-.3-1h.2l.5,1.6h-.3l-.8-.9.3,1Z" fill="#fff"/><path d="M114.8,111h.3a.7.7,0,0,1-.1.4l-.3.2h-.5a1,1,0,0,1-.4-.5,1,1,0,0,1,0-.7.5.5,0,0,1,.3-.3h.4l.3.3-.2.2-.2-.2h-.2l-.2.2a.7.7,0,0,0,.1.4l.2.4h.4A.5.5,0,0,0,114.8,111Z" fill="#fff"/><path d="M115.4,111.4l-.6-1.5.9-.4v.3l-.7.3v.3l.6-.2v.3l-.6.2.2.4.7-.3v.3Z" fill="#fff"/><path d="M116.9,110.8l-1.1-1.3h.3l.8,1-.2-1.2h.3l.2,1.7Z" fill="#fff"/><path d="M117.3,109.7a1.2,1.2,0,0,1-.1-.5.7.7,0,0,1,.1-.4l.3-.2h.5a1,1,0,0,1,.4.5,1,1,0,0,1,.1.7.6.6,0,0,1-.3.4h-.5A1,1,0,0,1,117.3,109.7Zm.3-.1.3.3h.3l.2-.2a.7.7,0,0,0-.1-.4l-.3-.3h-.3l-.2.2A.7.7,0,0,0,117.6,109.6Z" fill="#fff"/><path d="M119,109.8l-.7-1.5h.2l.7,1.5Z" fill="#fff"/><path d="M119.5,109.6l-.8-1.5.5-.3h.5l.2.2a.5.5,0,0,1,.1.3l-.2.3h.2l.3.2.3.2h-.3l-.3-.2h-.5l.3.6Zm-.2-1h-.2Z" fill="#fff"/><path d="M120.4,107.3l.4-.2h.5l.2.2.2.3v.3a.7.7,0,0,1,0,.3v.2l-.2.2-.4.3Zm.4.1.5.9h.4v-.4l-.2-.2h-.6Z" fill="#fff"/><path d="M122.3,108.1l-.9-1.4.9-.5v.2l-.6.4.2.3.6-.4v.2l-.6.4.2.4.6-.4v.2Z" fill="#fff"/><path d="M123,107l.2-.2q.2.2.4.1v-.2a.2.2,0,0,0,0-.2h-.9l-.2-.2v-.2a.4.4,0,0,1,.1-.2l.2-.2h.4l.3.2-.2.2h-.5a.1.1,0,0,0,0,.1h.9l.2.2a.5.5,0,0,1,.1.4.6.6,0,0,1-1,.2Z" fill="#fff"/><path d="M109.3,115.1h.3q.1.3.4.2h.2a.2.2,0,0,0,0-.2h-.8v-.2a.5.5,0,0,1,0-.2V114h.6l.2.3h-.3v-.2h.5v.2a.5.5,0,0,1-.1.4l-.4.2Q109.4,115.7,109.3,115.1Z" fill="#fff"/><path d="M110.7,115.4l-.4-1.6,1-.2v.3l-.7.2v.4l.7-.2v.3l-.7.2v.4l.7-.2v.3Z" fill="#fff"/><path d="M111.9,115.1l-.4-1.6.6-.2h.5v.2a.5.5,0,0,1,0,.3l-.2.2h.2l.2.2.2.3h-.3l-.3-.3-.2-.2H112l.2.7Zm0-1h.5a.2.2,0,0,0,0-.1h-.6Z" fill="#fff"/><path d="M113.5,114.6l-.9-1.4h.3l.7,1.1v-1.3h.3v1.7Z" fill="#fff"/><path d="M114.3,114.3l-.5-1.6h.3l.5,1.6Z" fill="#fff"/><path d="M115.4,113.3h.3a.7.7,0,0,1-.1.4l-.3.2h-.5a1,1,0,0,1-.4-.5,1,1,0,0,1,0-.7.5.5,0,0,1,.3-.3h.4l.3.3-.2.2-.2-.2h-.2l-.2.2a.7.7,0,0,0,.1.4l.2.4h.4A.5.5,0,0,0,115.4,113.3Z" fill="#fff"/><path d="M116.1,113.7l-.6-1.5.9-.4v.3l-.7.3v.3l.6-.2v.3l-.6.2.2.4.7-.3v.3Z" fill="#fff"/><path d="M117,112.8h.2q.2.3.4.2h.2a.2.2,0,0,0,0-.2h-.9v-.2a.5.5,0,0,1,0-.2v-.2l.2-.2h.4l.3.3H117a.1.1,0,0,0,0,.1h.9v.2a.5.5,0,0,1,0,.4l-.3.3A.5.5,0,0,1,117,112.8Z" fill="#fff"/><path d="M118.9,112.6l-.7-1.5.9-.4v.3l-.7.3.2.3.6-.3v.3l-.6.3.2.4.7-.3v.3Zm-.4-1.7v-.4h.3v.4Z" fill="#fff"/><path d="M120.3,111.9l-.6-1.2-.4.2v-.2l1-.5v.2l-.4.2.6,1.2Z" fill="#fff"/><path d="M121,111.5l-.8-1.5h.2l.3.6.5-.2-.3-.6h.2l.8,1.5h-.2l-.3-.6-.5.2.3.6Z" fill="#fff"/><path d="M122.2,110.9l-.8-1.4h.2l.8,1.4Z" fill="#fff"/><path d="M123.5,109.9h.3v.3h-.4l-.2.2h-.5a1.2,1.2,0,0,1-.6-1.1.6.6,0,0,1,.3-.4h.5a1,1,0,0,1,.5.5v.3A.9.9,0,0,1,123.5,109.9Zm-.3-.1a.7.7,0,0,0-.1-.4l-.3-.3h-.3l-.2.3a.7.7,0,0,0,.1.4l.3.3h.2v-.2Z" fill="#fff"/><path d="M123.1,108.5h.2l.5.8.2.2h.5a.2.2,0,0,0,0-.1l-.2-.3-.5-.8h.2l.5.7.2.4a.4.4,0,0,1,0,.3l-.2.3h-.6l-.3-.4Z" fill="#fff"/><path d="M125.1,109.2l-.9-1.4.8-.6.2.2-.6.4.2.3.6-.4.2.2-.6.4.2.4.6-.4.2.2Z" fill="#fff"/><path d="M125.8,108.1l.2-.2q.2.2.4.1v-.2a.2.2,0,0,0,0-.2h-1.1v-.2a.4.4,0,0,1,0-.2l.2-.2h.4l.3.2-.2.2h-.5a.1.1,0,0,0,0,.1h.9l.2.2a.5.5,0,0,1,.1.4.6.6,0,0,1-1,.2Z" fill="#fff"/><path d="M74.6,31.5h.3a.7.7,0,0,1,.1.4l-.2.3h-.5l-.5-.4a1,1,0,0,1-.2-.7.5.5,0,0,1,.3-.4h.4l.3.2-.2.2h-.4v.2a.7.7,0,0,0,.2.4l.3.3h.3v-.2A.5.5,0,0,0,74.6,31.5Z" fill="#fff"/><path d="M74.8,31l-.2-.5a.7.7,0,0,1,0-.4l.2-.3h.5a1,1,0,0,1,.5.4,1,1,0,0,1,.2.6.6.6,0,0,1-.3.4h-.5A1,1,0,0,1,74.8,31Zm.2-.2.3.3h.3l.2-.3a.7.7,0,0,0-.1-.4l-.3-.3h-.3l-.2.3A.7.7,0,0,0,75.1,30.9Z" fill="#fff"/><path d="M76.5,30.9l-.8-1.4h.2l1,.7-.6-1h.2l.8,1.4h-.2l-1-.7.5.9Z" fill="#fff"/><path d="M78.2,29.3h.3a.7.7,0,0,1,0,.5l-.3.3h-.5a1,1,0,0,1-.5-.5,1,1,0,0,1-.1-.7.5.5,0,0,1,.3-.4h.4l.3.2-.2.2h-.4l-.2.2a.7.7,0,0,0,.1.4l.3.3h.3v-.2A.5.5,0,0,0,78.2,29.3Z" fill="#fff"/><path d="M78.9,29.6l-.7-1.5.9-.5V28l-.7.3.2.3.6-.3v.2l-.6.3.2.4.7-.3v.2Z" fill="#fff"/><path d="M80.3,28.9l-1.1-1.3h.3l.8,1-.2-1.2h.3l.3,1.7Z" fill="#fff"/><path d="M80.8,27.8a1.2,1.2,0,0,1-.1-.5.7.7,0,0,1,.1-.4l.3-.2h.5a1,1,0,0,1,.4.5,1,1,0,0,1,.1.7.6.6,0,0,1-.3.4h-.5A1,1,0,0,1,80.8,27.8Zm.3-.1.3.3h.3l.2-.2a.7.7,0,0,0-.1-.4l-.3-.3h-.3l-.2.2A.7.7,0,0,0,81,27.7Z" fill="#fff"/><path d="M82.5,28l-.6-1.5h.3l.6,1.5Z" fill="#fff"/><path d="M83,27.8l-.6-1.5.5-.2h.5l.2.2a.5.5,0,0,1,0,.3l-.2.2h.2l.2.2.3.2h-.3l-.3-.3-.2-.2H83l.2.6Zm-.1-1h-.2Z" fill="#fff"/><path d="M85.8,26.8h-.3l-.2-.3-.5.2v.4h-.3V25.5h.3Zm-.7-.5-.4-.5v.6Z" fill="#fff"/><path d="M86.1,26.7l-1-1.4h.3l.7,1.1V24.9h.3v1.7Z" fill="#fff"/><path d="M87,26.4l-.4-1.6,1-.3v.3l-.7.2v.4l.7-.2v.3l-.7.2V26l.7-.2v.3Z" fill="#fff"/><path d="M88.9,25.3h.3a.7.7,0,0,1-.1.4l-.3.2h-.5a1,1,0,0,1-.3-.6,1,1,0,0,1,0-.7.5.5,0,0,1,.4-.3h.4l.2.3h-.2v-.2h-.2l-.2.2a.7.7,0,0,0,0,.4l.2.4h.4A.5.5,0,0,0,88.9,25.3Z" fill="#fff"/><path d="M75.5,34.9l-.9-1.3.2-.2.8,1.1.6-.4.2.2Z" fill="#fff"/><path d="M76.4,34.3l-.9-1.4.8-.6.2.2-.6.4.2.3.6-.4.2.2-.6.4.2.4.6-.4.2.2Z" fill="#fff"/><path d="M77.1,33.2l.2-.2q.2.2.4.1V33a.2.2,0,0,0,0-.2H77l-.2-.2v-.5l.2-.2h.4l.3.2-.2.2H77a.1.1,0,0,0,0,.1h.9l.2.2a.5.5,0,0,1,.1.4l-.3.3A.5.5,0,0,1,77.1,33.2Z" fill="#fff"/><path d="M78.2,31.2h.2l.4.8v.2h.5a.2.2,0,0,0,0-.1v-.3l-.4-.8h.2l.4.8.2.4a.4.4,0,0,1,0,.3l-.2.2h-.6l-.3-.4Z" fill="#fff"/><path d="M80.4,31.9l-.6-1.2-.4.2v-.2l.9-.5v.2l-.4.2.6,1.2Z" fill="#fff"/><path d="M81.2,31.5,80.4,30h.2l.7,1.5Z" fill="#fff"/><path d="M81.6,31.3l-.7-1.5h.2l.6,1.2.6-.3v.3Z" fill="#fff"/><path d="M82.7,30.8,82,29.3h.2l.7,1.5Z" fill="#fff"/><path d="M82.9,30.1h.2q.2.3.4.2h.2a.2.2,0,0,0,0-.2h-.9v-.2a.5.5,0,0,1,0-.2V29l.2-.2h.4l.3.3h-.7a.1.1,0,0,0,0,.1h.9v.2a.5.5,0,0,1,0,.4l-.3.3A.5.5,0,0,1,82.9,30.1Z" fill="#fff"/><path d="M85.4,29.6h-.3l-.2-.3-.5.2V30h-.3V28.4h.3Zm-.7-.4-.4-.5v.6Z" fill="#fff"/><path d="M85.7,29.5l-.5-1.3h-.4v-.3l1-.4V28h-.4l.5,1.3Z" fill="#fff"/><path d="M86.5,29.2,86,27.7l1-.3v.3l-.7.2v.3l.6-.2v.3l-.6.2v.4l.7-.2v.3Z" fill="#fff"/><path d="M87.2,27.3h.3l.3.9v.3h.5v-.3l-.3-.9h.3l.2.8v.5a.4.4,0,0,1-.1.3l-.3.2h-.3l-.2-.2-.2-.5Z" fill="#fff"/><path d="M89,28.5l-.4-1.6h1.1v.2a.5.5,0,0,1,0,.3l-.2.2h.2l.2.2.2.3h-.3l-.3-.3-.2-.2h-.3l.2.7Zm0-1h.5a.2.2,0,0,0,0-.1h-.6Z" fill="#fff"/><path d="M90.1,27.6h.3q.1.3.4.2h.2a.2.2,0,0,0,0-.2h-.8V27a.5.5,0,0,1,0-.2v-.2h.6l.2.3h-.3v-.2h.5v.2a.5.5,0,0,1,0,.4l-.4.2Q90.3,28.2,90.1,27.6Z" fill="#fff"/><path d="M77.5,76.7v-.3h1v1.1l-.5.3h-.5l-.6-.2-.4-.5a1.8,1.8,0,0,1-.2-.8,1.9,1.9,0,0,1,.2-.8,1.2,1.2,0,0,1,.4-.5l.6-.2h.4l.3.3.2.5h-.3v-.4l-.2-.2H77l-.3.4a1.6,1.6,0,0,0-.1.6,1.3,1.3,0,0,0,.2.9.8.8,0,0,0,.6.3h.4l.3-.2v-.5Z" fill="#e16526"/><path d="M78.8,76.4a1.7,1.7,0,0,1,.3-1.1,1,1,0,0,1,.8-.4l.6.2.4.5a1.9,1.9,0,0,1,.1.8,1.7,1.7,0,0,1-.3,1,1,1,0,0,1-1.7,0A1.7,1.7,0,0,1,78.8,76.4Zm.3,0a1.3,1.3,0,0,0,.2.8.7.7,0,0,0,1.1,0,1.4,1.4,0,0,0,.2-.9,1.7,1.7,0,0,0-.1-.7l-.3-.4H80a.7.7,0,0,0-.6.3A1.5,1.5,0,0,0,79.2,76.4Z" fill="#e16526"/><path d="M83,75h.3v1.6a2.4,2.4,0,0,1-.1.7.8.8,0,0,1-.3.4l-.5.2a.8.8,0,0,1-.7-.3,1.6,1.6,0,0,1-.2-1V75h.3v1.6a1.9,1.9,0,0,0,.1.6l.2.3h.3l.5-.2a1.2,1.2,0,0,0,.1-.7Z" fill="#e16526"/><path d="M84.5,77.8,83.6,75h.3l.6,2.1v0l.6-2.1h.3l-.9,2.8Z" fill="#e16526"/><path d="M86,77.8V75h1.7v.3H86.3v.9h1.3v.3H86.3v1h1.4v.3Z" fill="#e16526"/><path d="M88.2,77.8V75h1.5l.3.3a.9.9,0,0,1,.1.4.8.8,0,0,1-.2.5l-.5.3.2.2.2.4.4.8h-.4l-.3-.6-.3-.5-.2-.2h-.6v1.3Zm.3-1.6h1l.2-.2v-.3a.5.5,0,0,0-.1-.3H88.5Z" fill="#e16526"/><path d="M90.5,77.8V75h.3l1.2,2.2V75h.3v2.8H92l-1.2-2.2v2.2Z" fill="#e16526"/><path d="M92.9,77.8V75h1.7v.3H93.2v.9h1.3v.3H93.2v1h1.4v.3Z" fill="#e16526"/><path d="M95,77.8V75h.5l.6,2v0l.6-2h.4v2.8H97V75.4l-.7,2.4H96l-.7-2.4v2.4Z" fill="#e16526"/><path d="M97.8,77.8V75h1.7v.3H98.1v.9h1.3v.3H98.1v1h1.4v.3Z" fill="#e16526"/><path d="M99.9,77.8V75h.3l1.2,2.2V75h.3v2.8h-.3l-1.2-2.2v2.2Z" fill="#e16526"/><path d="M102.9,77.8V75.3h-.8V75H104v.3h-.8v2.5Z" fill="#e16526"/><path d="M105.1,77.8V75h1.3l.4.2.2.5a2.2,2.2,0,0,1,.1.7,2.1,2.1,0,0,1-.1.8,1,1,0,0,1-.4.5h-1.4Zm.3-.3h1l.2-.3a1.9,1.9,0,0,0,.1-.7,1.6,1.6,0,0,0-.1-.7l-.3-.3h-.9Z" fill="#e16526"/><path d="M109,75h.3v1.6a2.4,2.4,0,0,1-.1.7.8.8,0,0,1-.3.4l-.5.2a.8.8,0,0,1-.7-.3,1.6,1.6,0,0,1-.2-1V75h.3v1.6a1.9,1.9,0,0,0,.1.6l.2.3h.3l.5-.2a1.2,1.2,0,0,0,.1-.7Z" fill="#e16526"/><path d="M112.4,76.8h.3a1.3,1.3,0,0,1-.4.7l-.6.2-.6-.2a1.1,1.1,0,0,1-.4-.5,2.1,2.1,0,0,1-.1-.8,1.9,1.9,0,0,1,.1-.8l.4-.5.6-.2.6.2a1.1,1.1,0,0,1,.3.6h-.3q-.2-.6-.6-.6h-.4l-.3.4a1.7,1.7,0,0,0-.1.6,1.5,1.5,0,0,0,.2.9.6.6,0,0,0,.5.3l.4-.2A1,1,0,0,0,112.4,76.8Z" fill="#e16526"/><path d="M112.8,77.8l.9-2.8h.3l1,2.8h-.4l-.3-.9h-1l-.3.9Zm.7-1.2h.8l-.2-.8-.2-.6v.5Z" fill="#e16526"/><path d="M115.3,77.8V75h.3l1.2,2.2V75h.3v2.8h-.3l-1.2-2.2v2.2Z" fill="#e16526"/><path d="M117.4,77.8l.9-2.8h.3l1,2.8h-.4l-.3-.9h-1l-.3.9Zm.7-1.2h.8l-.2-.8-.2-.6v.5Z" fill="#e16526"/><path d="M119.8,77.8V75h1.3l.4.2.2.5a2.2,2.2,0,0,1,.1.7,2.1,2.1,0,0,1-.1.8,1,1,0,0,1-.4.5h-1.4Zm.3-.3h1l.2-.3a1.9,1.9,0,0,0,.1-.7,1.6,1.6,0,0,0-.1-.7l-.3-.3h-.9Z" fill="#e16526"/><path d="M121.9,77.8l.9-2.8h.3l1,2.8h-.4l-.3-.9h-1l-.3.9Zm.7-1.2h.8l-.2-.8-.2-.6v.5Z" fill="#e16526"/><path d="M77,65.7V56.2h1.5l3.2,6.3V56.2h1.5v9.5H81.6l-3.1-6.2v6.2Z" fill="#186b8d"/><path d="M84.5,61a6.7,6.7,0,0,1,.5-2.8,3.8,3.8,0,0,1,1.3-1.6,3.5,3.5,0,0,1,2-.5A3.4,3.4,0,0,1,91,57.3,5.6,5.6,0,0,1,92,60.9a5.7,5.7,0,0,1-1.1,3.7,3.6,3.6,0,0,1-5.3,0A5.6,5.6,0,0,1,84.5,61Zm1.6-.1a4,4,0,0,0,.6,2.5,1.9,1.9,0,0,0,1.5.8,1.9,1.9,0,0,0,1.5-.8,4.2,4.2,0,0,0,.6-2.5,4.1,4.1,0,0,0-.6-2.4,1.9,1.9,0,0,0-1.6-.8,1.9,1.9,0,0,0-1.6.8A4.1,4.1,0,0,0,86.1,60.9Z" fill="#186b8d"/><path d="M93.3,65.7V56.2h3.3a4.6,4.6,0,0,1,1.8.3,2,2,0,0,1,.9.9,3.1,3.1,0,0,1,.3,1.5,2.8,2.8,0,0,1-.5,1.8,2.4,2.4,0,0,1-1.5.9l.8.8.9,1.5.9,1.9H98.4l-1.1-2.1-.8-1.4-.5-.4H94.8v4Zm1.6-5.5h2.5l.5-.4A1.4,1.4,0,0,0,98,59a1.3,1.3,0,0,0-.2-.7l-.5-.4H94.8Z" fill="#186b8d"/><path d="M101.1,65.7V56.2h2.3l1.4,6.5,1.4-6.5h2.4v9.5h-1.5V58.2l-1.6,7.5h-1.5l-1.5-7.5v7.5Z" fill="#186b8d"/><path d="M110.2,65.7V56.2h5.8v1.6h-4.2v2.1h3.9v1.6h-3.9V64h4.4v1.6Z" fill="#186b8d"/><path d="M117,62.6l1.5-.2q.3,1.8,1.7,1.8a1.6,1.6,0,0,0,1.1-.4,1.2,1.2,0,0,0,.4-.9,1,1,0,0,0-.1-.5l-.4-.4-1.4-.5-1.5-.7a2.5,2.5,0,0,1-.7-.9,2.9,2.9,0,0,1-.3-1.2,2.8,2.8,0,0,1,.4-1.4,2.3,2.3,0,0,1,1-.9,3.4,3.4,0,0,1,1.5-.3,2.7,2.7,0,0,1,3,2.9h-1.6a1.7,1.7,0,0,0-.4-1.1,1.4,1.4,0,0,0-1-.3,1.6,1.6,0,0,0-1,.3.8.8,0,0,0-.3.7.8.8,0,0,0,.3.7l1.4.6a5.9,5.9,0,0,1,1.7.7,2.5,2.5,0,0,1,.8,1,3.4,3.4,0,0,1,.3,1.5,3,3,0,0,1-.8,2.1,3.1,3.1,0,0,1-2.4.8Q117.3,65.8,117,62.6Z" fill="#186b8d"/><path d="M76.4,72.7V67.7h.8L78.9,71V67.7h.8v4.9h-.8l-1.6-3.2v3.2Z" fill="#186b8d"/><path d="M80.5,67.7h.8v2.7a6.5,6.5,0,0,0,0,.8.8.8,0,0,0,.3.5l.5.2h.5l.2-.3a4.3,4.3,0,0,0,.1-1V67.7h.8v2.6a6.8,6.8,0,0,1-.1,1.4,1.2,1.2,0,0,1-.5.7,1.6,1.6,0,0,1-1,.3l-1-.2a1.3,1.3,0,0,1-.5-.6,4.8,4.8,0,0,1-.2-1.5Z" fill="#186b8d"/><path d="M84.6,72.7V67.7h1.2l.7,3.4.7-3.4h1.2v4.9h-.8V68.8l-.8,3.9h-.8l-.8-3.9v3.9Z" fill="#186b8d"/><path d="M89.3,72.7V67.7h3v.8H90.1v1.1h2v.8h-2v1.3h2.3v.8Zm1-5.3.4-1h.9l-.8,1Z" fill="#186b8d"/><path d="M93.1,72.7V67.7h2.7l.5.5a1.6,1.6,0,0,1,.2.8,1.5,1.5,0,0,1-.3.9,1.2,1.2,0,0,1-.8.4l.4.4.5.8.5,1h-1l-.6-1.1-.4-.7-.2-.2h-.6v2.1Zm.8-2.8h1.3l.2-.2a.7.7,0,0,0,.1-.4.7.7,0,0,0-.1-.4l-.3-.2H93.9Z" fill="#186b8d"/><path d="M97.1,72.7V67.7h.8v4.9Z" fill="#186b8d"/><path d="M102,72l.7.4-.3.7L102,73l-.5-.4-.9.2a1.7,1.7,0,0,1-1.4-.7,3.6,3.6,0,0,1,0-3.8,1.8,1.8,0,0,1,1.4-.7,1.7,1.7,0,0,1,1.4.7,2.9,2.9,0,0,1,.5,1.9,3.9,3.9,0,0,1-.1,1A2.6,2.6,0,0,1,102,72Zm-.7-.6a2.8,2.8,0,0,0,0-2.6,1,1,0,0,0-1.6,0,2.1,2.1,0,0,0-.3,1.3,2.2,2.2,0,0,0,.3,1.3.9.9,0,0,0,.8.4h.3l-.5-.3.2-.6Z" fill="#186b8d"/><path d="M103.1,67.7h.8v2.7a6.6,6.6,0,0,0,0,.8.8.8,0,0,0,.3.5l.5.2h.5l.2-.3a4.3,4.3,0,0,0,.1-1V67.7h.8v2.6a6.8,6.8,0,0,1-.1,1.4,1.2,1.2,0,0,1-.5.7,1.6,1.6,0,0,1-1,.3l-1-.2a1.3,1.3,0,0,1-.5-.6,4.8,4.8,0,0,1-.2-1.5Z" fill="#186b8d"/><path d="M107.2,72.7V67.7h3v.8H108v1.1h2v.8h-2v1.3h2.3v.8Z" fill="#186b8d"/><path d="M110.7,71h.8q.1.9.9.9l.6-.2a.6.6,0,0,0,.2-.5.5.5,0,0,0-.1-.3l-.2-.2-.7-.3-.8-.3-.4-.5a1.5,1.5,0,0,1-.1-.6,1.4,1.4,0,0,1,.2-.7l.5-.5.8-.2a1.4,1.4,0,0,1,1.5,1.5h-.8a.9.9,0,0,0-.2-.6l-.5-.2h-.5a.4.4,0,0,0-.2.3.4.4,0,0,0,.2.3l.7.3.9.4.4.5a1.8,1.8,0,0,1,.1.8,1.6,1.6,0,0,1-.4,1.1,1.6,1.6,0,0,1-1.2.4Q110.9,72.7,110.7,71Z" fill="#186b8d"/><path d="M116.3,67.7h2.3l.5.4a2.2,2.2,0,0,1,.4.8,4.3,4.3,0,0,1,.1,1.2,3.8,3.8,0,0,1-.1,1.1,2.2,2.2,0,0,1-.4.7l-.5.4h-2.3Zm.8.8v3.3h1.2l.3-.2.2-.5a3.9,3.9,0,0,0,.1-.9,3.9,3.9,0,0,0-.1-.9,1.1,1.1,0,0,0-.2-.5l-.4-.2h-1Z" fill="#186b8d"/><path d="M120.4,67.7h.8v2.7a6.6,6.6,0,0,0,0,.8.8.8,0,0,0,.3.5l.5.2h.5l.2-.3a4.3,4.3,0,0,0,.1-1V67.7h.8v2.6a6.8,6.8,0,0,1-.1,1.4,1.2,1.2,0,0,1-.5.7,1.6,1.6,0,0,1-1,.3l-1-.2a1.3,1.3,0,0,1-.5-.6,4.8,4.8,0,0,1-.2-1.5Z" fill="#186b8d"/><path d="M81.3,83.9H81v-.4h.3v-.6H81v-.4h.5l.2-.7h.4l-.2.7h.4v-.7H83l-.2.7h.3v.4h-.3v.6h.5v.4h-.5l-.2.7H82v-.7h-.4l-.2.7h-.4Zm.6-1v.6h.4v-.6Z" fill="#186b8d"/><path d="M84.1,84.6V82.3h-.8v-.5h2.2v.5h-.8v2.3Z" fill="#186b8d"/><path d="M87.6,83.5l.5.2a1.2,1.2,0,0,1-.4.7l-.7.2a1.2,1.2,0,0,1-.9-.4,1.4,1.4,0,0,1-.4-1,1.5,1.5,0,0,1,.4-1.1,1.2,1.2,0,0,1,.9-.4,1.2,1.2,0,0,1,.8.3,1.1,1.1,0,0,1,.3.5h-.6l-.2-.3H87l-.5.2a1.1,1.1,0,0,0-.2.7,1.2,1.2,0,0,0,.2.8l.5.2h.4A.8.8,0,0,0,87.6,83.5Z" fill="#186b8d"/><path d="M88.6,82.6h.5v.3l.3-.2h.4a.8.8,0,0,1,.6.3,1.1,1.1,0,0,1,.2.8,1.1,1.1,0,0,1-.2.8.8.8,0,0,1-.6.3h-.3l-.3-.2v1h-.5Zm.5,1a.8.8,0,0,0,.1.5l.3.2h.3a.8.8,0,0,0,.1-.5.7.7,0,0,0-.1-.5l-.3-.2-.3.2A.7.7,0,0,0,89.1,83.5Z" fill="#186b8d"/><path d="M91.5,84.6H91v-2h.5v.3l.2-.3h.6l-.2.5h-.4v.2a3.2,3.2,0,0,0,0,.7Z" fill="#186b8d"/><path d="M93.7,83.9h.5a.9.9,0,0,1-.3.4l-.6.2a.9.9,0,0,1-.8-.3,1.2,1.2,0,0,1-.2-.7,1.1,1.1,0,0,1,.3-.8.9.9,0,0,1,.7-.3.9.9,0,0,1,.7.3,1.3,1.3,0,0,1,.2.9H92.9a.5.5,0,0,0,.1.4h.5Zm-1-1.6.4-.6h.5l.4.6h-.4l-.2-.3-.2.3Zm1.1,1.1a.5.5,0,0,0-.1-.4H93a.5.5,0,0,0-.1.3Z" fill="#186b8d"/><path d="M95.6,82.6V83h-.4v.8a2,2,0,0,0,0,.3h.4v.4h-.9v-.2a2.6,2.6,0,0,1,0-.4V83h-.2v-.4h.2v-.4l.5-.3v.7Z" fill="#186b8d"/><path d="M95.8,84h.5v.2h.5l-.8-.3a.5.5,0,0,1-.2-.5.6.6,0,0,1,.2-.4l.6-.2h.6a.7.7,0,0,1,.3.4h-.5V83h-.1l.6.2a.5.5,0,0,1,.2.4.6.6,0,0,1-.2.5l-.7.2-.7-.2A.8.8,0,0,1,95.8,84Z" fill="#186b8d"/><path d="M98.1,82.6h.5v.3l.3-.2h.4a.8.8,0,0,1,.6.3,1.1,1.1,0,0,1,.2.8,1.1,1.1,0,0,1-.2.8.8.8,0,0,1-.6.3h-.3l-.3-.2v1h-.5Zm.5,1a.8.8,0,0,0,.1.5l.3.2h.3a.8.8,0,0,0,.1-.5.7.7,0,0,0-.1-.5l-.3-.2-.3.2A.7.7,0,0,0,98.7,83.5Z" fill="#186b8d"/><path d="M100.4,83.5a1.1,1.1,0,0,1,.1-.5l.4-.4h.5a1,1,0,0,1,.8.3,1,1,0,0,1,.3.8,1,1,0,0,1-.3.8,1,1,0,0,1-.7.3h-.5l-.4-.4A1.2,1.2,0,0,1,100.4,83.5Zm.5,0a.7.7,0,0,0,.1.5l.4.2.4-.2a.7.7,0,0,0,.1-.5.7.7,0,0,0-.1-.5l-.4-.2-.4.2A.7.7,0,0,0,100.9,83.6Z" fill="#186b8d"/><path d="M104.2,84.6v-.3l-.3.3h-.7l-.2-.3a1.1,1.1,0,0,1-.1-.4V82.6h.5v.9a2.6,2.6,0,0,0,0,.5v.2h.4v-.2a2.2,2.2,0,0,0,0-.5v-.9h.5v2Z" fill="#186b8d"/><path d="M105.8,84.6h-.5v-2h.5v.3l.2-.3h.6l-.2.5h-.4v.2a3.2,3.2,0,0,0,0,.7Z" fill="#186b8d"/><path d="M106.8,84.6V81.8h.5v2.8Z" fill="#186b8d"/><path d="M108.3,83.2h-.5a.8.8,0,0,1,.3-.4h1.1l.2.2a1.1,1.1,0,0,1,.1.5v.6a2.2,2.2,0,0,0,0,.4v.3h-.5v-.2h0l-.3.2h-.3l-.5-.2a.6.6,0,0,1-.2-.4.6.6,0,0,1,.1-.3l.2-.2h.9a.3.3,0,0,0-.1-.2h-.5Zm.7.4h-.6v.4h.5V84a1,1,0,0,0,0-.3Z" fill="#186b8d"/><path d="M110.6,84.6l-.8-2h.6l.4,1v0l.4-1h.5l-.8,2Z" fill="#186b8d"/><path d="M113.4,83.9h.5a.9.9,0,0,1-.3.4l-.6.2a.9.9,0,0,1-.8-.3,1.2,1.2,0,0,1-.2-.7,1.1,1.1,0,0,1,.3-.8.9.9,0,0,1,.7-.3.9.9,0,0,1,.7.3,1.3,1.3,0,0,1,.2.9h-1.3a.5.5,0,0,0,.1.4h.5Zm0-.5a.5.5,0,0,0-.1-.4h-.6a.5.5,0,0,0-.1.3Z" fill="#186b8d"/><path d="M116.2,84.6h-.5v-1a1.6,1.6,0,0,0,0-.4h-.5l-.2.2a1.7,1.7,0,0,0,0,.5v.9h-.5v-2h.5v.3a.8.8,0,0,1,.7-.3h.3l.2.2V83a1.7,1.7,0,0,1,0,.4Z" fill="#186b8d"/><path d="M116.7,82.3v-.5h.5v.5Zm0,2.3v-2h.5v2Z" fill="#186b8d"/><path d="M118.3,84.6h-.5v-2h.5v.3l.2-.3h.6l-.2.5h-.4v.2a3.2,3.2,0,0,0,0,.7Z" fill="#186b8d"/><path d="M83,89.2h-.6l-.2-.6h-1l-.2.6h-.5l1-2.5H82Zm-.9-1-.3-.9-.3.9Z" fill="#e16526"/><path d="M83.3,89.3h1.2a.7.7,0,0,0,0-.2v-.3a.7.7,0,0,1-.5.3.7.7,0,0,1-.6-.3,1.1,1.1,0,0,1-.2-.6,1,1,0,0,1,.2-.7l.6-.2a.7.7,0,0,1,.6.3v-.3H85V89a1.6,1.6,0,0,1-.1.5l-.2.3h-.7l-.7-.2a.5.5,0,0,1-.2-.4Zm.4-1.1a.7.7,0,0,0,.1.4h.6a.6.6,0,0,0,.1-.4.6.6,0,0,0-.1-.4h-.6A.6.6,0,0,0,83.7,88.3Z" fill="#e16526"/><path d="M85.5,87.1v-.4h.5v.4Zm0,2.1V87.4h.5v1.8Z" fill="#e16526"/><path d="M86.6,89.2V86.7h.5v2.5Z" fill="#e16526"/><path d="M88.8,88.6h.5l-.3.4h-.5a.8.8,0,0,1-.7-.3,1,1,0,0,1-.2-.6,1,1,0,0,1,.2-.7.8.8,0,0,1,.6-.3.8.8,0,0,1,.6.3,1.2,1.2,0,0,1,.2.8H88a.5.5,0,0,0,.1.3h.5Zm0-.5a.5.5,0,0,0-.1-.3h-.5a.4.4,0,0,0-.1.3Z" fill="#e16526"/><path d="M91.2,89.2V86.7h.5v2.5Z" fill="#7bcabc"/><path d="M93.8,89.2h-.5v-.9a1.4,1.4,0,0,0,0-.4h-.5V88a1.6,1.6,0,0,0,0,.4v.8h-.5V87.4h.5v.3a.7.7,0,0,1,.6-.3h.5v.2a1.5,1.5,0,0,1,0,.3Z" fill="#7bcabc"/><path d="M95.2,87.4v.4h-.3v.7a1.9,1.9,0,0,0,0,.3h.3v.4h-.8v-.2a2.3,2.3,0,0,1,0-.3v-.8h-.2v-.4h.2V87l.5-.3v.6Z" fill="#7bcabc"/><path d="M96.6,88.6h.5l-.3.4h-.5a.8.8,0,0,1-.7-.3,1,1,0,0,1-.2-.6,1,1,0,0,1,.2-.7.8.8,0,0,1,.6-.3.8.8,0,0,1,.6.3,1.2,1.2,0,0,1,.2.8H95.9a.5.5,0,0,0,.1.3h.5Zm0-.5a.5.5,0,0,0-.1-.3H96a.4.4,0,0,0-.1.3Z" fill="#7bcabc"/><path d="M97.5,89.2V86.7H98v2.5Z" fill="#7bcabc"/><path d="M98.5,89.2V86.7h.5v2.5Z" fill="#7bcabc"/><path d="M99.4,87.1v-.4h.5v.4Zm0,2.1V87.4h.5v1.8Z" fill="#7bcabc"/><path d="M100.4,89.3h1.2a.7.7,0,0,0,0-.2v-.3a.7.7,0,0,1-.5.3.7.7,0,0,1-.6-.3,1.1,1.1,0,0,1-.2-.6,1,1,0,0,1,.2-.7l.6-.2a.7.7,0,0,1,.6.3v-.3h.5V89a1.6,1.6,0,0,1-.1.5l-.2.3h-.7l-.7-.2a.5.5,0,0,1-.2-.4Zm.4-1.1a.7.7,0,0,0,.1.4h.6a.6.6,0,0,0,.1-.4.6.6,0,0,0-.1-.4h-.6A.6.6,0,0,0,100.8,88.3Z" fill="#7bcabc"/><path d="M103.6,88.6h.5l-.3.4h-.5a.8.8,0,0,1-.7-.3,1,1,0,0,1-.2-.6,1,1,0,0,1,.2-.7.8.8,0,0,1,.6-.3.8.8,0,0,1,.6.3,1.2,1.2,0,0,1,.2.8h-1.2a.5.5,0,0,0,.1.3h.5Zm0-.5a.5.5,0,0,0-.1-.3H103a.4.4,0,0,0-.1.3Z" fill="#7bcabc"/><path d="M106.2,89.2h-.5v-.9a1.4,1.4,0,0,0,0-.4h-.5V88a1.6,1.6,0,0,0,0,.4v.8h-.5V87.4h.5v.3a.7.7,0,0,1,.6-.3h.5v.2a1.5,1.5,0,0,1,0,.3Z" fill="#7bcabc"/><path d="M107.5,87.4v.4h-.3v.7a1.8,1.8,0,0,0,0,.3h.3v.4h-.8v-.2a2.3,2.3,0,0,1,0-.3v-.8h-.2v-.4h.2V87l.5-.3v.6Z" fill="#7bcabc"/><path d="M109.9,89.2V86.7h1.7v.4h-1.2v.6h1.1v.4h-1.1v1.1Z" fill="#aab35f"/><path d="M112,87.1v-.4h.5v.4Zm0,2.1V87.4h.5v1.8Z" fill="#aab35f"/><path d="M113.4,88h-.4a.7.7,0,0,1,.3-.4h1l.2.2a1,1,0,0,1,.1.4v.6a2,2,0,0,0,0,.4v.2H114l-.3.2h-.3l-.4-.2a.5.5,0,0,1-.2-.4.5.5,0,0,1,.1-.3l.2-.2h.9v-.2h-.5Zm.6.4h-.6v.3h.4v-.2a1,1,0,0,0,0-.2Z" fill="#aab35f"/><path d="M114.9,89.2V86.7h.5v.9l.5-.3.6.2a1,1,0,0,1,.2.7,1.1,1.1,0,0,1-.2.7l-.5.3h-.3l-.3-.2v.3Zm.5-1a.8.8,0,0,0,.1.4l.3.2h.3a.7.7,0,0,0,.1-.4.7.7,0,0,0-.1-.5h-.6A.6.6,0,0,0,115.4,88.3Z" fill="#aab35f"/><path d="M117.1,89.2V86.7h.5v2.5Z" fill="#aab35f"/><path d="M119.2,88.6h.5l-.3.4h-.5a.8.8,0,0,1-.7-.3,1,1,0,0,1-.2-.6,1,1,0,0,1,.2-.7.8.8,0,0,1,.6-.3.8.8,0,0,1,.6.3,1.2,1.2,0,0,1,.2.8h-1.2a.5.5,0,0,0,.1.3h.5Zm0-.5a.5.5,0,0,0-.1-.3h-.5a.4.4,0,0,0-.1.3Z" fill="#aab35f"/></svg>