<svg id="Layer_1" data-name="Layer 1" xmlns="http://www.w3.org/2000/svg" xmlns:xlink="http://www.w3.org/1999/xlink" width="200" height="140" viewBox="0 0 200 140"><defs><clipPath id="clip-path"><rect width="200" height="140" fill="none"/></clipPath></defs><title>Artboard 1</title><rect width="200" height="140" fill="#df6420"/><g clip-path="url(#clip-path)"><path d="M49,46.9V82.9l25,16.5V28.8ZM73.5,97.1l-24.1-15V47.7L73.5,31.1Z" fill="#f2f2f2" opacity="0.6"/><path d="M49.4,82.1l24.1,15v-66L49.4,47.7Zm.4-33.7L73.1,33.3V94.8L49.8,81.3Z" fill="#f2f2f2"/><polygon points="73.1 33.3 49.8 48.4 49.8 81.3 73.1 94.8 73.1 33.3" fill="#f2f2f2" opacity="0.6"/><path d="M61.5,72.6c-1.7-.3-3-5-3-10.4s1.4-10.4,3-11,3,4,3,10.4S63.1,72.9,61.5,72.6Zm0-20.1c-1.5.5-2.6,4.8-2.6,9.6S60,71,61.5,71.2s2.6-4.1,2.6-9.6S62.9,52,61.5,52.5Z" fill="#666667"/><path d="M61.5,70.1c-1.3-.1-2.3-3.7-2.3-8s1-8.1,2.3-8.5,2.3,3.2,2.3,8S62.8,70.3,61.5,70.1Zm0-14.8c-1,.3-1.9,3.3-1.9,6.8s.8,6.3,1.9,6.4,1.9-3,1.9-6.8S62.5,55,61.5,55.3Z" fill="#666667"/><path d="M53.7,48.3V84.2l25,16.5V30.1ZM78.2,98.4l-24.1-15V49L78.3,32.4Z" fill="#f2f2f2" opacity="0.6"/><path d="M54.1,83.5l24.1,15v-66L54.1,49Zm.4-33.7L77.8,34.7V96.2L54.6,82.7Z" fill="#f2f2f2"/><polygon points="77.8 34.7 54.6 49.8 54.6 82.7 77.8 96.2 77.8 34.7" fill="#f2f2f2" opacity="0.6"/><path d="M39.6,77.3c1.5,2.6,1,4,.6,5.1a13.3,13.3,0,0,1-9.8,7.7c-2,.3-7.1-1.6-4.1-8.9C26.8,80.2,35.5,70.1,39.6,77.3Z" fill="#ebc19c"/><path d="M27.4,83.5a8.7,8.7,0,0,0,6.2-1.7c-1,1.9-3.6,2-4.3,2.1a5,5,0,0,0,2.5.6,7.6,7.6,0,0,1-4.5-.6C27,83.7,26.7,83.4,27.4,83.5Z" fill="#ce9d77"/><path d="M60.7,64.8c-4.3,5.3-18.3,12.5-24.8,14.5-8.4,2.5-9.7,4-8.3,5.9s3.9,4,9.1,3.3c7.4-1,15.1,1.7,16.4,5.6s-11,2.4-13.4,2-11.4,0-15.4,1.5C15.7,100.6,2.9,96,.8,95.3c-3.8,1.9-48.3,18.9-51.8,20V90.5S-26.3,83-4.4,77.9C.5,72.5,5.7,65.1,9.8,61.9s6.1-3.2,7.2-2.8,2.1,1.8,2.8,1.8,2.6-1.1,4.2-.4,1.3,2.8,3,3.1,5-.8,6.7,1,1.8,3,2.6,4.9c4-.7,22.1-8.5,23.4-9.1C62.9,61,62.4,62.7,60.7,64.8Z" fill="#f0d0b3"/><path d="M56,62.2c.2.8,2.1,1.6,3.3,1a12.1,12.1,0,0,0,2.8-1.9c.1-.1-.4-.6-.9-.8a2.1,2.1,0,0,0-1.3,0Z" fill="#f0dbcb"/><path d="M47,93.8c-.1,1,.3,3.1,1.6,3s2.7-.2,3.3-.7a1.6,1.6,0,0,0-.1-1.3,3.2,3.2,0,0,0-.9-1.1A10.7,10.7,0,0,0,47,93.8Z" fill="#f0dbcb"/><path d="M102.1,85.3a4.1,4.1,0,0,0-.1-1l1.1-.6-1.2-2.1-1.1.7a4.1,4.1,0,0,0-1.6-.9V80H96.7v1.3a4.1,4.1,0,0,0-1.6.9L94,81.6l-1.2,2.1,1.1.6a4.1,4.1,0,0,0,0,1.9l-1.1.6L94,88.9l1.1-.6a4.1,4.1,0,0,0,1.6.9v1.3h2.4V89.2a4.1,4.1,0,0,0,1.6-.9l1.1.6,1.2-2.1-1.1-.6A4.1,4.1,0,0,0,102.1,85.3Zm-4.1,2a2,2,0,1,1,2-2A2,2,0,0,1,97.9,87.3Z" fill="#c3c53b"/><path d="M99.1,80v1.3a4.1,4.1,0,0,1,1.6.9l1.1-.7,1.2,2.1-1.1.6a4.1,4.1,0,0,1,0,1.9l1.1.6-1.2,2.1-1.1-.6a4.1,4.1,0,0,1-1.6.9v1.3H96.7V89.2a4.1,4.1,0,0,1-1.6-.9l-1.1.6-1.2-2.1,1.1-.6a4.1,4.1,0,0,1,0-1.9l-1.1-.6L94,81.6l1.1.7a4.1,4.1,0,0,1,1.6-.9V80h2.4m-1.2,7.3a2,2,0,1,0-2-2,2,2,0,0,0,2,2m1.2-7.4H96.7l-.2.2v1.2a4.3,4.3,0,0,0-1.5.8l-1-.6h-.2l-1.2,2.1a.2.2,0,0,0,.1.2l1,.6a4.3,4.3,0,0,0,0,1.7l-1,.6a.2.2,0,0,0-.1.2L93.9,89h.2l1-.6a4.3,4.3,0,0,0,1.5.9v1.1l.2.2h2.4l.2-.2V89.3a4.3,4.3,0,0,0,1.5-.9l1,.6h.2l1.2-2.1a.2.2,0,0,0,0-.1h-.1l-1-.6a4.3,4.3,0,0,0,0-1.7l1-.6a.2.2,0,0,0,.1-.2L102,81.5h-.2l-1,.6a4.3,4.3,0,0,0-1.5-.8V80l-.2-.2Zm-1.2,7.3a1.8,1.8,0,1,1,1.8-1.8,1.8,1.8,0,0,1-1.8,1.8Z" fill="#fff"/><path d="M92.7,80.1l.8.5.9-1.5-.8-.5a3,3,0,0,0,0-1.4l.8-.5-.9-1.5-.8.5a3.1,3.1,0,0,0-1.2-.7v-1H89.7v1a3.1,3.1,0,0,0-1.2.7l-.8-.5-.9,1.5.8.5a3,3,0,0,0,0,1.4l-.8.5.9,1.5.8-.5a3.1,3.1,0,0,0,1.2.7v1h1.8v-1A3.1,3.1,0,0,0,92.7,80.1Zm-3.6-2.2a1.5,1.5,0,1,1,1.5,1.5A1.5,1.5,0,0,1,89.1,77.9Z" fill="#c3c53b"/><path d="M91.5,73.9v1a3.1,3.1,0,0,1,1.2.7l.8-.5.9,1.5-.8.5a3,3,0,0,1,0,1.4l.8.5-.9,1.5-.8-.5a3.1,3.1,0,0,1-1.2.7v1H89.7v-1a3.1,3.1,0,0,1-1.2-.7l-.8.5-.9-1.5.8-.5a3,3,0,0,1,0-1.4l-.8-.5.9-1.5.8.5a3.1,3.1,0,0,1,1.2-.7v-1h1.8m-.9,5.4a1.5,1.5,0,1,0-1.5-1.5,1.5,1.5,0,0,0,1.5,1.5m.9-5.6H89.7l-.2.2v.9l-1,.6-.7-.4h-.2l-.9,1.5a.2.2,0,0,0,0,.1h.1l.7.4a3.1,3.1,0,0,0,0,1.2l-.7.4h-.1a.2.2,0,0,0,0,.1l.9,1.5h.2l.7-.4,1.1.6v.8l.2.2h1.8l.2-.2V81l1.1-.6.7.4h.2l.9-1.5a.2.2,0,0,0,0-.1h-.1l-.7-.4a3.1,3.1,0,0,0,0-1.2l.7-.4a.2.2,0,0,0,.1-.2L93.7,75h-.2l-.7.4-1-.6v-.9l-.2-.2Zm-.9,5.4A1.3,1.3,0,1,1,92,77.9a1.3,1.3,0,0,1-1.3,1.3Z" fill="#fff"/><polygon points="92.6 62.7 92.8 67.5 87.8 62.5 92.6 62.7" fill="#01698c"/><path d="M87.8,62.5l4.8.2.2,4.8-5-5m0-.1h-.1a.1.1,0,0,0,0,.2l5,5h.3l-.2-4.8h-.1l-4.8-.2Z" fill="#fff"/><polygon points="95.8 54.5 100.7 59.5 95.9 59.3 95.8 54.5" fill="#01698c"/><path d="M95.8,54.5l5,5-4.8-.2-.2-4.8m0-.1h-.1l.2,4.8h.1l4.8.2h.1a.1.1,0,0,0,0-.2l-5-5Z" fill="#fff"/><polygon points="100.7 59.5 92.8 67.5 93.3 62.2 95.3 62.1 95.4 60.1 100.7 59.5" fill="#01698c"/><path d="M100.7,59.5l-8,8,.6-5.3h2v-2l5.3-.6m0-.1h0l-5.3.6h-.1v1.9h-2l-.6,5.3v.2h.2l8-8a.1.1,0,0,0,0-.2Zm0,.3h0Z" fill="#fff"/><polygon points="95.8 54.5 94.7 61.4 87.8 62.5 95.8 54.5" fill="#01698c"/><path d="M95.8,54.5l-1.1,6.9-6.9,1,8-8m0-.1h-.1l-8,8a.1.1,0,0,0,0,.2h.2l6.9-1h.1l1.1-6.9v-.2Zm0,.3h0Z" fill="#fff"/><path d="M168.7,42a5.8,5.8,0,0,1,1.6,5.3.3.3,0,0,0,.2.3l1.2.3a.3.3,0,0,0,.4-.2,7.6,7.6,0,0,0-9.1-9.1.3.3,0,0,0-.2.4l.3,1.2a.3.3,0,0,0,.3.2A5.8,5.8,0,0,1,168.7,42Z" fill="#7ccbbd"/><path d="M164.6,38.5a7.6,7.6,0,0,1,7.4,9.3.3.3,0,0,1-.3.2h-.1l-1.2-.3a.3.3,0,0,1-.2-.3,5.8,5.8,0,0,0-5.7-7h-1.3a.3.3,0,0,1-.3-.2l-.3-1.2a.3.3,0,0,1,.2-.4l1.7-.2m0-.2h0l-1.7.2-.3.2a.5.5,0,0,0-.1.4l.3,1.2a.5.5,0,0,0,.5.3h1.3a5.6,5.6,0,0,1,5.5,6.8.5.5,0,0,0,.3.6l1.2.3h.1a.5.5,0,0,0,.5-.4,7.8,7.8,0,0,0-7.6-9.5Z" fill="#fff"/><path d="M167.9,42.8a5.8,5.8,0,0,0-5.3-1.6.3.3,0,0,0-.2.4l.3,1.2a.3.3,0,0,0,.3.2,4,4,0,0,1,4.7,4.7.3.3,0,0,0,.2.3l1.2.3a.3.3,0,0,0,.4-.2A5.8,5.8,0,0,0,167.9,42.8Z" fill="#7ccbbd"/><path d="M163.8,41.1a5.8,5.8,0,0,1,5.7,7,.3.3,0,0,1-.3.2h-.1l-1.2-.3a.3.3,0,0,1-.2-.3,4,4,0,0,0-3.9-4.8H163a.3.3,0,0,1-.3-.2l-.3-1.2a.3.3,0,0,1,.2-.4h1.2m0-.2h-1.2l-.3.2a.5.5,0,0,0-.1.4l.3,1.2a.5.5,0,0,0,.5.3h.8a3.8,3.8,0,0,1,3.7,4.5.5.5,0,0,0,.3.5l1.2.3h.1a.5.5,0,0,0,.5-.4,6,6,0,0,0-5.8-7.2Z" fill="#fff"/><path d="M164.5,46.2a2.2,2.2,0,0,1,.6,1.9.3.3,0,0,0,.2.3l1.2.3a.3.3,0,0,0,.4-.2,4,4,0,0,0-4.7-4.7.3.3,0,0,0-.2.4l.3,1.2a.3.3,0,0,0,.3.2A2.2,2.2,0,0,1,164.5,46.2Z" fill="#7ccbbd"/><path d="M163,43.8a4,4,0,0,1,3.9,4.7.3.3,0,0,1-.3.2h-.1l-1.2-.3a.3.3,0,0,1-.2-.3,2.2,2.2,0,0,0-2.2-2.5h-.4a.3.3,0,0,1-.3-.2l-.3-1.2a.3.3,0,0,1,.2-.4h.7m0-.2v0h-.8l-.3.2a.5.5,0,0,0-.1.4l.3,1.2a.5.5,0,0,0,.5.3h.4a2,2,0,0,1,2,2.3.5.5,0,0,0,.3.5l1.2.3h.1a.5.5,0,0,0,.5-.4,4.2,4.2,0,0,0-4.1-4.9Z" fill="#fff"/><circle cx="163.1" cy="47.6" r="1.3" transform="translate(14.1 129.3) rotate(-45)" fill="#7ccbbd"/><path d="M163.1,46.3a1.3,1.3,0,1,1-.9.4,1.3,1.3,0,0,1,.9-.4m0-.2a1.5,1.5,0,1,0,1,.4,1.5,1.5,0,0,0-1-.4Z" fill="#fff"/><path d="M109.7,52l1,.2h0A3.8,3.8,0,0,1,118,51a2.8,2.8,0,0,1,4.2,3h.6a2.2,2.2,0,1,1,0,4.3H109.7a3.1,3.1,0,0,1,0-6.2Z" fill="#7ccbbd"/><path d="M114.4,48.3A3.8,3.8,0,0,1,118,51a2.8,2.8,0,0,1,4.2,3h.6a2.2,2.2,0,1,1,0,4.3H109.7a3.1,3.1,0,0,1,0-6.2l1,.2h0a3.8,3.8,0,0,1,3.8-3.8m0-.2a3.9,3.9,0,0,0-3.9,3.8h-.8a3.3,3.3,0,0,0,0,6.5h13.1a2.3,2.3,0,1,0,0-4.6h-.4a3,3,0,0,0-4.3-3,3.9,3.9,0,0,0-3.7-2.6Z" fill="#fff"/><circle cx="106.1" cy="68" r="2.5" fill="#018ab1"/><path d="M106.1,65.5a2.5,2.5,0,1,1-2.5,2.5,2.5,2.5,0,0,1,2.5-2.5m0-.2a2.7,2.7,0,1,0,2.7,2.7,2.7,2.7,0,0,0-2.7-2.7Z" fill="#fff"/><path d="M107.5,70.9l-1,.2h-.7l-1-.2a2.1,2.1,0,0,0-2.1.9h0a2.1,2.1,0,0,0-.4,1.2v2.8h7.7V73a2.1,2.1,0,0,0-.4-1.2h0A2.1,2.1,0,0,0,107.5,70.9Z" fill="#018ab1"/><path d="M107.8,70.8a2.1,2.1,0,0,1,2.1,2.1v2.8h-7.7V73a2.1,2.1,0,0,1,2.1-2.1h.3l1,.2h.7l1-.2h.3m0-.2h-.4l-1,.2h-.6l-1-.2h-.4a2.3,2.3,0,0,0-2.3,2.3v2.8l.2.2h7.7l.2-.2V73a2.3,2.3,0,0,0-2.3-2.3Z" fill="#fff"/><rect x="136.7" y="78.4" width="0.7" height="4.06" transform="translate(-16.7 120.5) rotate(-45)" fill="#c3c53b"/><path d="M135.8,78.7l2.9,2.9-.5.5-2.9-2.9.5-.5m0-.2h-.1l-.5.5a.2.2,0,0,0,0,.3l2.9,2.9h.3l.5-.5h0L136,78.6Z" fill="#fff"/><rect x="136.1" y="79" width="0.5" height="4.06" transform="translate(-17.3 120.2) rotate(-45)" fill="#c3c53b"/><path d="M135.2,79.4l2.9,2.9-.4.4-2.9-2.9.4-.4m0-.2H135l-.4.4a.2.2,0,0,0,0,.3l2.9,2.9h.3l.4-.4h0l-2.9-2.9Z" fill="#fff"/><path d="M134.4,80.1a.7.7,0,0,0,0,.9h0l.2.2-.2.3a.7.7,0,0,0,.1.8l.4.4a.7.7,0,0,0,.8.1l.3-.2.2.2h0a.7.7,0,0,0,1,0h0l-2.9-2.9Z" fill="#c3c53b"/><path d="M134.5,80.1l2.9,2.9h0l-.5.2-.5-.2h0l-.2-.2-.3.2h-.3l-.5-.2-.4-.4a.7.7,0,0,1-.1-.8l.2-.3-.2-.2h0a.7.7,0,0,1,0-1h0m0-.2h-.2a.9.9,0,0,0,0,1.2h.1v.2a.9.9,0,0,0,.2,1l.4.4.6.3h.7l.6.3.6-.3h0a.2.2,0,0,0,0-.3L134.6,80Z" fill="#fff"/><path d="M144.4,78.6a3.9,3.9,0,0,1-2.3,1.1,4.8,4.8,0,0,0-2.9,1.4h-.1l-.9-.9,2.6-2.6.9.5c.6.2,1,.2,1.2-.1s-.3-1.3-.7-1.6-.5-.1-.6,0l-.9.9-.6-.6.4-.4.5-.5c.1-.1.2-.3,0-.6s-1.2-.9-1.7-.7-.3.6,0,1.1l.5.9-2.6,2.6-1-1h.1a5,5,0,0,0,1.4-2.9,3.9,3.9,0,1,1,6.7,3.3Z" fill="#c3c53b"/><path d="M141.7,71.8a3.9,3.9,0,0,1,.4,7.8,4.8,4.8,0,0,0-2.9,1.4h-.1l-.9-.9,2.6-2.6.9.5.7.2a.5.5,0,0,0,.5-.2c.2-.4-.3-1.3-.7-1.6h-.6l-.9.9-.6-.6.4-.4.5-.5c.1-.1.2-.3,0-.6a2.1,2.1,0,0,0-1.4-.7h-.3c-.3.2-.3.6,0,1.1l.5.9-2.6,2.6-1-1h.1a5,5,0,0,0,1.4-2.9,3.9,3.9,0,0,1,3.9-3.4m0-.2h0a4.1,4.1,0,0,0-4.1,3.6,4.8,4.8,0,0,1-1.3,2.8h-.1l1,1h.3l2.6-2.6h.1l.6.6h0L138,80.1h0l.9.9h.4a4.7,4.7,0,0,1,2.8-1.3,4.1,4.1,0,0,0,2.4-1.2,4.1,4.1,0,0,0,1.2-3,4.1,4.1,0,0,0-4.1-4Zm-1.7,5h0l-.5-.9c-.1-.3-.3-.8,0-.9h.2a1.9,1.9,0,0,1,1.2.7c.1.1.2.2.1.3l-.3.3-.2.2-.4.4Zm.8.8h.1l.9-.9h.3c.4.3.8,1.1.6,1.4h-.9l-.9-.5Z" fill="#fff"/><path d="M140.7,75.4c-.3-.3-1-.6-1.2-.5s-.1.4.1.8l.5.9.4-.4.5-.5c.1-.1,0-.2-.1-.2Z" fill="#c3c53b"/><path d="M139.6,74.8a1.9,1.9,0,0,1,1.1.5h.1c0,.1.1.2.1.2l-.5.5-.4.4-.5-.9c-.2-.4-.2-.7-.1-.8h.2m0-.2h-.2c-.2.1-.2.5,0,1l.5.9h.3l.3-.3h0l.5-.5c.1-.1.1-.2-.1-.5h-.1a2.1,2.1,0,0,0-1.2-.6Z" fill="#fff"/><path d="M142.6,78c.1-.2-.2-.8-.5-1.2h-.3l-.9.9.9.5C142.2,78.1,142.5,78.1,142.6,78Z" fill="#c3c53b"/><path d="M141.8,76.6h.3c.3.3.6.9.5,1.2h-.8l-.9-.5.9-.9h0m0-.2h-.2l-.9.9h0l.9.5h.6a.4.4,0,0,0,.4-.2c.2-.3-.2-1-.5-1.4h-.4Z" fill="#fff"/><path d="M140.5,77.5l-.6-.6-2.6,2.6.6.6Z" fill="#c3c53b"/><path d="M140,76.9l.6.6L138,80.1l-.6-.6,2.6-2.6m0-.2h-.1l-2.6,2.6a.2.2,0,0,0,0,.2l.6.6h.3l2.6-2.6h0l-.6-.6H140Z" fill="#fff"/><path d="M145.5,71.9h.2l1.4-1.4a.1.1,0,0,0,0-.2h-.2l-1.4,1.4A.1.1,0,0,0,145.5,71.9Z" fill="#c3c53b"/><path d="M147,70.3h.1a.1.1,0,0,1,0,.2l-1.4,1.4h-.2a.1.1,0,0,1,0-.2l1.4-1.4h.1m0-.2h-.2l-1.4,1.4V72h.4l1.4-1.4a.3.3,0,0,0,0-.4Z" fill="#fff"/><path d="M146.5,73.8h0Z" fill="#c3c53b"/><path d="M148.5,73.6h0m0-.2h-1.9a.3.3,0,0,0-.3.3V74h2.2a.3.3,0,1,0,0-.6Z" fill="#fff"/><path d="M143.6,70.9h.3V68.9h-.3Z" fill="#c3c53b"/><path d="M143.7,68.8h.1v1.9h-.3V68.9h.1m0-.2a.3.3,0,0,0-.3.3v2.2h.2a.3.3,0,0,0,.3-.3V68.9a.3.3,0,0,0-.3-.3Z" fill="#fff"/><path d="M141.3,71h.2a.1.1,0,0,0,0-.2l-1-1.7h-.2a.1.1,0,0,0,0,.2l1,1.7Z" fill="#c3c53b"/><path d="M140.4,69.1h.1l1,1.7a.1.1,0,0,1,0,.2h-.2l-1-1.7a.1.1,0,0,1,0-.2h.1m0-.2h-.2v.2a.3.3,0,0,0,0,.2l1,1.7h.4a.3.3,0,0,0,.1-.4l-1-1.7-.3-.2Z" fill="#fff"/><path d="M148.3,77.1a.1.1,0,0,0,0-.2l-1.7-1h-.2a.1.1,0,0,0,0,.2h0l1.7,1Z" fill="#c3c53b"/><path d="M146.5,75.9h.1l1.7,1a.1.1,0,0,1,0,.2h-.2l-1.7-1h0a.1.1,0,0,1,0-.2h.1m0-.2-.3.2a.3.3,0,0,0,0,.4h.1l1.7,1h.2l.3-.2a.3.3,0,0,0,0-.2v-.2l-1.7-1Z" fill="#fff"/><path d="M132.8,66.8l-1.3-1.4-.9,1.6a4.3,4.3,0,0,0-8.3,1.8h.8l-.6,1.1-.7,1.3-1.5-1.6-.7-.8h.7a6.4,6.4,0,0,1,12.6-2Z" fill="#01698c" fill-rule="evenodd"/><path d="M126.6,62.4a6.4,6.4,0,0,1,6.1,4.5l-1.3-1.4-.9,1.6a4.3,4.3,0,0,0-8.3,1.8h.8l-.6,1.1-.7,1.3-1.5-1.6-.7-.8h.7a6.4,6.4,0,0,1,6.4-6.4m-3.5,6.4h0m3.5-6.6a6.6,6.6,0,0,0-6.6,6.4h-.7a.2.2,0,0,0,0,.2l.7.8,1.5,1.6h.3l.7-1.3.6-1.1h0l-.2-.2h-.6a4.1,4.1,0,0,1,7.9-1.6h.3l.8-1.4,1.1,1.2h.2a.2.2,0,0,0,.1-.2,6.6,6.6,0,0,0-6.3-4.6Z" fill="#fff"/><path d="M133.8,68.8h-.7a6.4,6.4,0,0,1-12.6,2l1.3,1.4.9-1.6a4.3,4.3,0,0,0,8.3-1.8h-.8l.6-1.1.7-1.3L133,68Z" fill="#01698c" fill-rule="evenodd"/><path d="M131.6,66.4,133,68l.7.8h-.7a6.4,6.4,0,0,1-12.6,2l1.3,1.4.9-1.6a4.3,4.3,0,0,0,8.3-1.8h-.8l.6-1.1.7-1.3m0-.2h-.2l-.7,1.3-.6,1.1a.2.2,0,0,0,0,.2h.8a4.1,4.1,0,0,1-7.9,1.5h-.3l-.8,1.4-1.1-1.2h-.2a.2.2,0,0,0-.1.2A6.6,6.6,0,0,0,133.3,69h.7a.2.2,0,0,0,0-.2l-.7-.8-1.5-1.6Z" fill="#fff"/><path d="M117.8,43.1V41.3h-1.2V37.6h1.2V35.8h12.6v1.8h1.2v3.7h-1.2v1.8Zm7.8-1v-.4h-1.8v.4Zm1.9-1.1V37.5h-.6V41Zm-6.1,0V37.5h-.6V41Zm9.4-.6V38.5h-.3v1.9Zm-13,0V38.5h-.3v1.9Z" fill="#018ab1"/><path d="M130.3,35.9v1.8h1.2v3.4h-1.2V43H117.9V41.1h-1.2V37.7h1.2V35.9h12.4m-3.5,5.2h.8V37.4h-.8v3.7m-6.1,0h.8V37.4h-.8v3.7m9.7-.6h.6V38.3h-.6v2.2m-13,0h.6V38.3h-.6v2.2m6.4,1.7h2v-.7h-2v.7m6.9-6.6H117.7v1.8h-1.2v3.9h1.2v1.8h12.9V41.4h1.2V37.5h-1.2V35.6Zm-3.5,2h.3v3.2H127V37.7Zm-6.1,0h.3v3.2h-.3V37.7Zm9.7.9h.1v1.7h-.1V38.6Zm-13,0h.1v1.7h-.1V38.6Zm6.4,3.2h1.5V42h-1.5v-.2Z" fill="#fff"/><path d="M129.1,35.2h-9.9l.7-1.1h4V31.8h.6v2.2h4Z" fill="#018ab1"/><path d="M124.4,31.8v2.2h4l.7,1.1h-9.9l.7-1.1h4V31.8h.6m-.6-.2h-.2v2.1h-4l-.7,1.1a.2.2,0,0,0,0,.2h10.2a.2.2,0,0,0,0-.2l-.7-1.1h-4V31.8h-.8Z" fill="#fff"/><circle cx="124.1" cy="30.5" r="0.9" fill="#018ab1"/><path d="M124.1,29.6a.9.9,0,1,1-.9.9.9.9,0,0,1,.9-.9m0-.2a1,1,0,1,0,1,1,1,1,0,0,0-1-1Z" fill="#fff"/><circle cx="124.1" cy="30.5" r="0.9" fill="#018ab1"/><path d="M124.1,29.6a.9.9,0,1,1-.9.9.9.9,0,0,1,.9-.9m0-.2a1,1,0,1,0,1,1,1,1,0,0,0-1-1Z" fill="#fff"/><rect x="120.4" y="43.7" width="7.4" height="1.08" fill="#018ab1"/><path d="M127.8,43.7v1.1h-7.4V43.7h7.4m0-.2h-7.4l-.2.2v1.1l.2.2h7.4l.2-.2V43.7l-.2-.2Z" fill="#fff"/><path d="M156.7,67.9a.4.4,0,1,0,.3.4A.4.4,0,0,0,156.7,67.9Z" fill="#01698c"/><path d="M156.7,67.9h0a.4.4,0,0,1,0,.7h0a.4.4,0,0,1,0-.7m0-.1a.5.5,0,0,0,0,.9h0a.5.5,0,0,0,.5-.4.5.5,0,0,0-.1-.3l-.3-.2Z" fill="#fff"/><path d="M159.1,69.3l-5-.4a.9.9,0,0,1-.8-.9l1-11.7a.9.9,0,0,1,.9-.8l5,.4a.9.9,0,0,1,.8.9l-1,11.7a.9.9,0,0,1-.9.8Zm-2.4-1.5a.5.5,0,0,0-.3.7l.3.2h0a.5.5,0,0,0,.5-.4.5.5,0,0,0-.1-.3l-.3-.2h0Zm-2.7-.5,5.7.4.8-10.1-5.6-.4Zm3.8-11h0Z" fill="#01698c"/><path d="M155.2,55.5h.1l5,.4a.8.8,0,0,1,.7.9l-1,11.7a.8.8,0,0,1-.8.7h-.1l-5-.4a.8.8,0,0,1-.7-.9l1-11.7a.8.8,0,0,1,.8-.7m2.5.9h0m-1,.4h0m1.5.1h0m1.5,11,.9-10.1-5.7-.5-.9,10.1,5.7.5m-2.9.9a.5.5,0,0,0,0-1h0a.5.5,0,0,0,0,1h0m-1.5-13.4a.9.9,0,0,0-.9.8l-1,11.7a.9.9,0,0,0,.8,1l5,.4h.1a.9.9,0,0,0,.9-.8l1-11.7a.9.9,0,0,0-.8-1l-5-.4ZM154,67.2l.9-9.9,5.5.5-.9,9.9-5.5-.5Zm2.7,1.4h-.3a.4.4,0,0,1-.1-.3.4.4,0,0,1,.4-.4h.3a.4.4,0,0,1,.1.3.4.4,0,0,1-.4.4Z" fill="#fff"/><path d="M114.1,88.8a1.4,1.4,0,1,0,1.4,1.4A1.4,1.4,0,0,0,114.1,88.8Zm0,2.3a.9.9,0,1,1,.9-.9A.9.9,0,0,1,114.1,91.1Z" fill="#7ccbbd"/><path d="M114.1,88.8a1.4,1.4,0,1,1-1.4,1.4,1.4,1.4,0,0,1,1.4-1.4m0,2.3a.9.9,0,1,0-.9-.9.9.9,0,0,0,.9.9m0-2.5a1.6,1.6,0,1,0,1.6,1.6,1.6,1.6,0,0,0-1.6-1.6Zm0,2.3a.7.7,0,1,1,.7-.7.7.7,0,0,1-.7.7Z" fill="#fff"/><path d="M114.1,89.8a.3.3,0,1,0,.3.3A.3.3,0,0,0,114.1,89.8Zm-.2.3a.2.2,0,1,1,.2.2A.2.2,0,0,1,113.8,90.2Z" fill="#7ccbbd"/><path d="M114.1,89.8a.3.3,0,1,1-.3.3.3.3,0,0,1,.3-.3m0,.6a.2.2,0,1,0-.2-.2.2.2,0,0,0,.2.2m0-.8a.5.5,0,1,0,.5.5.5.5,0,0,0-.5-.5Zm0,.6h0Z" fill="#fff"/><path d="M123.5,88.8a1.4,1.4,0,1,0,1.4,1.4A1.4,1.4,0,0,0,123.5,88.8Zm0,2.3a.9.9,0,1,1,.9-.9A.9.9,0,0,1,123.5,91.1Z" fill="#7ccbbd"/><path d="M123.5,88.8a1.4,1.4,0,1,1-1.4,1.4,1.4,1.4,0,0,1,1.4-1.4m0,2.3a.9.9,0,1,0-.9-.9.9.9,0,0,0,.9.9m0-2.5a1.6,1.6,0,1,0,1.6,1.6,1.6,1.6,0,0,0-1.6-1.6Zm0,2.3a.7.7,0,1,1,.7-.7.7.7,0,0,1-.7.7Z" fill="#fff"/><path d="M123.5,89.8a.3.3,0,1,0,.3.3A.3.3,0,0,0,123.5,89.8Zm-.2.3a.2.2,0,1,1,.2.2A.2.2,0,0,1,123.3,90.2Z" fill="#7ccbbd"/><path d="M123.5,89.8a.3.3,0,1,1-.3.3.3.3,0,0,1,.3-.3m0,.6a.2.2,0,1,0-.2-.2.2.2,0,0,0,.2.2m0-.8a.5.5,0,1,0,.5.5.5.5,0,0,0-.5-.5Zm0,.6h0Z" fill="#fff"/><rect x="119.4" y="87.1" width="1.2" height="0.3" fill="#7ccbbd"/><path d="M120.5,87.1v.3h-1.2v-.3h1.2m0-.2h-1.2a.2.2,0,0,0-.2.2v.3a.2.2,0,0,0,.2.2h1.2a.2.2,0,0,0,.2-.2v-.3a.2.2,0,0,0-.2-.2Z" fill="#fff"/><rect x="114.8" y="87.1" width="1.2" height="0.3" fill="#7ccbbd"/><path d="M116,87.1v.3h-1.2v-.3H116m0-.2h-1.2a.2.2,0,0,0-.2.2v.3a.2.2,0,0,0,.2.2H116a.2.2,0,0,0,.2-.2v-.3a.2.2,0,0,0-.2-.2Z" fill="#fff"/><path d="M110,90.5h2.4a1.6,1.6,0,0,1,0-.5H110Z" fill="#7ccbbd"/><path d="M112.5,90h0m0,0a1.6,1.6,0,0,0,0,.5H110V90h2.4m0-.2H110a.2.2,0,0,0-.2.2v.5a.2.2,0,0,0,.2.2h2.6a.2.2,0,0,0,0-.2,1.4,1.4,0,0,1,0-.4h0a.2.2,0,0,0-.2-.2Zm0,.4h0Z" fill="#fff"/><path d="M125.2,90.2a1.6,1.6,0,0,1,0,.3h3V90h-3Z" fill="#7ccbbd"/><path d="M128.2,90v.5h-3a1.6,1.6,0,0,0,0-.3h3m0-.2H125V90h0v.3a.2.2,0,0,0,0,.2h3.2a.2.2,0,0,0,.2-.2V90a.2.2,0,0,0-.2-.2Z" fill="#fff"/><path d="M115.7,90.2a1.6,1.6,0,0,1,0,.3h6.2a1.6,1.6,0,0,1,0-.5h-6.2Z" fill="#7ccbbd"/><path d="M121.9,90h0m0,0a1.6,1.6,0,0,0,0,.5h-6.2a1.6,1.6,0,0,0,0-.3h6.2m0-.2h-6.3V90h0v.3a.2.2,0,0,0,0,.2h6.5a.2.2,0,0,0,0-.2,1.4,1.4,0,0,1,0-.4h0a.2.2,0,0,0-.2-.2Zm0,.4h0Z" fill="#fff"/><path d="M128.2,89.2a1.6,1.6,0,0,0-.9-1.4l-2.6-1.1-1-2.4a1.8,1.8,0,0,0-1.6-1.1h-7.3a1.8,1.8,0,0,0-1.6,1.1l-1,2.4-1,.3a1.6,1.6,0,0,0-1.1,1.6v1.2h2.5a1.6,1.6,0,0,1,3.1.1H122a1.6,1.6,0,0,1,3.1.1h3.1Zm-15.3-2.5L114,84h1.5l-1.1,2.7Zm3.2.8h-1.2v-.3H116Zm2.8-.8h-4L116,84h2.9Zm1.8.8h-1.2v-.3h1.2Zm-1.2-.8V84h3.5l1.1,2.7Z" fill="#7ccbbd"/><path d="M122,83.1a1.8,1.8,0,0,1,1.6,1.1l1,2.4,2.6,1.1a1.6,1.6,0,0,1,.9,1.4v.5h-3.1a1.6,1.6,0,0,0-1.6-1.2h-.2a1.6,1.6,0,0,0-1.3,1h-6.3a1.6,1.6,0,0,0-1.6-1.2h-.2a1.6,1.6,0,0,0-1.3,1H110V88.5a1.6,1.6,0,0,1,1.1-1.6l1-.3,1-2.4a1.8,1.8,0,0,1,1.6-1.1H122m-2.6,3.5H124L122.9,84h-3.5v2.7m-4.6,0h4V84H116l-1.1,2.7m-2,0h1.5l1.1-2.7H114l-1.1,2.7m6.6.8h1.2v-.3h-1.2v.3m-4.6,0H116v-.3h-1.2v.3m7.2-4.4h-7.3a2,2,0,0,0-1.8,1.2l-.9,2.3-.9.3a1.8,1.8,0,0,0-1.2,1.7v1.2a.2.2,0,0,0,.2.2h2.7a1.5,1.5,0,0,1,1.1-.9h.2a1.4,1.4,0,0,1,1.4,1h6.7a1.5,1.5,0,0,1,1.1-.9h.2a1.4,1.4,0,0,1,1.4,1h3.3a.2.2,0,0,0,.2-.2v-.5a1.7,1.7,0,0,0-1.1-1.6l-2.5-1.1-.9-2.3a2,2,0,0,0-1.8-1.2Zm-2.5,1.2h3.2l.9,2.3h-4.1V84.2Zm-3.5,0h2.5v2.3h-3.5l1-2.3Zm-2,0h1.1l-1,2.3h-1.1l1-2.3Z" fill="#fff"/><polygon points="172.3 81.7 173 78 157.2 78 157.9 81.7 172.3 81.7" fill="#018ab1"/><path d="M173,78h0m0,0-.7,3.6H157.9l-.7-3.6H173m0-.2h-16l.7,3.6h14.8l.7-3.6h0l-.2-.2Zm0,.4h0Z" fill="#fff"/><rect x="165.4" y="75.5" width="6.7" height="1.98" transform="translate(337.4 153.1) rotate(-180)" fill="#018ab1"/><path d="M172,75.5v2h-6.7v-2H172m0-.2h-6.7l-.2.2v2l.2.2H172l.2-.2v-2l-.2-.2Z" fill="#fff"/><rect x="158.1" y="76.5" width="6.7" height="0.99" transform="translate(323 154.1) rotate(-180)" fill="#018ab1"/><path d="M164.9,76.5v1h-6.7v-1h6.7m0-.2h-6.7l-.2.2v1l.2.2h6.7l.2-.2v-1l-.2-.2Z" fill="#fff"/><rect x="166.6" y="73.2" width="4.3" height="1.83" transform="translate(337.4 148.3) rotate(-180)" fill="#018ab1"/><path d="M170.9,73.2v1.8h-4.3V73.2h4.3m0-.2h-4.3l-.2.2v1.8l.2.2h4.3l.2-.2V73.2l-.2-.2Z" fill="#fff"/><rect x="169" y="70" width="1.3" height="0.27" fill="#018ab1"/><path d="M170.3,70v.3H169V70h1.3m0-.2H169l-.2.2v.3l.2.2h1.3l.2-.2V70l-.2-.2Z" fill="#fff"/><rect x="169" y="71.3" width="1.3" height="1.41" fill="#018ab1"/><path d="M170.3,71.3v1.4H169V71.3h1.3m0-.2H169l-.2.2v1.4l.2.2h1.3l.2-.2V71.3l-.2-.2Z" fill="#fff"/><rect x="169" y="70.6" width="1.3" height="0.31" fill="#018ab1"/><path d="M170.3,70.6v.3H169v-.3h1.3m0-.2H169l-.2.2v.3l.2.2h1.3l.2-.2v-.3l-.2-.2Z" fill="#fff"/><circle cx="179.7" cy="63.3" r="0.5" fill="#c3c53b"/><path d="M179.7,62.9a.5.5,0,1,1-.5.5.5.5,0,0,1,.5-.5m0-.1a.6.6,0,1,0,.6.6.6.6,0,0,0-.6-.6Z" fill="#fff"/><circle cx="179.7" cy="63.3" r="0.5" fill="#c3c53b"/><path d="M179.7,62.9a.5.5,0,1,1-.5.5.5.5,0,0,1,.5-.5m0-.1a.5.5,0,1,0,.5.5.5.5,0,0,0-.5-.5Z" fill="#fff"/><path d="M173.4,61.7a1.3,1.3,0,1,0,1.3,1.3A1.3,1.3,0,0,0,173.4,61.7Zm0,2.4a1,1,0,1,1,1-1A1,1,0,0,1,173.4,64.1Z" fill="#c3c53b"/><path d="M173.4,61.7a1.3,1.3,0,1,1-1.3,1.3,1.3,1.3,0,0,1,1.3-1.3m0,2.4a1,1,0,1,0-1-1,1,1,0,0,0,1,1m0-2.5a1.4,1.4,0,1,0,1.4,1.4,1.4,1.4,0,0,0-1.4-1.4Zm0,2.4a.9.9,0,1,1,.9-.9.9.9,0,0,1-.9.9Z" fill="#fff"/><circle cx="173.4" cy="63.1" r="0.3" fill="#c3c53b"/><path d="M173.4,62.7a.3.3,0,1,1-.3.3.3.3,0,0,1,.3-.3m0-.1a.5.5,0,1,0,.5.5.5.5,0,0,0-.5-.5Z" fill="#fff"/><path d="M176.4,62.4a4.3,4.3,0,0,1,.3-1.4l-7.8,1a.4.4,0,0,0,0,.7l3.2.2a1.5,1.5,0,0,1,2.9.2h1.6A2.9,2.9,0,0,1,176.4,62.4Z" fill="#c3c53b"/><path d="M176.6,61h0m0,0a4.3,4.3,0,0,0-.3,1.4,2.9,2.9,0,0,0,.1.8h-1.6a1.5,1.5,0,0,0-2.9-.2l-3.2-.2a.4.4,0,0,1,0-.7l7.8-1m0-.1h0l-7.8,1a.5.5,0,0,0,0,.9l3.2.2h.1a1.3,1.3,0,0,1,2.7.1h1.8a2.8,2.8,0,0,1-.1-.8,4.2,4.2,0,0,1,.2-1.3h-.1Zm0,.2h0Z" fill="#fff"/><path d="M184.6,63.1a1.3,1.3,0,1,0,1.3-1.3A1.3,1.3,0,0,0,184.6,63.1Zm.3,0a1,1,0,1,1,1,1A1,1,0,0,1,184.9,63.1Z" fill="#c3c53b"/><path d="M185.9,61.7a1.3,1.3,0,1,1-1.3,1.3,1.3,1.3,0,0,1,1.3-1.3m0,2.4a1,1,0,1,0-1-1,1,1,0,0,0,1,1m0-2.5a1.4,1.4,0,1,0,1.4,1.4,1.4,1.4,0,0,0-1.4-1.4Zm0,2.4a.9.9,0,1,1,.9-.9.9.9,0,0,1-.9.9Z" fill="#fff"/><circle cx="185.9" cy="63.1" r="0.3" fill="#c3c53b"/><path d="M185.9,62.7a.3.3,0,1,1-.3.3.3.3,0,0,1,.3-.3m0-.1a.5.5,0,1,0,.5.5.5.5,0,0,0-.5-.5Z" fill="#fff"/><path d="M183,62.4a4.3,4.3,0,0,0-.3-1.4l7.8,1a.4.4,0,0,1,0,.7l-3.2.2a1.5,1.5,0,0,0-2.9.2h-1.6A2.9,2.9,0,0,0,183,62.4Z" fill="#c3c53b"/><path d="M182.7,61l7.8,1a.4.4,0,0,1,0,.7l-3.2.2a1.5,1.5,0,0,0-2.9.2h-1.6a2.9,2.9,0,0,0,.1-.8,4.3,4.3,0,0,0-.3-1.4m0-.1h-.1a.1.1,0,0,0,0,.1,4.2,4.2,0,0,1,.3,1.3,2.8,2.8,0,0,1-.1.8h1.8a1.3,1.3,0,0,1,2.7-.1h.1l3.2-.2a.5.5,0,0,0,0-.9l-7.8-1Z" fill="#fff"/><path d="M179.7,65.4a2.9,2.9,0,0,1-2.9-2.9c0-1.6,1.3-4,2.9-4s2.9,2.4,2.9,4A2.9,2.9,0,0,1,179.7,65.4Zm0-3.1a1.1,1.1,0,1,0,1.1,1.1A1.1,1.1,0,0,0,179.7,62.3Zm-2-.6h2.7l1.4-.2h-.1l-1.3.2H179l-1.3-.2Zm1.4-.4h1.3v-.7h-1.2Zm1.9-.9h-.4v.7l.3-.2a.3.3,0,0,0,.2-.3v-.2h-.2Zm-2.5,0h-.1v.2a.3.3,0,0,0,.2.3h.4v-.7h-.4Z" fill="#c3c53b"/><path d="M179.7,58.5c1.6,0,2.9,2.4,2.9,4a2.9,2.9,0,1,1-5.7,0c0-1.6,1.3-4,2.9-4m-.8,2.7v-.8h-.5a.2.2,0,0,0-.2.2v.2a.4.4,0,0,0,.3.3h.4m1.6,0h.4a.4.4,0,0,0,.3-.3v-.2a.2.2,0,0,0-.2-.2h-.5v.8m-.8-.7H179v.8h1.3v-.8h-.7m0,1.2H179l-1.4-.2v.2l1.4.2h1.4l1.4-.2v-.2l-1.4.2h-.7m0,2.8a1.1,1.1,0,1,0-1.1-1.1,1.1,1.1,0,0,0,1.1,1.1m0-6.1c-1.7,0-3,2.5-3,4.1a3,3,0,1,0,6,0c0-1.6-1.3-4.1-3-4.1Zm-.9,2.7h-.3a.2.2,0,0,1-.2-.2v-.2h.4V61Zm1.9-.5h.4v.2a.2.2,0,0,1-.2.2h-.3v-.5Zm-1.5.6v-.5h1.1v.5h-1.1Zm.5,3.3a1,1,0,1,1,1-1,1,1,0,0,1-1,1Z" fill="#fff"/><path d="M180.6,58.3l-.7-3.5a.2.2,0,0,0-.3,0l-.7,3.5.9-.3Z" fill="#c3c53b"/><path d="M179.7,54.7h.2l.7,3.5-.9-.2-.9.3.7-3.5h.2m0-.1a.3.3,0,0,0-.3.2l-.7,3.5h.2l.8-.2.8.2h.2l-.7-3.5a.3.3,0,0,0-.3-.2Z" fill="#fff"/><polygon points="176.7 57.9 178.4 58.4 178.6 57.4 176.7 57.9" fill="#c3c53b"/><path d="M178.6,57.4h0m0,0-.2,1-1.7-.5,1.9-.5m0-.1h0l-1.9.5h0l1.7.5h.1l.2-1h-.1Zm0,.2h0Z" fill="#fff"/><polygon points="182.7 57.9 180.7 57.4 180.9 58.4 182.7 57.9" fill="#c3c53b"/><path d="M180.7,57.4l1.9.5-1.7.5-.2-1m0-.1h-.1l.2,1h.1l1.7-.5h0l-1.9-.5Z" fill="#fff"/><path d="M101.8,43.4V40.7H99.2v2.6H87.1v-4h17.1l3.1,2.7v1.4Zm.8-.8h3.7v-.5l-1.4-1.2h-2.3Zm-7.2-.2h3.1V40.7h-3Zm-3.9,0h3.1V40.7h-3Zm-3.9,0h3.1V40.7h-3Z" fill="#7ccbbd"/><path d="M104.1,39.4l3,2.7v1.3h-5.3V40.7H99.2v2.7H87.1v-4h17m-8.7,3.1h3.2V40.7H95.4v1.8m-3.9,0h3.2V40.7H91.5v1.8m-3.9,0h3.2V40.7H87.6v1.8m15,.2h3.8v-.6L105,40.8h-2.4v1.8m1.6-3.4H87v4H99.4V40.8h2.3v2.6h5.6V42.1h0l-3-2.7Zm-8.6,1.5h2.9v1.6H95.6V40.8Zm-3.9,0h2.9v1.6H91.7V40.8Zm-3.9,0h2.9v1.6H87.7V40.8Zm15,.1h2.2l1.4,1.2v.4h-3.5V41Z" fill="#fff"/><path d="M99.6,41v3.8h1.9V41Zm.2.3h1.4v1H99.8Z" fill="#7ccbbd"/><path d="M101.5,41v3.8H99.6V41h1.9m-1.6,1.4h1.4v-1H99.8v1h0m1.6-1.6H99.6l-.2.2v3.8l.2.2h1.9l.2-.2V41l-.2-.2Zm-1.5.7h1v.7h-1v-.7Z" fill="#fff"/><polygon points="103.7 39.1 87.1 39.1 87.1 38.4 102.9 38.4 103.7 39.1" fill="#7ccbbd"/><path d="M102.9,38.4l.8.7H87.1v-.7h15.8m0-.2H87v.7l.2.2h16.8a.2.2,0,0,0,0-.2l-.8-.7Z" fill="#fff"/><path d="M99.2,43.7H87.1v1.1h1.4a.9.9,0,0,1,1.6-.3.9.9,0,0,1,1.6.3h2.9a.9.9,0,0,1,1.6-.3.9.9,0,0,1,1.6.3h1.2Z" fill="#7ccbbd"/><path d="M99.2,43.7v1.1H98a.9.9,0,0,0-1.6-.3.9.9,0,0,0-1.6.3H91.8a.9.9,0,0,0-1.6-.3.9.9,0,0,0-1.6.3H87.1V43.7H99.2m0-.2H87.1l-.2.2v1.1l.2.2h1.4l.2-.2a.7.7,0,0,1,1.3-.3h.3a.7.7,0,0,1,1.3.3l.2.2h2.9l.2-.2a.7.7,0,0,1,1.3-.3h.3a.7.7,0,0,1,1.3.3l.2.2h1.2l.2-.2V43.7l-.2-.2Z" fill="#fff"/><path d="M97.2,44.2a.6.6,0,1,0,.6.6A.6.6,0,0,0,97.2,44.2Zm0,1.1a.4.4,0,1,1,.4-.4A.4.4,0,0,1,97.2,45.3Z" fill="#7ccbbd"/><path d="M97.2,44.2a.6.6,0,1,1-.6.6.6.6,0,0,1,.6-.6m0,1.1a.4.4,0,1,0-.4-.4.4.4,0,0,0,.4.4m0-1.3a.8.8,0,1,0,.8.8.8.8,0,0,0-.8-.8Zm0,1.1a.3.3,0,1,1,.3-.3.3.3,0,0,1-.3.3Z" fill="#fff"/><circle cx="97.2" cy="44.8" r="0.3" fill="#7ccbbd"/><path d="M97.2,44.6a.3.3,0,1,1-.3.3.3.3,0,0,1,.3-.3m0-.2a.4.4,0,1,0,.4.4.4.4,0,0,0-.4-.4Z" fill="#fff"/><path d="M95.6,44.2a.6.6,0,1,0,.6.6A.6.6,0,0,0,95.6,44.2Zm0,1.1a.4.4,0,1,1,.4-.4A.4.4,0,0,1,95.6,45.3Z" fill="#7ccbbd"/><path d="M95.6,44.2a.6.6,0,1,1-.6.6.6.6,0,0,1,.6-.6m0,1.1a.4.4,0,1,0-.4-.4.4.4,0,0,0,.4.4m0-1.3a.8.8,0,1,0,.8.8.8.8,0,0,0-.8-.8Zm0,1.1a.3.3,0,1,1,.3-.3.3.3,0,0,1-.3.3Z" fill="#fff"/><circle cx="95.6" cy="44.8" r="0.3" fill="#7ccbbd"/><path d="M95.6,44.6a.3.3,0,1,1-.3.3.3.3,0,0,1,.3-.3m0-.2a.4.4,0,1,0,.4.4.4.4,0,0,0-.4-.4Z" fill="#fff"/><path d="M105.5,44.2a.6.6,0,1,0,.6.6A.6.6,0,0,0,105.5,44.2Zm0,1.1a.4.4,0,1,1,.4-.4A.4.4,0,0,1,105.5,45.3Z" fill="#7ccbbd"/><path d="M105.5,44.2a.6.6,0,1,1-.6.6.6.6,0,0,1,.6-.6m0,1.1a.4.4,0,1,0-.4-.4.4.4,0,0,0,.4.4m0-1.3a.8.8,0,1,0,.8.8.8.8,0,0,0-.8-.8Zm0,1.1a.3.3,0,1,1,.3-.3.3.3,0,0,1-.3.3Z" fill="#fff"/><circle cx="105.5" cy="44.8" r="0.3" fill="#7ccbbd"/><path d="M105.5,44.6a.3.3,0,1,1-.3.3.3.3,0,0,1,.3-.3m0-.2a.4.4,0,1,0,.4.4.4.4,0,0,0-.4-.4Z" fill="#fff"/><path d="M104,44.2a.6.6,0,1,0,.6.6A.6.6,0,0,0,104,44.2Zm0,1.1a.4.4,0,1,1,.4-.4A.4.4,0,0,1,104,45.3Z" fill="#7ccbbd"/><path d="M104,44.2a.6.6,0,1,1-.6.6.6.6,0,0,1,.6-.6m0,1.1a.4.4,0,1,0-.4-.4.4.4,0,0,0,.4.4m0-1.3a.8.8,0,1,0,.8.8.8.8,0,0,0-.8-.8Zm0,1.1a.3.3,0,1,1,.3-.3.3.3,0,0,1-.3.3Z" fill="#fff"/><circle cx="104" cy="44.8" r="0.3" fill="#7ccbbd"/><path d="M104,44.6a.3.3,0,1,1-.3.3.3.3,0,0,1,.3-.3m0-.2a.4.4,0,1,0,.4.4.4.4,0,0,0-.4-.4Z" fill="#fff"/><path d="M90.9,44.2a.6.6,0,1,0,.6.6A.6.6,0,0,0,90.9,44.2Zm0,1.1a.4.4,0,1,1,.4-.4A.4.4,0,0,1,90.9,45.3Z" fill="#7ccbbd"/><path d="M90.9,44.2a.6.6,0,1,1-.6.6.6.6,0,0,1,.6-.6m0,1.1a.4.4,0,1,0-.4-.4.4.4,0,0,0,.4.4m0-1.3a.8.8,0,1,0,.8.8.8.8,0,0,0-.8-.8Zm0,1.1a.3.3,0,1,1,.3-.3.3.3,0,0,1-.3.3Z" fill="#fff"/><circle cx="90.9" cy="44.8" r="0.3" fill="#7ccbbd"/><path d="M90.9,44.6a.3.3,0,1,1-.3.3.3.3,0,0,1,.3-.3m0-.2a.4.4,0,1,0,.4.4.4.4,0,0,0-.4-.4Z" fill="#fff"/><path d="M89.3,44.2a.6.6,0,1,0,.6.6A.6.6,0,0,0,89.3,44.2Zm0,1.1a.4.4,0,1,1,.4-.4A.4.4,0,0,1,89.3,45.3Z" fill="#7ccbbd"/><path d="M89.3,44.2a.6.6,0,1,1-.6.6.6.6,0,0,1,.6-.6m0,1.1a.4.4,0,1,0-.4-.4.4.4,0,0,0,.4.4m0-1.3a.8.8,0,1,0,.8.8.8.8,0,0,0-.8-.8Zm0,1.1a.3.3,0,1,1,.3-.3.3.3,0,0,1-.3.3Z" fill="#fff"/><path d="M89.3,44.2a.6.6,0,1,0,.6.6A.6.6,0,0,0,89.3,44.2Zm0,1.1a.4.4,0,1,1,.4-.4A.4.4,0,0,1,89.3,45.3Z" fill="#7ccbbd"/><path d="M89.3,44.2a.6.6,0,1,1-.6.6.6.6,0,0,1,.6-.6m0,1.1a.4.4,0,1,0-.4-.4.4.4,0,0,0,.4.4m0-1.3a.8.8,0,1,0,.8.8.8.8,0,0,0-.8-.8Zm0,1.1a.3.3,0,1,1,.3-.3.3.3,0,0,1-.3.3Z" fill="#fff"/><circle cx="89.3" cy="44.8" r="0.3" fill="#7ccbbd"/><path d="M89.3,44.6a.3.3,0,1,1-.3.3.3.3,0,0,1,.3-.3m0-.2a.4.4,0,1,0,.4.4.4.4,0,0,0-.4-.4Z" fill="#fff"/><path d="M107.2,43.7h-5.3v1.1h1.3a.9.9,0,0,1,1.6-.3.9.9,0,0,1,1.6.3h.8Z" fill="#7ccbbd"/><path d="M107.2,43.7v1.1h-.8a.9.9,0,0,0-1.6-.3.9.9,0,0,0-1.6.3h-1.3V43.7h5.3m0-.2h-5.3l-.2.2v1.1l.2.2h1.3l.2-.2a.7.7,0,0,1,1.3-.2h.3a.7.7,0,0,1,1.3.2l.2.2h1V43.7l-.2-.2Z" fill="#fff"/><circle cx="141.8" cy="54" r="0.6" fill="#c3c53b"/><path d="M141.8,53.4a.6.6,0,1,1-.6.6.6.6,0,0,1,.6-.6m0-.2a.8.8,0,1,0,.8.8.8.8,0,0,0-.8-.8Z" fill="#fff"/><path d="M148.6,48.8l-.5-.2h-1.4v-.7H146v-1a.3.3,0,0,0-.3-.3h0a.3.3,0,0,0-.3.3v1h-.7v.7h-6.1v-.7h-.7v-1a.3.3,0,0,0-.3-.3h0a.3.3,0,0,0-.3.3v1h-.7v.7h-1.4a.8.8,0,0,0-.5,1.3l.5.2h1.9l-1.2,5.2a.2.2,0,0,0,.2.3.7.7,0,0,0,.8-.6l1.2-4.9h0l.2.7a.7.7,0,0,0,.6.5h2.1v1.3H140a.5.5,0,0,0-.5.5v1.8a.5.5,0,0,0,.5.5h3.6a.5.5,0,0,0,.5-.5V53a.5.5,0,0,0-.5-.5h-1.4V51.2h2.2a.7.7,0,0,0,.6-.5l.2-.7h0l1.2,4.9a.7.7,0,0,0,.8.6.2.2,0,0,0,.2-.3l-1.2-5.2H148a.8.8,0,0,0,.5-1.3ZM142.8,54a1,1,0,1,1-1-1A1,1,0,0,1,142.8,54Zm2.2-4.3h-6.7v-.2a.2.2,0,0,1,.2-.2h6.7v.2A.2.2,0,0,1,145,49.7Z" fill="#c3c53b"/><path d="M145.7,46.6a.3.3,0,0,1,.3.3v1h.7v.7H148l.5.2a.8.8,0,0,1-.5,1.3h-1.9l1.2,5.2a.2.2,0,0,1-.2.3h-.1a.7.7,0,0,1-.7-.6l-1.2-4.9h0l-.2.7a.7.7,0,0,1-.6.5h-2.2v1.3h1.4a.5.5,0,0,1,.5.5v1.8a.5.5,0,0,1-.5.5H140a.5.5,0,0,1-.5-.5V53a.5.5,0,0,1,.5-.5h1.3V51.2h-2.1a.7.7,0,0,1-.6-.5l-.2-.7h0l-1.2,4.9a.7.7,0,0,1-.7.6h-.1a.2.2,0,0,1-.2-.3l1.2-5.2h-1.9l-.5-.2a.8.8,0,0,1,.5-1.3h1.4v-.7h.7v-1a.3.3,0,0,1,.3-.3h0a.3.3,0,0,1,.3.3v1h.7v.7h6.1v-.7h.7v-1a.3.3,0,0,1,.3-.3h0m-7.2,3.1H145a.2.2,0,0,0,.2-.2v-.2h-6.7a.2.2,0,0,0-.2.2v.2h.2m3.3,5.3a1,1,0,1,0-1-1,1,1,0,0,0,1,1m4-8.6a.4.4,0,0,0-.4.4v.9h-.5l-.2.2v.5h-5.8v-.5l-.2-.2h-.5v-.9a.4.4,0,1,0-.9,0v.9h-.5l-.2.2v.5h-1.2a.9.9,0,0,0,0,1.9h1.6l-1.2,5a.4.4,0,0,0,.1.3l.3.2h.2a.9.9,0,0,0,.9-.7l1-4.3h0a.8.8,0,0,0,.8.6h2v.9H140a.7.7,0,0,0-.7.7v1.8a.7.7,0,0,0,.7.7h3.6a.7.7,0,0,0,.7-.7V53a.7.7,0,0,0-.7-.7h-1.2v-.9h2a.8.8,0,0,0,.8-.6h0l1,4.3a.9.9,0,0,0,.9.7h.2l.3-.2a.4.4,0,0,0,.1-.3l-1.2-5H148a.9.9,0,0,0,0-1.9h-1.2v-.5l-.2-.2h-.5v-.9a.4.4,0,0,0-.4-.4Zm-7.2,3.1h0Zm3.3,5.3a.9.9,0,1,1,.9-.9.9.9,0,0,1-.9.9Z" fill="#fff"/><path d="M135.3,47.5l1.8-.2a.2.2,0,0,0,.2-.2h0a.2.2,0,0,0-.2-.2l-1.8-.2a.4.4,0,0,0-.4.4h0A.4.4,0,0,0,135.3,47.5Z" fill="#c3c53b"/><path d="M135.3,46.8h0l1.8.2a.2.2,0,0,1,0,.5l-1.8.2h0a.4.4,0,0,1,0-.8m0-.2a.6.6,0,0,0,0,1.1h0l1.8-.2a.4.4,0,0,0,0-.8l-1.8-.2Z" fill="#fff"/><path d="M140.3,47.5l-1.8-.2a.2.2,0,0,1-.2-.2h0a.2.2,0,0,1,.2-.2l1.8-.2a.4.4,0,0,1,.4.4h0A.4.4,0,0,1,140.3,47.5Z" fill="#c3c53b"/><path d="M140.4,46.8a.4.4,0,0,1,0,.8h0l-1.8-.2a.2.2,0,0,1,0-.5l1.8-.2h0m0-.2h0l-1.8.2a.4.4,0,0,0,0,.8l1.8.2h0a.6.6,0,0,0,0-1.1Z" fill="#fff"/><path d="M143.2,47.5l1.8-.2a.2.2,0,0,0,.2-.2h0a.2.2,0,0,0-.2-.2l-1.8-.2a.4.4,0,0,0-.4.4h0A.4.4,0,0,0,143.2,47.5Z" fill="#c3c53b"/><path d="M143.2,46.8h0l1.8.2a.2.2,0,0,1,0,.5l-1.8.2h0a.4.4,0,0,1,0-.8m0-.2a.6.6,0,0,0,0,1.1h0l1.8-.2a.4.4,0,0,0,0-.8l-1.8-.2Z" fill="#fff"/><path d="M148.3,47.5l-1.8-.2a.2.2,0,0,1-.2-.2h0a.2.2,0,0,1,.2-.2l1.8-.2a.4.4,0,0,1,.4.4h0A.4.4,0,0,1,148.3,47.5Z" fill="#c3c53b"/><path d="M148.3,46.8a.4.4,0,0,1,0,.8h0l-1.8-.2a.2.2,0,0,1,0-.5l1.8-.2h0m0-.2h0l-1.8.2a.4.4,0,0,0,0,.8l1.8.2h0a.6.6,0,0,0,0-1.1Z" fill="#fff"/><g opacity="0.45"><path d="M100.8,72.7h-.1l-5.6-3.8a.2.2,0,0,1,0-.2h.2l5.6,3.8a.2.2,0,0,1,0,.2Z" fill="#fff"/><path d="M107.7,64.3h-.1a.2.2,0,0,1,0-.2l3.5-4.3h.2a.2.2,0,0,1,0,.2l-3.5,4.3Z" fill="#fff"/><path d="M123.8,52.3l-.2-.2a.2.2,0,0,1,.2-.2l9.6-1,.2.2a.2.2,0,0,1-.2.2l-9.6,1Z" fill="#fff"/><path d="M96.1,77.9l-.2-.2a.2.2,0,0,1,.2-.2l5.6-.7.2.2a.2.2,0,0,1-.2.2l-5.6.7Z" fill="#fff"/><path d="M88.7,73.1l-.2-.2V67.5l.2-.2.2.2v5.4Z" fill="#fff"/><path d="M113.6,82h-.1l-3.7-4.8a.2.2,0,0,1,0-.2h.2l3.7,4.8a.2.2,0,0,1,0,.2Z" fill="#fff"/><path d="M111.2,73.5H111a.2.2,0,0,1,.1-.2l7.4-2.7h.2a.2.2,0,0,1-.1.2l-7.4,2.7Z" fill="#fff"/><path d="M122.3,82.2h0a.2.2,0,0,1-.2-.2l.5-5.1.2-.2a.2.2,0,0,1,.2.2l-.5,5.1Z" fill="#fff"/><path d="M118.5,65.7h-.2L115.9,60a.2.2,0,0,1,.1-.2h.2l2.5,5.6a.2.2,0,0,1-.1.2Z" fill="#fff"/><path d="M130.9,61.7h-.1a.2.2,0,0,1,0-.2l3.9-5.1h.2a.2.2,0,0,1,0,.2L131,61.7Z" fill="#fff"/><path d="M135.8,76.4h-.1l-2.5-3.7a.2.2,0,0,1,0-.2h.2l2.5,3.7a.2.2,0,0,1,0,.2Z" fill="#fff"/><path d="M126.3,85.5h-.2a.2.2,0,0,1,.1-.2l6.1-1.9h.2a.2.2,0,0,1-.1.2l-6.1,1.9Z" fill="#fff"/><path d="M148.4,71.9h-.1a.2.2,0,0,1,.1-.2l4-2.6h.2a.2.2,0,0,1-.1.2l-4,2.6Z" fill="#fff"/><path d="M151.9,59.6h-.1l-3-3.1a.2.2,0,0,1,0-.3h.3l3,3.1a.2.2,0,0,1,0,.3Z" fill="#fff"/><path d="M105.2,55H99.3l-.2-.2.2-.2h5.9l.2.2Z" fill="#fff"/><path d="M110.6,85.5h-6.9l-.2-.2.2-.2h6.9l.2.2Z" fill="#fff"/><path d="M142.2,67l-.2-.2-.4-9.8a.2.2,0,0,1,.2-.2l.2.2.4,9.8a.2.2,0,0,1-.2.2Z" fill="#fff"/><path d="M161.3,65.7h-.2a.2.2,0,0,1,.1-.2l5.6-2.5h.2a.2.2,0,0,1-.1.2l-5.6,2.5Z" fill="#fff"/><path d="M175.3,57.4h-.1L169.5,50a.2.2,0,0,1,0-.2h.2l5.7,7.3a.2.2,0,0,1,0,.2Z" fill="#fff"/><path d="M137.8,44.8h-.1l-4.6-3.6a.2.2,0,0,1,0-.2h.2l4.6,3.6a.2.2,0,0,1,0,.2Z" fill="#fff"/><path d="M118.8,49h-.1a.2.2,0,0,1,0-.3l3.1-3h.3a.2.2,0,0,1,0,.3l-3.1,3Z" fill="#fff"/><path d="M150.9,47.5l-.2-.2a.2.2,0,0,1,.2-.2l8.6-1,.2.2a.2.2,0,0,1-.2.2l-8.6,1Z" fill="#fff"/><path d="M172.4,73.8h-.1a.2.2,0,0,1,0-.3l6.8-6.8h.3a.2.2,0,0,1,0,.3l-6.8,6.8Z" fill="#fff"/><path d="M159.9,75h-.1L157,70.7a.2.2,0,0,1,.1-.2h.2l2.7,4.2a.2.2,0,0,1-.1.2Z" fill="#fff"/><path d="M157.7,54.1h-.1a.2.2,0,0,1,0-.3l3.4-3.6h.3a.2.2,0,0,1,0,.3L157.8,54Z" fill="#fff"/><path d="M155.5,80.2H145.2l-.2-.2.2-.2h10.3l.2.2Z" fill="#fff"/><path d="M91,56h0a.2.2,0,0,1-.1-.2l1.8-8.5h.2a.2.2,0,0,1,.1.2l-1.8,8.5Z" fill="#fff"/><path d="M108.6,50.4h-.1l-5.1-2.1a.2.2,0,0,1-.1-.2h.2l5.1,2.1a.2.2,0,0,1,.1.2Z" fill="#fff"/><path d="M108.6,40.9l-.2-.2a.2.2,0,0,1,.2-.2l6.3-.9.2.2a.2.2,0,0,1-.2.2l-6.3.9Z" fill="#fff"/></g></g></svg>