<svg id="Layer_1" data-name="Layer 1" xmlns="http://www.w3.org/2000/svg" width="200" height="140" viewBox="0 0 200 140"><title>Artboard 1</title><rect width="200" height="140" fill="#00698c"/><path d="M140.3,27H143a0,0,0,0,1,0,0v2.7A83.3,83.3,0,0,1,59.7,113H57a0,0,0,0,1,0,0v-2.7A83.3,83.3,0,0,1,140.3,27Z" transform="translate(78.8 -50.2) rotate(45)" fill="#fff"/><circle cx="100" cy="70" r="26.3" fill="#006e96"/><circle cx="100" cy="70" r="22.7" fill="#299cbd"/><circle cx="100" cy="70" r="22.7" fill="#0084ad" opacity="0.7"/><circle cx="100" cy="70" r="11.8" fill="#231f20"/><circle cx="100" cy="70" r="24.5" fill="#fff" opacity="0.2"/><path d="M112,65h-.9V59.1A11.1,11.1,0,0,0,99.3,48,11.3,11.3,0,0,0,88.9,59.3V65H88a1,1,0,0,0-1,1V85.1a4,4,0,0,0,4,4H109a4,4,0,0,0,4-4V66A1,1,0,0,0,112,65ZM101.7,79v3.1a1.7,1.7,0,1,1-3.4,0V79a3.5,3.5,0,1,1,3.4,0ZM107,65H93V59.2a7.1,7.1,0,0,1,6.5-7.1,7,7,0,0,1,7.5,7Z" fill="#df6526"/><circle cx="92.5" cy="61" r="4.1" fill="#fff"/><circle cx="92.5" cy="70.9" r="2.4" fill="#fff"/><polygon points="37.5 61.2 35 61.2 35 36.7 59.5 36.7 59.5 39.2 37.5 39.2 37.5 61.2" fill="#fff"/><polygon points="59.5 103.3 35 103.3 35 78.8 37.5 78.8 37.5 100.8 59.5 100.8 59.5 103.3" fill="#fff"/><rect x="79.9" y="100.8" width="40.2" height="2.53" fill="#fff"/><polygon points="165 61.2 162.5 61.2 162.5 39.2 140.5 39.2 140.5 36.7 165 36.7 165 61.2" fill="#fff"/><rect x="79.9" y="36.7" width="40.2" height="2.53" fill="#fff"/><polygon points="165 103.3 140.5 103.3 140.5 100.8 162.5 100.8 162.5 78.8 165 78.8 165 103.3" fill="#fff"/></svg>