<svg id="Layer_1" data-name="Layer 1" xmlns="http://www.w3.org/2000/svg" xmlns:xlink="http://www.w3.org/1999/xlink" width="200" height="140" viewBox="0 0 200 140"><defs><clipPath id="clip-path"><path d="M142.8,30.3c-1-.4-6.3-.6-12.7-.6s-11.7.3-12.7.6h-.2v9.2H143V30.3Z" fill="none"/></clipPath></defs><title>Artboard 1</title><rect width="200" height="140" fill="#7cccbd"/><polygon points="190 104 10 104 24.2 83.6 175.8 83.6 190 104" fill="#2aa398"/><path d="M53.2,61.3h6a0,0,0,0,1,0,0v2.5a1,1,0,0,1-1,1h-4a1,1,0,0,1-1-1V61.3A0,0,0,0,1,53.2,61.3Z" fill="#989898"/><rect x="53.2" y="60" width="6" height="1.24" fill="gray"/><rect x="53.2" y="60.4" width="6" height="0.54" fill="#666667"/><rect x="53.2" y="61.6" width="6" height="0.44" fill="gray"/><rect x="53.2" y="62.2" width="6" height="0.44" fill="gray"/><rect x="53.2" y="62.9" width="6" height="0.44" fill="gray"/><rect x="53.2" y="63.5" width="6" height="0.44" fill="gray"/><path d="M62,51.7a5.8,5.8,0,1,0-10.4,3.6,7.4,7.4,0,0,1,1.6,4.5V60h6v-.3a7.1,7.1,0,0,1,1.5-4.4A5.8,5.8,0,0,0,62,51.7Z" fill="#f8eb60"/><path d="M55.2,60c0-1.5,0-3.7,0-5.4l-1.5-.4c-.9-.4-1.3-.8-1.2-1.2s1.6-1.2,2.4-1,.7.4.7.6,0,.5,0,1v.8h1.2V52.5c0-.1.1-.5.6-.5s2.2.3,2.4,1-.2.9-1.1,1.3l-1.5.4V60h-.4V54.7H55.6c0,1.7,0,3.9,0,5.4Zm2.5-7.7h-.2c-.1,0-.3.1-.3.2v1.8l1.4-.4c.6-.3,1-.6.9-.8S58.4,52.3,57.7,52.3Zm-3,0c-.7,0-1.7.4-1.8.8s.3.5.9.8l1.4.4v-.8c0-.5,0-.8,0-1s-.2-.2-.3-.2Z" fill="#989898"/><path d="M54.2,64.8h4a.5.5,0,0,0-.5-.5h-3a.5.5,0,0,0-.5.5Z" fill="gray"/><path d="M62,51.7a5.8,5.8,0,1,0-10.4,3.6,7.4,7.4,0,0,1,1.6,4.5V60h6v-.3a7.1,7.1,0,0,1,1.5-4.4A5.8,5.8,0,0,0,62,51.7Z" fill="#ffd100" opacity="0.5"/><path d="M56.6,66h-.8a1,1,0,0,1-1-.7l-.2-.5h3.1l-.2.5A1,1,0,0,1,56.6,66Z" fill="#666667"/><path d="M56.4,46.7a5,5,0,0,0-3.3,1.3,5,5,0,0,1,2.7-.8,4.9,4.9,0,0,1,5,4.9,4.9,4.9,0,0,1-1.6,3.6,4.9,4.9,0,0,0,2.3-4.1A4.9,4.9,0,0,0,56.4,46.7Z" fill="#f1edb9" opacity="0.45"/><path d="M56.2,43.6a.2.2,0,0,1-.2-.2V40.5a.2.2,0,1,1,.4,0v2.9A.2.2,0,0,1,56.2,43.6Z" fill="#f1d235"/><path d="M59.2,44.6H59a.2.2,0,0,1,0-.3l2-2h.3a.2.2,0,0,1,0,.3l-2,2Z" fill="#f1d235"/><path d="M53.2,44.6H53l-2-2a.2.2,0,0,1,0-.3h.3l2,2a.2.2,0,0,1,0,.3Z" fill="#f1d235"/><path d="M50.8,47.1h-.1L48,46.3a.2.2,0,0,1-.1-.2h.2l2.8.7a.2.2,0,0,1,.1.2Z" fill="#f1d235"/><path d="M61.5,47.1h-.2a.2.2,0,0,1,.1-.2l2.8-.7h.2a.2.2,0,0,1-.1.2l-2.8.7Z" fill="#f1d235"/><path d="M70.2,29.4a6.1,6.1,0,0,1,1.9.3v-.2a7.5,7.5,0,0,1,14.6-2.2,5.6,5.6,0,0,1,8.4,5.9h1.1a4.3,4.3,0,1,1,0,8.6h-26a6.1,6.1,0,0,1,0-12.2Z" fill="#f2f2f2"/><path d="M96.1,34H95a5.6,5.6,0,0,0,.1-.9h1.1a4.3,4.3,0,0,1,4.2,5.1A4.3,4.3,0,0,0,96.1,34Z" fill="#e5e5e4"/><path d="M90,27.6a5.6,5.6,0,0,0-2.9.8l-.4-1a5.6,5.6,0,0,1,8.2,3.2A5.6,5.6,0,0,0,90,27.6Z" fill="#e5e5e4"/><path d="M70.2,29.4a6.1,6.1,0,0,1,1.9.3v-.2A7.5,7.5,0,0,1,85.5,25a7.5,7.5,0,0,0-12,5.9v.2a6.1,6.1,0,0,0-6.9,9.4,6.1,6.1,0,0,1,3.6-11.1Z" fill="#e5e5e4"/><path d="M51.5,102.3h97a0,0,0,0,1,0,0v.8a1.5,1.5,0,0,1-1.5,1.5H53a1.5,1.5,0,0,1-1.5-1.5v-.8a0,0,0,0,1,0,0Z" fill="#a4a9ad"/><path d="M67.4,43.7h66.1a1.2,1.2,0,0,1,1.2,1.2V83.8a1.2,1.2,0,0,1-1.2,1.2H67.1a.9.9,0,0,1-.9-.9V45A1.2,1.2,0,0,1,67.4,43.7Z" fill="#222"/><rect x="69.6" y="49.1" width="61.8" height="32.79" fill="#b8dde1"/><rect x="69" y="47.6" width="63" height="34.98" fill="#222944"/><rect x="83.5" y="34.2" width="33.9" height="61.84" transform="translate(165.6 -35.3) rotate(90)" fill="#fff"/><ellipse cx="100.5" cy="46.3" rx="0.6" ry="0.6" fill="#959595"/><path d="M147.2,102.8H52.8c-1,0-1.5-.3-1.2-.6L65.7,85.6a2.7,2.7,0,0,1,1.8-.6h66.1a2.5,2.5,0,0,1,1.7.6l13.2,16.6C148.7,102.6,148.2,102.8,147.2,102.8Z" fill="#c3c6c8"/><path d="M131.2,85H69.7l-.3.3c-.1.2,0,.3.3.3h61.3c.3,0,.5-.1.4-.3Z" fill="#5c6670"/><path d="M132.7,96h-65c-.8,0-1.3-.3-1.1-.6l5-7.5a2.3,2.3,0,0,1,1.7-.6h54.2a2.2,2.2,0,0,1,1.6.6l4.6,7.5C134,95.7,133.5,96,132.7,96Z" fill="#a4a9ad"/><path d="M110.8,101.6H89.2c-.7,0-1.2-.2-1.2-.5l1-4.1c.1-.3.6-.5,1.3-.5h19.8c.6,0,1.2.2,1.3.5l.7,4.1C112.1,101.4,111.5,101.6,110.8,101.6Z" fill="#a4a9ad"/><path d="M108.4,102.8H91.6c.1-.3.8-.6,1.8-.6h13.2c.9,0,1.7.3,1.7.6Z" fill="#a4a9ad"/><path d="M65.8,87.5c.1-.1,0-.1-.2-.1h-.4c-.1.1,0,.1.2.1Z" fill="#a4a9ad"/><path d="M66.7,87.5c.1-.1,0-.1-.2-.1h-.4c-.1.1,0,.1.2.1Z" fill="#a4a9ad"/><path d="M67.6,87.5c.1-.1,0-.1-.2-.1h-.4c-.1.1,0,.1.2.1Z" fill="#a4a9ad"/><path d="M68.6,87.5c.1-.1,0-.1-.2-.1H68c-.1.1,0,.1.2.1Z" fill="#a4a9ad"/><path d="M69.5,87.5c.1-.1,0-.1-.2-.1h-.4c-.1.1,0,.1.2.1Z" fill="#a4a9ad"/><path d="M70.4,87.5c.1-.1,0-.1-.2-.1h-.4c-.1.1,0,.1.2.1Z" fill="#a4a9ad"/><path d="M65.5,87.9c.1-.1,0-.1-.2-.1h-.4c-.1.1,0,.1.2.1Z" fill="#a4a9ad"/><path d="M66.4,87.9c.1-.1,0-.1-.2-.1h-.4c-.1.1,0,.1.2.1Z" fill="#a4a9ad"/><path d="M67.3,87.9c.1-.1,0-.1-.2-.1h-.4c-.1.1,0,.1.2.1Z" fill="#a4a9ad"/><path d="M68.3,87.9c.1-.1,0-.1-.2-.1h-.4c-.1.1,0,.1.2.1Z" fill="#a4a9ad"/><path d="M69.2,87.9c.1-.1,0-.1-.2-.1h-.4c-.1.1,0,.1.2.1Z" fill="#a4a9ad"/><path d="M70.1,87.9c.1-.1,0-.1-.2-.1h-.4c-.1.1,0,.1.2.1Z" fill="#a4a9ad"/><path d="M65.2,88.3c.1-.1,0-.1-.2-.1h-.4c-.1.1,0,.1.2.1Z" fill="#a4a9ad"/><path d="M66.1,88.3c.1-.1,0-.1-.2-.1h-.4c-.1.1,0,.1.2.1Z" fill="#a4a9ad"/><path d="M67,88.3c.1-.1,0-.1-.2-.1h-.4c-.1.1,0,.1.2.1Z" fill="#a4a9ad"/><path d="M68,88.3c.1-.1,0-.1-.2-.1h-.4c-.1.1,0,.1.2.1Z" fill="#a4a9ad"/><path d="M68.9,88.3c.1-.1,0-.1-.2-.1h-.4c-.1.1,0,.1.2.1Z" fill="#a4a9ad"/><path d="M69.9,88.3c.1-.1,0-.1-.2-.1h-.4c-.1.1,0,.1.2.1Z" fill="#a4a9ad"/><path d="M64.9,88.7c.1-.1,0-.1-.2-.1h-.4c-.1.1,0,.1.2.1Z" fill="#a4a9ad"/><path d="M65.8,88.7c.1-.1,0-.1-.2-.1h-.4c-.1.1,0,.1.2.1Z" fill="#a4a9ad"/><path d="M66.8,88.7c.1-.1,0-.1-.2-.1h-.4c-.1.1,0,.1.2.1Z" fill="#a4a9ad"/><path d="M67.7,88.7c.1-.1,0-.1-.2-.1h-.4c-.1.1,0,.1.2.1Z" fill="#a4a9ad"/><path d="M68.6,88.7c.1-.1,0-.1-.2-.1H68c-.1.1,0,.1.2.1Z" fill="#a4a9ad"/><path d="M69.6,88.7c.1-.1,0-.1-.2-.1H69c-.1.1,0,.1.2.1Z" fill="#a4a9ad"/><path d="M64.6,89.1c.1-.1,0-.1-.2-.1H64c-.1.1,0,.1.2.1Z" fill="#a4a9ad"/><path d="M65.5,89.1c.1-.1,0-.1-.2-.1h-.4c-.1.1,0,.1.2.1Z" fill="#a4a9ad"/><path d="M66.5,89.1c.1-.1,0-.1-.2-.1h-.4c-.1.1,0,.1.2.1Z" fill="#a4a9ad"/><path d="M67.4,89.1c.1-.1,0-.1-.2-.1h-.4c-.1.1,0,.1.2.1Z" fill="#a4a9ad"/><path d="M68.4,89.1c.1-.1,0-.1-.2-.1h-.4c-.1.1,0,.1.2.1Z" fill="#a4a9ad"/><path d="M69.3,89.1c.1-.1,0-.1-.2-.1h-.4c-.1.1,0,.1.2.1Z" fill="#a4a9ad"/><path d="M64.2,89.5c.1-.1,0-.1-.2-.1h-.4c-.1.1,0,.1.2.1Z" fill="#a4a9ad"/><path d="M65.2,89.5c.1-.1,0-.1-.2-.1h-.4c-.1.1,0,.1.2.1Z" fill="#a4a9ad"/><path d="M66.2,89.5c.1-.1,0-.1-.2-.1h-.4c-.1.1,0,.1.2.1Z" fill="#a4a9ad"/><path d="M67.1,89.5c.1-.1,0-.1-.2-.1h-.4c-.1.1,0,.1.2.1Z" fill="#a4a9ad"/><path d="M68.1,89.5c.1-.1,0-.1-.2-.1h-.4c-.1.1,0,.1.2.1Z" fill="#a4a9ad"/><path d="M69,89.5c.1-.1,0-.1-.2-.1h-.4c-.1.1,0,.1.2.1Z" fill="#a4a9ad"/><path d="M63.9,89.9c.1-.1,0-.1-.2-.1h-.4c-.1.1,0,.1.2.1Z" fill="#a4a9ad"/><path d="M64.9,89.9c.1-.1,0-.1-.2-.1h-.4c-.1.1,0,.1.2.1Z" fill="#a4a9ad"/><path d="M65.9,89.9c.1-.1,0-.1-.2-.1h-.4c-.1.1,0,.1.2.1Z" fill="#a4a9ad"/><path d="M66.8,89.9c.1-.1,0-.1-.2-.1h-.4c-.1.1,0,.1.2.1Z" fill="#a4a9ad"/><path d="M67.8,89.9c.1-.1,0-.1-.2-.1h-.4c-.1.1,0,.1.2.1Z" fill="#a4a9ad"/><path d="M68.7,89.9c.1-.1,0-.1-.2-.1h-.4c-.1.1,0,.1.2.1Z" fill="#a4a9ad"/><path d="M63.6,90.2c.1-.1,0-.1-.2-.1H63c-.1.1,0,.1.2.1Z" fill="#a4a9ad"/><path d="M64.6,90.2c.1-.1,0-.1-.2-.1H64c-.1.1,0,.1.2.1Z" fill="#a4a9ad"/><path d="M65.6,90.2c.1-.1,0-.1-.2-.1h-.4c-.1.1,0,.1.2.1Z" fill="#a4a9ad"/><path d="M66.5,90.2c.1-.1,0-.1-.2-.1h-.4c-.1.1,0,.1.2.1Z" fill="#a4a9ad"/><path d="M67.5,90.2c.1-.1,0-.1-.2-.1h-.4c-.1.1,0,.1.2.1Z" fill="#a4a9ad"/><path d="M68.5,90.2c.1-.1,0-.1-.2-.1h-.4c-.1.1,0,.1.2.1Z" fill="#a4a9ad"/><path d="M63.3,90.6c.1-.1,0-.1-.2-.1h-.4c-.1.1,0,.1.2.1Z" fill="#a4a9ad"/><path d="M64.3,90.6c.1-.1,0-.1-.2-.1h-.4c-.1.1,0,.1.2.1Z" fill="#a4a9ad"/><path d="M65.3,90.6c.1-.1,0-.1-.2-.1h-.4c-.1.1,0,.1.2.1Z" fill="#a4a9ad"/><path d="M66.2,90.6c.1-.1,0-.1-.2-.1h-.4c-.1.1,0,.1.2.1Z" fill="#a4a9ad"/><path d="M67.2,90.6c.1-.1,0-.1-.2-.1h-.4c-.1.1,0,.1.2.1Z" fill="#a4a9ad"/><path d="M68.2,90.6c.1-.1,0-.1-.2-.1h-.4c-.1.1,0,.1.2.1Z" fill="#a4a9ad"/><path d="M63,91c.1-.1,0-.1-.2-.1h-.4c-.1.1,0,.1.2.1Z" fill="#a4a9ad"/><path d="M64,91c.1-.1,0-.1-.2-.1h-.4c-.1.1,0,.1.2.1Z" fill="#a4a9ad"/><path d="M65,91c.1-.1,0-.1-.2-.1h-.4c-.1.1,0,.1.2.1Z" fill="#a4a9ad"/><path d="M65.9,91c.1-.1,0-.1-.2-.1h-.4c-.1.1,0,.1.2.1Z" fill="#a4a9ad"/><path d="M66.9,91c.1-.1,0-.1-.2-.1h-.4c-.1.1,0,.1.2.1Z" fill="#a4a9ad"/><path d="M67.9,91c.1-.1,0-.1-.2-.1h-.4c-.1.1,0,.1.2.1Z" fill="#a4a9ad"/><path d="M62.7,91.4c.1-.1,0-.1-.2-.1H62c-.1.1,0,.1.2.1Z" fill="#a4a9ad"/><path d="M63.7,91.4c.1-.1,0-.1-.2-.1H63c-.1.1,0,.1.2.1Z" fill="#a4a9ad"/><path d="M64.7,91.4c.1-.1,0-.1-.2-.1H64c-.1.1,0,.1.2.1Z" fill="#a4a9ad"/><path d="M65.7,91.4c.1-.1,0-.1-.2-.1H65c-.1.1,0,.1.2.1Z" fill="#a4a9ad"/><path d="M66.7,91.4c.1-.1,0-.1-.2-.1H66c-.1.1,0,.1.2.1Z" fill="#a4a9ad"/><path d="M67.6,91.4c.1-.1,0-.1-.2-.1H67c-.1.1,0,.1.2.1Z" fill="#a4a9ad"/><path d="M62.3,91.8c.1-.1,0-.1-.2-.1h-.4c-.1.1,0,.1.2.1Z" fill="#a4a9ad"/><path d="M63.3,91.8c.1-.1,0-.1-.2-.1h-.4c-.1.1,0,.1.2.1Z" fill="#a4a9ad"/><path d="M64.4,91.8c.1-.1,0-.1-.2-.1h-.4c-.1.1,0,.1.2.1Z" fill="#a4a9ad"/><path d="M65.4,91.8c.1-.1,0-.1-.2-.1h-.4c-.1.1,0,.1.2.1Z" fill="#a4a9ad"/><path d="M66.4,91.8c.1-.1,0-.1-.2-.1h-.4c-.1.1,0,.1.2.1Z" fill="#a4a9ad"/><path d="M67.4,91.8c.1-.1,0-.1-.2-.1h-.4c-.1.1,0,.1.2.1Z" fill="#a4a9ad"/><path d="M62,92.2c.1-.1,0-.1-.2-.1h-.4c-.1.1,0,.1.2.1Z" fill="#a4a9ad"/><path d="M63,92.2c.1-.1,0-.1-.2-.1h-.4c-.1.1,0,.1.2.1Z" fill="#a4a9ad"/><path d="M64.1,92.2c.1-.1,0-.1-.2-.1h-.4c-.1.1,0,.1.2.1Z" fill="#a4a9ad"/><path d="M65.1,92.2c.1-.1,0-.1-.2-.1h-.4c-.1.1,0,.1.2.1Z" fill="#a4a9ad"/><path d="M66.1,92.2c.1-.1,0-.1-.2-.1h-.4c-.1.1,0,.1.2.1Z" fill="#a4a9ad"/><path d="M67.1,92.2c.1-.1,0-.1-.2-.1h-.4c-.1.1,0,.1.2.1Z" fill="#a4a9ad"/><path d="M61.7,92.6c.1-.1,0-.1-.2-.1h-.4c-.1.1,0,.1.2.1Z" fill="#a4a9ad"/><path d="M62.7,92.6c.1-.1,0-.1-.2-.1h-.4c-.1.1,0,.1.2.1Z" fill="#a4a9ad"/><path d="M63.8,92.6c.1-.1,0-.1-.2-.1h-.4c-.1.1,0,.1.2.1Z" fill="#a4a9ad"/><path d="M64.8,92.6c.1-.1,0-.1-.2-.1h-.4c-.1.1,0,.1.2.1Z" fill="#a4a9ad"/><path d="M65.8,92.6c.1-.1,0-.1-.2-.1h-.4c-.1.1,0,.1.2.1Z" fill="#a4a9ad"/><path d="M66.8,92.6c.1-.1,0-.1-.2-.1h-.4c-.1.1,0,.1.2.1Z" fill="#a4a9ad"/><path d="M61.4,93c.1-.1,0-.1-.2-.1h-.4c-.1.1,0,.1.2.1Z" fill="#a4a9ad"/><path d="M62.4,93c.1-.1,0-.1-.2-.1h-.4c-.1.1,0,.1.2.1Z" fill="#a4a9ad"/><path d="M63.5,93c.1-.1,0-.1-.2-.1h-.4c-.1.1,0,.1.2.1Z" fill="#a4a9ad"/><path d="M64.5,93c.1-.1,0-.1-.2-.1h-.4c-.1.1,0,.1.2.1Z" fill="#a4a9ad"/><path d="M65.5,93c.1-.1,0-.1-.2-.1h-.4c-.1.1,0,.1.2.1Z" fill="#a4a9ad"/><path d="M66.5,93c.1-.1,0-.1-.2-.1h-.4c-.1.1,0,.1.2.1Z" fill="#a4a9ad"/><path d="M61.1,93.4c.1-.1,0-.1-.2-.1h-.4c-.1.1,0,.1.2.1Z" fill="#a4a9ad"/><path d="M62.1,93.4c.1-.1,0-.1-.2-.1h-.4c-.1.1,0,.1.2.1Z" fill="#a4a9ad"/><path d="M63.2,93.4c.1-.1,0-.1-.2-.1h-.4c-.1.1,0,.1.2.1Z" fill="#a4a9ad"/><path d="M64.2,93.4c.1-.1,0-.1-.2-.1h-.4c-.1.1,0,.1.2.1Z" fill="#a4a9ad"/><path d="M65.2,93.4c.1-.1,0-.1-.2-.1h-.4c-.1.1,0,.1.2.1Z" fill="#a4a9ad"/><path d="M66.3,93.4c.1-.1,0-.1-.2-.1h-.4c-.1.1,0,.1.2.1Z" fill="#a4a9ad"/><path d="M60.8,93.8c.1-.1,0-.1-.2-.1h-.4c-.1.1,0,.1.2.1Z" fill="#a4a9ad"/><path d="M61.8,93.8c.1-.1,0-.1-.2-.1h-.4c-.1.1,0,.1.2.1Z" fill="#a4a9ad"/><path d="M62.9,93.8c.1-.1,0-.1-.2-.1h-.4c-.1.1,0,.1.2.1Z" fill="#a4a9ad"/><path d="M63.9,93.8c.1-.1,0-.1-.2-.1h-.4c-.1.1,0,.1.2.1Z" fill="#a4a9ad"/><path d="M64.9,93.8c.1-.1,0-.1-.2-.1h-.4c-.1.1,0,.1.2.1Z" fill="#a4a9ad"/><path d="M66,93.8c.1-.1,0-.1-.2-.1h-.4c-.1.1,0,.1.2.1Z" fill="#a4a9ad"/><path d="M60.4,94.1c.1-.1,0-.1-.2-.1h-.4c-.1.1,0,.1.2.1Z" fill="#a4a9ad"/><path d="M61.5,94.1c.1-.1,0-.1-.2-.1h-.4c-.1.1,0,.1.2.1Z" fill="#a4a9ad"/><path d="M62.6,94.1c.1-.1,0-.1-.2-.1h-.4c-.1.1,0,.1.2.1Z" fill="#a4a9ad"/><path d="M63.6,94.1c.1-.1,0-.1-.2-.1H63c-.1.1,0,.1.2.1Z" fill="#a4a9ad"/><path d="M64.7,94.1c.1-.1,0-.1-.2-.1H64c-.1.1,0,.1.2.1Z" fill="#a4a9ad"/><path d="M65.7,94.1c.1-.1,0-.1-.2-.1h-.4c-.1.1,0,.1.2.1Z" fill="#a4a9ad"/><path d="M60.1,94.5c.1-.1,0-.1-.2-.1h-.4c-.1.1,0,.1.2.1Z" fill="#a4a9ad"/><path d="M61.2,94.5c.1-.1,0-.1-.2-.1h-.4c-.1.1,0,.1.2.1Z" fill="#a4a9ad"/><path d="M62.3,94.5c.1-.1,0-.1-.2-.1h-.4c-.1.1,0,.1.2.1Z" fill="#a4a9ad"/><path d="M63.3,94.5c.1-.1,0-.1-.2-.1h-.4c-.1.1,0,.1.2.1Z" fill="#a4a9ad"/><path d="M64.4,94.5c.1-.1,0-.1-.2-.1h-.4c-.1.1,0,.1.2.1Z" fill="#a4a9ad"/><path d="M65.4,94.5c.1-.1-.1-.1-.2-.1h-.4c-.1.1,0,.1.2.1Z" fill="#a4a9ad"/><path d="M59.8,94.9c.1-.1,0-.1-.2-.1h-.4c-.1.1,0,.1.2.1Z" fill="#a4a9ad"/><path d="M60.9,94.9c.1-.1,0-.1-.2-.1h-.4c-.1.1,0,.1.2.1Z" fill="#a4a9ad"/><path d="M62,94.9c.1-.1,0-.1-.2-.1h-.4c-.1.1,0,.1.2.1Z" fill="#a4a9ad"/><path d="M63,94.9c.1-.1,0-.1-.2-.1h-.4c-.1.1,0,.1.2.1Z" fill="#a4a9ad"/><path d="M64.1,94.9c.1-.1,0-.1-.2-.1h-.4c-.1.1,0,.1.2.1Z" fill="#a4a9ad"/><path d="M65.2,94.9c.1-.1-.1-.1-.2-.1h-.4c-.1.1.1.1.2.1Z" fill="#a4a9ad"/><path d="M59.5,95.3c.1-.1,0-.1-.2-.1h-.5c-.1.1,0,.1.2.1Z" fill="#a4a9ad"/><path d="M60.6,95.3c.1-.1,0-.1-.2-.1h-.4c-.1.1,0,.1.2.1Z" fill="#a4a9ad"/><path d="M61.7,95.3c.1-.1,0-.1-.2-.1H61c-.1.1,0,.1.2.1Z" fill="#a4a9ad"/><path d="M62.7,95.3c.1-.1,0-.1-.2-.1h-.4c-.1.1,0,.1.2.1Z" fill="#a4a9ad"/><path d="M63.8,95.3c.1-.1,0-.1-.2-.1h-.4c-.1.1,0,.1.2.1Z" fill="#a4a9ad"/><path d="M64.9,95.3c.1-.1-.1-.1-.2-.1h-.4c-.1.1.1.1.2.1Z" fill="#a4a9ad"/><path d="M59.2,95.7c.1-.1,0-.1-.2-.1h-.5c-.1.1,0,.1.2.1Z" fill="#a4a9ad"/><path d="M60.3,95.7c.1-.1,0-.1-.2-.1h-.5c-.1.1,0,.1.2.1Z" fill="#a4a9ad"/><path d="M61.4,95.7c.1-.1,0-.1-.2-.1h-.4c-.1.1,0,.1.2.1Z" fill="#a4a9ad"/><path d="M62.4,95.7c.1-.1,0-.1-.2-.1h-.4c-.1.1,0,.1.2.1Z" fill="#a4a9ad"/><path d="M63.5,95.7c.1-.1-.1-.1-.2-.1h-.4c-.1.1,0,.1.2.1Z" fill="#a4a9ad"/><path d="M64.6,95.7c.1-.1-.1-.1-.2-.1h-.4c-.1.1.1.1.2.1Z" fill="#a4a9ad"/><path d="M130.7,87.5h-.4c-.2,0-.2.1-.2.1h.4C130.6,87.7,130.7,87.6,130.7,87.5Z" fill="#a4a9ad"/><path d="M131.6,87.5h-.4c-.2,0-.2.1-.2.1h.4C131.5,87.7,131.6,87.6,131.6,87.5Z" fill="#a4a9ad"/><path d="M132.5,87.5h-.4c-.2,0-.2.1-.2.1h.4C132.5,87.7,132.5,87.6,132.5,87.5Z" fill="#a4a9ad"/><path d="M133.4,87.5H133c-.2,0-.2.1-.2.1h.4C133.4,87.7,133.5,87.6,133.4,87.5Z" fill="#a4a9ad"/><path d="M134.3,87.5h-.4c-.2,0-.2.1-.2.1h.4C134.3,87.7,134.4,87.6,134.3,87.5Z" fill="#a4a9ad"/><path d="M135.2,87.5h-.4c-.2,0-.2.1-.2.1h.4C135.2,87.7,135.3,87.6,135.2,87.5Z" fill="#a4a9ad"/><path d="M130.9,87.9h-.4c-.2,0-.2.1-.2.1h.4C130.9,88.1,131,88,130.9,87.9Z" fill="#a4a9ad"/><path d="M131.8,87.9h-.4c-.2,0-.2.1-.2.1h.4C131.8,88.1,131.9,88,131.8,87.9Z" fill="#a4a9ad"/><path d="M132.8,87.9h-.4c-.2,0-.2.1-.2.1h.4C132.7,88.1,132.8,88,132.8,87.9Z" fill="#a4a9ad"/><path d="M133.7,87.9h-.4c-.2,0-.2.1-.2.1h.4C133.7,88.1,133.7,88,133.7,87.9Z" fill="#a4a9ad"/><path d="M134.6,87.9h-.4c-.2,0-.2.1-.2.1h.4C134.6,88.1,134.7,88,134.6,87.9Z" fill="#a4a9ad"/><path d="M135.5,87.9h-.4c-.2,0-.2.1-.2.1h.4C135.5,88.1,135.6,88,135.5,87.9Z" fill="#a4a9ad"/><path d="M131.2,88.3h-.4c-.2,0-.3.1-.2.1h.4C131.1,88.4,131.2,88.4,131.2,88.3Z" fill="#a4a9ad"/><path d="M132.1,88.3h-.4c-.2,0-.2.1-.2.1h.4C132.1,88.4,132.1,88.4,132.1,88.3Z" fill="#a4a9ad"/><path d="M133,88.3h-.4c-.2,0-.2.1-.2.1h.4C133,88.4,133.1,88.4,133,88.3Z" fill="#a4a9ad"/><path d="M134,88.3h-.4c-.2,0-.2.1-.2.1h.4C133.9,88.4,134,88.4,134,88.3Z" fill="#a4a9ad"/><path d="M134.9,88.3h-.4c-.2,0-.2.1-.2.1h.4C134.9,88.4,135,88.4,134.9,88.3Z" fill="#a4a9ad"/><path d="M135.8,88.3h-.4c-.2,0-.2.1-.2.1h.4C135.8,88.4,135.9,88.4,135.8,88.3Z" fill="#a4a9ad"/><path d="M131.4,88.7H131c-.2,0-.3.1-.2.1h.4C131.4,88.8,131.5,88.8,131.4,88.7Z" fill="#a4a9ad"/><path d="M132.4,88.7H132c-.2,0-.3.1-.2.1h.4C132.3,88.8,132.4,88.8,132.4,88.7Z" fill="#a4a9ad"/><path d="M133.3,88.7h-.4c-.2,0-.3.1-.2.1h.4C133.3,88.8,133.4,88.8,133.3,88.7Z" fill="#a4a9ad"/><path d="M134.2,88.7h-.4c-.2,0-.2.1-.2.1h.4C134.2,88.8,134.3,88.8,134.2,88.7Z" fill="#a4a9ad"/><path d="M135.2,88.7h-.4c-.2,0-.2.1-.2.1h.4C135.2,88.8,135.2,88.8,135.2,88.7Z" fill="#a4a9ad"/><path d="M136.1,88.7h-.4c-.2,0-.2.1-.2.1h.4C136.1,88.8,136.2,88.8,136.1,88.7Z" fill="#a4a9ad"/><path d="M131.7,89.1h-.4c-.2,0-.3.1-.2.1h.4C131.6,89.2,131.7,89.2,131.7,89.1Z" fill="#a4a9ad"/><path d="M132.6,89.1h-.4c-.2,0-.3.1-.2.1h.4C132.6,89.2,132.7,89.2,132.6,89.1Z" fill="#a4a9ad"/><path d="M133.6,89.1h-.4c-.2,0-.3.1-.2.1h.4C133.5,89.2,133.6,89.2,133.6,89.1Z" fill="#a4a9ad"/><path d="M134.5,89.1h-.4c-.2,0-.3.1-.2.1h.4C134.5,89.2,134.6,89.2,134.5,89.1Z" fill="#a4a9ad"/><path d="M135.5,89.1h-.4c-.2,0-.3.1-.2.1h.4C135.4,89.2,135.5,89.2,135.5,89.1Z" fill="#a4a9ad"/><path d="M136.4,89.1H136c-.2,0-.2.1-.2.1h.4C136.4,89.2,136.5,89.2,136.4,89.1Z" fill="#a4a9ad"/><path d="M131.9,89.5h-.4c-.2,0-.3.1-.2.1h.4C131.9,89.6,132,89.5,131.9,89.5Z" fill="#a4a9ad"/><path d="M132.9,89.5h-.4c-.2,0-.3.1-.2.1h.4C132.8,89.6,132.9,89.5,132.9,89.5Z" fill="#a4a9ad"/><path d="M133.8,89.5h-.4c-.2,0-.3.1-.2.1h.4C133.8,89.6,133.9,89.5,133.8,89.5Z" fill="#a4a9ad"/><path d="M134.8,89.5h-.4c-.2,0-.3.1-.2.1h.4C134.8,89.6,134.9,89.5,134.8,89.5Z" fill="#a4a9ad"/><path d="M135.8,89.5h-.4c-.2,0-.3.1-.2.1h.4C135.7,89.6,135.8,89.5,135.8,89.5Z" fill="#a4a9ad"/><path d="M136.7,89.5h-.4c-.2,0-.3.1-.2.1h.4C136.7,89.6,136.8,89.5,136.7,89.5Z" fill="#a4a9ad"/><path d="M132.2,89.9h-.4c-.2,0-.3.1-.2.1h.4C132.1,90,132.2,89.9,132.2,89.9Z" fill="#a4a9ad"/><path d="M133.2,89.9h-.4c-.2,0-.3.1-.2.1h.4C133.1,90,133.2,89.9,133.2,89.9Z" fill="#a4a9ad"/><path d="M134.1,89.9h-.4c-.2,0-.3.1-.2.1h.4C134.1,90,134.2,89.9,134.1,89.9Z" fill="#a4a9ad"/><path d="M135.1,89.9h-.4c-.2,0-.3.1-.2.1h.4C135.1,90,135.1,89.9,135.1,89.9Z" fill="#a4a9ad"/><path d="M136.1,89.9h-.4c-.2,0-.3.1-.2.1h.4C136,90,136.1,89.9,136.1,89.9Z" fill="#a4a9ad"/><path d="M137,89.9h-.4c-.2,0-.3.1-.2.1h.4C137,90,137.1,89.9,137,89.9Z" fill="#a4a9ad"/><path d="M132.4,90.2H132c-.2,0-.3.1-.2.1h.4C132.4,90.4,132.5,90.3,132.4,90.2Z" fill="#a4a9ad"/><path d="M133.4,90.2H133c-.2,0-.3.1-.2.1h.4C133.4,90.4,133.5,90.3,133.4,90.2Z" fill="#a4a9ad"/><path d="M134.4,90.2H134c-.2,0-.3.1-.2.1h.4C134.4,90.4,134.4,90.3,134.4,90.2Z" fill="#a4a9ad"/><path d="M135.4,90.2H135c-.2,0-.3.1-.2.1h.4C135.3,90.4,135.4,90.3,135.4,90.2Z" fill="#a4a9ad"/><path d="M136.3,90.2h-.4c-.2,0-.3.1-.2.1h.4C136.3,90.4,136.4,90.3,136.3,90.2Z" fill="#a4a9ad"/><path d="M137.3,90.2h-.4c-.2,0-.3.1-.2.1h.4C137.3,90.4,137.4,90.3,137.3,90.2Z" fill="#a4a9ad"/><path d="M132.7,90.6h-.4c-.2,0-.3.1-.2.1h.4C132.7,90.8,132.8,90.7,132.7,90.6Z" fill="#a4a9ad"/><path d="M133.7,90.6h-.4c-.2,0-.3.1-.2.1h.4C133.6,90.8,133.7,90.7,133.7,90.6Z" fill="#a4a9ad"/><path d="M134.7,90.6h-.4c-.2,0-.3.1-.2.1h.4C134.6,90.8,134.7,90.7,134.7,90.6Z" fill="#a4a9ad"/><path d="M135.6,90.6h-.4c-.2,0-.3.1-.2.1h.4C135.6,90.8,135.7,90.7,135.6,90.6Z" fill="#a4a9ad"/><path d="M136.6,90.6h-.4c-.2,0-.3.1-.2.1h.4C136.6,90.8,136.7,90.7,136.6,90.6Z" fill="#a4a9ad"/><path d="M137.6,90.6h-.4c-.2,0-.3.1-.2.1h.4C137.6,90.8,137.7,90.7,137.6,90.6Z" fill="#a4a9ad"/><path d="M133,91h-.4c-.2,0-.3.1-.2.1h.4C132.9,91.2,133,91.1,133,91Z" fill="#a4a9ad"/><path d="M133.9,91h-.4c-.2,0-.3.1-.2.1h.4C133.9,91.2,134,91.1,133.9,91Z" fill="#a4a9ad"/><path d="M134.9,91h-.4c-.2,0-.3.1-.2.1h.4C134.9,91.2,135,91.1,134.9,91Z" fill="#a4a9ad"/><path d="M135.9,91h-.4c-.2,0-.3.1-.2.1h.4C135.9,91.2,136,91.1,135.9,91Z" fill="#a4a9ad"/><path d="M136.9,91h-.4c-.2,0-.3.1-.2.1h.4C136.9,91.2,137,91.1,136.9,91Z" fill="#a4a9ad"/><path d="M137.9,91h-.4c-.2,0-.3.1-.2.1h.4C137.9,91.2,138,91.1,137.9,91Z" fill="#a4a9ad"/><path d="M133.2,91.4h-.4c-.2,0-.3.1-.2.1h.4C133.2,91.6,133.3,91.5,133.2,91.4Z" fill="#a4a9ad"/><path d="M134.2,91.4h-.4c-.2,0-.3.1-.2.1h.4C134.2,91.6,134.3,91.5,134.2,91.4Z" fill="#a4a9ad"/><path d="M135.2,91.4h-.4c-.2,0-.3.1-.2.1h.4C135.2,91.6,135.3,91.5,135.2,91.4Z" fill="#a4a9ad"/><path d="M136.2,91.4h-.4c-.2,0-.3.1-.2.1h.4C136.2,91.6,136.3,91.5,136.2,91.4Z" fill="#a4a9ad"/><path d="M137.2,91.4h-.4c-.2,0-.3.1-.2.1h.4C137.2,91.6,137.3,91.5,137.2,91.4Z" fill="#a4a9ad"/><path d="M138.2,91.4h-.4c-.2,0-.3.1-.2.1h.4C138.2,91.6,138.3,91.5,138.2,91.4Z" fill="#a4a9ad"/><path d="M133.5,91.8h-.4c-.2,0-.3.1-.2.1h.4C133.4,91.9,133.5,91.9,133.5,91.8Z" fill="#a4a9ad"/><path d="M134.5,91.8h-.4c-.2,0-.3.1-.2.1h.4C134.4,91.9,134.5,91.9,134.5,91.8Z" fill="#a4a9ad"/><path d="M135.5,91.8h-.4c-.2,0-.3.1-.2.1h.4C135.4,91.9,135.5,91.9,135.5,91.8Z" fill="#a4a9ad"/><path d="M136.5,91.8h-.4c-.2,0-.3.1-.2.1h.4C136.4,91.9,136.5,91.9,136.5,91.8Z" fill="#a4a9ad"/><path d="M137.5,91.8h-.4c-.2,0-.3.1-.2.1h.4C137.5,91.9,137.6,91.9,137.5,91.8Z" fill="#a4a9ad"/><path d="M138.5,91.8h-.4c-.2,0-.3.1-.2.1h.4C138.5,91.9,138.6,91.9,138.5,91.8Z" fill="#a4a9ad"/><path d="M133.7,92.2h-.4c-.2,0-.3.1-.2.1h.4C133.7,92.3,133.8,92.3,133.7,92.2Z" fill="#a4a9ad"/><path d="M134.7,92.2h-.4c-.2,0-.3.1-.2.1h.4C134.7,92.3,134.8,92.3,134.7,92.2Z" fill="#a4a9ad"/><path d="M135.8,92.2h-.4c-.2,0-.3.1-.2.1h.4C135.7,92.3,135.8,92.3,135.8,92.2Z" fill="#a4a9ad"/><path d="M136.8,92.2h-.4c-.2,0-.3.1-.2.1h.4C136.7,92.3,136.8,92.3,136.8,92.2Z" fill="#a4a9ad"/><path d="M137.8,92.2h-.4c-.2,0-.3.1-.2.1h.4C137.7,92.3,137.8,92.3,137.8,92.2Z" fill="#a4a9ad"/><path d="M138.8,92.2h-.4c-.2,0-.3.1-.2.1h.4C138.8,92.3,138.9,92.3,138.8,92.2Z" fill="#a4a9ad"/><path d="M134,92.6h-.4c-.2,0-.3.1-.2.1h.4C133.9,92.7,134,92.7,134,92.6Z" fill="#a4a9ad"/><path d="M135,92.6h-.4c-.2,0-.3.1-.2.1h.4C135,92.7,135.1,92.7,135,92.6Z" fill="#a4a9ad"/><path d="M136,92.6h-.4c-.2,0-.3.1-.2.1h.4C136,92.7,136.1,92.7,136,92.6Z" fill="#a4a9ad"/><path d="M137,92.6h-.4c-.2,0-.3.1-.2.1h.4C137,92.7,137.1,92.7,137,92.6Z" fill="#a4a9ad"/><path d="M138.1,92.6h-.4c-.2,0-.3.1-.2.1h.4C138,92.7,138.1,92.7,138.1,92.6Z" fill="#a4a9ad"/><path d="M139.1,92.6h-.4c-.2,0-.3.1-.2.1h.4C139.1,92.7,139.2,92.7,139.1,92.6Z" fill="#a4a9ad"/><path d="M134.2,93h-.4c-.2,0-.3.1-.2.1h.4C134.2,93.1,134.3,93.1,134.2,93Z" fill="#a4a9ad"/><path d="M135.3,93h-.4c-.2,0-.3.1-.2.1h.4C135.2,93.1,135.3,93.1,135.3,93Z" fill="#a4a9ad"/><path d="M136.3,93h-.4c-.2,0-.3.1-.2.1h.4C136.3,93.1,136.4,93.1,136.3,93Z" fill="#a4a9ad"/><path d="M137.3,93h-.4c-.2,0-.3.1-.2.1h.4C137.3,93.1,137.4,93.1,137.3,93Z" fill="#a4a9ad"/><path d="M138.4,93h-.4c-.2,0-.3.1-.2.1h.4C138.3,93.1,138.4,93.1,138.4,93Z" fill="#a4a9ad"/><path d="M139.4,93H139c-.2,0-.3.1-.2.1h.4C139.4,93.1,139.4,93.1,139.4,93Z" fill="#a4a9ad"/><path d="M134.5,93.4h-.4c-.2,0-.3.1-.2.1h.4C134.4,93.5,134.5,93.4,134.5,93.4Z" fill="#a4a9ad"/><path d="M135.5,93.4h-.4c-.2,0-.3.1-.2.1h.4C135.5,93.5,135.6,93.4,135.5,93.4Z" fill="#a4a9ad"/><path d="M136.6,93.4h-.4c-.2,0-.3.1-.2.1h.4C136.5,93.5,136.6,93.4,136.6,93.4Z" fill="#a4a9ad"/><path d="M137.6,93.4h-.4c-.2,0-.3.1-.2.1h.4C137.6,93.5,137.7,93.4,137.6,93.4Z" fill="#a4a9ad"/><path d="M138.6,93.4h-.4c-.2,0-.3.1-.2.1h.4C138.6,93.5,138.7,93.4,138.6,93.4Z" fill="#a4a9ad"/><path d="M139.7,93.4h-.4c-.2,0-.3.1-.2.1h.4C139.6,93.5,139.7,93.4,139.7,93.4Z" fill="#a4a9ad"/><path d="M134.7,93.8h-.4c-.2,0-.3.1-.2.1h.4C134.7,93.9,134.8,93.8,134.7,93.8Z" fill="#a4a9ad"/><path d="M135.8,93.8h-.4c-.2,0-.3.1-.2.1h.4C135.7,93.9,135.8,93.8,135.8,93.8Z" fill="#a4a9ad"/><path d="M136.8,93.8h-.4c-.2,0-.3.1-.2.1h.4C136.8,93.9,136.9,93.8,136.8,93.8Z" fill="#a4a9ad"/><path d="M137.9,93.8h-.4c-.2,0-.3.1-.2.1h.4C137.8,93.9,137.9,93.8,137.9,93.8Z" fill="#a4a9ad"/><path d="M138.9,93.8h-.4c-.2,0-.3.1-.2.1h.4C138.9,93.9,139,93.8,138.9,93.8Z" fill="#a4a9ad"/><path d="M140,93.8h-.4c-.2,0-.3.1-.2.1h.4C139.9,93.9,140,93.8,140,93.8Z" fill="#a4a9ad"/><path d="M135,94.1h-.4c-.2,0-.3.1-.2.1h.4C134.9,94.3,135.1,94.2,135,94.1Z" fill="#a4a9ad"/><path d="M136.1,94.1h-.4c-.2,0-.3.1-.2.1h.4C136,94.3,136.1,94.2,136.1,94.1Z" fill="#a4a9ad"/><path d="M137.1,94.1h-.4c-.2,0-.3.1-.2.1h.4C137.1,94.3,137.2,94.2,137.1,94.1Z" fill="#a4a9ad"/><path d="M138.2,94.1h-.4c-.2,0-.3.1-.2.1h.4C138.1,94.3,138.2,94.2,138.2,94.1Z" fill="#a4a9ad"/><path d="M139.2,94.1h-.4c-.2,0-.3.1-.2.1h.4C139.2,94.3,139.3,94.2,139.2,94.1Z" fill="#a4a9ad"/><path d="M140.3,94.1h-.4c-.2,0-.3.1-.2.1h.4C140.2,94.3,140.3,94.2,140.3,94.1Z" fill="#a4a9ad"/><path d="M135.3,94.5h-.4c-.2,0-.3.1-.2.1h.4C135.2,94.7,135.3,94.6,135.3,94.5Z" fill="#a4a9ad"/><path d="M136.3,94.5h-.4c-.2,0-.3.1-.2.1h.4C136.3,94.7,136.4,94.6,136.3,94.5Z" fill="#a4a9ad"/><path d="M137.4,94.5H137c-.2,0-.3.1-.2.1h.4C137.3,94.7,137.4,94.6,137.4,94.5Z" fill="#a4a9ad"/><path d="M138.5,94.5H138c-.2,0-.3.1-.2.1h.4C138.4,94.7,138.5,94.6,138.5,94.5Z" fill="#a4a9ad"/><path d="M139.5,94.5h-.4c-.2,0-.3.1-.2.1h.4C139.5,94.7,139.6,94.6,139.5,94.5Z" fill="#a4a9ad"/><path d="M140.6,94.5h-.4c-.2,0-.3.1-.2.1h.4C140.5,94.7,140.6,94.6,140.6,94.5Z" fill="#a4a9ad"/><path d="M135.5,94.9h-.4c-.2,0-.3.1-.2.1h.4C135.5,95.1,135.6,95,135.5,94.9Z" fill="#a4a9ad"/><path d="M136.6,94.9h-.4c-.2,0-.3.1-.2.1h.4C136.5,95.1,136.6,95,136.6,94.9Z" fill="#a4a9ad"/><path d="M137.7,94.9h-.4c-.2,0-.3.1-.2.1h.4C137.6,95.1,137.7,95,137.7,94.9Z" fill="#a4a9ad"/><path d="M138.7,94.9h-.4c-.2,0-.3.1-.2.1h.4C138.7,95.1,138.8,95,138.7,94.9Z" fill="#a4a9ad"/><path d="M139.8,94.9h-.4c-.2,0-.3.1-.2.1h.4C139.8,95.1,139.9,95,139.8,94.9Z" fill="#a4a9ad"/><path d="M140.9,94.9h-.4c-.2,0-.3.1-.2.1h.4C140.8,95.1,140.9,95,140.9,94.9Z" fill="#a4a9ad"/><path d="M135.8,95.3h-.4c-.2,0-.3.1-.2.1h.4C135.7,95.4,135.8,95.4,135.8,95.3Z" fill="#a4a9ad"/><path d="M136.9,95.3h-.4c-.2,0-.3.1-.2.1h.4C136.8,95.4,136.9,95.4,136.9,95.3Z" fill="#a4a9ad"/><path d="M137.9,95.3h-.4c-.2,0-.3.1-.2.1h.4C137.9,95.4,138,95.4,137.9,95.3Z" fill="#a4a9ad"/><path d="M139,95.3h-.4c-.2,0-.3.1-.2.1h.4C139,95.4,139.1,95.4,139,95.3Z" fill="#a4a9ad"/><path d="M140.1,95.3h-.4c-.2,0-.3.1-.2.1h.4C140,95.4,140.1,95.4,140.1,95.3Z" fill="#a4a9ad"/><path d="M141.2,95.3h-.4c-.2,0-.3.1-.2.1h.4C141.1,95.4,141.2,95.4,141.2,95.3Z" fill="#a4a9ad"/><path d="M136,95.7h-.4c-.2,0-.3.1-.2.1h.4C136,95.8,136.1,95.8,136,95.7Z" fill="#a4a9ad"/><path d="M137.1,95.7h-.4c-.2,0-.3.1-.2.1h.4C137.1,95.8,137.2,95.8,137.1,95.7Z" fill="#a4a9ad"/><path d="M138.2,95.7h-.4c-.2,0-.3.1-.2.1h.4C138.1,95.8,138.3,95.8,138.2,95.7Z" fill="#a4a9ad"/><path d="M139.3,95.7h-.4c-.2,0-.3.1-.2.1h.4C139.2,95.8,139.3,95.8,139.3,95.7Z" fill="#a4a9ad"/><path d="M140.4,95.7h-.4c-.2,0-.3.1-.2.1h.4C140.3,95.8,140.4,95.8,140.4,95.7Z" fill="#a4a9ad"/><path d="M141.5,95.7H141c-.2,0-.3.1-.2.1h.4C141.4,95.8,141.5,95.8,141.5,95.7Z" fill="#a4a9ad"/><path d="M75.5,88.4H72.8c-.3,0-.4-.1-.4-.2l.2-.3a.9.9,0,0,1,.7-.2h2.6c.3,0,.4.1.4.2l-.2.3A.8.8,0,0,1,75.5,88.4Z" fill="#1d1f29"/><path d="M79.5,88.4H76.8c-.3,0-.4-.1-.4-.2l.2-.3a.8.8,0,0,1,.6-.2h2.6c.3,0,.4.1.4.2v.3A.8.8,0,0,1,79.5,88.4Z" fill="#1d1f29"/><path d="M83.5,88.4H80.9c-.3,0-.5-.1-.4-.2v-.3a.7.7,0,0,1,.6-.2h2.6c.3,0,.5.1.4.2v.3C84,88.3,83.8,88.4,83.5,88.4Z" fill="#1d1f29"/><path d="M87.5,88.4H84.9c-.3,0-.5-.1-.4-.2v-.3c.1-.1.3-.2.6-.2h2.6c.3,0,.5.1.4.2v.3C88,88.3,87.8,88.4,87.5,88.4Z" fill="#1d1f29"/><path d="M91.5,88.4H88.9c-.3,0-.5-.1-.4-.2v-.3c0-.1.3-.2.6-.2h2.6c.3,0,.5.1.4.2v.3C92.1,88.3,91.8,88.4,91.5,88.4Z" fill="#1d1f29"/><path d="M95.5,88.4H92.9c-.3,0-.5-.1-.5-.2v-.3c0-.1.3-.2.5-.2h2.6c.3,0,.5.1.5.2v.3C96.1,88.3,95.8,88.4,95.5,88.4Z" fill="#1d1f29"/><path d="M99.6,88.4H96.9c-.3,0-.5-.1-.5-.2v-.3c0-.1.3-.2.5-.2h2.6c.3,0,.5.1.5.2v.3C100.1,88.3,99.8,88.4,99.6,88.4Z" fill="#1d1f29"/><path d="M103.6,88.4h-2.6c-.3,0-.5-.1-.5-.2v-.3c0-.1.2-.2.5-.2h2.6c.3,0,.5.1.5.2v.3C104.1,88.3,103.9,88.4,103.6,88.4Z" fill="#1d1f29"/><path d="M107.6,88.4H105c-.3,0-.5-.1-.5-.2v-.3c0-.1.2-.2.5-.2h2.6c.3,0,.5.1.5.2v.3C108.1,88.3,107.9,88.4,107.6,88.4Z" fill="#1d1f29"/><path d="M111.6,88.4H109c-.3,0-.5-.1-.5-.2v-.3c0-.1.2-.2.5-.2h2.6c.3,0,.5.1.6.2v.3C112.1,88.3,111.9,88.4,111.6,88.4Z" fill="#1d1f29"/><path d="M115.6,88.4H113c-.3,0-.5-.1-.6-.2v-.3c0-.1.2-.2.4-.2h2.6c.3,0,.5.1.6.2v.3C116.1,88.3,115.9,88.4,115.6,88.4Z" fill="#1d1f29"/><path d="M119.6,88.4H117c-.3,0-.5-.1-.6-.2v-.3c0-.1.1-.2.4-.2h2.6c.3,0,.5.1.6.2v.3C120.1,88.3,119.9,88.4,119.6,88.4Z" fill="#1d1f29"/><path d="M123.7,88.4H121c-.3,0-.6-.1-.6-.2v-.3c-.1-.1.1-.2.4-.2h2.6a.8.8,0,0,1,.6.2v.3C124.1,88.3,123.9,88.4,123.7,88.4Z" fill="#1d1f29"/><path d="M127.7,88.4H125a.8.8,0,0,1-.6-.2v-.3c-.1-.1.1-.2.4-.2h2.6a.8.8,0,0,1,.6.2l.2.3C128.1,88.3,128,88.4,127.7,88.4Z" fill="#1d1f29"/><path d="M74.5,89.8H72.1c-.4,0-.6-.1-.5-.3l.4-.6a1.1,1.1,0,0,1,.8-.3h2.4c.4,0,.6.1.5.3l-.3.6A1.1,1.1,0,0,1,74.5,89.8Z" fill="#1d1f29"/><path d="M78.6,89.8H76.2c-.4,0-.6-.1-.5-.3l.3-.6a1,1,0,0,1,.8-.3h2.4c.4,0,.6.1.5.3l-.3.6A1,1,0,0,1,78.6,89.8Z" fill="#1d1f29"/><path d="M82.8,89.8H80.4c-.4,0-.6-.1-.5-.3l.3-.6a1,1,0,0,1,.8-.3h2.4c.4,0,.6.1.5.3l-.2.6C83.5,89.7,83.1,89.8,82.8,89.8Z" fill="#1d1f29"/><path d="M86.9,89.8H84.5c-.4,0-.6-.1-.5-.3l.2-.6c.1-.2.4-.3.8-.3h2.4c.4,0,.6.1.6.3l-.2.6C87.6,89.7,87.3,89.8,86.9,89.8Z" fill="#1d1f29"/><path d="M91.1,89.8H88.6c-.4,0-.6-.1-.6-.3l.2-.6c0-.2.4-.3.7-.3h2.4c.4,0,.6.1.6.3v.6C91.8,89.7,91.4,89.8,91.1,89.8Z" fill="#1d1f29"/><path d="M95.2,89.8H92.8c-.4,0-.6-.1-.6-.3v-.6c0-.2.4-.3.7-.3h2.4c.4,0,.6.1.6.3v.6C95.9,89.7,95.6,89.8,95.2,89.8Z" fill="#1d1f29"/><path d="M99.4,89.8H96.9c-.4,0-.6-.1-.6-.3v-.6c0-.2.3-.3.7-.3h2.4c.4,0,.6.1.6.3v.6C100,89.7,99.7,89.8,99.4,89.8Z" fill="#1d1f29"/><path d="M103.5,89.8h-2.4c-.4,0-.7-.1-.7-.3v-.6c0-.2.3-.3.7-.3h2.4c.4,0,.7.1.7.3v.6C104.2,89.7,103.9,89.8,103.5,89.8Z" fill="#1d1f29"/><path d="M107.6,89.8h-2.4c-.4,0-.7-.1-.7-.3v-.6c0-.2.3-.3.6-.3h2.4c.4,0,.7.1.7.3v.6C108.3,89.7,108,89.8,107.6,89.8Z" fill="#1d1f29"/><path d="M111.8,89.8h-2.4c-.4,0-.7-.1-.7-.3v-.6c0-.2.2-.3.6-.3h2.4c.4,0,.7.1.7.3v.6C112.4,89.7,112.1,89.8,111.8,89.8Z" fill="#1d1f29"/><path d="M115.9,89.8h-2.4c-.4,0-.7-.1-.7-.3v-.6c0-.2.2-.3.6-.3h2.4c.4,0,.7.1.7.3l.2.6C116.5,89.7,116.3,89.8,115.9,89.8Z" fill="#1d1f29"/><path d="M120.1,89.8h-2.4c-.4,0-.7-.1-.8-.3l-.2-.6c-.1-.2.2-.3.5-.3h2.4c.4,0,.7.1.8.3l.3.6C120.7,89.7,120.4,89.8,120.1,89.8Z" fill="#1d1f29"/><path d="M124.2,89.8h-2.4c-.4,0-.7-.1-.8-.3l-.3-.6c-.1-.2.2-.3.5-.3h2.4a1,1,0,0,1,.8.3l.3.6C124.8,89.7,124.6,89.8,124.2,89.8Z" fill="#1d1f29"/><path d="M128.3,89.8h-2.4a1,1,0,0,1-.8-.3l-.3-.6c-.1-.2.1-.3.5-.3h2.4a1.1,1.1,0,0,1,.8.3l.4.6C128.9,89.7,128.7,89.8,128.3,89.8Z" fill="#1d1f29"/><path d="M72.9,94.1H69.4c-.4,0-.7-.2-.6-.3l.4-.5a1.4,1.4,0,0,1,1-.3h3.4c.4,0,.7.2.6.3l-.3.5A1.3,1.3,0,0,1,72.9,94.1Z" fill="#1d1f29"/><path d="M77.6,94.1H74.9c-.4,0-.7-.1-.6-.3l.3-.6a1.1,1.1,0,0,1,.9-.3h2.6c.4,0,.6.1.6.3l-.3.6C78.4,94,78,94.1,77.6,94.1Z" fill="#1d1f29"/><path d="M82.1,94.1H79.4c-.4,0-.7-.1-.6-.3l.3-.6c.1-.2.5-.3.8-.3h2.6c.4,0,.7.1.6.3l-.2.6C82.9,94,82.5,94.1,82.1,94.1Z" fill="#1d1f29"/><path d="M86.6,94.1H84c-.4,0-.7-.1-.6-.3l.2-.6c.1-.2.4-.3.8-.3H87c.4,0,.7.1.6.3l-.2.6C87.4,94,87,94.1,86.6,94.1Z" fill="#1d1f29"/><path d="M91.1,94.1H88.5c-.4,0-.7-.1-.6-.3l.2-.6c0-.2.4-.3.8-.3h2.6c.4,0,.7.1.6.3v.6C91.9,94,91.5,94.1,91.1,94.1Z" fill="#1d1f29"/><path d="M95.7,94.1H93c-.4,0-.7-.1-.7-.3v-.6c0-.2.4-.3.8-.3h2.6c.4,0,.7.1.7.3v.6C96.4,94,96.1,94.1,95.7,94.1Z" fill="#1d1f29"/><path d="M100.2,94.1H97.5c-.4,0-.7-.1-.7-.3v-.6c0-.2.3-.3.7-.3h2.6c.4,0,.7.1.7.3v.6C100.9,94,100.6,94.1,100.2,94.1Z" fill="#1d1f29"/><path d="M104.7,94.1h-2.7c-.4,0-.7-.1-.7-.3v-.6c0-.2.3-.3.7-.3h2.6c.4,0,.7.1.7.3v.6C105.4,94,105.1,94.1,104.7,94.1Z" fill="#1d1f29"/><path d="M109.2,94.1h-2.7c-.4,0-.7-.1-.8-.3v-.6c0-.2.3-.3.7-.3h2.6c.4,0,.7.1.8.3v.6C109.9,94,109.6,94.1,109.2,94.1Z" fill="#1d1f29"/><path d="M113.8,94.1h-2.7c-.4,0-.7-.1-.8-.3v-.6c0-.2.3-.3.7-.3h2.6c.4,0,.7.1.8.3l.2.6C114.5,94,114.2,94.1,113.8,94.1Z" fill="#1d1f29"/><path d="M118.3,94.1h-2.7c-.4,0-.8-.1-.8-.3l-.2-.6c0-.2.2-.3.6-.3h2.6c.4,0,.8.1.8.3l.2.6C119,94,118.7,94.1,118.3,94.1Z" fill="#1d1f29"/><path d="M122.8,94.1h-2.7c-.4,0-.8-.1-.8-.3l-.2-.6c-.1-.2.2-.3.6-.3h2.6c.4,0,.8.1.8.3l.3.6C123.5,94,123.2,94.1,122.8,94.1Z" fill="#1d1f29"/><path d="M130.5,94.1h-5.6c-.5,0-1.1-.2-1.2-.4l-.2-.4c-.1-.2.2-.4.8-.4h5.5a1.6,1.6,0,0,1,1.2.4l.2.4C131.4,93.9,131.1,94.1,130.5,94.1Z" fill="#1d1f29"/><path d="M71.2,95.5H68.4c-.4,0-.7-.1-.5-.3l.4-.6a1.3,1.3,0,0,1,.9-.3h2.7c.4,0,.6.1.6.3l-.3.6A1.2,1.2,0,0,1,71.2,95.5Z" fill="#1d1f29"/><path d="M75.8,95.5H73.1c-.4,0-.7-.1-.6-.3l.3-.6a1.2,1.2,0,0,1,.9-.3h2.7c.4,0,.7.1.6.3l-.3.6C76.6,95.4,76.2,95.5,75.8,95.5Z" fill="#1d1f29"/><path d="M80.5,95.5H77.7c-.4,0-.7-.1-.6-.3l.3-.6c.1-.2.5-.3.9-.3H81c.4,0,.7.1.6.3l-.2.6C81.3,95.4,80.9,95.5,80.5,95.5Z" fill="#1d1f29"/><path d="M85.1,95.5H82.4c-.4,0-.7-.1-.6-.3l.2-.6c.1-.2.4-.3.8-.3h2.7c.4,0,.7.1.6.3l-.2.6C85.9,95.4,85.5,95.5,85.1,95.5Z" fill="#1d1f29"/><path d="M108.4,95.5H87c-.4,0-.7-.1-.6-.3l.2-.6c0-.2.4-.3.8-.3h20.9c.4,0,.7.1.7.3v.6C109.1,95.4,108.8,95.5,108.4,95.5Z" fill="#1d1f29"/><path d="M113,95.5h-2.7c-.4,0-.8-.1-.8-.3v-.6c0-.2.3-.3.7-.3h2.7c.4,0,.8.1.8.3v.6C113.7,95.4,113.4,95.5,113,95.5Z" fill="#1d1f29"/><path d="M117.7,95.5h-2.7c-.4,0-.8-.1-.8-.3v-.6c0-.2.3-.3.7-.3h2.7c.4,0,.8.1.8.3l.2.6C118.4,95.4,118.1,95.5,117.7,95.5Z" fill="#1d1f29"/><path d="M122.3,95.5h-2.7c-.4,0-.8-.1-.8-.3l-.2-.6c-.1-.2.2-.3.6-.3h2.7c.4,0,.8.1.9.3l.3.6C123,95.4,122.7,95.5,122.3,95.5Z" fill="#1d1f29"/><path d="M127,95.5h-2.7c-.4,0-.8-.1-.9-.3l-.3-.6c-.1-.2.2-.3.6-.3h2.7a1.1,1.1,0,0,1,.9.3l.3.6C127.7,95.4,127.4,95.5,127,95.5Z" fill="#1d1f29"/><path d="M131.6,95.5h-2.7a1.2,1.2,0,0,1-.9-.3l-.3-.6c-.1-.2.2-.3.6-.3h2.7a1.2,1.2,0,0,1,.9.3l.4.6C132.3,95.4,132,95.5,131.6,95.5Z" fill="#1d1f29"/><path d="M74.7,92.7H70.3c-.4,0-.6-.1-.5-.3l.4-.6a1.2,1.2,0,0,1,.9-.3h4.3c.4,0,.6.1.5.3l-.3.6A1.1,1.1,0,0,1,74.7,92.7Z" fill="#1d1f29"/><path d="M79.2,92.7H76.6c-.4,0-.6-.1-.5-.3l.3-.6a1.1,1.1,0,0,1,.8-.3h2.5c.4,0,.6.1.6.3l-.3.6C80,92.5,79.6,92.7,79.2,92.7Z" fill="#1d1f29"/><path d="M83.6,92.7H81c-.4,0-.6-.1-.6-.3l.3-.6c.1-.2.4-.3.8-.3h2.5c.4,0,.6.1.6.3l-.2.6C84.4,92.5,84,92.7,83.6,92.7Z" fill="#1d1f29"/><path d="M88,92.7H85.4c-.4,0-.7-.1-.6-.3l.2-.6c.1-.2.4-.3.8-.3h2.5c.4,0,.7.1.6.3l-.2.6C88.8,92.5,88.4,92.7,88,92.7Z" fill="#1d1f29"/><path d="M92.4,92.7H89.8c-.4,0-.7-.1-.6-.3l.2-.6c0-.2.4-.3.8-.3h2.5c.4,0,.7.1.6.3v.6C93.1,92.5,92.8,92.7,92.4,92.7Z" fill="#1d1f29"/><path d="M96.8,92.7H94.2c-.4,0-.7-.1-.7-.3v-.6c0-.2.4-.3.7-.3h2.5c.4,0,.7.1.7.3v.6C97.5,92.5,97.2,92.7,96.8,92.7Z" fill="#1d1f29"/><path d="M101.2,92.7H98.6c-.4,0-.7-.1-.7-.3v-.6c0-.2.3-.3.7-.3h2.5c.4,0,.7.1.7.3v.6C101.9,92.5,101.6,92.7,101.2,92.7Z" fill="#1d1f29"/><path d="M105.6,92.7H103c-.4,0-.7-.1-.7-.3v-.6c0-.2.3-.3.7-.3h2.5c.4,0,.7.1.7.3v.6C106.3,92.5,106,92.7,105.6,92.7Z" fill="#1d1f29"/><path d="M110,92.7h-2.6c-.4,0-.7-.1-.7-.3v-.6c0-.2.3-.3.7-.3h2.5c.4,0,.7.1.7.3v.6C110.7,92.5,110.4,92.7,110,92.7Z" fill="#1d1f29"/><path d="M114.4,92.7h-2.6c-.4,0-.7-.1-.8-.3v-.6c0-.2.3-.3.6-.3h2.5c.4,0,.7.1.8.3l.2.6C115.1,92.5,114.8,92.7,114.4,92.7Z" fill="#1d1f29"/><path d="M118.8,92.7h-2.6c-.4,0-.7-.1-.8-.3l-.2-.6c0-.2.2-.3.6-.3h2.5c.4,0,.7.1.8.3l.2.6C119.4,92.5,119.2,92.7,118.8,92.7Z" fill="#1d1f29"/><path d="M123.2,92.7h-2.6c-.4,0-.8-.1-.8-.3l-.2-.6c-.1-.2.2-.3.6-.3h2.5c.4,0,.7.1.8.3l.3.6C123.8,92.5,123.6,92.7,123.2,92.7Z" fill="#1d1f29"/><path d="M127.6,92.7h-2.6c-.4,0-.8-.1-.8-.3l-.3-.6c-.1-.2.2-.3.5-.3H127a1.1,1.1,0,0,1,.9.3l.3.6C128.3,92.5,128,92.7,127.6,92.7Z" fill="#1d1f29"/><path d="M74.5,91.3H71.2c-.4,0-.7-.2-.5-.3l.4-.5a1.3,1.3,0,0,1,1-.3h3.2c.4,0,.7.2.6.3l-.3.5A1.2,1.2,0,0,1,74.5,91.3Z" fill="#1d1f29"/><path d="M78.9,91.3H76.4c-.4,0-.6-.1-.5-.3l.3-.6a1.1,1.1,0,0,1,.8-.3h2.4c.4,0,.6.1.5.3l-.3.6C79.7,91.1,79.3,91.3,78.9,91.3Z" fill="#1d1f29"/><path d="M83.2,91.3H80.7c-.4,0-.6-.1-.5-.3l.3-.6c.1-.2.4-.3.8-.3h2.4c.4,0,.6.1.6.3l-.2.6C83.9,91.1,83.6,91.3,83.2,91.3Z" fill="#1d1f29"/><path d="M87.5,91.3H85c-.4,0-.6-.1-.6-.3l.2-.6c.1-.2.4-.3.8-.3h2.4c.4,0,.6.1.6.3l-.2.6C88.2,91.1,87.8,91.3,87.5,91.3Z" fill="#1d1f29"/><path d="M91.7,91.3H89.2c-.4,0-.6-.1-.6-.3l.2-.6c0-.2.4-.3.8-.3H92c.4,0,.6.1.6.3v.6C92.4,91.1,92.1,91.3,91.7,91.3Z" fill="#1d1f29"/><path d="M96,91.3H93.5c-.4,0-.7-.1-.6-.3v-.6c0-.2.4-.3.7-.3h2.4c.4,0,.7.1.6.3v.6C96.7,91.1,96.4,91.3,96,91.3Z" fill="#1d1f29"/><path d="M100.3,91.3H97.8c-.4,0-.7-.1-.7-.3v-.6c0-.2.3-.3.7-.3h2.4c.4,0,.7.1.7.3v.6C101,91.1,100.6,91.3,100.3,91.3Z" fill="#1d1f29"/><path d="M104.5,91.3H102c-.4,0-.7-.1-.7-.3v-.6c0-.2.3-.3.7-.3h2.4c.4,0,.7.1.7.3v.6C105.2,91.1,104.9,91.3,104.5,91.3Z" fill="#1d1f29"/><path d="M108.8,91.3h-2.5c-.4,0-.7-.1-.7-.3v-.6c0-.2.3-.3.6-.3h2.4c.4,0,.7.1.7.3v.6C109.5,91.1,109.2,91.3,108.8,91.3Z" fill="#1d1f29"/><path d="M113.1,91.3h-2.5c-.4,0-.7-.1-.7-.3v-.6c0-.2.2-.3.6-.3h2.4c.4,0,.7.1.7.3l.2.6C113.7,91.1,113.5,91.3,113.1,91.3Z" fill="#1d1f29"/><path d="M117.3,91.3h-2.5c-.4,0-.7-.1-.8-.3l-.2-.6c0-.2.2-.3.6-.3h2.4c.4,0,.7.1.8.3l.2.6C118,91.1,117.7,91.3,117.3,91.3Z" fill="#1d1f29"/><path d="M121.6,91.3h-2.5c-.4,0-.7-.1-.8-.3l-.2-.6c-.1-.2.2-.3.6-.3h2.4c.4,0,.7.1.8.3l.3.6C122.2,91.1,122,91.3,121.6,91.3Z" fill="#1d1f29"/><path d="M125.9,91.3h-2.5c-.4,0-.7-.1-.8-.3l-.3-.6c-.1-.2.2-.3.5-.3h2.4a1,1,0,0,1,.8.3l.3.6C126.5,91.1,126.3,91.3,125.9,91.3Z" fill="#1d1f29"/><path d="M129.4,91.3h-1.9l-.6-.2-.4-.8c-.1-.1.1-.2.4-.2h1.8l.6.2.5.8C129.8,91.2,129.6,91.3,129.4,91.3Z" fill="#1d1f29"/><path d="M130,92.7h-.5a1.1,1.1,0,0,1-.9-.3l-1.1-2c-.1-.2.1-.3.5-.3h.4a1.1,1.1,0,0,1,.9.3l1.2,2C130.6,92.5,130.4,92.7,130,92.7Z" fill="#1d1f29"/><rect x="91.7" y="102.7" width="16.7" height="0.4" rx="0.2" ry="0.2" fill="#a4a9ad"/><path d="M108.4,32.4a4.5,4.5,0,1,0,4.5,4.5A4.5,4.5,0,0,0,108.4,32.4Zm0,6.7a2.2,2.2,0,1,1,2.2-2.2A2.2,2.2,0,0,1,108.4,39.2Z" fill="#2aa398"/><rect x="107.1" y="31.2" width="2.6" height="2.21" fill="#2aa398"/><rect x="107.1" y="40.4" width="2.6" height="2.21" fill="#2aa398"/><rect x="103.1" y="33.5" width="2.6" height="2.21" transform="matrix(0.5, -0.87, 0.87, 0.5, 22.25, 107.76)" fill="#2aa398"/><rect x="111.1" y="38.1" width="2.6" height="2.21" transform="matrix(0.5, -0.87, 0.87, 0.5, 22.25, 117)" fill="#2aa398"/><rect x="111.1" y="33.5" width="2.6" height="2.21" transform="translate(138.7 149.3) rotate(-120)" fill="#2aa398"/><rect x="103.1" y="38.1" width="2.6" height="2.21" transform="translate(122.7 149.3) rotate(-120)" fill="#2aa398"/><path d="M99.8,25.5a2.6,2.6,0,1,0,2.6,2.6A2.6,2.6,0,0,0,99.8,25.5Zm0,3.8a1.3,1.3,0,1,1,1.3-1.3A1.3,1.3,0,0,1,99.8,29.3Z" fill="#2aa398"/><rect x="99.1" y="24.8" width="1.5" height="1.25" fill="#2aa398"/><rect x="99.1" y="30.1" width="1.5" height="1.25" fill="#2aa398"/><rect x="96.8" y="26.1" width="1.5" height="1.25" transform="translate(25.6 97.9) rotate(-60)" fill="#2aa398"/><rect x="101.3" y="28.8" width="1.5" height="1.25" transform="translate(25.6 103.1) rotate(-60)" fill="#2aa398"/><rect x="101.3" y="26.1" width="1.5" height="1.25" transform="translate(129.9 128.6) rotate(-120)" fill="#2aa398"/><rect x="96.8" y="28.8" width="1.5" height="1.25" transform="translate(120.9 128.6) rotate(-120)" fill="#2aa398"/><path d="M153.8,27.4l-22.4-7a3.4,3.4,0,0,0-2,0l-22.9,7a.5.5,0,0,0,0,1L130.1,34l23.6-5.6A.5.5,0,0,0,153.8,27.4Z" fill="#404041"/><path d="M153.8,27.4l-22.4-7a3.4,3.4,0,0,0-2,0l-22.9,7a.5.5,0,0,0,0,1L130.1,34l23.6-5.6A.5.5,0,0,0,153.8,27.4Z" fill="#231f20" opacity="0.6"/><path d="M152,41.7a.5.5,0,0,1-.5-.5V28.5H130.2a.5.5,0,0,1,0-1.1H152a.5.5,0,0,1,.5.5V41.2A.5.5,0,0,1,152,41.7Z" fill="#b46b3e"/><rect x="150.9" y="34.4" width="2" height="3.08" rx="1" ry="1" fill="#b46b3e"/><path d="M151.9,36h0a2.3,2.3,0,0,1,2.3,2.3V45a.9.9,0,0,1-.9.9h-2.8a.9.9,0,0,1-.9-.9V38.2A2.3,2.3,0,0,1,151.9,36Z" fill="#df6426"/><path d="M153.8,27.4l-23-6a2.5,2.5,0,0,0-1.3,0l-23,6a.5.5,0,0,0,0,.9l23,6.3a2.5,2.5,0,0,0,1.3,0l23-6.3A.5.5,0,0,0,153.8,27.4Z" fill="#231f20"/><rect x="117.3" y="30.3" width="25.7" height="9.23" fill="#404041"/><ellipse cx="130.1" cy="39.5" rx="12.9" ry="2.1" fill="#231f20"/><ellipse cx="130.1" cy="30.4" rx="12.9" ry="0.7" fill="#404041"/><path d="M142.8,30.3c-1-.4-6.3-.6-12.7-.6s-11.7.3-12.7.6h-.2v9.2H143V30.3Z" fill="#231f20" opacity="0.5"/><g clip-path="url(#clip-path)"><path d="M117.3,30.3c12.9,0,21,3.1,21,10.8h4.2c2.9,0,1.7-10.7.5-11.4C139.1,27.7,123.7,27.5,117.3,30.3Z" fill="#231f20" opacity="0.3"/></g><path d="M150.7,37.9h0a.4.4,0,0,1,.4.4v7.7a0,0,0,0,1,0,0h-.7a0,0,0,0,1,0,0V38.3A.4.4,0,0,1,150.7,37.9Z" fill="#e58351"/><path d="M151.9,37.1h0a.4.4,0,0,1,.4.4v8.5a0,0,0,0,1,0,0h-.7a0,0,0,0,1,0,0V37.4a.4.4,0,0,1,.4-.4Z" fill="#e58351"/><path d="M153.1,37.9h0a.4.4,0,0,1,.4.4v7.7a0,0,0,0,1,0,0h-.7a0,0,0,0,1,0,0V38.3a.4.4,0,0,1,.4-.4Z" fill="#e58351"/><path d="M144.7,53.3a4.9,4.9,0,0,1-2.3,4.2.2.2,0,0,0-.1.3l.5.9a.3.3,0,0,0,.4.1,6.5,6.5,0,0,0,0-10.9.3.3,0,0,0-.4.1l-.5.9a.2.2,0,0,0,.1.3A4.9,4.9,0,0,1,144.7,53.3Z" fill="#2aa398"/><path d="M143.8,53.3a4.9,4.9,0,0,0-2.2-4.1.2.2,0,0,0-.4.1l-.5.9a.3.3,0,0,0,.1.3,3.4,3.4,0,0,1,0,5.7.3.3,0,0,0-.1.3l.5.9a.2.2,0,0,0,.4.1A4.9,4.9,0,0,0,143.8,53.3Z" fill="#2aa398"/><path d="M139.7,53.3a1.9,1.9,0,0,1-.8,1.5.2.2,0,0,0-.1.3l.5.9a.3.3,0,0,0,.4.1,3.4,3.4,0,0,0,0-5.6.3.3,0,0,0-.4.1l-.5.9a.2.2,0,0,0,.1.3A1.9,1.9,0,0,1,139.7,53.3Z" fill="#2aa398"/><circle cx="138" cy="53.3" r="1.1" fill="#2aa398"/><path d="M48.7,31.7l1.7,4.6.5.2a2.4,2.4,0,0,0,1.6,0l3.5-1.3L53.7,29l-3.5,1.3a2.4,2.4,0,0,0-1.2,1Z" fill="#2aa398"/><rect x="50.5" y="27.5" width="1.6" height="3.36" rx="0.8" ry="0.8" transform="translate(41.5 87.4) rotate(-110)" fill="#2aa398"/><rect x="52.1" y="27.6" width="1.6" height="3.36" rx="0.8" ry="0.8" transform="translate(4.1 64.9) rotate(-65)" fill="#2aa398"/><rect x="49.1" y="28.5" width="1.6" height="4.34" rx="0.8" ry="0.8" transform="translate(82.2 79.6) rotate(-155)" fill="#2aa398"/><rect x="54.5" y="32.6" width="1.6" height="3.87" rx="0.8" ry="0.8" transform="translate(41.8 98.4) rotate(-110)" fill="#2aa398"/><rect x="54.2" y="30.7" width="1.6" height="4.34" rx="0.8" ry="0.8" transform="translate(42.9 95.9) rotate(-110)" fill="#2aa398"/><rect x="53.7" y="29" width="1.6" height="4.58" rx="0.8" ry="0.8" transform="translate(43.8 93.3) rotate(-110)" fill="#2aa398"/><rect x="55.4" y="24.4" width="1.6" height="9.26" rx="0.8" ry="0.8" transform="translate(48.2 91.7) rotate(-110)" fill="#2aa398"/><path d="M48.7,31.7l1.7,4.6.5.2a2.4,2.4,0,0,0,1.6,0l.5-.2H53a2.6,2.6,0,0,0-.4-2.6l-.4-.5v-.7a2.6,2.6,0,0,0-1.5-2.3h0l-.5.2a2.4,2.4,0,0,0-1.2,1Z" fill="#2aa398"/><rect x="46.6" y="32.1" width="4.9" height="4.16" transform="translate(33.7 92) rotate(-110)" fill="#2aa398"/><rect x="44.3" y="33.5" width="5.9" height="2.72" transform="translate(30.6 91.2) rotate(-110)" fill="#2aa398"/><rect x="46.9" y="35.3" width="2.1" height="2.72" transform="translate(29.8 94.2) rotate(-110)" fill="#2aa398"/><rect x="42.6" y="33.7" width="7" height="3.07" transform="translate(28.8 90.7) rotate(-110)" fill="#2aa398"/><rect x="45.6" y="35.8" width="2.6" height="3.07" transform="translate(27.9 94.2) rotate(-110)" fill="#2aa398"/><polygon points="54.1 28.9 51.1 30 52 29.2 54.1 28.9" fill="#2aa398"/><circle cx="59.9" cy="27.6" r="1.3" transform="translate(-5.8 22.2) rotate(-20)" fill="#2aa398"/><path d="M60.9,30.3a2.9,2.9,0,1,1,1.7-3.7A2.9,2.9,0,0,1,60.9,30.3Zm-1.7-4.6a2,2,0,1,0,2.6,1.2A2,2,0,0,0,59.2,25.7Z" fill="#2aa398"/><image width="1676" height="444" transform="translate(71.5 56.7) scale(0.03)" xlink:href="../../../../Digital Roadmap/TC Transformation Banners and Logos/TC Transformation Name EN.png"/></svg>