<svg id="Layer_1" data-name="Layer 1" xmlns="http://www.w3.org/2000/svg" xmlns:xlink="http://www.w3.org/1999/xlink" width="200" height="140" viewBox="0 0 200 140"><defs><clipPath id="clip-path"><path d="M200,3V132.8c-27.2,6.6-134,10.3-125.6-27.6,4.2-18.8,48.5-29.6,29.1-50.6C80.7,30.1,129.2,3,200,3Z" fill="none"/></clipPath><clipPath id="clip-path-2"><polygon points="111.2 113.4 117.2 113.4 118 102.3 110.4 102.3 111.2 113.4" fill="none"/></clipPath><clipPath id="clip-path-3"><circle cx="110.3" cy="60.9" r="20.7" fill="none"/></clipPath><clipPath id="clip-path-4"><path d="M116,77.4c2,2.5,9,9.2,11.9,8.5s1.5-3.8.3-7.9A65.2,65.2,0,0,0,121,61.8a5.9,5.9,0,0,0-4.2,2.2,27.7,27.7,0,0,1,3.1,7.4,2.9,2.9,0,0,0-.9-1c-1.5-1.1-4.3-1-5.3.7S114.1,75,116,77.4Z" fill="none"/></clipPath><clipPath id="clip-path-5"><circle cx="127.4" cy="20.7" r="15.6" fill="none"/></clipPath></defs><title>Artboard 1</title><rect width="200" height="140" fill="#00698c"/><path d="M200,3V132.1c-27.2,6.6-138,10.3-129.5-27.6C74.6,85.8,118.9,75,99.5,54,76.8,29.4,129.2,3,200,3Z" fill="#05313f"/><path d="M200,3V132.8c-27.2,6.6-134,10.3-125.6-27.6,4.2-18.8,48.5-29.6,29.1-50.6C80.7,30.1,129.2,3,200,3Z" fill="#fff"/><g clip-path="url(#clip-path)"><g opacity="0.2"><rect x="89.6" y="5.5" width="56.5" height="81" fill="#414141"/><rect x="83.9" y="85.4" width="67.8" height="3.65" fill="#414141"/><rect x="93.7" y="10.4" width="22.1" height="72.6" fill="#9acaeb"/><rect x="119.8" y="10.4" width="22.1" height="72.6" fill="#9acaeb"/><rect x="115.2" y="37.4" width="5.2" height="15.88" rx="1.7" ry="1.7" fill="#414141"/><polygon points="115.8 10.4 93.7 41 93.7 49 115.8 18.9 115.8 10.4" fill="#bad8eb" opacity="0.2"/><polygon points="93.7 49 93.7 61.3 115.8 31.2 115.8 18.9 93.7 49" fill="#bad8eb" opacity="0.5"/><polygon points="141.9 28.2 119.8 58.8 119.8 66.8 141.9 36.7 141.9 28.2" fill="#bad8eb" opacity="0.2"/><polygon points="119.8 66.8 119.8 79.1 141.9 49 141.9 36.7 119.8 66.8" fill="#bad8eb" opacity="0.5"/><circle cx="189.6" cy="30.2" r="14.7" fill="#59595c"/><circle cx="189.6" cy="30.2" r="14" fill="#414141"/><path d="M178.4,30.7a11.7,11.7,0,0,1,19.8-8.5,11.7,11.7,0,1,0-16.6,16.6A11.7,11.7,0,0,1,178.4,30.7Z" fill="#e5e6e6"/><circle cx="189.6" cy="30.2" r="11.7" fill="#fff"/><path d="M178.9,31.2a11.7,11.7,0,0,1,19.5-8.8A11.7,11.7,0,1,0,181.8,39,11.7,11.7,0,0,1,178.9,31.2Z" fill="#e5e6e6"/><rect x="178.9" y="29.9" width="1.6" height="0.57" fill="#414141"/><rect x="198.7" y="29.9" width="1.6" height="0.57" fill="#414141"/><rect x="188.8" y="39.8" width="1.6" height="0.57" transform="translate(149.5 229.7) rotate(-90)" fill="#414141"/><rect x="188.8" y="20" width="1.6" height="0.57" transform="translate(169.4 209.9) rotate(-90)" fill="#414141"/><rect x="189" y="20.1" width="1.3" height="10.07" fill="#59595c"/><rect x="192.2" y="26.3" width="1.3" height="7.74" transform="translate(223 -162.6) rotate(90)" fill="#59595c"/><circle cx="189.6" cy="30.2" r="1.3" fill="#414141"/></g><rect x="124.5" y="133.1" width="60" height="7.36" rx="3.7" ry="3.7" fill="#7d868c"/><rect x="149" y="139.4" width="11" height="33.42" fill="#5c6670"/><rect x="134.6" y="39.7" width="39.8" height="24.64" rx="12.3" ry="12.3" fill="#7d868c"/><path d="M169.8,128.5H139.2a9.6,9.6,0,0,1-9.6-8.7l-3.5-35.9a14.6,14.6,0,0,1,14.6-16.1h27.7A14.6,14.6,0,0,1,183,83.8l-3.5,35.9A9.6,9.6,0,0,1,169.8,128.5Z" fill="#7d868c"/><circle cx="160.4" cy="28.1" r="8.9" fill="#191919"/><path d="M137.7,49.7V44.4a15.4,15.4,0,0,1,15.4-15.4h0l1.4.9,1.4-.9h0a15.4,15.4,0,0,1,15.4,15.4v5.2a16.8,16.8,0,0,1-16.8,16.8h0A16.8,16.8,0,0,1,137.7,49.7Z" fill="#191919"/><path d="M159.3,71.6V63.8h-9.8v7.7a1.5,1.5,0,0,1-1.5,1.5h-4.5v2.8a11,11,0,0,0,11,11h0a11,11,0,0,0,11-11V73.1h-4.7A1.5,1.5,0,0,1,159.3,71.6Z" fill="#deb18a"/><path d="M162,65.4,158.7,68a6.7,6.7,0,0,1-8.2,0l-3.3-2.6a11.3,11.3,0,0,1-4.3-8.9V46.4a11.8,11.8,0,0,1,11.8-11.8h0a11.8,11.8,0,0,1,11.8,11.8V56.5A11.3,11.3,0,0,1,162,65.4Z" fill="#ebc19c"/><ellipse cx="142.6" cy="52" rx="2" ry="3.7" fill="#ebc19c"/><ellipse cx="166.5" cy="52" rx="2" ry="3.7" fill="#ebc19c"/><path d="M136.5,123.2h36a0,0,0,0,1,0,0v3.4a12.8,12.8,0,0,1-12.8,12.8H149.3a12.8,12.8,0,0,1-12.8-12.8v-3.4A0,0,0,0,1,136.5,123.2Z" fill="#333"/><path d="M156.5,33.5h0a0,0,0,0,1,0,0v0a16.7,16.7,0,0,1-16.7,16.7h0a0,0,0,0,1,0,0v0A16.7,16.7,0,0,1,156.5,33.5Z" fill="#191919"/><path d="M152.6,33.5h0a16.7,16.7,0,0,1,16.7,16.7v0a0,0,0,0,1,0,0h0a16.7,16.7,0,0,1-16.7-16.7v0A0,0,0,0,1,152.6,33.5Z" transform="translate(321.9 83.8) rotate(180)" fill="#191919"/><path d="M138.2,73.2c-6.1-.4-24.1,29.1-22.6,34.9s18.3,8.3,34.1,10.2c1.6-1.3,2.6-4.9,2.6-7.3-12-1.6-24.9-4.8-25.6-6.1s9.7-14.3,12.5-19S146.3,73.7,138.2,73.2Z" fill="#007580"/><path d="M170.9,73.2c6.1-.4,24.1,29.1,22.6,34.9s-18.3,8.3-34.1,10.2c-1.6-1.3-2.6-4.9-2.6-7.3,12-1.6,24.9-4.8,25.6-6.1s-9.7-14.3-12.5-19S162.8,73.7,170.9,73.2Z" fill="#007580"/><path d="M175.5,76.8c-2.1-3.6-4.1-4.6-12.1-3.7-1.2,2.3-8.8,6.7-8.9,6.7s-7.7-4.5-8.9-6.7c-8-1-10,.1-12.1,3.7s1.4,21.3,2.5,26,.4,16.5.4,22.6c0,1.3,8.9,3.2,17.8,3.2s18.3-1.9,18.3-3.2c.1-6.1-.7-17.9.4-22.6S178.4,81.5,175.5,76.8Z" fill="#007580"/><path d="M146.1,124.5c7,0,10.3,5.1,7.5,29-1.4,11.6-1.6,16.3-1.7,21s.3,5.4-2.1,6.3a12.5,12.5,0,0,1-6.2.3c-1.9-.4-2.3-1.9-2.7-5.4s-1.5-21-2.3-25.9C135.5,130.3,141.7,124.5,146.1,124.5Z" fill="#333"/><path d="M163,124.5c-7,0-10.3,5.1-7.5,29,1.4,11.6,1.6,16.3,1.7,21s-.3,5.4,2.1,6.3a12.5,12.5,0,0,0,6.2.3c1.9-.4,2.3-1.9,2.7-5.4s1.5-21,2.3-25.9C173.6,130.3,167.4,124.5,163,124.5Z" fill="#333"/><rect x="87.5" y="113.8" width="134.1" height="8.91" fill="#513628"/><rect x="106.4" y="122.7" width="6.5" height="69.11" fill="#753d29"/><rect x="196.2" y="122.7" width="6.5" height="69.11" fill="#753d29"/><rect x="127.6" y="85.1" width="53.9" height="3.37" rx="1.7" ry="1.7" fill="#959595"/><path d="M177.2,112H131.8a.5.5,0,0,1-.5-.4l-3.7-24.7a.7.7,0,0,1,.7-.8h52.5a.7.7,0,0,1,.7.8l-3.7,24.7A.5.5,0,0,1,177.2,112Z" fill="#b1b1b1"/><path d="M131.9,112h45.3a.5.5,0,0,1,.5.5h0a1.3,1.3,0,0,1-1.3,1.3H132.7a1.3,1.3,0,0,1-1.3-1.3h0A.5.5,0,0,1,131.9,112Z" fill="#666667"/><ellipse cx="154.5" cy="99.1" rx="4" ry="3.4" fill="#959595"/><polygon points="111.2 113.4 117.2 113.4 118 102.3 110.4 102.3 111.2 113.4" fill="#e3b87e"/><rect x="110" y="101.8" width="8.5" height="0.55" transform="translate(228.4 204.1) rotate(-180)" fill="#f2f2f2"/><rect x="110" y="101.8" width="8.5" height="0.13" transform="translate(228.4 203.7) rotate(-180)" fill="#e5e5e4"/><rect x="111.4" y="113.4" width="5.6" height="0.34" transform="translate(228.4 227.2) rotate(-180)" fill="#d9a460"/><rect x="109.8" y="101.4" width="8.7" height="0.41" transform="translate(228.4 203.1) rotate(-180)" fill="#f2f2f2"/><polygon points="110.3 101.4 118.1 101.4 117.9 100.8 110.5 100.8 110.3 101.4" fill="#e5e5e4"/><g clip-path="url(#clip-path-2)"><rect x="110.4" y="104.8" width="7.6" height="0.28" fill="#d9a460"/><rect x="110.4" y="109.7" width="7.6" height="0.28" fill="#d9a460"/><rect x="109" y="104.9" width="10.5" height="4.92" fill="#a96419"/><rect x="110" y="102.1" width="8.5" height="0.63" fill="#d9a460"/></g></g><path d="M131.4,81.4l-3.6-10.8a20.8,20.8,0,1,0-5.8,7.7Z" fill="#1e252b"/><polygon points="129.2 69 121.9 76.3 132.9 80 129.2 69" fill="#d3df44"/><circle cx="110.3" cy="60.9" r="20.7" fill="#d3df44"/><g clip-path="url(#clip-path-3)"><path d="M99.6,69.8h0a11.3,11.3,0,0,1-.6-4.1L99.5,54a8.3,8.3,0,0,1,8.2-7.8h0l.7.2.4.3.4-.3.7-.2h0a8.3,8.3,0,0,1,8.2,7.8l.5,11.7a11.3,11.3,0,0,1-.6,4.1h0a1.4,1.4,0,0,1-1.3,1H101A1.4,1.4,0,0,1,99.6,69.8Z" fill="#1b1b1b"/><path d="M111.5,68.9V64.8h-5.3v4.2a.8.8,0,0,1-.8.8H103v1.5a5.9,5.9,0,0,0,5.9,5.9h0a5.9,5.9,0,0,0,5.9-5.9V69.7h-2.5A.8.8,0,0,1,111.5,68.9Z" fill="#72594b"/><path d="M112.9,65.7,111.1,67a3.6,3.6,0,0,1-4.4,0L105,65.7a6.1,6.1,0,0,1-2.3-4.8V55.4a6.3,6.3,0,0,1,6.3-6.3h0a6.3,6.3,0,0,1,6.3,6.3v5.4A6.1,6.1,0,0,1,112.9,65.7Z" fill="#8b725e"/><ellipse cx="102.6" cy="58.5" rx="1.3" ry="2" fill="#8b725e"/><ellipse cx="115.2" cy="58.5" rx="1.3" ry="2" fill="#8b725e"/><path d="M110,48.6h1.5a0,0,0,0,1,0,0v0a9,9,0,0,1-9,9H101a0,0,0,0,1,0,0v0a9,9,0,0,1,9-9Z" fill="#1b1b1b"/><path d="M117.2,63.5c-.5-.2-1.7-.8-1.7-1.7s1.4-1.4,2.6.2S118.1,63.8,117.2,63.5Z" fill="#8b725e"/><path d="M109,48.6h0a7.9,7.9,0,0,1,7.9,7.9v1.1a0,0,0,0,1,0,0h0a7.9,7.9,0,0,1-7.9-7.9V48.6A0,0,0,0,1,109,48.6Z" transform="translate(225.8 106.1) rotate(-180)" fill="#1b1b1b"/><rect x="116.3" y="54.9" width="1.1" height="9.24" rx="0.6" ry="0.6" transform="translate(12.1 -19.4) rotate(10)" fill="#b1b1b1"/><path d="M120.6,61.8c-.1-1.1-1.7-5.1-4-5.2s-2.1,4.4-.6,4.7,1.3,1.4,1.3,2.2,1.7,1.3,2.6.9S120.6,63,120.6,61.8Z" fill="#8b725e"/><path d="M98.9,99.1H119a0,0,0,0,1,0,0v1.9a7.1,7.1,0,0,1-7.1,7.1H106a7.1,7.1,0,0,1-7.1-7.1V99.1A0,0,0,0,1,98.9,99.1Z" fill="#333"/><path d="M120.2,71.7c-1.1-1.9-2.2-2.5-6.5-2-.6,1.2-4.7,3.6-4.7,3.6s-4.1-2.4-4.7-3.6c-4.3-.5-5.4.1-6.5,2s1.7,11.4,2.3,13.9.5,8.8.6,12.1c0,1.4,16.7,1.4,16.7,0,0-3.3-.1-9.6.6-12.1S121.8,74.3,120.2,71.7Z" fill="#762057"/><path d="M100.2,69.8c-2.8,0-11,12.8-11,15.8s7.3,9.1,12.3,12c1.5-1,1.4-2.8,1.6-3.4s-9.4-8-8.6-8.7a81.6,81.6,0,0,0,6.3-8.9C102,74.5,104.5,69.8,100.2,69.8Z" fill="#762057"/><path d="M116,77.4c2,2.5,9,9.2,11.9,8.5s1.5-3.8.3-7.9A65.2,65.2,0,0,0,121,61.8a5.9,5.9,0,0,0-4.2,2.2,27.7,27.7,0,0,1,3.1,7.4,2.9,2.9,0,0,0-.9-1c-1.5-1.1-4.3-1-5.3.7S114.1,75,116,77.4Z" fill="#762057"/><g clip-path="url(#clip-path-4)"><path d="M118.8,67.7c.8.8,4.8,10,5.1,12.6-3.3-6.8-4.2-9.6-3.9-9C119.7,70.4,119.3,69.6,118.8,67.7Z" fill="#622650"/></g><polygon points="121.5 102.7 96.5 102.7 93.5 86.5 124.5 86.5 121.5 102.7" fill="gray"/><polygon points="124.5 86.5 93.5 86.5 94 86 124 86 124.5 86.5" fill="#666667"/><path d="M102.1,127.3c-2.5,1.8-5.2,4.1-4.1,5.9s7.1-1.4,8.8-2.8a3.2,3.2,0,0,0,1.4-3.1c0-1.1-1.1-1.4-2.9-1.3A7.4,7.4,0,0,0,102.1,127.3Z" fill="#493728"/><path d="M115.8,127.3c2.5,1.8,5.2,4.1,4.1,5.9s-7.1-1.4-8.8-2.8a3.2,3.2,0,0,1-1.4-3.1c0-1.1,1.1-1.4,2.9-1.3A7.4,7.4,0,0,1,115.8,127.3Z" fill="#493728"/><path d="M104.4,98.3c3.7,0,5.5,2.7,4,15.4a90.9,90.9,0,0,0-.9,11.1c0,2.2.2,2.8-1.1,3.3a6.6,6.6,0,0,1-3.3.2c-1-.2-1.2-1-1.4-2.8s-.8-11.1-1.2-13.7C98.9,101.3,102.1,98.3,104.4,98.3Z" fill="#333"/><path d="M113.4,98.3c-3.7,0-5.5,2.7-4,15.4a90.9,90.9,0,0,1,.9,11.1c0,2.2-.2,2.8,1.1,3.3a6.6,6.6,0,0,0,3.3.2c1-.2,1.2-1,1.4-2.8s.8-11.1,1.2-13.7C119,101.3,115.7,98.3,113.4,98.3Z" fill="#333"/></g><path d="M125.9,6.6a15.6,15.6,0,0,0-12.4,25l-2,6.1,6.5-2.2a15.6,15.6,0,1,0,7.9-28.9Z" fill="#1e252b"/><polygon points="120.8 33.6 115.6 28.4 113 36.2 120.8 33.6" fill="#7cccbd"/><circle cx="127.4" cy="20.7" r="15.6" fill="#7cccbd"/><g clip-path="url(#clip-path-5)"><path d="M129.4,21.4V19.9h-4.1v1.5a1.5,1.5,0,0,1-1.5,1.5h0v4.5H131V22.9h-.1A1.5,1.5,0,0,1,129.4,21.4Z" fill="#ebc19c"/><path d="M129.6,21.4l-1.1.8a1.9,1.9,0,0,1-2.2,0l-1.1-.8a4.8,4.8,0,0,1-2-3.9V14a4.2,4.2,0,0,1,4.2-4.2h0a4.2,4.2,0,0,1,4.2,4.2v3.5A4.8,4.8,0,0,1,129.6,21.4Z" fill="#f0d0b3"/><ellipse cx="123.1" cy="16" rx="0.9" ry="1.6" fill="#f0d0b3"/><ellipse cx="131.7" cy="16" rx="0.9" ry="1.6" fill="#f0d0b3"/><path d="M121.5,39.3h11.8a0,0,0,0,1,0,0v1.1a4.2,4.2,0,0,1-4.2,4.2h-3.4a4.2,4.2,0,0,1-4.2-4.2V39.3A0,0,0,0,1,121.5,39.3Z" fill="#333"/><path d="M120.6,23.1c-2.8,0-7.3,9.2-6.8,11.1s6.9,2.8,12,3.4a3.6,3.6,0,0,0,.8-2.4c-3.9-.5-8.8-1.4-9-1.8s3.8-4.9,4.7-6.4S123.3,23.1,120.6,23.1Z" fill="#004987"/><path d="M134.2,23.1c2.8,0,7.3,9.2,6.8,11.1s-6.9,2.8-12,3.4a3.6,3.6,0,0,1-.8-2.4c3.9-.5,8.8-1.4,9-1.8s-3.8-4.9-4.7-6.4S131.5,23.1,134.2,23.1Z" fill="#004987"/><path d="M135.8,24.1c-.7-1.2-2.5-1.5-5.2-1.2a3.6,3.6,0,0,1-6.4,0c-2.6-.3-4.5,0-5.2,1.2s1.2,7,1.6,8.5a44.9,44.9,0,0,1,.9,7.4c0,.4,2.9,1,5.8,1s6-.6,6-1a44.9,44.9,0,0,1,.9-7.4C134.6,31.1,136.7,25.7,135.8,24.1Z" fill="#004987"/><path d="M123.1,57.7c-1.5,1.1-3.2,2.5-2.5,3.6s4.4-.9,5.4-1.7a2,2,0,0,0,.9-1.9c0-.7-.7-.9-1.8-.8A4.6,4.6,0,0,0,123.1,57.7Z" fill="#493728"/><path d="M124.6,39.8c2.3,0,3.4,1.7,2.5,9.5a56.2,56.2,0,0,0-.5,6.9c0,1.4.1,1.8-.7,2.1a4.1,4.1,0,0,1-2,.1c-.6-.1-.7-.6-.9-1.8s-.5-6.9-.7-8.5C121.2,41.7,123.2,39.8,124.6,39.8Z" fill="#333"/><path d="M131.7,57.7c1.5,1.1,3.2,2.5,2.5,3.6s-4.4-.9-5.4-1.7a2,2,0,0,1-.9-1.9c0-.7.7-.9,1.8-.8A4.6,4.6,0,0,1,131.7,57.7Z" fill="#493728"/><path d="M130.2,39.8c-2.3,0-3.4,1.7-2.5,9.5a56.2,56.2,0,0,1,.5,6.9c0,1.4-.1,1.8.7,2.1a4.1,4.1,0,0,0,2,.1c.6-.1.7-.6.9-1.8s.5-6.9.7-8.5C133.6,41.7,131.6,39.8,130.2,39.8Z" fill="#333"/><path d="M127.4,9h-.2l-1.3.3a4.8,4.8,0,0,0-3.1,2.5h0a3.7,3.7,0,0,0-.3,2.4l.7,3.2V16.3a4.9,4.9,0,0,1,1-2.6h0a1.4,1.4,0,0,1,1.5-.5h0a5.3,5.3,0,0,0,3.1,0h0a1.4,1.4,0,0,1,1.5.5h0a4.9,4.9,0,0,1,1,2.6v1.1l.7-3.2a3.7,3.7,0,0,0-.3-2.4h0a4.8,4.8,0,0,0-3.1-2.5l-1.3-.3Z" fill="#512c1d"/><rect x="118.6" y="27.5" width="17.7" height="1.11" rx="0.6" ry="0.6" fill="#666667"/><path d="M134.8,36.3h-15l-1.2-8.1a.2.2,0,0,1,.2-.3H136a.2.2,0,0,1,.2.3L135,36.2Z" fill="gray"/><path d="M120,36.3h14.8l.2.2h0a.4.4,0,0,1-.4.4H120.2a.4.4,0,0,1-.4-.4h0Z" fill="#666667"/><ellipse cx="127.4" cy="32" rx="1.3" ry="1.1" fill="#5f5f5f"/><path d="M127.2,16.1a.9.9,0,0,0-.7-.8h-.1a7.3,7.3,0,0,0-2.7,0h-.1l-.5.3a.9.9,0,0,0-.2.5,2,2,0,0,0,.1.7v.2a.9.9,0,0,0,.9.7h2.3a.9.9,0,0,0,.9-.7v-.2a2,2,0,0,0,.1-.5Zm-.4.6V17a.6.6,0,0,1-.6.4h-2.3a.6.6,0,0,1-.6-.4v-.2a1.7,1.7,0,0,1,0-.6.5.5,0,0,1,.4-.5h2.7a.5.5,0,0,1,.4.5A1.6,1.6,0,0,1,126.8,16.8Z" fill="#1e252b"/><path d="M131.9,16.1a.9.9,0,0,0-.7-.8h-.1a7.3,7.3,0,0,0-2.7,0h-.1l-.5.3a.9.9,0,0,0-.2.5,2,2,0,0,0,.1.7v.2a.9.9,0,0,0,.9.7h2.3a.9.9,0,0,0,.9-.7v-.2a2,2,0,0,0,.1-.5Zm-.4.6V17a.6.6,0,0,1-.6.4h-2.3a.6.6,0,0,1-.6-.4v-.2a1.7,1.7,0,0,1,0-.6.5.5,0,0,1,.4-.5h2.7a.5.5,0,0,1,.4.5A1.6,1.6,0,0,1,131.5,16.8Z" fill="#1e252b"/><path d="M123.1,16.7h-.4a.3.3,0,0,1-.3-.3v-.5a.3.3,0,0,1,.3-.3h.4Z" fill="#1e252b"/><path d="M131.7,16.7h.4a.3.3,0,0,0,.3-.3v-.5a.3.3,0,0,0-.3-.3h-.4Z" fill="#1e252b"/><path d="M127.9,16.5h0a.8.8,0,0,0-1,0h0v-.8h1Z" fill="#1e252b"/><path d="M122.8,16.2h0a.3.3,0,0,1-.3-.3v-.9a.2.2,0,0,1,.2-.2h0l.2.2.3.9A.3.3,0,0,1,122.8,16.2Z" fill="#1e252b"/><path d="M132,16.2h0a.3.3,0,0,0,.3-.3v-.9a.2.2,0,0,0-.2-.2h0l-.2.2-.3.9A.3.3,0,0,0,132,16.2Z" fill="#1e252b"/></g><path d="M188.5,56.9a8.7,8.7,0,0,1,.2,8.4.4.4,0,0,0,.2.6l1.6.9a.4.4,0,0,0,.6-.2,11.5,11.5,0,0,0-9.7-16.8.4.4,0,0,0-.5.4v1.8a.4.4,0,0,0,.4.4A8.7,8.7,0,0,1,188.5,56.9Z" fill="#333e48"/><path d="M187,57.7a8.7,8.7,0,0,0-7.1-4.4.4.4,0,0,0-.5.4v1.8a.4.4,0,0,0,.4.4,6,6,0,0,1,5,8.7.4.4,0,0,0,.2.6l1.6.9a.4.4,0,0,0,.6-.2A8.7,8.7,0,0,0,187,57.7Z" fill="#333e48"/><path d="M180.8,61.3a3.3,3.3,0,0,1,.2,3,.4.4,0,0,0,.2.6l1.6.9a.4.4,0,0,0,.6-.2,6,6,0,0,0-5-8.6.4.4,0,0,0-.5.4v1.8a.4.4,0,0,0,.4.4A3.3,3.3,0,0,1,180.8,61.3Z" fill="#333e48"/><circle cx="178.2" cy="62.8" r="2" transform="translate(-7.5 97.5) rotate(-30)" fill="#333e48"/><polygon points="102.8 103.3 91.4 103.3 93.2 113.8 101 113.8 102.8 103.3" fill="#df6420"/><polygon points="103.1 106.9 91.2 106.9 90.6 101.8 103.6 101.8 103.1 106.9" fill="#df6420"/><polygon points="92 106.9 102.2 106.9 102.1 107.7 92.1 107.4 92 106.9" fill="#913b1f"/><path d="M92.5,101.8c-2.2-5.5-6.7-7.7-11.9-8.4-1.3-.2.1-.9,1.4-1.2s12.5-1.9,13,9.6Z" fill="#00783e"/><path d="M94,101.8c0-4.6-3.1-9.7-10.1-12.5-2.6-1.1-.7-1.6,2-1.1s13,2.2,10.9,13.7Z" fill="#218649"/><path d="M101.8,101.8c2.2-5.5,6.7-7.7,11.9-8.4,1.3-.2-.1-.9-1.4-1.2s-12.5-1.9-13,9.6Z" fill="#00783e"/><path d="M99.9,101.8H96.7c-.1-2.8-.4-11.1,6.2-16s2.1.4,1.2,1.7A24.4,24.4,0,0,0,99.9,101.8Z" fill="#00783e"/><path d="M95.7,101.8c0-6.2,0-12.1-6.8-16.5-1.3-.8-1-1.2,1.6-.6s9.3,4.2,8.6,17.1Z" fill="#00783e"/><path d="M100,101.8c0-4.6,3.1-9.7,10.1-12.5,2.6-1.1.7-1.6-2-1.1s-12,1.7-10.9,13.7Z" fill="#218649"/></svg>