<svg id="Layer_1" data-name="Layer 1" xmlns="http://www.w3.org/2000/svg" width="100" height="100" viewBox="0 0 100 100"><title>Artboard 1</title><circle cx="50" cy="50" r="50" fill="#df6420"/><circle cx="33.7" cy="34.9" r="13.1" fill="#fff"/><path d="M14,78.2H53.4V61.9a12,12,0,0,0-12-12H26a12,12,0,0,0-12,12Z" fill="#fff"/><path d="M81,21.8H56.4a5,5,0,0,0-5,5V37a5,5,0,0,0,5,5l-2.2,5,8.1-5H81a5,5,0,0,0,5-5V26.8A5,5,0,0,0,81,21.8Zm-.6,15.5a1.2,1.2,0,0,1-.8.3H57.9a1.2,1.2,0,0,1,0-2.3H79.6a1.2,1.2,0,0,1,.8,2Zm0-4.8a1.2,1.2,0,0,1-.8.3H57.9a1.2,1.2,0,0,1,0-2.3H79.6a1.2,1.2,0,0,1,.8,2Zm0-4.8a1.2,1.2,0,0,1-.8.3H57.9a1.2,1.2,0,0,1,0-2.3H79.6a1.2,1.2,0,0,1,.8,2Z" fill="#fff"/><path d="M61,52.2v7.4a3.6,3.6,0,0,0,3.6,3.6H78.1L84,66.8l-1.6-3.6A3.6,3.6,0,0,0,86,59.6V52.2a3.6,3.6,0,0,0-3.6-3.6H64.6A3.6,3.6,0,0,0,61,52.2Zm3.8,7a.8.8,0,0,1,.8-.8H81.4l.6.2a.8.8,0,0,1-.6,1.4H65.6l-.6-.2A.8.8,0,0,1,64.8,59.2Zm0-3.5a.8.8,0,0,1,.8-.8H81.4l.6.2a.8.8,0,0,1-.6,1.4H65.6l-.6-.2A.8.8,0,0,1,64.8,55.7Zm0-3.5a.8.8,0,0,1,.8-.8H81.4l.6.2a.8.8,0,0,1-.6,1.4H65.6l-.6-.2A.8.8,0,0,1,64.8,52.3Z" fill="#fff"/></svg>