<svg id="Layer_1" data-name="Layer 1" xmlns="http://www.w3.org/2000/svg" width="100" height="100" viewBox="0 0 100 100"><title>Artboard 1</title><circle cx="27.3" cy="29" r="18.2" fill="#333"/><path d="M0,89.1H54.7V66.6A16.6,16.6,0,0,0,38.1,50H16.6A16.6,16.6,0,0,0,0,66.6Z" fill="#333"/><path d="M93.1,11.2H58.9A6.9,6.9,0,0,0,52,18.1V32.2a6.9,6.9,0,0,0,6.9,6.9l-3,6.9,11.2-6.9h26a6.9,6.9,0,0,0,6.9-6.9V18.1A6.9,6.9,0,0,0,93.1,11.2Zm-.9,21.5a1.6,1.6,0,0,1-1.1.5H60.9a1.6,1.6,0,0,1,0-3.2H91.1a1.6,1.6,0,0,1,1.1,2.7Zm0-6.6a1.6,1.6,0,0,1-1.1.5H60.9a1.6,1.6,0,0,1,0-3.2H91.1A1.6,1.6,0,0,1,92.2,26Zm0-6.6a1.6,1.6,0,0,1-1.1.5H60.9a1.6,1.6,0,0,1,0-3.2H91.1a1.6,1.6,0,0,1,1.1,2.7Z" fill="#333"/></svg>