<svg id="Layer_1" data-name="Layer 1" xmlns="http://www.w3.org/2000/svg" width="100" height="100" viewBox="0 0 100 100"><title>Artboard 1</title><circle cx="50" cy="50" r="50" fill="#00698c"/><path d="M81,66.4H19V29.3H81ZM21.3,64.1H78.7V31.6H21.3Z" fill="#fff"/><rect x="21.2" y="23.3" width="57.6" height="8.28" fill="#fff"/><rect x="21.2" y="64.2" width="57.6" height="4.14" fill="#fff"/><rect x="29.8" y="66.4" width="40.5" height="13.88" fill="#fff"/><rect x="19" y="78.1" width="62" height="4.36" fill="#fff"/><path d="M41.5,17.5H58.5a3.2,3.2,0,0,1,3.2,3.2v5.1a0,0,0,0,1,0,0H38.3a0,0,0,0,1,0,0V20.7A3.2,3.2,0,0,1,41.5,17.5Z" fill="#fff"/><rect x="24.8" y="35.1" width="50.3" height="25.52" fill="#fff"/></svg>