<svg id="Layer_1" data-name="Layer 1" xmlns="http://www.w3.org/2000/svg" width="100" height="100" viewBox="0 0 100 100"><title>Artboard 1</title><path d="M97.7,75.3H2.3V18.1H97.7ZM5.9,71.7H94.1v-50H5.9Z" fill="#fff"/><rect x="5.7" y="9" width="88.7" height="12.75" fill="#fff"/><rect x="5.7" y="71.8" width="88.7" height="6.37" fill="#fff"/><rect x="18.9" y="75.3" width="62.3" height="21.36" fill="#fff"/><rect x="2.3" y="93.3" width="95.3" height="6.71" fill="#fff"/><path d="M36.9,0H63.1A4.9,4.9,0,0,1,68,4.9v7.9a0,0,0,0,1,0,0H32a0,0,0,0,1,0,0V4.9A4.9,4.9,0,0,1,36.9,0Z" fill="#fff"/><rect x="11.3" y="27.1" width="77.4" height="39.26" fill="#fff"/></svg>