<svg id="Layer_1" data-name="Layer 1" xmlns="http://www.w3.org/2000/svg" width="100" height="100" viewBox="0 0 100 100"><title>Artboard 1</title><circle cx="50" cy="50" r="50" fill="#00698c"/><circle cx="47.2" cy="24.1" r="8.4" fill="#fff"/><path d="M34.5,47.5H59.9V41.6a7.7,7.7,0,0,0-7.7-7.7h-10a7.7,7.7,0,0,0-7.7,7.7Z" fill="#fff"/><path d="M77.8,15.7H61.9a3.2,3.2,0,0,0-3.2,3.2v6.6a3.2,3.2,0,0,0,3.2,3.2l-1.4,3.2,5.2-3.2H77.8A3.2,3.2,0,0,0,81,25.5V18.9A3.2,3.2,0,0,0,77.8,15.7Z" fill="#fff"/><path d="M33.6,33.9l-1-2.3a2.3,2.3,0,0,0,2.3-2.3V24.6a2.3,2.3,0,0,0-2.3-2.3H21.3A2.3,2.3,0,0,0,19,24.6v4.7a2.3,2.3,0,0,0,2.3,2.3h8.6Z" fill="#fff"/><polygon points="61.5 53.2 64.7 53.2 64.7 49.4 29.7 49.4 29.7 53.2 32.9 53.2 37 79.2 24.4 79.2 24.4 84.3 70 84.3 70 79.2 57.5 79.2 61.5 53.2" fill="#fff"/></svg>