<svg id="Layer_1" data-name="Layer 1" xmlns="http://www.w3.org/2000/svg" width="100" height="100" viewBox="0 0 100 100"><title>Artboard 1</title><circle cx="46" cy="12.3" r="12.3" fill="#333"/><path d="M27.4,46.3H64.5V37.8A11.3,11.3,0,0,0,53.2,26.5H38.7A11.3,11.3,0,0,0,27.4,37.8Z" fill="#333"/><path d="M90.5,0H67.3a4.7,4.7,0,0,0-4.7,4.7v9.6A4.7,4.7,0,0,0,67.3,19l-2,4.7L72.9,19H90.5a4.7,4.7,0,0,0,4.7-4.7V4.7A4.7,4.7,0,0,0,90.5,0Z" fill="#333"/><path d="M26.1,26.5l-1.4-3.3A3.3,3.3,0,0,0,28,19.9V13a3.3,3.3,0,0,0-3.3-3.3H8.1A3.3,3.3,0,0,0,4.8,13v6.9a3.3,3.3,0,0,0,3.3,3.3H20.7Z" fill="#333"/><polygon points="66.8 54.7 71.5 54.7 71.5 49.1 20.4 49.1 20.4 54.7 25.1 54.7 31 92.6 12.7 92.6 12.7 100 79.2 100 79.2 92.6 60.9 92.6 66.8 54.7" fill="#333"/></svg>