<svg id="Layer_1" data-name="Layer 1" xmlns="http://www.w3.org/2000/svg" width="100" height="100" viewBox="0 0 100 100"><title>Artboard 1</title><rect x="38.3" y="79.9" width="23.4" height="3.79" fill="#333"/><rect x="38.3" y="85.4" width="23.4" height="3.1" fill="#333"/><path d="M38.3,91.4a3.9,3.9,0,0,0,3.8,3.9H44l.7,1.9a4.1,4.1,0,0,0,3.8,2.8h3a4.1,4.1,0,0,0,3.8-2.8l.7-1.9h1.8a3.9,3.9,0,0,0,3.9-3.9v-.3H38.3Z" fill="#333"/><path d="M72.7,44.1a22.5,22.5,0,0,1-5,14.1,27.7,27.7,0,0,0-6,17.3v1.1H54v-21a22.5,22.5,0,0,0,6-1.7c3.4-1.5,4.9-3.2,4.3-5s-6.3-4.3-9.3-3.8-2.5,1.6-2.5,2.1v7.1a23.1,23.1,0,0,1-4.7-.1c0-1.2,0-2.2,0-3.2s0-3.2,0-3.9-.2-1.9-2.5-2.1-8.8,1.3-9.5,4.1,1.1,3.4,4.5,4.8a28.9,28.9,0,0,0,6,1.7c0,6.6,0,15.3,0,21.1H38.3V75.6A28.6,28.6,0,0,0,32.1,58,22.7,22.7,0,1,1,72.7,44.1Z" fill="#333"/><path d="M44.3,46.5c-2.7,0-6.7,1.4-7.1,3s1.1,2,3.6,3a27.3,27.3,0,0,0,5.4,1.5c0-1.1,0-2.1,0-3s0-3.2,0-3.9-.8-.6-1.2-.6Z" fill="#333"/><path d="M62.9,49.3c-.4-1.5-4.1-2.8-6.8-2.8h-.9c-.3,0-1.2.2-1.2.6v6.9a21.3,21.3,0,0,0,5.4-1.6C61.9,51.4,63.2,50.2,62.9,49.3Z" fill="#333"/><path d="M52.5,55.9a25.3,25.3,0,0,1-4.7,0c0,6.5,0,15.2,0,20.9h4.7Z" fill="#333"/><path d="M50,12.7a.8.8,0,0,0,.8-.8V.8a.8.8,0,1,0-1.5,0V11.9A.8.8,0,0,0,50,12.7Z" fill="#333"/><path d="M61.7,16.6l.5-.2,7.9-7.9a.8.8,0,0,0-1.1-1.1l-7.9,7.9a.8.8,0,0,0,0,1.1Z" fill="#333"/><path d="M37.8,16.4l.5.2.5-.2a.8.8,0,0,0,0-1.1L31,7.4a.8.8,0,0,0-1.1,1.1Z" fill="#333"/><path d="M29,26.2a.8.8,0,0,0,.2-1.5L18.5,21.8a.8.8,0,1,0-.4,1.5l10.8,2.9Z" fill="#333"/><path d="M82.5,22.4a.8.8,0,0,0-.9-.5L70.8,24.7a.8.8,0,0,0,.2,1.5h.2l10.8-2.9A.8.8,0,0,0,82.5,22.4Z" fill="#333"/></svg>