<svg id="Layer_1" data-name="Layer 1" xmlns="http://www.w3.org/2000/svg" width="100" height="100" viewBox="0 0 100 100"><title>Artboard 1</title><circle cx="50" cy="50" r="50" fill="#df6420"/><rect x="40.7" y="73.9" width="18.7" height="3.03" fill="#fff"/><rect x="40.7" y="78.3" width="18.7" height="2.48" fill="#fff"/><path d="M40.7,83.1a3.1,3.1,0,0,0,3.1,3.1h1.5l.5,1.5A3.2,3.2,0,0,0,48.8,90h2.4a3.2,3.2,0,0,0,3.1-2.2l.5-1.5h1.4a3.1,3.1,0,0,0,3.1-3.1v-.3H40.7Z" fill="#fff"/><path d="M68.2,45.3a18,18,0,0,1-4,11.3,22.2,22.2,0,0,0-4.8,13.8v.9H53.2V54.5A18,18,0,0,0,58,53.1c2.7-1.2,3.9-2.6,3.5-4s-5-3.4-7.5-3.1-2,1.3-2,1.7v5.7a18.5,18.5,0,0,1-3.8,0c0-.9,0-1.8,0-2.5s0-2.6,0-3.1-.2-1.5-2-1.7-7.1,1-7.6,3.3.8,2.7,3.6,3.9A23.1,23.1,0,0,0,47,54.5c0,5.2,0,12.2,0,16.9H40.7v-.9a22.9,22.9,0,0,0-5-14A18.1,18.1,0,1,1,68.2,45.3Z" fill="#fff"/><path d="M45.4,47.2c-2.2,0-5.3,1.1-5.7,2.4s.9,1.6,2.9,2.4A21.8,21.8,0,0,0,47,53.3c0-.9,0-1.7,0-2.4s0-2.6,0-3.1-.7-.5-1-.5Z" fill="#fff"/><path d="M60.3,49.5c-.4-1.2-3.3-2.2-5.4-2.2h-.7c-.2,0-.9.2-.9.5v5.6A17.1,17.1,0,0,0,57.5,52C59.5,51.1,60.5,50.2,60.3,49.5Z" fill="#fff"/><path d="M52,54.7a20.2,20.2,0,0,1-3.8,0c0,5.2,0,12.1,0,16.7H52Z" fill="#fff"/><path d="M50,20.1a.6.6,0,0,0,.6-.6V10.6a.6.6,0,1,0-1.2,0v8.9A.6.6,0,0,0,50,20.1Z" fill="#fff"/><path d="M59.4,23.3l.4-.2,6.3-6.3a.6.6,0,0,0-.9-.9L59,22.2a.6.6,0,0,0,0,.9Z" fill="#fff"/><path d="M40.2,23.1l.4.2.4-.2a.6.6,0,0,0,0-.9l-6.3-6.3a.6.6,0,1,0-.9.9Z" fill="#fff"/><path d="M33.2,31a.6.6,0,0,0,.2-1.2l-8.6-2.3a.6.6,0,1,0-.3,1.2l8.6,2.3Z" fill="#fff"/><path d="M76,27.9a.6.6,0,0,0-.7-.4l-8.6,2.3a.6.6,0,0,0,.2,1.2h.2l8.6-2.3A.6.6,0,0,0,76,27.9Z" fill="#fff"/></svg>