<svg id="Layer_1" data-name="Layer 1" xmlns="http://www.w3.org/2000/svg" width="100" height="100" viewBox="0 0 100 100"><title>Artboard 1</title><circle cx="50" cy="50" r="50" fill="#df6420"/><path d="M83,22.1H17a3,3,0,0,0-3,3V57.9h0V64a3,3,0,0,0,2.2,2.9H40.5v6.7H36.2A2.1,2.1,0,0,0,34,75.8h0a2.1,2.1,0,0,0,2.1,2.1H63.8A2.1,2.1,0,0,0,66,75.8h0a2.1,2.1,0,0,0-2.1-2.1H59.5V67H83a3,3,0,0,0,3-3V25A3,3,0,0,0,83,22.1ZM19.3,27.4H80.7V57.9H19.3Z" fill="#fff"/><circle cx="65.3" cy="36.4" r="5.8" fill="#fff"/><path d="M68.7,43.1H61.9a5.3,5.3,0,0,0-5.3,5.3v6.5H73.9V48.3A5.3,5.3,0,0,0,68.7,43.1Z" fill="#fff"/><path d="M47.8,31.8H26.4A2.1,2.1,0,0,0,24.3,34V45a2.1,2.1,0,0,0,2.1,2.1H47.8A2.1,2.1,0,0,0,49.9,45V34A2.1,2.1,0,0,0,47.8,31.8ZM33.7,43.7V35.2l8.5,4.2Z" fill="#fff"/></svg>