<svg id="Layer_1" data-name="Layer 1" xmlns="http://www.w3.org/2000/svg" width="100" height="100" viewBox="0 0 100 100"><title>Artboard 1</title><path d="M95.9,11.2H4.1A4.1,4.1,0,0,0,0,15.3V61H0v8.5a4.1,4.1,0,0,0,3,4H36.8v9.3h-6a3,3,0,0,0-3,3h0a3,3,0,0,0,3,3H69.2a3,3,0,0,0,3-3h0a3,3,0,0,0-3-3h-6V73.6H95.9a4.1,4.1,0,0,0,4.1-4.1V15.3A4.1,4.1,0,0,0,95.9,11.2ZM7.4,18.6H92.6V61H7.4Z" fill="#333"/><circle cx="71.2" cy="31.2" r="8" fill="#333"/><path d="M76,40.4H66.5a7.3,7.3,0,0,0-7.3,7.3v9.1H83.3V47.7A7.3,7.3,0,0,0,76,40.4Z" fill="#333"/><path d="M46.9,24.8H17.2a2.9,2.9,0,0,0-2.9,2.9V43A2.9,2.9,0,0,0,17.2,46H46.9A2.9,2.9,0,0,0,49.8,43V27.7A2.9,2.9,0,0,0,46.9,24.8ZM27.3,41.3V29.5l11.8,5.9Z" fill="#333"/></svg>