<svg id="Layer_1" data-name="Layer 1" xmlns="http://www.w3.org/2000/svg" width="100" height="100" viewBox="0 0 100 100"><title>Artboard 1</title><circle cx="50" cy="50" r="50" fill="#f2f2f2"/><path d="M39.1,38.5H37l-.3-.3-.9-2.3H31.1L30.3,38l-.2.3-.5.2H27.9L32.4,27h2.2Zm-7.4-4.3h3.7l-1.4-3.8-.2-.6-.2-.7-.2.8-.2.6Z" fill="#df6420"/><path d="M45.1,36.9h1.3l1-.4V34.3H45.7a.4.4,0,0,1-.1-.3V32.7h3.8v4.6l-.9.6-1,.4-1.1.2H45a6,6,0,0,1-2.3-.4,5.4,5.4,0,0,1-3-3.1,6.3,6.3,0,0,1-.4-2.4,6.5,6.5,0,0,1,.4-2.4,5.2,5.2,0,0,1,3.1-3.1,6.8,6.8,0,0,1,2.5-.4,6.4,6.4,0,0,1,2.4.4,5.6,5.6,0,0,1,1.7,1.1l-.6,1a.5.5,0,0,1-.5.3h-.4l-.5-.3-.6-.3-.7-.2h-.9a4,4,0,0,0-1.5.3,3.2,3.2,0,0,0-1.2.8,3.7,3.7,0,0,0-.7,1.3,5,5,0,0,0-.3,1.7,5.2,5.2,0,0,0,.3,1.8,3.7,3.7,0,0,0,.8,1.3,3.3,3.3,0,0,0,1.2.8A4,4,0,0,0,45.1,36.9Z" fill="#df6420"/><path d="M53.8,38.5H51.6V27h2.1Z" fill="#df6420"/><path d="M58.5,36.7h4.6v1.8H56.3V27h2.1Z" fill="#df6420"/><path d="M71.8,27v1.7H66.7v3.2h4v1.6h-4v3.2h5.1v1.7H64.5V27Z" fill="#df6420"/><path d="M30.5,46.3l-.2.2h-.6l-.5-.3-.6-.3H26.9l-.6.3-.3.5a1.5,1.5,0,0,0-.1.6,1,1,0,0,0,.2.7l.6.5.8.3,1,.3,1,.4.8.6a2.6,2.6,0,0,1,.6.8,2.9,2.9,0,0,1,.2,1.2,4,4,0,0,1-.3,1.5,3.4,3.4,0,0,1-.8,1.2,3.7,3.7,0,0,1-1.2.8,4.6,4.6,0,0,1-1.7.3H26.2l-1-.3-.9-.5-.8-.6.6-1,.2-.2h.3l.4.2.5.4.7.4,1,.2a2.1,2.1,0,0,0,1.4-.4,1.6,1.6,0,0,0,.5-1.2,1.1,1.1,0,0,0-.2-.7l-.6-.5-.8-.3-1-.3-1-.4-.8-.6a2.6,2.6,0,0,1-.6-.9,3.4,3.4,0,0,1-.2-1.3,3.2,3.2,0,0,1,1-2.3,3.6,3.6,0,0,1,1.2-.7,4.3,4.3,0,0,1,1.6-.3,5.3,5.3,0,0,1,1.9.3,4.2,4.2,0,0,1,1.5.9Z" fill="#7cccbd"/><path d="M38.9,51.5l.2.6.2-.6.3-.5L43,44.6v-.2h2.2V55.7H43.4V48.3c0-.1,0-.3,0-.5v-.5L40,53.9l-.3.3H38.5l-.3-.3-3.5-6.5v.5c0,.2,0,.3,0,.5v7.4H32.9V44.3h2.2v.2L38.6,51Z" fill="#7cccbd"/><path d="M57.7,55.7H55.6l-.3-.3-.9-2.3H49.7l-.9,2.3-.2.3-.5.2H46.5L51,44.3h2.2Zm-7.4-4.3h3.7l-1.4-3.8-.2-.6-.2-.7-.2.8-.2.6Z" fill="#7cccbd"/><path d="M61.1,51.3v4.5H59V44.3h3.5l2,.2a3.8,3.8,0,0,1,1.4.7,2.6,2.6,0,0,1,.8,1,3.7,3.7,0,0,1,.1,2.4,3.2,3.2,0,0,1-.5.9l-.8.7-1.1.5a2.1,2.1,0,0,1,.7.7l2.9,4.2H65.5l-.3-.3-2.4-3.7-.3-.3H61.1Zm0-1.5h1.3l1.1-.2.7-.4a1.7,1.7,0,0,0,.4-.6,2.2,2.2,0,0,0,.1-.8,1.6,1.6,0,0,0-.6-1.3,2.8,2.8,0,0,0-1.8-.5H61.1Z" fill="#7cccbd"/><path d="M76.9,44.3V46H73.5v9.7H71.3V46H67.9V44.3Z" fill="#7cccbd"/><path d="M24.5,61.5v1.8H21V73H18.9V63.3H15.4V61.5Z" fill="#b3bf35"/><path d="M28,68.5V73H25.9V61.5h3.5l2,.2a3.8,3.8,0,0,1,1.4.7,2.6,2.6,0,0,1,.8,1,3.7,3.7,0,0,1,.1,2.4,3.2,3.2,0,0,1-.5.9l-.8.7-1.1.5a2.1,2.1,0,0,1,.7.7L34.8,73H32.5l-.3-.3-2.4-3.7-.3-.3H28ZM28,67h1.3l1.1-.2.7-.4a1.7,1.7,0,0,0,.4-.6,2.2,2.2,0,0,0,.1-.8,1.6,1.6,0,0,0-.6-1.3,2.8,2.8,0,0,0-1.8-.5H28Z" fill="#b3bf35"/><path d="M40.4,71.3l1.1-.2.8-.6a2.5,2.5,0,0,0,.5-.9,3.7,3.7,0,0,0,.2-1.2V61.5h2.1v6.9a5.3,5.3,0,0,1-.3,1.9,4.2,4.2,0,0,1-2.4,2.5,5.7,5.7,0,0,1-4,0A4.2,4.2,0,0,1,36,70.3a5.3,5.3,0,0,1-.3-1.9V61.5h2.1v6.9a3.7,3.7,0,0,0,.2,1.2,2.6,2.6,0,0,0,.5.9l.8.6Z" fill="#b3bf35"/><path d="M53.5,63.6l-.2.2h-.6l-.5-.3-.6-.3H50l-.6.3-.3.5a1.5,1.5,0,0,0-.1.6,1,1,0,0,0,.2.7l.6.5.8.3,1,.3,1,.4.8.6a2.6,2.6,0,0,1,.6.8,2.9,2.9,0,0,1,.2,1.2,4,4,0,0,1-.3,1.5,3.4,3.4,0,0,1-.8,1.2,3.7,3.7,0,0,1-1.2.8,4.6,4.6,0,0,1-1.7.3H49.2l-1-.3-.9-.5-.8-.6.6-1,.2-.2h.3l.4.2.5.4.7.4,1,.2a2.1,2.1,0,0,0,1.4-.4,1.6,1.6,0,0,0,.5-1.2A1.1,1.1,0,0,0,52,69l-.6-.5-.8-.3-1-.3-1-.4-.8-.6a2.6,2.6,0,0,1-.6-.9,3.4,3.4,0,0,1-.2-1.3,3.2,3.2,0,0,1,1-2.3,3.6,3.6,0,0,1,1.2-.7,4.3,4.3,0,0,1,1.6-.3,5.3,5.3,0,0,1,1.9.3,4.2,4.2,0,0,1,1.5.9Z" fill="#b3bf35"/><path d="M64,61.5v1.8H60.5V73H58.4V63.3H54.9V61.5Z" fill="#b3bf35"/><path d="M72.6,61.5v1.7H67.5v3.2h4v1.6h-4v3.2h5.1V73H65.3V61.5Z" fill="#b3bf35"/><path d="M84.6,67.3a6.2,6.2,0,0,1-.4,2.3,5.2,5.2,0,0,1-3,3,6.4,6.4,0,0,1-2.4.4H74.4V61.5h4.4a6.4,6.4,0,0,1,2.4.4A5.4,5.4,0,0,1,83,63.1a5.3,5.3,0,0,1,1.2,1.8A6.2,6.2,0,0,1,84.6,67.3Zm-2.2,0a5.3,5.3,0,0,0-.3-1.7,3.6,3.6,0,0,0-.7-1.3,3.1,3.1,0,0,0-1.1-.8,3.9,3.9,0,0,0-1.5-.3H76.6v8.1h2.2a3.9,3.9,0,0,0,1.5-.3,3.1,3.1,0,0,0,1.1-.8,3.6,3.6,0,0,0,.7-1.3A5.3,5.3,0,0,0,82.4,67.3Z" fill="#b3bf35"/></svg>