<svg id="Layer_1" data-name="Layer 1" xmlns="http://www.w3.org/2000/svg" width="100" height="100" viewBox="0 0 100 100"><title>Artboard 1</title><circle cx="50" cy="50" r="50" fill="#eae8dd"/><rect x="21.7" y="23.5" width="56.6" height="56.6" rx="4.4" ry="4.4" transform="translate(-4.3 4.6) rotate(-5)" fill="#b2b3b2"/><path d="M77,35.2l-.8-9.6a4.4,4.4,0,0,0-4.8-4L23.7,25.7a4.4,4.4,0,0,0-4,4.8l.8,9.6Z" fill="#038ab1"/><path d="M76.7,31.8l-.5-6.2a4.4,4.4,0,0,0-4.8-4L23.7,25.7a4.4,4.4,0,0,0-4,4.8l.5,6.2Z" fill="#007298"/><circle cx="29.1" cy="28.9" r="2.2" transform="translate(-2.4 2.6) rotate(-5)" fill="#005e85"/><circle cx="38.5" cy="28.1" r="2.2" transform="translate(-2.3 3.5) rotate(-5)" fill="#005e85"/><circle cx="47.8" cy="27.3" r="2.2" transform="translate(-2.2 4.3) rotate(-5)" fill="#005e85"/><circle cx="57.2" cy="26.4" r="2.2" transform="translate(-2.1 5.1) rotate(-5)" fill="#005e85"/><circle cx="66.6" cy="25.6" r="2.2" transform="translate(-2 5.9) rotate(-5)" fill="#005e85"/><rect x="27.1" y="21.1" width="3.3" height="9.49" rx="1.7" ry="1.7" transform="translate(-2.1 2.6) rotate(-5)" fill="#333e48"/><rect x="36.5" y="20.3" width="3.3" height="9.49" rx="1.7" ry="1.7" transform="translate(-2 3.4) rotate(-5)" fill="#333e48"/><rect x="45.9" y="19.5" width="3.3" height="9.49" rx="1.7" ry="1.7" transform="translate(-1.9 4.2) rotate(-5)" fill="#333e48"/><rect x="55.3" y="18.7" width="3.3" height="9.49" rx="1.7" ry="1.7" transform="translate(-1.8 5.1) rotate(-5)" fill="#333e48"/><rect x="64.7" y="17.9" width="3.3" height="9.49" rx="1.7" ry="1.7" transform="translate(-1.7 5.9) rotate(-5)" fill="#333e48"/><circle cx="42.2" cy="44.9" r="2.4" transform="translate(-3.8 3.8) rotate(-5)" fill="#fff"/><circle cx="49.3" cy="44.3" r="2.4" transform="translate(-3.7 4.5) rotate(-5)" fill="#fff"/><circle cx="56.5" cy="43.7" r="2.4" transform="translate(-3.6 5.1) rotate(-5)" fill="#fff"/><circle cx="63.6" cy="43" r="2.4" transform="translate(-3.5 5.7) rotate(-5)" fill="#fff"/><circle cx="70.8" cy="42.4" r="2.4" transform="translate(-3.4 6.3) rotate(-5)" fill="#fff"/><circle cx="28.5" cy="53" r="2.4" transform="translate(-4.5 2.7) rotate(-5)" fill="#fff"/><circle cx="35.7" cy="52.3" r="2.4" transform="translate(-4.4 3.3) rotate(-5)" fill="#fff"/><circle cx="42.8" cy="51.7" r="2.4" transform="translate(-4.3 3.9) rotate(-5)" fill="#fff"/><circle cx="49.9" cy="51.1" r="2.4" transform="translate(-4.3 4.5) rotate(-5)" fill="#fff"/><circle cx="57.1" cy="50.5" r="2.4" transform="translate(-4.2 5.2) rotate(-5)" fill="#fff"/><circle cx="64.2" cy="49.8" r="2.4" transform="translate(-4.1 5.8) rotate(-5)" fill="#fff"/><circle cx="71.3" cy="49.2" r="2.4" transform="translate(-4 6.4) rotate(-5)" fill="#fff"/><circle cx="29.1" cy="59.7" r="2.4" transform="translate(-5.1 2.8) rotate(-5)" fill="#fff"/><circle cx="36.3" cy="59.1" r="2.4" transform="translate(-5 3.4) rotate(-5)" fill="#fff"/><circle cx="43.4" cy="58.5" r="2.4" transform="translate(-4.9 4) rotate(-5)" fill="#fff"/><circle cx="50.5" cy="57.9" r="2.4" transform="translate(-4.9 4.6) rotate(-5)" fill="#fff"/><circle cx="57.7" cy="57.2" r="2.4" transform="translate(-4.8 5.2) rotate(-5)" fill="#fff"/><circle cx="64.8" cy="56.6" r="2.4" transform="translate(-4.7 5.9) rotate(-5)" fill="#fff"/><circle cx="71.9" cy="56" r="2.4" transform="translate(-4.6 6.5) rotate(-5)" fill="#fff"/><circle cx="29.7" cy="66.5" r="2.4" transform="translate(-5.7 2.8) rotate(-5)" fill="#fff"/><circle cx="36.8" cy="65.9" r="2.4" transform="translate(-5.6 3.5) rotate(-5)" fill="#fff"/><circle cx="44" cy="65.3" r="2.4" transform="translate(-5.5 4.1) rotate(-5)" fill="#fff"/><circle cx="51.1" cy="64.7" r="2.4" transform="translate(-5.4 4.7) rotate(-5)" fill="#fff"/><circle cx="58.3" cy="64" r="2.4" transform="translate(-5.4 5.3) rotate(-5)" fill="#fff"/><circle cx="65.4" cy="63.4" r="2.4" transform="translate(-5.3 5.9) rotate(-5)" fill="#fff"/><circle cx="72.5" cy="62.8" r="2.4" transform="translate(-5.2 6.6) rotate(-5)" fill="#fff"/><circle cx="30.3" cy="73.3" r="2.4" transform="translate(-6.3 2.9) rotate(-5)" fill="#fff"/><circle cx="37.4" cy="72.7" r="2.4" transform="translate(-6.2 3.5) rotate(-5)" fill="#fff"/><circle cx="44.6" cy="72.1" r="2.4" transform="translate(-6.1 4.2) rotate(-5)" fill="#fff"/><circle cx="51.7" cy="71.4" r="2.4" transform="translate(-6 4.8) rotate(-5)" fill="#fff"/><circle cx="58.9" cy="70.8" r="2.4" transform="translate(-5.9 5.4) rotate(-5)" fill="#fff"/><rect x="39.8" y="42.5" width="4.8" height="4.78" transform="translate(-3.8 3.8) rotate(-5)" fill="#fff"/><rect x="47" y="41.9" width="4.8" height="4.78" transform="translate(-3.7 4.5) rotate(-5)" fill="#fff"/><rect x="54.1" y="41.3" width="4.8" height="4.78" transform="translate(-3.6 5.1) rotate(-5)" fill="#fff"/><rect x="61.2" y="40.7" width="4.8" height="4.78" transform="translate(-3.5 5.7) rotate(-5)" fill="#fff"/><rect x="68.4" y="40" width="4.8" height="4.78" transform="translate(-3.4 6.3) rotate(-5)" fill="#fff"/><rect x="40.4" y="49.3" width="4.8" height="4.78" transform="translate(-4.3 3.9) rotate(-5)" fill="#fff"/><rect x="33.3" y="49.9" width="4.8" height="4.78" transform="translate(-4.4 3.3) rotate(-5)" fill="#fff"/><rect x="47.5" y="48.7" width="4.8" height="4.78" transform="translate(-4.3 4.5) rotate(-5)" fill="#fff"/><rect x="54.7" y="48.1" width="4.8" height="4.78" transform="translate(-4.2 5.2) rotate(-5)" fill="#fff"/><rect x="61.8" y="47.4" width="4.8" height="4.78" transform="translate(-4.1 5.8) rotate(-5)" fill="#fff"/><rect x="69" y="46.8" width="4.8" height="4.78" transform="translate(-4 6.4) rotate(-5)" fill="#fff"/><rect x="26.1" y="50.6" width="4.8" height="4.78" transform="translate(-4.5 2.7) rotate(-5)" fill="#fff"/><rect x="41" y="56.1" width="4.8" height="4.78" transform="translate(-4.9 4) rotate(-5)" fill="#fff"/><rect x="33.9" y="56.7" width="4.8" height="4.78" transform="translate(-5 3.4) rotate(-5)" fill="#fff"/><rect x="48.1" y="55.5" width="4.8" height="4.78" transform="translate(-4.9 4.6) rotate(-5)" fill="#fff"/><rect x="55.3" y="54.9" width="4.8" height="4.78" transform="translate(-4.8 5.2) rotate(-5)" fill="#fff"/><rect x="62.4" y="54.2" width="4.8" height="4.78" transform="translate(-4.7 5.9) rotate(-5)" fill="#fff"/><rect x="69.6" y="53.6" width="4.8" height="4.78" transform="translate(-4.6 6.5) rotate(-5)" fill="#fff"/><rect x="26.7" y="57.3" width="4.8" height="4.78" transform="translate(-5.1 2.8) rotate(-5)" fill="#fff"/><rect x="41.6" y="62.9" width="4.8" height="4.78" transform="translate(-5.5 4.1) rotate(-5)" fill="#fff"/><rect x="34.5" y="63.5" width="4.8" height="4.78" transform="translate(-5.6 3.5) rotate(-5)" fill="#fff"/><rect x="48.7" y="62.3" width="4.8" height="4.78" transform="translate(-5.4 4.7) rotate(-5)" fill="#fff"/><rect x="55.9" y="61.6" width="4.8" height="4.78" transform="translate(-5.4 5.3) rotate(-5)" fill="#fff"/><rect x="63" y="61" width="4.8" height="4.78" transform="translate(-5.3 5.9) rotate(-5)" fill="#fff"/><rect x="70.1" y="60.4" width="4.8" height="4.78" transform="translate(-5.2 6.6) rotate(-5)" fill="#fff"/><rect x="27.3" y="64.1" width="4.8" height="4.78" transform="translate(-5.7 2.8) rotate(-5)" fill="#fff"/><rect x="42.2" y="69.7" width="4.8" height="4.78" transform="translate(-6.1 4.2) rotate(-5)" fill="#fff"/><rect x="35.1" y="70.3" width="4.8" height="4.78" transform="translate(-6.2 3.5) rotate(-5)" fill="#fff"/><rect x="49.3" y="69" width="4.8" height="4.78" transform="translate(-6 4.8) rotate(-5)" fill="#fff"/><rect x="56.5" y="68.4" width="4.8" height="4.78" transform="translate(-5.9 5.4) rotate(-5)" fill="#fff"/><rect x="27.9" y="70.9" width="4.8" height="4.78" transform="translate(-6.3 2.9) rotate(-5)" fill="#fff"/></svg>