<svg id="Layer_1" data-name="Layer 1" xmlns="http://www.w3.org/2000/svg" width="100" height="100" viewBox="0 0 100 100"><title>Artboard 1</title><circle cx="50" cy="50" r="50" fill="#eae8dd"/><path d="M40.3,76.2H59.8a0,0,0,0,1,0,0v8.2a3.2,3.2,0,0,1-3.2,3.2h-13a3.2,3.2,0,0,1-3.2-3.2V76.2A0,0,0,0,1,40.3,76.2Z" fill="#989898"/><rect x="40.3" y="72.2" width="19.5" height="4.02" fill="gray"/><rect x="40.3" y="73.3" width="19.5" height="1.74" fill="#666667"/><rect x="40.3" y="77.1" width="19.5" height="1.42" fill="gray"/><rect x="40.3" y="79.2" width="19.5" height="1.42" fill="gray"/><rect x="40.3" y="81.3" width="19.5" height="1.42" fill="gray"/><rect x="40.3" y="83.4" width="19.5" height="1.42" fill="gray"/><path d="M68.9,45.1A18.9,18.9,0,1,0,35.1,56.7a23.8,23.8,0,0,1,5.2,14.6v.9H59.8v-.9a23,23,0,0,1,5-14.4A18.8,18.8,0,0,0,68.9,45.1Z" fill="#f8eb60"/><path d="M43.5,87.7H56.6a1.7,1.7,0,0,0-1.7-1.7H45.2a1.7,1.7,0,0,0-1.7,1.7Z" fill="gray"/><path d="M68.9,45.1A18.9,18.9,0,1,0,35.1,56.7a23.8,23.8,0,0,1,5.2,14.6v.9H59.8v-.9a23,23,0,0,1,5-14.4A18.8,18.8,0,0,0,68.9,45.1Z" fill="#ffd100" opacity="0.5"/><path d="M51.3,91.6H48.8a3.4,3.4,0,0,1-3.2-2.3L45,87.7H55l-.5,1.6A3.4,3.4,0,0,1,51.3,91.6Z" fill="#666667"/><path d="M50,19a.6.6,0,0,1-.6-.6V9.1a.6.6,0,1,1,1.3,0v9.3A.6.6,0,0,1,50,19Z" fill="#f1d235"/><path d="M59.8,22.2l-.4-.2a.6.6,0,0,1,0-.9l6.5-6.5a.6.6,0,0,1,.9.9L60.2,22Z" fill="#f1d235"/><path d="M40.3,22.2l-.4-.2-6.5-6.5a.6.6,0,0,1,.9-.9l6.5,6.5a.6.6,0,0,1,0,.9Z" fill="#f1d235"/><path d="M32.6,30.2h-.2l-8.9-2.4a.6.6,0,1,1,.3-1.2L32.7,29a.6.6,0,0,1-.2,1.2Z" fill="#f1d235"/><path d="M67.4,30.2a.6.6,0,0,1-.2-1.2l8.9-2.4a.6.6,0,1,1,.3,1.2l-8.9,2.4Z" fill="#f1d235"/><circle cx="43.5" cy="52.4" r="6.7" transform="translate(-18.1 23.3) rotate(-25)" fill="#99a4ae"/><rect x="39.4" y="45.6" width="2.6" height="1.54" transform="translate(-15.8 21.5) rotate(-25)" fill="#99a4ae"/><rect x="45" y="57.7" width="2.6" height="1.54" transform="translate(-20.4 25) rotate(-25)" fill="#99a4ae"/><rect x="36.2" y="54.5" width="2.6" height="1.54" transform="translate(3.2 112.6) rotate(-115)" fill="#99a4ae"/><rect x="48.2" y="48.9" width="2.6" height="1.54" transform="translate(25.5 115.5) rotate(-115)" fill="#99a4ae"/><rect x="35.9" y="49.4" width="2.6" height="1.54" transform="translate(-22.6 68) rotate(-70)" fill="#99a4ae"/><rect x="48.5" y="54" width="2.6" height="1.54" transform="translate(-18.7 82.8) rotate(-70)" fill="#99a4ae"/><rect x="39.9" y="57.9" width="2.6" height="1.54" transform="translate(59.9 128) rotate(-160)" fill="#99a4ae"/><rect x="44.5" y="45.4" width="2.6" height="1.54" transform="translate(73 105.2) rotate(-160)" fill="#99a4ae"/><circle cx="43.5" cy="52.4" r="5.2" transform="translate(-18.1 23.3) rotate(-25)" fill="#778692"/><circle cx="43.5" cy="52.4" r="3.3" transform="translate(-18.1 23.3) rotate(-25)" fill="#99a4ae"/><circle cx="43.5" cy="52.4" r="2" transform="translate(-18.1 23.3) rotate(-25)" fill="#778692"/><circle cx="43.5" cy="52.4" r="1.3" transform="translate(-18.1 23.3) rotate(-25)" fill="#99a4ae"/><circle cx="43.5" cy="52.4" r="0.5" transform="translate(-18.1 23.3) rotate(-25)" fill="#435363"/><circle cx="55.6" cy="40.3" r="8.4" fill="#7d868c"/><rect x="45.5" y="39.4" width="3.3" height="1.94" transform="translate(6.8 87.5) rotate(-90)" fill="#7d868c"/><rect x="62.4" y="39.4" width="3.3" height="1.94" transform="translate(23.6 104.3) rotate(-90)" fill="#7d868c"/><rect x="54" y="47.8" width="3.3" height="1.94" transform="translate(111.2 97.5) rotate(-180)" fill="#7d868c"/><rect x="54" y="31" width="3.3" height="1.94" transform="translate(111.2 63.9) rotate(-180)" fill="#7d868c"/><rect x="48" y="45.3" width="3.3" height="1.94" transform="translate(52 114.1) rotate(-135)" fill="#7d868c"/><rect x="59.9" y="33.4" width="3.3" height="1.94" transform="translate(80.7 102.2) rotate(-135)" fill="#7d868c"/><rect x="59.9" y="45.3" width="3.3" height="1.94" transform="translate(137.8 35.5) rotate(135)" fill="#7d868c"/><rect x="48" y="33.4" width="3.3" height="1.94" transform="translate(109.1 23.6) rotate(135)" fill="#7d868c"/><circle cx="55.6" cy="40.3" r="6.5" fill="#5c6670"/><circle cx="55.6" cy="40.3" r="4.2" fill="#7d868c"/><circle cx="55.6" cy="40.3" r="2.5" fill="#5c6670"/><circle cx="55.6" cy="40.3" r="1.6" fill="#99a4ae"/><circle cx="55.6" cy="40.3" r="0.6" fill="#333e48"/><circle cx="50.9" cy="64.9" r="5.8" fill="#7d868c"/><rect x="44" y="64.3" width="2.2" height="1.34" transform="translate(-19.8 110) rotate(-90)" fill="#7d868c"/><rect x="55.6" y="64.3" width="2.2" height="1.34" transform="translate(-8.2 121.6) rotate(-90)" fill="#7d868c"/><rect x="49.8" y="70.1" width="2.2" height="1.34" transform="translate(101.8 141.5) rotate(-180)" fill="#7d868c"/><rect x="49.8" y="58.5" width="2.2" height="1.34" transform="translate(101.8 118.3) rotate(-180)" fill="#7d868c"/><rect x="45.7" y="68.4" width="2.2" height="1.34" transform="translate(31.1 150.9) rotate(-135)" fill="#7d868c"/><rect x="53.9" y="60.2" width="2.2" height="1.34" transform="translate(50.9 142.7) rotate(-135)" fill="#7d868c"/><rect x="53.9" y="68.4" width="2.2" height="1.34" transform="translate(142.7 78.9) rotate(135)" fill="#7d868c"/><rect x="45.7" y="60.2" width="2.2" height="1.34" transform="translate(122.9 70.7) rotate(135)" fill="#7d868c"/><circle cx="50.9" cy="64.9" r="4.5" fill="#5c6670"/><circle cx="50.9" cy="64.9" r="2.9" fill="#7d868c"/><circle cx="50.9" cy="64.9" r="1.7" fill="#5c6670"/><circle cx="50.9" cy="64.9" r="1.1" fill="#99a4ae"/><circle cx="50.9" cy="64.9" r="0.4" fill="#333e48"/><circle cx="57.1" cy="54.8" r="4.1" transform="translate(-17.8 29.2) rotate(-25)" fill="#99a4ae"/><rect x="54.5" y="50.6" width="1.6" height="0.96" transform="translate(-16.4 28.2) rotate(-25)" fill="#99a4ae"/><rect x="58" y="58.1" width="1.6" height="0.96" transform="translate(-19.2 30.3) rotate(-25)" fill="#99a4ae"/><rect x="52.5" y="56.1" width="1.6" height="0.96" transform="translate(24.5 128.8) rotate(-115)" fill="#99a4ae"/><rect x="60" y="52.6" width="1.6" height="0.96" transform="translate(38.4 130.6) rotate(-115)" fill="#99a4ae"/><rect x="52.4" y="52.9" width="1.6" height="0.96" transform="translate(-15.2 85.1) rotate(-70)" fill="#99a4ae"/><rect x="60.1" y="55.8" width="1.6" height="0.96" transform="translate(-12.8 94.3) rotate(-70)" fill="#99a4ae"/><rect x="54.8" y="58.2" width="1.6" height="0.96" transform="translate(87.8 132.9) rotate(-160)" fill="#99a4ae"/><rect x="57.7" y="50.5" width="1.6" height="0.96" transform="matrix(-0.94, -0.34, 0.34, -0.94, 95.98, 118.79)" fill="#99a4ae"/><circle cx="57.1" cy="54.8" r="3.2" transform="translate(-17.8 29.2) rotate(-25)" fill="#778692"/><circle cx="40.2" cy="38.9" r="5" transform="translate(-12.7 20.6) rotate(-25)" fill="#99a4ae"/><rect x="37.1" y="33.7" width="2" height="1.16" transform="translate(-10.9 19.3) rotate(-25)" fill="#99a4ae"/><rect x="41.3" y="42.8" width="2" height="1.16" transform="translate(-14.4 21.9) rotate(-25)" fill="#99a4ae"/><rect x="34.6" y="40.4" width="2" height="1.16" transform="translate(13.5 90.6) rotate(-115)" fill="#99a4ae"/><rect x="43.8" y="36.1" width="2" height="1.16" transform="translate(30.4 92.8) rotate(-115)" fill="#99a4ae"/><rect x="34.5" y="36.6" width="2" height="1.16" transform="translate(-11.6 57.7) rotate(-70)" fill="#99a4ae"/><rect x="43.9" y="40" width="2" height="1.16" transform="translate(-8.6 68.9) rotate(-70)" fill="#99a4ae"/><rect x="37.5" y="43" width="2" height="1.16" transform="translate(59.7 97.7) rotate(-160)" fill="#99a4ae"/><rect x="40.9" y="33.5" width="2" height="1.16" transform="matrix(-0.94, -0.34, 0.34, -0.94, 69.6, 80.52)" fill="#99a4ae"/><circle cx="40.2" cy="38.9" r="3.9" transform="translate(-12.7 20.6) rotate(-25)" fill="#778692"/></svg>