<svg id="Layer_1" data-name="Layer 1" xmlns="http://www.w3.org/2000/svg" xmlns:xlink="http://www.w3.org/1999/xlink" width="100" height="100" viewBox="0 0 100 100"><defs><clipPath id="clip-path"><circle cx="17.4" cy="60" r="10.3" fill="none"/></clipPath><clipPath id="clip-path-2"><path d="M19.1,63.7V62.4H15.5v1.2a2.8,2.8,0,0,1-1,2.1h0v.5A2.8,2.8,0,0,0,17.3,69h0a2.8,2.8,0,0,0,2.8-2.8v-.5h0A2.8,2.8,0,0,1,19.1,63.7Z" fill="none"/></clipPath><filter id="luminosity-noclip" x="11" y="51" width="13" height="16" filterUnits="userSpaceOnUse" color-interpolation-filters="sRGB"><feFlood flood-color="#fff" result="bg"/><feBlend in="SourceGraphic" in2="bg"/></filter><mask id="mask" x="11" y="51" width="13" height="16" maskUnits="userSpaceOnUse"><g filter="url(#luminosity-noclip)"><image width="13" height="16" transform="translate(11 51)" xlink:href="Artboard 11.png"/></g></mask><clipPath id="clip-path-3"><circle cx="57.8" cy="17" r="10.4" fill="none"/></clipPath><clipPath id="clip-path-4"><path d="M55.2,21.5h0a2.7,2.7,0,0,0,.8-1.9V18.5h4v1.2a2.7,2.7,0,0,0,.8,1.9h0v5.6H55.2Z" fill="none"/></clipPath><filter id="luminosity-noclip-2" x="52" y="8" width="12" height="15" filterUnits="userSpaceOnUse" color-interpolation-filters="sRGB"><feFlood flood-color="#fff" result="bg"/><feBlend in="SourceGraphic" in2="bg"/></filter><mask id="mask-2" x="52" y="8" width="12" height="15" maskUnits="userSpaceOnUse"><g filter="url(#luminosity-noclip-2)"><image width="12" height="15" transform="translate(52 8)" xlink:href="Artboard 12.png"/></g></mask><filter id="luminosity-noclip-3" x="52" y="14" width="7" height="6" filterUnits="userSpaceOnUse" color-interpolation-filters="sRGB"><feFlood flood-color="#fff" result="bg"/><feBlend in="SourceGraphic" in2="bg"/></filter><mask id="mask-3" x="52" y="14" width="7" height="6" maskUnits="userSpaceOnUse"><g filter="url(#luminosity-noclip-3)"><image width="7" height="6" transform="translate(52 14)" xlink:href="Artboard 13.png"/></g></mask><filter id="luminosity-noclip-4" x="57" y="14" width="7" height="6" filterUnits="userSpaceOnUse" color-interpolation-filters="sRGB"><feFlood flood-color="#fff" result="bg"/><feBlend in="SourceGraphic" in2="bg"/></filter><mask id="mask-4" x="57" y="14" width="7" height="6" maskUnits="userSpaceOnUse"><g filter="url(#luminosity-noclip-4)"><image width="7" height="6" transform="translate(57 14)" xlink:href="Artboard 14.png"/></g></mask><filter id="luminosity-noclip-5" x="52" y="12" width="12" height="8" filterUnits="userSpaceOnUse" color-interpolation-filters="sRGB"><feFlood flood-color="#fff" result="bg"/><feBlend in="SourceGraphic" in2="bg"/></filter><mask id="mask-5" x="52" y="12" width="12" height="8" maskUnits="userSpaceOnUse"><g filter="url(#luminosity-noclip-5)"><image width="12" height="8" transform="translate(52 12)" xlink:href="Artboard 15.png"/></g></mask><filter id="luminosity-noclip-6" x="48" y="25" width="8" height="5" filterUnits="userSpaceOnUse" color-interpolation-filters="sRGB"><feFlood flood-color="#fff" result="bg"/><feBlend in="SourceGraphic" in2="bg"/></filter><mask id="mask-6" x="48" y="25" width="8" height="5" maskUnits="userSpaceOnUse"><g filter="url(#luminosity-noclip-6)"><image width="8" height="5" transform="translate(48 25)" xlink:href="Artboard 16.png"/></g></mask><filter id="luminosity-noclip-7" x="60" y="25" width="8" height="5" filterUnits="userSpaceOnUse" color-interpolation-filters="sRGB"><feFlood flood-color="#fff" result="bg"/><feBlend in="SourceGraphic" in2="bg"/></filter><mask id="mask-7" x="60" y="25" width="8" height="5" maskUnits="userSpaceOnUse"><g filter="url(#luminosity-noclip-7)"><image width="8" height="5" transform="translate(60 25)" xlink:href="Artboard 17.png"/></g></mask><clipPath id="clip-path-5"><circle cx="50" cy="50" r="50" fill="none"/></clipPath><clipPath id="clip-path-6"><circle cx="50" cy="50" r="13.8" fill="none"/></clipPath><clipPath id="clip-path-7"><path d="M52.1,54.5V53.1H47.9v1.4A3.3,3.3,0,0,1,46.8,57h0v.5A3.2,3.2,0,0,0,50,60.8h0a3.2,3.2,0,0,0,3.2-3.2V57h0A3.3,3.3,0,0,1,52.1,54.5Z" fill="none"/></clipPath><filter id="luminosity-noclip-8" x="43" y="40" width="14" height="18" filterUnits="userSpaceOnUse" color-interpolation-filters="sRGB"><feFlood flood-color="#fff" result="bg"/><feBlend in="SourceGraphic" in2="bg"/></filter><mask id="mask-8" x="43" y="40" width="14" height="18" maskUnits="userSpaceOnUse"><g filter="url(#luminosity-noclip-8)"><image width="14" height="18" transform="translate(43 40)" xlink:href="Artboard 18.png"/></g></mask><filter id="luminosity-noclip-9" x="43" y="45" width="14" height="8" filterUnits="userSpaceOnUse" color-interpolation-filters="sRGB"><feFlood flood-color="#fff" result="bg"/><feBlend in="SourceGraphic" in2="bg"/></filter><mask id="mask-9" x="43" y="45" width="14" height="8" maskUnits="userSpaceOnUse"><g filter="url(#luminosity-noclip-9)"><image width="14" height="8" transform="translate(43 45)" xlink:href="Artboard 19.png"/></g></mask></defs><title>Artboard 1</title><circle cx="50" cy="50" r="50" fill="#eae8dd"/><circle cx="22.7" cy="33.8" r="9.8" transform="translate(-12.2 12.8) rotate(-25)" fill="#99a4ae"/><rect x="16.7" y="23.8" width="3.8" height="2.25" transform="translate(-8.8 10.2) rotate(-25)" fill="#99a4ae"/><rect x="24.9" y="41.5" width="3.8" height="2.25" transform="translate(-15.5 15.3) rotate(-25)" fill="#99a4ae"/><rect x="12" y="36.8" width="3.8" height="2.25" transform="translate(-14.7 66.5) rotate(-115)" fill="#99a4ae"/><rect x="29.6" y="28.6" width="3.8" height="2.25" transform="translate(17.9 70.8) rotate(-115)" fill="#99a4ae"/><rect x="11.6" y="29.4" width="3.8" height="2.25" transform="translate(-19.8 32.8) rotate(-70)" fill="#99a4ae"/><rect x="30" y="36" width="3.8" height="2.25" transform="translate(-14 54.4) rotate(-70)" fill="#99a4ae"/><rect x="17.5" y="41.9" width="3.8" height="2.25" transform="translate(22.8 90) rotate(-160)" fill="#99a4ae"/><rect x="24.1" y="23.5" width="3.8" height="2.25" transform="translate(42.1 56.7) rotate(-160)" fill="#99a4ae"/><circle cx="22.7" cy="33.8" r="7.6" transform="translate(-12.2 12.8) rotate(-25)" fill="#778692"/><circle cx="22.7" cy="33.8" r="4.9" transform="translate(-12.2 12.8) rotate(-25)" fill="#99a4ae"/><circle cx="22.7" cy="33.8" r="2.9" transform="translate(-12.2 12.8) rotate(-25)" fill="#778692"/><circle cx="22.7" cy="33.8" r="1.8" transform="translate(-12.2 12.8) rotate(-25)" fill="#99a4ae"/><circle cx="22.7" cy="33.8" r="0.7" transform="translate(-12.2 12.8) rotate(-25)" fill="#435363"/><circle cx="17.4" cy="60" r="13.2" fill="#778692"/><rect x="14.9" y="45.3" width="5.1" height="3.05" fill="#778692"/><rect x="14.9" y="71.7" width="5.1" height="3.05" fill="#778692"/><rect x="1.7" y="58.5" width="5.1" height="3.05" transform="translate(-55.8 64.2) rotate(-90)" fill="#778692"/><rect x="28.1" y="58.5" width="5.1" height="3.05" transform="translate(-29.4 90.6) rotate(-90)" fill="#778692"/><rect x="5.5" y="49.1" width="5.1" height="3.05" transform="translate(-33.5 20.6) rotate(-45)" fill="#778692"/><rect x="24.2" y="67.8" width="5.1" height="3.05" transform="translate(-41.2 39.2) rotate(-45)" fill="#778692"/><rect x="5.5" y="67.8" width="5.1" height="3.05" transform="translate(-35.2 124.1) rotate(-135)" fill="#778692"/><rect x="24.2" y="49.1" width="5.1" height="3.05" transform="translate(9.9 105.4) rotate(-135)" fill="#778692"/><circle cx="17.4" cy="60" r="10.3" fill="#c3c6c8"/><g clip-path="url(#clip-path)"><circle cx="17.3" cy="56.2" r="4.4" fill="#dcaa00"/><rect x="14.4" y="65.6" width="5.8" height="1.07" fill="#7e9bc0"/><path d="M12.5,65.7h9.7a3.5,3.5,0,0,1,3.5,3.5V81.6a0,0,0,0,1,0,0H8.9a0,0,0,0,1,0,0V69.3A3.5,3.5,0,0,1,12.5,65.7Z" fill="#dde1e9"/><path d="M12.5,65.7a3.5,3.5,0,0,0-3.5,3.5V81.6h8.4V65.7Z" fill="#cfd9e6"/><path d="M19.1,63.7V62.4H15.5v1.2a2.8,2.8,0,0,1-1,2.1h0v.5A2.8,2.8,0,0,0,17.3,69h0a2.8,2.8,0,0,0,2.8-2.8v-.5h0A2.8,2.8,0,0,1,19.1,63.7Z" fill="#ecc19c"/><polygon points="17.3 67.3 13.2 65.7 14.6 69 17.3 74.8 17.3 74.8 17.3 67.3 17.3 67.3" fill="#cfd9e6"/><g clip-path="url(#clip-path-2)"><g mask="url(#mask)"><path d="M19.1,63.8l-.8.6a1.6,1.6,0,0,1-1.9,0l-.8-.6a5.6,5.6,0,0,1-2.2-4.3v-2a4,4,0,0,1,4-4.2h0a4,4,0,0,1,4,4.2v2A5.6,5.6,0,0,1,19.1,63.8Z" fill="#ebc19c"/></g></g><polygon points="21.4 65.7 17.3 67.3 17.3 74.8 20 69 21.4 65.7" fill="#dde1e9"/><path d="M19.1,63.4l-.8.6a1.6,1.6,0,0,1-1.9,0l-.8-.6a5.6,5.6,0,0,1-2.2-4.3v-2a4,4,0,0,1,4-4.2h0a4,4,0,0,1,4,4.2v2A5.6,5.6,0,0,1,19.1,63.4Z" fill="#f0d0b4"/><polygon points="17.8 68.7 16.8 68.7 16.4 67.3 18.3 67.3 17.8 68.7" fill="#73243d"/><polygon points="14.4 65.6 17.3 67.3 15.8 68.7 13.2 65.7 14.4 65.6" fill="#a9bcd6"/><polygon points="20.2 65.6 17.3 67.3 18.8 68.7 21.4 65.7 20.2 65.6" fill="#a9bcd6"/><polygon points="18.3 77.9 17.3 79.2 16.3 77.9 16.8 68.7 17.8 68.7 18.3 77.9" fill="#8c1d40"/><polygon points="8.9 69.3 11.8 72.1 11.8 81.6 8.9 81.6 8.9 69.3" fill="#dde1e9"/><polygon points="25.7 69.3 22.9 72.1 22.9 81.6 25.7 81.6 25.7 69.3" fill="#cfd9e6"/><path d="M13.6,59.8h0V57.5h-.4a.8.8,0,0,0-.8.9v.5A1.1,1.1,0,0,0,13.6,59.8Z" fill="#f0d0b3"/><path d="M21.1,59.8h0V57.5h.4a.8.8,0,0,1,.8.9v.5A1.1,1.1,0,0,1,21.1,59.8Z" fill="#f0d0b3"/><polygon points="15.8 68.7 17.1 67.7 17.3 67.8 17.3 67.3 15.8 68.7" fill="#7e9bc0"/><polygon points="18.8 68.7 17.5 67.7 17.3 67.8 17.3 67.3 18.8 68.7" fill="#7e9bc0"/><path d="M16.3,57.7H15a2.2,2.2,0,0,0-1.1.5l-.3.2.4-.2h2.1Z" fill="#dcaa00"/><circle cx="15.4" cy="59" r="0.3" fill="#333"/><path d="M18.3,57.7h1.2a2.2,2.2,0,0,1,1.1.5l.3.2-.4-.2H18.3Z" fill="#dcaa00"/><circle cx="19.2" cy="59" r="0.3" fill="#333"/><path d="M16.2,61.4h2.2a0,0,0,0,1,0,0v0a1.1,1.1,0,0,1-1.1,1.1h0a1.1,1.1,0,0,1-1.1-1.1v0A0,0,0,0,1,16.2,61.4Z" fill="#fff"/><path d="M17.3,54.6,16,54.3h0a1.8,1.8,0,0,0-1.8,1.4h0L14,56a2.3,2.3,0,0,0-.7,1.5H13V56.2a4.4,4.4,0,0,1,4.4-4.4h0Z" fill="#dcaa00"/><path d="M17.3,54.6l1.3-.3h0a1.8,1.8,0,0,1,1.8,1.4h0l.2.2a2.3,2.3,0,0,1,.7,1.5h.3V56.2a4.4,4.4,0,0,0-4.4-4.4h0Z" fill="#dcaa00"/><path d="M15.7,51.6l-1.2,1A4.2,4.2,0,0,0,13,55.8v1.7l.4,2.2V56.1l1-1.7,2.9-.5,2.9.5,1,1.7v3.7l.4-2.2V55.8a4.2,4.2,0,0,0-1.5-3.3l-1.2-1v.5l-.6-.5v.2l-.3-.5-.2.5-.4-.7-.4.7-.2-.5-.3.5v-.2l-.6.5Z" fill="#dcaa00"/><rect x="18.8" y="71.9" width="3.5" height="0.51" fill="#cfd9e6"/></g><path d="M17.4,71.3A11.3,11.3,0,1,1,28.8,60,11.4,11.4,0,0,1,17.4,71.3Zm0-22.4a11,11,0,1,0,11,11A11,11,0,0,0,17.4,49Z" fill="#435363" opacity="0.2"/><rect x="83.9" y="42.2" width="4.7" height="13.38" rx="2.3" ry="2.3" transform="translate(150.5 124.4) rotate(-160)" fill="#deb18a"/><rect x="86.1" y="40.5" width="4.7" height="13.38" rx="2.3" ry="2.3" transform="translate(155.4 121.8) rotate(-160)" fill="#ebc19c"/><rect x="88.7" y="38.7" width="4.7" height="13.38" rx="2.3" ry="2.3" transform="translate(161.1 119.2) rotate(-160)" fill="#ebc19c"/><circle cx="57.8" cy="17" r="13.3" fill="#a4a9ad"/><rect x="55.2" y="2.1" width="5.2" height="3.08" fill="#a4a9ad"/><rect x="55.2" y="28.8" width="5.2" height="3.08" fill="#a4a9ad"/><rect x="41.9" y="15.5" width="5.2" height="3.08" transform="translate(27.5 61.5) rotate(-90)" fill="#a4a9ad"/><rect x="68.6" y="15.5" width="5.2" height="3.08" transform="translate(54.1 88.2) rotate(-90)" fill="#a4a9ad"/><rect x="45.8" y="6.1" width="5.2" height="3.08" transform="translate(8.8 36.4) rotate(-45)" fill="#a4a9ad"/><rect x="64.7" y="24.9" width="5.2" height="3.08" transform="translate(1 55.3) rotate(-45)" fill="#a4a9ad"/><rect x="45.8" y="24.9" width="5.2" height="3.08" transform="translate(63.9 79.4) rotate(-135)" fill="#a4a9ad"/><rect x="64.7" y="6.1" width="5.2" height="3.08" transform="translate(109.5 60.5) rotate(-135)" fill="#a4a9ad"/><circle cx="57.8" cy="17" r="10.4" fill="#d1d3d3"/><g clip-path="url(#clip-path-3)"><path d="M57.9,9.3h0A4.1,4.1,0,0,1,62,13.5v9.4a0,0,0,0,1,0,0H53.8a0,0,0,0,1,0,0V13.5A4.1,4.1,0,0,1,57.9,9.3Z" fill="#513628"/><path d="M54.6,21.5h6.6a4.1,4.1,0,0,1,4.1,4.1V36.8a0,0,0,0,1,0,0H50.5a0,0,0,0,1,0,0V25.6A4.1,4.1,0,0,1,54.6,21.5Z" fill="#ebc19c"/><path d="M54.2,21.5h.6a0,0,0,0,1,0,0v5.9a0,0,0,0,1,0,0H50.5a0,0,0,0,1,0,0V25.2A3.7,3.7,0,0,1,54.2,21.5Z" fill="#8c1d40"/><path d="M61.1,21.5h4.2a0,0,0,0,1,0,0v5.9a0,0,0,0,1,0,0h-.6a3.7,3.7,0,0,1-3.7-3.7V21.5A0,0,0,0,1,61.1,21.5Z" transform="translate(126.4 48.9) rotate(-180)" fill="#8c1d40"/><polygon points="63.3 36.8 52.6 36.8 53.5 26.1 53.2 21.5 62.7 21.5 62.4 26.1 63.3 36.8" fill="#8c1d40"/><path d="M61.4,16.3h0v-2h.4a.7.7,0,0,1,.7.8v.4A1,1,0,0,1,61.4,16.3Z" fill="#f0d0b3"/><path d="M54.4,16.3h0v-2H54a.7.7,0,0,0-.7.8v.4A1,1,0,0,0,54.4,16.3Z" fill="#f0d0b3"/><path d="M55.2,21.5h0a2.7,2.7,0,0,0,.8-1.9V18.5h4v1.2a2.7,2.7,0,0,0,.8,1.9h0v5.6H55.2Z" fill="#dfb28b"/><g clip-path="url(#clip-path-4)"><g mask="url(#mask-2)"><path d="M60.3,19.5l-1.6,1.1a1.3,1.3,0,0,1-1.5,0l-1.6-1.1A3.2,3.2,0,0,1,54.3,17V13.9a3.7,3.7,0,0,1,3.7-3.9h0a3.7,3.7,0,0,1,3.7,3.9V17A3.2,3.2,0,0,1,60.3,19.5Z" fill="#deb18a"/></g></g><path d="M60.3,19.1l-1.6,1.1a1.3,1.3,0,0,1-1.5,0l-1.6-1.1a3.2,3.2,0,0,1-1.3-2.4V13.5a3.7,3.7,0,0,1,3.7-3.9h0a3.7,3.7,0,0,1,3.7,3.9v3.1A3.2,3.2,0,0,1,60.3,19.1Z" fill="#ecc19c"/><g opacity="0.5"><g mask="url(#mask-3)"><ellipse cx="55.3" cy="16.8" rx="1.1" ry="0.5" fill="#db9b93"/></g></g><g opacity="0.5"><g mask="url(#mask-4)"><ellipse cx="60.5" cy="16.8" rx="1.1" ry="0.5" fill="#db9b93"/></g></g><polygon points="54.8 21.6 57.9 25.5 61.1 21.6 61.1 31.2 54.8 31.2 54.8 21.6" fill="#8c1d40"/><path d="M56.6,18.2c.5.2.7.6,1.3.6v-.5Z" fill="#ff4c00"/><path d="M59.3,18.2c-.5.2-.7.6-1.3.6v-.5Z" fill="#ff4c00"/><path d="M56.6,18.2c.7,0,.8-.2,1.3,0H56.6Z" fill="#ff6c36"/><path d="M59.3,18.2c-.7,0-.8-.2-1.3,0h1.3Z" fill="#ff6c36"/><path d="M57.7,18.2h.4a0,0,0,0,1,0,0v.1a.2.2,0,0,1-.2.2h0a.2.2,0,0,1-.2-.2v-.1a0,0,0,0,1,0,0Z" fill="#ff6c36"/><g mask="url(#mask-5)"><path d="M57.3,14.5H54.5a.4.4,0,0,0-.4.4v1a1.2,1.2,0,0,0,1.3,1.1h1.1a1.2,1.2,0,0,0,1.3-1.1v-1A.4.4,0,0,0,57.3,14.5Zm.2,1.4a1,1,0,0,1-1.1.9H55.4a1,1,0,0,1-1.1-.9v-.8a.4.4,0,0,1,.4-.3h2.5a.4.4,0,0,1,.4.3Z" fill="#deb18a"/><path d="M61.5,14.5H58.7a.4.4,0,0,0-.4.4v1a1.2,1.2,0,0,0,1.3,1.1h1.1a1.2,1.2,0,0,0,1.3-1.1v-1A.4.4,0,0,0,61.5,14.5Zm.2,1.4a1,1,0,0,1-1.1.9H59.5a1,1,0,0,1-1.1-.9v-.8a.4.4,0,0,1,.4-.3h2.5a.4.4,0,0,1,.4.3Z" fill="#deb18a"/><rect x="57.5" y="14.9" width="0.9" height="0.23" fill="#deb18a"/></g><polygon points="55.2 21.6 57.9 25.5 57.9 26 54.6 21.5 55.2 21.6" fill="#73243d"/><polygon points="60.7 21.6 57.9 25.5 57.9 26 61.2 21.5 60.7 21.6" fill="#73243d"/><path d="M57,14.5h-.2a2.9,2.9,0,0,0-2.2.5h.1a2.9,2.9,0,0,1,1.8-.2H57Z" fill="#814c3a"/><circle cx="55.9" cy="15.4" r="0.3" fill="#333"/><path d="M53.2,13.1,53,17a30.1,30.1,0,0,1-.8,5.6v.2h2.6l-.2-7.4a4.5,4.5,0,0,1,.9-2.9L56.7,11l1.5.6a4.5,4.5,0,0,1,2.9,4.2v7.1h2.6v-.2a30.1,30.1,0,0,1-.8-5.6l-.2-3.9a4.5,4.5,0,0,0-4.5-4.3h-.6A4.5,4.5,0,0,0,53.2,13.1Z" fill="#663a2a"/><path d="M58.9,14.5H59a2.9,2.9,0,0,1,2.2.5h-.1a2.9,2.9,0,0,0-1.8-.2h-.4Z" fill="#814c3a"/><circle cx="59.9" cy="15.4" r="0.3" fill="#333"/><path d="M53.2,12.6l-.4,10.2h2l-.3-7.6a3.8,3.8,0,0,1,.8-2.5L56.7,11l2.2.9a3.3,3.3,0,0,1,2.1,3.1v7.9h2l-.4-10.2a3.9,3.9,0,0,0-3.9-3.8H57.1A3.9,3.9,0,0,0,53.2,12.6Z" fill="#663a2a"/><path d="M57.3,14.4H54.5a.4.4,0,0,0-.4.4v1a1.2,1.2,0,0,0,1.3,1.1h1.1a1.2,1.2,0,0,0,1.3-1.1v-1A.4.4,0,0,0,57.3,14.4Zm.2,1.4a1,1,0,0,1-1.1.9H55.4a1,1,0,0,1-1.1-.9v-.8a.4.4,0,0,1,.4-.3h2.5a.4.4,0,0,1,.4.3Z" fill="#dcaa00"/><path d="M61.5,14.4H58.7a.4.4,0,0,0-.4.4v1a1.2,1.2,0,0,0,1.3,1.1h1.1a1.2,1.2,0,0,0,1.3-1.1v-1A.4.4,0,0,0,61.5,14.4Zm.2,1.4a1,1,0,0,1-1.1.9H59.5a1,1,0,0,1-1.1-.9v-.8a.4.4,0,0,1,.4-.3h2.5a.4.4,0,0,1,.4.3Z" fill="#dcaa00"/><rect x="57.5" y="14.8" width="0.9" height="0.23" fill="#dcaa00"/><path d="M54.2,14.8h-.3a.2.2,0,0,1-.2-.2h0a.2.2,0,0,1,.2-.2h.7Z" fill="#dcaa00"/><path d="M61.8,14.8h.3a.2.2,0,0,0,.2-.2h0a.2.2,0,0,0-.2-.2h-.7Z" fill="#dcaa00"/><path d="M60.9,15.8,60,13.9a4.8,4.8,0,0,0-1.6-1.8L56.7,11h1.4l.7.4a4.8,4.8,0,0,1,2.1,3.8Z" fill="#663a2a"/><path d="M61.7,15.7l-.9-1.9A4.8,4.8,0,0,0,59.1,12l-1.7-1.1h1.4l.7.4a4.8,4.8,0,0,1,2.1,3.8Z" fill="#663a2a"/><g mask="url(#mask-6)"><polygon points="53.4 27.8 50.5 27.8 50.5 27.4 53.4 27.4 53.4 27.8" fill="#deb18a"/></g><g mask="url(#mask-7)"><polygon points="62.5 27.8 65.3 27.8 65.3 27.4 62.5 27.4 62.5 27.8" fill="#deb18a"/></g><polygon points="53.4 27.5 50.5 27.5 50.5 27.2 53.4 27.2 53.4 27.5" fill="#73243d"/><polygon points="62.5 27.5 65.3 27.5 65.3 27.2 62.4 27.2 62.5 27.5" fill="#73243d"/></g><path d="M57.8,28.4A11.4,11.4,0,1,1,69.2,17,11.4,11.4,0,0,1,57.8,28.4ZM57.8,6A11.1,11.1,0,1,0,68.9,17,11.1,11.1,0,0,0,57.8,6Z" fill="#7d868c" opacity="0.25"/><circle cx="36.2" cy="74.7" r="7" transform="translate(-28.2 22.3) rotate(-25)" fill="#99a4ae"/><rect x="31.9" y="67.6" width="2.7" height="1.62" transform="translate(-25.8 20.5) rotate(-25)" fill="#99a4ae"/><rect x="37.8" y="80.3" width="2.7" height="1.62" transform="translate(-30.6 24.1) rotate(-25)" fill="#99a4ae"/><rect x="28.5" y="76.9" width="2.7" height="1.62" transform="translate(-27.9 137.6) rotate(-115)" fill="#99a4ae"/><rect x="41.2" y="71" width="2.7" height="1.62" transform="translate(-4.5 140.7) rotate(-115)" fill="#99a4ae"/><rect x="28.3" y="71.5" width="2.7" height="1.62" transform="translate(-48.5 75.4) rotate(-70)" fill="#99a4ae"/><rect x="41.4" y="76.3" width="2.7" height="1.62" transform="translate(-44.3 90.9) rotate(-70)" fill="#99a4ae"/><rect x="32.5" y="80.5" width="2.7" height="1.62" transform="translate(37.8 169.3) rotate(-160)" fill="#99a4ae"/><rect x="37.2" y="67.3" width="2.7" height="1.62" transform="translate(51.6 145.4) rotate(-160)" fill="#99a4ae"/><circle cx="36.2" cy="74.7" r="5.4" transform="translate(-28.2 22.3) rotate(-25)" fill="#778692"/><rect x="83.9" y="42.2" width="4.7" height="13.38" rx="2.3" ry="2.3" transform="translate(150.5 124.4) rotate(-160)" fill="#deb18a"/><rect x="86.1" y="40.5" width="4.7" height="13.38" rx="2.3" ry="2.3" transform="translate(155.4 121.8) rotate(-160)" fill="#ebc19c"/><rect x="88.7" y="38.7" width="4.7" height="13.38" rx="2.3" ry="2.3" transform="translate(161.1 119.2) rotate(-160)" fill="#ebc19c"/><path d="M16.8,21.2A13.9,13.9,0,0,0,9.3,37.6V38l-1,.3,2.3,1.1a12,12,0,0,1,1-2.2l-1,.3v-.4a12.4,12.4,0,0,1-.4-2.5,12.5,12.5,0,0,1,7.2-12.3Z" fill="#4a535c"/><circle cx="78.5" cy="37" r="11.5" transform="translate(-8.3 36.6) rotate(-25)" fill="#99a4ae"/><rect x="71.4" y="25.3" width="4.4" height="2.65" transform="translate(-4.3 33.6) rotate(-25)" fill="#99a4ae"/><rect x="81.1" y="46" width="4.4" height="2.65" transform="translate(-12.2 39.6) rotate(-25)" fill="#99a4ae"/><rect x="65.8" y="40.5" width="4.4" height="2.65" transform="translate(58.9 121.2) rotate(-115)" fill="#99a4ae"/><rect x="86.6" y="30.8" width="4.4" height="2.65" transform="translate(97.3 126.2) rotate(-115)" fill="#99a4ae"/><rect x="65.4" y="31.7" width="4.4" height="2.65" transform="translate(13.5 85.3) rotate(-70)" fill="#99a4ae"/><rect x="87" y="39.6" width="4.4" height="2.65" transform="translate(20.3 110.7) rotate(-70)" fill="#99a4ae"/><rect x="72.3" y="46.4" width="4.4" height="2.65" transform="translate(128.2 118.1) rotate(-160)" fill="#99a4ae"/><rect x="80.1" y="24.9" width="4.4" height="2.65" transform="translate(150.8 79) rotate(-160)" fill="#99a4ae"/><circle cx="78.5" cy="37" r="8.9" transform="translate(-8.3 36.6) rotate(-25)" fill="#778692"/><circle cx="78.5" cy="37" r="5.7" transform="translate(-8.3 36.6) rotate(-25)" fill="#99a4ae"/><circle cx="78.5" cy="37" r="3.4" transform="translate(-8.3 36.6) rotate(-25)" fill="#778692"/><circle cx="78.5" cy="37" r="2.2" transform="translate(-8.3 36.6) rotate(-25)" fill="#99a4ae"/><circle cx="78.5" cy="37" r="0.9" transform="translate(-8.3 36.6) rotate(-25)" fill="#435363"/><g clip-path="url(#clip-path-5)"><rect x="91.5" y="31.1" width="4.7" height="13.38" rx="2.3" ry="2.3" transform="translate(-7.3 34.4) rotate(-20)" fill="#f0d0b3"/><rect x="87.4" y="24.4" width="4.7" height="12.57" rx="2.3" ry="2.3" transform="translate(1.3 64.9) rotate(-40)" fill="#f0d0b3"/><rect x="82.3" y="46.9" width="4.7" height="13.38" rx="2.3" ry="2.3" transform="translate(152.1 -20.4) rotate(100)" fill="#f0d0b3"/><rect x="74.6" y="44.6" width="4.7" height="12.57" rx="2.3" ry="2.3" transform="translate(159.4 9.7) rotate(120)" fill="#f0d0b3"/><path d="M94.5,60.4H85.9a3.3,3.3,0,0,1-3.3-3.3h0a8.3,8.3,0,0,1,4.8-7.5l5.1-2.3V42.1a2.6,2.6,0,0,1,2.6-2.6h0a2.6,2.6,0,0,1,2.5,2v.6a38.3,38.3,0,0,1,0,15.7h0A3.3,3.3,0,0,1,94.5,60.4Z" fill="#f0d0b3"/><rect x="85.2" y="57.7" width="10.4" height="33.85" fill="#f0d0b3"/><path d="M94.5,55.1H82.7V50.9h0a13,13,0,0,0,9.2-4.4l2.7-3Z" fill="#f0d0b3"/></g><circle cx="59.4" cy="82.4" r="13.3" fill="#7d868c"/><rect x="43.5" y="80.9" width="5.2" height="3.08" transform="translate(-36.3 128.4) rotate(-90)" fill="#7d868c"/><rect x="70.1" y="80.9" width="5.2" height="3.08" transform="translate(-9.7 155.1) rotate(-90)" fill="#7d868c"/><rect x="56.8" y="94.2" width="5.2" height="3.08" transform="translate(118.8 191.5) rotate(-180)" fill="#7d868c"/><rect x="56.8" y="67.5" width="5.2" height="3.08" transform="translate(118.8 138.1) rotate(-180)" fill="#7d868c"/><rect x="47.4" y="90.3" width="5.2" height="3.08" transform="translate(20.3 192.1) rotate(-135)" fill="#7d868c"/><rect x="66.2" y="71.4" width="5.2" height="3.08" transform="translate(65.9 173.2) rotate(-135)" fill="#7d868c"/><rect x="66.2" y="90.3" width="5.2" height="3.08" transform="translate(182.4 108.1) rotate(135)" fill="#7d868c"/><rect x="47.4" y="71.4" width="5.2" height="3.08" transform="translate(136.9 89.2) rotate(135)" fill="#7d868c"/><circle cx="59.4" cy="82.4" r="10.4" fill="#5c6670"/><circle cx="59.4" cy="82.4" r="6.7" fill="#7d868c"/><circle cx="59.4" cy="82.4" r="3.9" fill="#5c6670"/><circle cx="59.4" cy="82.4" r="2.5" fill="#99a4ae"/><circle cx="59.4" cy="82.4" r="1" fill="#333e48"/><circle cx="50" cy="50" r="17.8" fill="#435363"/><rect x="46.6" y="30.2" width="6.9" height="4.11" fill="#435363"/><rect x="46.6" y="65.7" width="6.9" height="4.11" fill="#435363"/><rect x="28.8" y="47.9" width="6.9" height="4.11" transform="translate(-17.8 82.2) rotate(-90)" fill="#435363"/><rect x="64.3" y="47.9" width="6.9" height="4.11" transform="translate(17.8 117.8) rotate(-90)" fill="#435363"/><rect x="34" y="35.4" width="6.9" height="4.11" transform="translate(-15.5 37.4) rotate(-45)" fill="#435363"/><rect x="59.1" y="60.5" width="6.9" height="4.11" transform="translate(-25.9 62.6) rotate(-45)" fill="#435363"/><rect x="34" y="60.5" width="6.9" height="4.11" transform="translate(19.6 133.3) rotate(-135)" fill="#435363"/><rect x="59.1" y="35.4" width="6.9" height="4.11" transform="translate(80.4 108.1) rotate(-135)" fill="#435363"/><circle cx="50" cy="50" r="13.8" fill="#99a4ae"/><g clip-path="url(#clip-path-6)"><circle cx="50" cy="45.8" r="5.1" fill="#814c3a"/><rect x="46.6" y="56.8" width="6.8" height="1.24" fill="#7ca3dc"/><rect x="46.6" y="56.8" width="6.8" height="1.24" fill="#407cca" opacity="0.6"/><path d="M44.4,57H55.7a4.1,4.1,0,0,1,4.1,4.1V75.5a0,0,0,0,1,0,0H40.2a0,0,0,0,1,0,0V61.1A4.1,4.1,0,0,1,44.4,57Z" fill="#9cb6d3"/><path d="M44.4,57a4.1,4.1,0,0,0-4.1,4.1V75.5H50V57Z" fill="#c7d4e2"/><path d="M52.1,54.5V53.1H47.9v1.4A3.3,3.3,0,0,1,46.8,57h0v.5A3.2,3.2,0,0,0,50,60.8h0a3.2,3.2,0,0,0,3.2-3.2V57h0A3.3,3.3,0,0,1,52.1,54.5Z" fill="#ecc19c"/><g clip-path="url(#clip-path-7)"><g mask="url(#mask-8)"><path d="M52.8,54.4l-1.5,1a2.3,2.3,0,0,1-2.6,0l-1.5-1a4.2,4.2,0,0,1-1.8-3.3V47.3A4.7,4.7,0,0,1,50,42.5h0a4.7,4.7,0,0,1,4.7,4.9v3.7A4.2,4.2,0,0,1,52.8,54.4Z" fill="#ebc19c"/></g></g><path d="M51.8,54.7l-.4.2a2.8,2.8,0,0,1-2.9,0l-.4-.2A5.7,5.7,0,0,1,45.4,50V46.9A4.7,4.7,0,0,1,50,42h0a4.7,4.7,0,0,1,4.7,4.9V50A5.7,5.7,0,0,1,51.8,54.7Z" fill="#f0d0b4"/><polygon points="45.3 57 46.9 60.7 50 67.5 50 58.8 45.3 57" fill="#c7d4e2"/><polygon points="50 58.8 50 67.5 53.2 60.7 54.8 57 50 58.8" fill="#9cb6d3"/><polygon points="50.6 60.4 49.4 60.4 48.9 58.8 51.1 58.8 50.6 60.4" fill="#73243d"/><polygon points="46.6 56.8 50 58.8 48.2 60.4 45.3 57 46.6 56.8" fill="#7ea0c4"/><polygon points="53.4 56.8 50 58.8 51.8 60.4 54.8 57 53.4 56.8" fill="#7ea0c4"/><polygon points="50.9 70.3 50 71.9 49.1 70.3 49.4 60.4 50.6 60.4 50.9 70.3" fill="#8c1d40"/><polygon points="40.3 61.1 43.6 64.4 43.6 75.5 40.3 75.5 40.3 61.1" fill="#9cb6d3"/><polygon points="59.8 61.1 56.5 64.4 56.5 75.5 59.8 75.5 59.8 61.1" fill="#c7d4e2"/><path d="M45.6,50h0V47.4h-.5a.9.9,0,0,0-.9,1.1V49A1.3,1.3,0,0,0,45.6,50Z" fill="#f0d0b3"/><path d="M54.4,50h0V47.4h.5a.9.9,0,0,1,.9,1.1V49A1.3,1.3,0,0,1,54.4,50Z" fill="#f0d0b3"/><polygon points="48.2 60.4 49.8 59.2 50 59.4 50 58.8 48.2 60.4" fill="#7ca3dc"/><path d="M48.3,52.5H50v-.8H48.9l-.7.5h0A.2.2,0,0,0,48.3,52.5Z" fill="#513628"/><path d="M51.8,52.5H50v-.8h1.2l.7.5h0A.2.2,0,0,1,51.8,52.5Z" fill="#513628"/><path d="M51.7,52.4h-.4l-1.3.4v-.8h1.2l.5.4h0A.1.1,0,0,1,51.7,52.4Z" fill="#513628"/><polygon points="51.8 60.4 50.2 59.2 50 59.4 50 58.8 51.8 60.4" fill="#7ca3dc"/><polygon points="48.2 60.4 49.8 59.2 50 59.4 50 58.8 48.2 60.4" fill="#407cca" opacity="0.6"/><polygon points="51.8 60.4 50.2 59.2 50 59.4 50 58.8 51.8 60.4" fill="#407cca" opacity="0.6"/><path d="M48.6,47.1H47.4a1.6,1.6,0,0,0-1.2.3l-.3.3.4-.2h.9l2,.4h0A.6.6,0,0,0,48.6,47.1Z" fill="#513628"/><circle cx="47.6" cy="48.6" r="0.4" fill="#333"/><path d="M51.4,47.1h1.2a1.6,1.6,0,0,1,1.2.3l.3.3-.4-.2h-.9l-2,.4h0A.6.6,0,0,1,51.4,47.1Z" fill="#513628"/><circle cx="52.5" cy="48.6" r="0.4" fill="#333"/><path d="M48.7,52.3h2.6a0,0,0,0,1,0,0v0A1.3,1.3,0,0,1,50,53.6h0a1.3,1.3,0,0,1-1.3-1.3v0A0,0,0,0,1,48.7,52.3Z" fill="#fff"/><path d="M45.7,41.9h0a9,9,0,0,0-.8,3.8v1.3l.5,2.6V46.8l1.7-3.3-1.4-1.7Z" fill="#663a2a"/><path d="M54.2,41.9h0a9,9,0,0,1,.8,3.8v1.3l-.5,2.6V46.8l-1.7-3.3,1.4-1.7Z" fill="#663a2a"/><path d="M51.9,40v.6l-.7-.6v.3l-.3-.6-.3.6-.4-.9-.4.9-.3-.6-.3.6V40l-.7.6V40l-2.3,1.9,1.4,1.7.5.2a6.4,6.4,0,0,0,4.7,0l.5-.2,1.4-1.7Z" fill="#513628"/><g mask="url(#mask-9)"><path d="M49.2,47.7H45.7a.5.5,0,0,0-.5.5V49a1.5,1.5,0,0,0,1.6,1.4h1.4A1.5,1.5,0,0,0,49.7,49v-.9A.5.5,0,0,0,49.2,47.7Zm.1,1.3a1.1,1.1,0,0,1-1.2,1H46.8a1.1,1.1,0,0,1-1.2-1v-.6a.4.4,0,0,1,.4-.4h2.8a.4.4,0,0,1,.4.4Z" fill="#ce9d77"/><path d="M54.3,47.7H50.8a.5.5,0,0,0-.5.5V49a1.5,1.5,0,0,0,1.6,1.4h1.4A1.5,1.5,0,0,0,54.8,49v-.9A.5.5,0,0,0,54.3,47.7Zm.1,1.3a1.1,1.1,0,0,1-1.2,1H52a1.1,1.1,0,0,1-1.2-1v-.6a.4.4,0,0,1,.4-.4h2.8a.4.4,0,0,1,.4.4Z" fill="#ce9d77"/><rect x="49.4" y="48.2" width="1.1" height="0.47" fill="#ce9d77"/></g><path d="M49.2,47.6H45.7a.5.5,0,0,0-.5.5v.9a1.5,1.5,0,0,0,1.6,1.4h1.4a1.5,1.5,0,0,0,1.6-1.4v-.9A.5.5,0,0,0,49.2,47.6Zm.1,1.3A1.1,1.1,0,0,1,48,50H46.8a1.1,1.1,0,0,1-1.2-1v-.6A.4.4,0,0,1,46,48h2.8a.4.4,0,0,1,.4.4Z" fill="#333e48"/><path d="M54.3,47.6H50.8a.5.5,0,0,0-.5.5v.9a1.5,1.5,0,0,0,1.6,1.4h1.4a1.5,1.5,0,0,0,1.6-1.4v-.9A.5.5,0,0,0,54.3,47.6Zm.1,1.3a1.1,1.1,0,0,1-1.2,1H52a1.1,1.1,0,0,1-1.2-1v-.6a.4.4,0,0,1,.4-.4h2.8a.4.4,0,0,1,.4.4Z" fill="#333e48"/><rect x="49.4" y="48.1" width="1.1" height="0.47" fill="#333e48"/><path d="M45.3,48.2H45a.3.3,0,0,1-.3-.3h0a.3.3,0,0,1,.3-.3h.8Z" fill="#333e48"/><path d="M54.7,48.2H55a.3.3,0,0,0,.3-.3h0a.3.3,0,0,0-.3-.3h-.8Z" fill="#333e48"/><path d="M44.9,48.2h0a.3.3,0,0,1-.3-.3v-.6l.2-.2h0l.2.2v.6A.3.3,0,0,1,44.9,48.2Z" fill="#333e48"/><path d="M55.1,48.2h0a.3.3,0,0,1-.3-.3v-.6l.2-.2h0l.2.2v.6A.3.3,0,0,1,55.1,48.2Z" fill="#333e48"/><rect x="51.6" y="64.1" width="4.1" height="0.6" fill="#c7d4e2"/><path d="M50.3,54.4h-.7a2.9,2.9,0,0,0-1.5-.1h-.4l.3.2a3.1,3.1,0,0,0,1.3.6h1.3a3.1,3.1,0,0,0,1.3-.6l.3-.2h-.3A2.9,2.9,0,0,0,50.3,54.4Z" fill="#513628"/><path d="M50.7,52.1H49.3a.5.5,0,0,1,.3-.5h0a.9.9,0,0,1,.8,0h0a.5.5,0,0,1,.3.5Z" fill="#513628"/></g><path d="M50,65.2A15.2,15.2,0,1,1,65.2,50,15.2,15.2,0,0,1,50,65.2Zm0-29.9A14.7,14.7,0,1,0,64.7,50,14.7,14.7,0,0,0,50,35.3Z" fill="#263746" opacity="0.25"/></svg>