<svg id="Layer_1" data-name="Layer 1" xmlns="http://www.w3.org/2000/svg" width="100" height="100" viewBox="0 0 100 100"><title>Artboard 1</title><circle cx="50" cy="50" r="50" fill="#eae8dd"/><path d="M82.8,30.6a12.4,12.4,0,0,0-21-8.9,30.4,30.4,0,0,0-9.3-2.3v5.8a24.6,24.6,0,0,1,6.2,1.4,12.4,12.4,0,0,0,15,15.8,24.7,24.7,0,0,1,1,4.9h5.8a30.4,30.4,0,0,0-1.7-7.8A12.3,12.3,0,0,0,82.8,30.6Zm-5.5,1.3A6.8,6.8,0,0,1,66,35.2l-1.2,1.2a.6.6,0,0,1-1-.4l-.2-4.2a.6.6,0,0,1,.6-.6l4.2.3a.6.6,0,0,1,.4,1l-1.2,1.1a4.5,4.5,0,0,0,7.4-1.9.4.4,0,0,1,.4-.3H77A.4.4,0,0,1,77.3,31.9Zm-.2-2.4L73,29.2a.6.6,0,0,1-.4-1L73.8,27a4.5,4.5,0,0,0-7.3,1.9.4.4,0,0,1-.4.3H64.6a.4.4,0,0,1-.4-.5,6.8,6.8,0,0,1,11.2-3.2l1.1-1.1a.6.6,0,0,1,1,.4l.2,4.2A.6.6,0,0,1,77.1,29.6Z" fill="#7ccbbd"/><path d="M78.8,60.3a30.5,30.5,0,0,0,1.7-8.2H74.7a24.7,24.7,0,0,1-1,5.3,12.4,12.4,0,0,0-15,15.8,24.7,24.7,0,0,1-6.2,1.4v5.8a30.4,30.4,0,0,0,9.3-2.3,12.4,12.4,0,1,0,17-17.9ZM66.7,69.1l6.4-3.7-.3-.6a.3.3,0,0,1,.2-.4h2.7a.3.3,0,0,1,.2.4L74.4,67a.3.3,0,0,1-.4,0l-.3-.6L67.2,70h-.3l-.3-.6A.2.2,0,0,1,66.7,69.1Zm-3.6,5.5V62.3h1.1V73.6h1.3V71h2.2v2.6h1.1V70.2h2.2v3.4H72V68.8h2.2v4.8h1.1V66.3h2.2v7.2h2.3v1.1Z" fill="#b3bf35"/><path d="M27.2,66.7h0Z" fill="#038ab1"/><path d="M31.8,66.8h0Z" fill="#038ab1"/><path d="M27.2,66.8h0Zm0,0h0Zm0,0h0Zm0,0h0Zm4.9-.6h0l.2.2Zm-.3.5h0Zm-4.6,0h0Zm0,0h0Z" fill="#038ab1"/><path d="M41.3,73.2a12.4,12.4,0,0,0-15-15.8,24.7,24.7,0,0,1-1-5.3H19.5a30.4,30.4,0,0,0,1.7,8.2,12.4,12.4,0,1,0,17,17.9A30.4,30.4,0,0,0,48,80.5V74.7A24.7,24.7,0,0,1,41.3,73.2ZM33.7,63a2,2,0,0,1,1.6,3.2l-.2.3-.4.3a2,2,0,0,1-2,0l-.4-.3h-.1l-.2-.2H32a2,2,0,0,1,1.7-3Zm-6.2,3.4h.1a2.7,2.7,0,0,1,3.3-.4l.5.4h.2l.2.2h0l.2.3a2.7,2.7,0,0,1-.3,2.8l-.2.3-.3.3-.9.5H28.8l-.9-.5-.3-.3-.2-.3a2.7,2.7,0,0,1-.1-3.1h0l.2-.2ZM25.4,63a2,2,0,0,1,1.7,3H27l-.2.2h-.1l-.4.3a2,2,0,0,1-1,.3l-.9-.2h-.1l-.4-.3-.2-.3a2,2,0,0,1-.4-1.1h0A2,2,0,0,1,25.4,63Zm-3.8,7.1V68.9a2.1,2.1,0,0,1,1.9-2.1,2.5,2.5,0,0,0,1.4.8h.4l1-.2a3.3,3.3,0,0,0,.2,2.4v.2a3.5,3.5,0,0,0-2,1.2h-2A1.1,1.1,0,0,1,21.6,70.1Zm13,4.9a1.5,1.5,0,0,1-1.5,1.5H26A1.5,1.5,0,0,1,24.5,75V73.3a2.9,2.9,0,0,1,.5-1.6l.2-.3.3-.3a2.9,2.9,0,0,1,1.7-.7l.6.5.4.2.5.2h2l.5-.2,1-.7a2.9,2.9,0,0,1,1.7.7l.3.3.2.3a2.9,2.9,0,0,1,.5,1.6Zm2.9-4.9a1.1,1.1,0,0,1-.6,1H34.4a3.5,3.5,0,0,0-2-1.2,3.3,3.3,0,0,0,.5-1.7,3.3,3.3,0,0,0,0-.4v-.5l1,.2a2.5,2.5,0,0,0,1.9-.8,2.1,2.1,0,0,1,1.9,2.1Z" fill="#038ab1"/><path d="M27.2,33.7h0Zm-.2.2h0Zm-.2-.5h0Zm-.2.2h0Zm-1-.9h0Zm.2-.2h0Zm.8,1.1h0Zm9.1-3.8-1.5-2.6H34v.2l1.5,2.5.5.9h0Z" fill="#df6426"/><path d="M48,19.5a30.4,30.4,0,0,0-9.8,2.3,12.4,12.4,0,1,0-17,17.9,30.5,30.5,0,0,0-1.7,7.8h5.8a24.7,24.7,0,0,1,1-4.9,12.4,12.4,0,0,0,15-15.8A24.7,24.7,0,0,1,48,25.3Zm-25,10.9-.6-.2-1.2-.9,3.4-4.4,1.2.9a.8.8,0,0,1,.1,1.1L23.4,30Zm13.2.4h0a2.7,2.7,0,0,1-.9,1.4l-.2.2-.2.2c.4.4.6.8.6,1s-.1.3-.4.4a1.3,1.3,0,0,1-.9.1l-1.7-1.5-.4-.3-.2.2-.2.2.4.3,1.8,1.6a.8.8,0,0,1,.1.4.6.6,0,0,1-.3.4,1,1,0,0,1-.8,0h-.4l-1.3-1.3-.7-.7-.2.2-.2.2.7.7L32,35.4a.4.4,0,0,1-.3.2,1,1,0,0,1-.9-.2l-.5-.5-.7-.7h-.1v.2h0v.2l.5.5.2.2h-.4l-.5-.3-.2.2-.2.2h0a1.7,1.7,0,0,1-1.1.5l-.5-.2a.8.8,0,0,1-.3-.6v-.2h-.3l-.6-.2a.7.7,0,0,1-.2-.5v-.2h-.1a.8.8,0,0,1-.6-.3.8.8,0,0,1-.2-.6H25l-.5-.2h-.1a.8.8,0,0,1-.2-.5,1.3,1.3,0,0,1,.3-.7l.2-.2.2-.2h0l-.3-.3a2.8,2.8,0,0,1-.6-1l2.3-2.9h.2a2.4,2.4,0,0,1,1.5-.3l.7.2.2-.2.3-.2A4.9,4.9,0,0,1,31,26h.9A4.4,4.4,0,0,1,34,27h.1l1.5,2.6.5.9Zm1.5,0h-.6a.8.8,0,0,1-.5-.4l-.5-.9L34.6,27a.8.8,0,0,1,.3-1.1l1.3-.8L38,28.3l.9,1.6Z" fill="#df6426"/><path d="M35.6,29.8l-1.5-2.6H34v.2l1.5,2.5.5.9h0Z" fill="#df6426"/><polygon points="26.6 33.5 26.6 33.6 26.6 33.6 26.6 33.5" fill="#df6426"/><path d="M26.7,33.4h0Z" fill="#df6426"/><path d="M26.8,33.4h0Z" fill="#df6426"/><path d="M27.1,33.8h0Z" fill="#df6426"/><path d="M27.2,33.7h0Z" fill="#df6426"/><path d="M25.6,32.6h0Z" fill="#df6426"/><path d="M25.8,32.5h0Z" fill="#df6426"/><path d="M27.2,33.7h0Zm-.4-.4h0Zm-1-.9h0Zm1.4,1.3h0Zm-.4-.4h0Zm-1-.9h0Zm1.4,1.3h0Zm-.4-.4h0Zm-1-.9h0Zm1.4,1.3h0Zm-.4-.4h0Zm-1-.9h0Zm-.2.2h0Zm.2-.2h0Zm1.4,1.3h0Zm-.2.2h0Zm-.2-.5h0Zm-.2.2h0Zm0,0h0Zm-.8-1.1h0Zm1,.9h0Zm.4.4h0Zm-1.4-1.3h0Zm1,.9h0Zm.4.4h0Zm-1.4-1.3h0Zm1,.9h0Zm.4.4h0Zm-1.4-1.3h0Zm1,.9h0Zm.4.4h0Zm-1.4-1.3h0Zm1,.9h0Zm.4.4h0Z" fill="#df6426"/><path d="M25.6,32.7h0Zm.2-.2h0Z" fill="#df6426"/><path d="M25.6,32.7h0Zm.2-.2h0Z" fill="#df6426"/><path d="M25.8,32.5h-.2l-.2.2h-.5v-.2h0v-.3l.2-.2.2-.2h.2l.5-.2h.2C26.1,31.8,26.3,32,25.8,32.5Z" fill="#df6426"/><path d="M26.8,33.4h0Zm-.2.2h0Zm0,0h0Z" fill="#df6426"/><path d="M26.6,33.6h0Zm.4.4h0Zm-.2-.5h0Z" fill="#df6426"/><path d="M27.3,32.6c0,.1-.1.3-.5.8h-.2l-.2.2h-.6a.2.2,0,0,1,0-.2v-.3L26,33h.2l.8-.4h.2Z" fill="#df6426"/><path d="M27.2,33.7h0Zm-.2.2h0Z" fill="#df6426"/><path d="M27.2,33.7h0Zm-.6-.2h0Z" fill="#df6426"/><path d="M28.1,33.6a1,1,0,0,1-.4.6h-.2l-.2.2c-.3.2-.6.3-.7.2h-.1a.9.9,0,0,1,.3-.5l.2-.2h.2l.7-.3h.2Z" fill="#df6426"/><path d="M28.9,34.7a.7.7,0,0,1-.1.4l-.2.2h-.2c-.4.3-.7.3-.8.2a.2.2,0,0,1-.1-.2.9.9,0,0,1,.3-.5H28l.2-.2.5-.2h.1Z" fill="#df6426"/><path d="M35.6,29.8l-1.5-2.6H34v.2l1.5,2.5.5.9h0Z" fill="#df6426"/><path d="M35.6,30.7a2.6,2.6,0,0,1-.8,1l-.2.2-.2.2h0l-.8-.7-3.4-3.2H30c-.1,0-.3.2-.5.7s-1,1.6-1.4,1.5l-.3-.2h0v-.2a5,5,0,0,0,1-2h0a.9.9,0,0,1,.3-.5l.2-.2.3-.2H30a4.3,4.3,0,0,1,1.9-.3,3.8,3.8,0,0,1,1.8.9l1.5,2.6Z" fill="#df6426"/><polygon points="22.7 29 22.3 29.5 21.8 29.2 22.2 28.7 22.7 29" fill="#df6426"/><polygon points="38.5 29.8 38 30.2 37.6 29.7 38.1 29.3 38.5 29.8" fill="#df6426"/></svg>