<svg id="Layer_1" data-name="Layer 1" xmlns="http://www.w3.org/2000/svg" width="100" height="100" viewBox="0 0 100 100"><title>Artboard 1</title><circle cx="50" cy="50" r="50" fill="#eae8dd"/><rect x="16.6" y="32.4" width="57.2" height="37.78" rx="1.1" ry="1.1" fill="#333"/><path d="M17.7,32.4h55a1.1,1.1,0,0,1,1.1,1.1V64.9a0,0,0,0,1,0,0H16.6a0,0,0,0,1,0,0V33.5A1.1,1.1,0,0,1,17.7,32.4Z" fill="#1a1a1a"/><rect x="18.6" y="35.4" width="53.1" height="26.53" fill="#222944"/><rect x="32.2" y="22.5" width="25.9" height="52.39" transform="translate(93.8 3.5) rotate(90)" fill="#008ab1"/><polygon points="52.8 75.6 37.5 75.6 38.8 70.2 51.6 70.2 52.8 75.6"/><rect x="32.8" y="75.6" width="24.8" height="1.33" rx="0.7" ry="0.7" fill="#333"/><rect x="34.6" y="23.1" width="48.8" height="1.84" fill="#4d4d4d"/><rect x="34.6" y="24.9" width="48.8" height="25.98" fill="#f2f2f2"/><circle cx="36.3" cy="24" r="0.5" fill="#ac162c"/><circle cx="38.6" cy="24" r="0.5" fill="#f7d93e"/><circle cx="40.9" cy="24" r="0.5" fill="#6cc04a"/><rect x="36.8" y="27.8" width="13.3" height="20.36" fill="#ccc"/><rect x="53.2" y="27.8" width="27.3" height="1.5" fill="#ccc"/><rect x="53.2" y="30.1" width="27.3" height="1.5" fill="#ccc"/><rect x="53.2" y="32.5" width="27.3" height="1.5" fill="#ccc"/><rect x="53.2" y="34.8" width="27.3" height="1.5" fill="#ccc"/><rect x="53.2" y="37.2" width="27.3" height="1.5" fill="#ccc"/><rect x="53.2" y="39.5" width="27.3" height="1.5" fill="#ccc"/><rect x="53.2" y="41.9" width="27.3" height="1.5" fill="#ccc"/><rect x="53.2" y="44.3" width="27.3" height="1.5" fill="#ccc"/><rect x="53.2" y="46.6" width="27.3" height="1.5" fill="#ccc"/><path d="M31.6,48.3l5.9-1.6a.4.4,0,0,1,.5.5l-1.6,5.9a.4.4,0,0,1-.7.2l-1-1L32.2,55a.4.4,0,0,1-.6,0l-1.7-1.7a.4.4,0,0,1,0-.6l2.6-2.6-1-1A.4.4,0,0,1,31.6,48.3Z" fill="#333"/></svg>