<svg id="Layer_1" data-name="Layer 1" xmlns="http://www.w3.org/2000/svg" xmlns:xlink="http://www.w3.org/1999/xlink" width="100" height="100" viewBox="0 0 100 100"><defs><clipPath id="clip-path"><circle cx="50" cy="50" r="50" fill="none"/></clipPath></defs><title>Artboard 1</title><circle cx="50" cy="50" r="50" fill="#eae8dd"/><g clip-path="url(#clip-path)"><circle cx="25.9" cy="61.9" r="9.6" fill="#333"/><path d="M31.1,72.8l-3.9.6a8.1,8.1,0,0,1-2.6,0l-3.9-.6a8.1,8.1,0,0,0-8.1,3.5h0a8.1,8.1,0,0,0-1.3,4.4v26.6H40.5V80.7a8.1,8.1,0,0,0-1.3-4.4h0A8.1,8.1,0,0,0,31.1,72.8Z" fill="#333"/><circle cx="75.8" cy="61.9" r="9.6" fill="#4d4d4d"/><path d="M81,72.8l-3.9.6a8.1,8.1,0,0,1-2.6,0l-3.9-.6a8.1,8.1,0,0,0-8.1,3.5h0a8.1,8.1,0,0,0-1.3,4.4v26.6H90.3V80.7A8.1,8.1,0,0,0,89,76.3h0A8.1,8.1,0,0,0,81,72.8Z" fill="#4d4d4d"/><rect x="41.7" y="9.2" width="48.7" height="27.64" transform="translate(132.1 45.9) rotate(-180)" fill="#df6420"/><polygon points="78.3 47.7 78.3 36.8 69.6 36.8 78.3 47.7" fill="#df6420"/><rect x="57.6" y="20.3" width="22.3" height="4.52" transform="translate(133.4 -10) rotate(135)" fill="#fff"/><rect x="53.7" y="23.9" width="12.2" height="4.52" transform="translate(83.5 87) rotate(-135)" fill="#fff"/></g><circle cx="34.6" cy="29" r="15.4" fill="#00698c"/><polygon points="31.4 50.2 31.4 43.8 37.8 43.8 31.4 50.2" fill="#00698c"/><path d="M32.6,33.9v-.8A7.1,7.1,0,0,1,34.4,28c1-1.2,1.9-2.3,1.9-3.4s-.7-1.9-2.4-1.9a6.1,6.1,0,0,0-3.2,1l-1.1-3.5A11.1,11.1,0,0,1,35,18.9c4.3,0,6.2,2.4,6.2,5s-1.5,4.1-2.7,5.4a5.5,5.5,0,0,0-1.6,4v.6Zm-.8,4.5a2.9,2.9,0,1,1,2.9,2.9A2.8,2.8,0,0,1,31.7,38.4Z" fill="#fff"/></svg>