<svg id="Layer_1" data-name="Layer 1" xmlns="http://www.w3.org/2000/svg" xmlns:xlink="http://www.w3.org/1999/xlink" width="100" height="100" viewBox="0 0 100 100"><defs><clipPath id="clip-path"><circle cx="50" cy="50" r="50" fill="none"/></clipPath></defs><title>Artboard 1</title><circle cx="50" cy="50" r="50" fill="#eae8dd"/><circle cx="50.2" cy="50.2" r="29.4" fill="#00698c"/><path d="M70.1,28.5h1.4a0,0,0,0,1,0,0v1.4A41.7,41.7,0,0,1,29.9,71.5H28.5a0,0,0,0,1,0,0V70.1A41.7,41.7,0,0,1,70.1,28.5Z" transform="translate(50 -20.7) rotate(45)" fill="#fff"/><circle cx="50" cy="50" r="13.2" fill="#006e96"/><circle cx="50" cy="50" r="11.4" fill="#0084ad"/><circle cx="50" cy="50" r="5.9" fill="#231f20"/><circle cx="46.2" cy="45.5" r="2" fill="#fff"/><circle cx="46.2" cy="50.5" r="1.2" fill="#fff"/><circle cx="50" cy="50" r="12.3" fill="#fff" opacity="0.2"/><g clip-path="url(#clip-path)"><path d="M27.9,27.9a31.6,31.6,0,1,0,44.7,0A31.6,31.6,0,0,0,27.9,27.9ZM68.3,68.4a25.6,25.6,0,1,1,0-36.2A25.6,25.6,0,0,1,68.3,68.4Z" fill="gray"/><rect x="70.1" y="70.6" width="10.9" height="9.86" transform="translate(-31.3 75.6) rotate(-45)" fill="gray"/><path d="M86.8,72.9h14a0,0,0,0,1,0,0v34.8a6.9,6.9,0,0,1-6.9,6.9h-.2a6.9,6.9,0,0,1-6.9-6.9V72.9A0,0,0,0,1,86.8,72.9Z" transform="translate(-38.8 93.8) rotate(-45)" fill="#00a19b"/><rect x="93.3" y="100.6" width="16.9" height="2.42" rx="1.1" ry="1.1" transform="translate(-42.2 101.8) rotate(-45)" fill="#00837b"/><rect x="71.4" y="78.7" width="16.9" height="2.42" rx="1.1" ry="1.1" transform="translate(-33.1 79.9) rotate(-45)" fill="#00837b"/><rect x="74" y="81.3" width="16.9" height="2.42" rx="1.1" ry="1.1" transform="translate(-34.2 82.5) rotate(-45)" fill="#00837b"/><g opacity="0.3"><circle cx="50.2" cy="50.2" r="25.6" transform="translate(-20.8 50.2) rotate(-45)" fill="#cad7eb" opacity="0.75"/><path d="M37.3,72.3l35-35a25.7,25.7,0,0,0-2.8-3.9L33.4,69.5A25.7,25.7,0,0,0,37.3,72.3Z" fill="#b3c9e9" opacity="0.55"/><path d="M28.1,63.1a25.7,25.7,0,0,0,5.3,6.4L69.5,33.4a25.7,25.7,0,0,0-6.4-5.3Z" fill="#dfe3eb" opacity="0.55"/></g></g></svg>