<svg id="Layer_1" data-name="Layer 1" xmlns="http://www.w3.org/2000/svg" width="100" height="100" viewBox="0 0 100 100"><title>Artboard 1</title><circle cx="50" cy="50" r="50" fill="#eae8dd"/><rect x="11.6" y="42.7" width="5.3" height="14.75" transform="translate(-8.5 3.2) rotate(-10)" fill="#7d868c"/><rect x="25.2" y="54.1" width="8.4" height="24.63" rx="4.2" ry="4.2" transform="translate(-11.1 6.1) rotate(-10)" fill="#333e48"/><rect x="14.1" y="37.6" width="24.2" height="20.75" transform="translate(-7.9 5.3) rotate(-10)" fill="#5c6670"/><rect x="18.5" y="38.5" width="5.5" height="20.75" transform="translate(50.7 93.2) rotate(170)" fill="#df6420"/><circle cx="63.1" cy="42.5" r="8.4" transform="translate(-6.4 11.6) rotate(-10)" fill="#1e252b"/><polygon points="66.4 61.6 39.9 56.1 36.3 35.7 59.4 21.4 66.4 61.6" fill="#333e48"/><path d="M87.8,35.6,80,36.9a1.5,1.5,0,0,0,.5,3l7.8-1.4a1.5,1.5,0,0,0-.5-3Z" fill="#f1d235"/><path d="M79.9,45.9a1.5,1.5,0,1,0-1.8,2.5l6.5,4.5a1.5,1.5,0,0,0,1.8-2.5Z" fill="#f1d235"/><path d="M76.4,32.3a1.5,1.5,0,0,0,1-.6l4.5-6.5a1.5,1.5,0,0,0-2.5-1.8l-4.5,6.5a1.5,1.5,0,0,0,1.5,2.4Z" fill="#f1d235"/></svg>