<svg id="Layer_1" data-name="Layer 1" xmlns="http://www.w3.org/2000/svg" width="100" height="100" viewBox="0 0 100 100"><title>Artboard 1</title><circle cx="50" cy="50" r="50" fill="#f6f5f0"/><path d="M50.6,29.7A16.2,16.2,0,0,0,38.8,55.7a20.5,20.5,0,0,1,4.4,12.5V79.9h0A2.8,2.8,0,0,0,46,82.4h1.3l.5,1.4a2.9,2.9,0,0,0,2.7,2h2.2a2.9,2.9,0,0,0,2.7-2l.5-1.4h1.3a2.8,2.8,0,0,0,2.7-2.4h0V68.3a19.8,19.8,0,0,1,4.3-12.3A16.2,16.2,0,0,0,50.6,29.7Z" fill="#c7c8ca"/><path d="M51.6,23.3a.5.5,0,0,0,.5-.5v-8a.5.5,0,1,0-1.1,0v8A.5.5,0,0,0,51.6,23.3Z" fill="#c7c8ca"/><path d="M60,26.1l.4-.2L66,20.4a.5.5,0,0,0-.8-.8l-5.6,5.6a.5.5,0,0,0,0,.8Z" fill="#c7c8ca"/><path d="M42.9,26l.4.2.4-.2a.5.5,0,0,0,0-.8L38,19.6a.5.5,0,1,0-.8.8Z" fill="#c7c8ca"/><path d="M36.6,33a.5.5,0,0,0,.1-1.1l-7.7-2.1a.5.5,0,0,0-.3,1L36.5,33Z" fill="#c7c8ca"/><path d="M74.8,30.3a.5.5,0,0,0-.7-.4l-7.7,2.1a.5.5,0,0,0,.1,1.1h.1l7.7-2.1A.5.5,0,0,0,74.8,30.3Z" fill="#c7c8ca"/><path d="M41.7,72.5H58.4a0,0,0,0,1,0,0v7.1a2.8,2.8,0,0,1-2.8,2.8H44.4a2.8,2.8,0,0,1-2.8-2.8V72.5A0,0,0,0,1,41.7,72.5Z" fill="#989898"/><rect x="41.7" y="69.1" width="16.7" height="3.46" fill="gray"/><rect x="41.7" y="70" width="16.7" height="1.49" fill="#666667"/><rect x="41.7" y="73.3" width="16.7" height="1.22" fill="gray"/><rect x="41.7" y="75.1" width="16.7" height="1.22" fill="gray"/><rect x="41.7" y="76.9" width="16.7" height="1.22" fill="gray"/><rect x="41.7" y="78.7" width="16.7" height="1.22" fill="gray"/><path d="M66.2,45.8a16.2,16.2,0,1,0-29,9.9,20.5,20.5,0,0,1,4.4,12.5v.8H58.4v-.8a19.8,19.8,0,0,1,4.3-12.3A16.1,16.1,0,0,0,66.2,45.8Z" fill="#f8eb60"/><path d="M47.3,69.1c0-4.1,0-10.4,0-15.1A20.5,20.5,0,0,1,43,52.8c-2.5-1-3.6-2.1-3.2-3.4s4.5-3.2,6.8-2.9,1.8,1.1,1.8,1.5,0,1.5,0,2.8v2.3a16.9,16.9,0,0,0,3.4,0V48c0-.4.2-1.3,1.8-1.5s6.1.8,6.7,2.7-.7,2.5-3.1,3.6a16.4,16.4,0,0,1-4.3,1.2v15H51.8V54.2a17.9,17.9,0,0,1-3.4,0c0,4.7,0,10.8,0,14.9Zm7-21.6h-.7c-.2,0-.8.1-.8.4v5a15.2,15.2,0,0,0,3.8-1.1c1.8-.8,2.7-1.6,2.5-2.3S56.3,47.5,54.4,47.5Zm-8.5,0c-1.9,0-4.8,1-5.1,2.1s.8,1.4,2.6,2.2a19.5,19.5,0,0,0,3.9,1.1V50.8c0-1.3,0-2.3,0-2.8s-.6-.4-.9-.5Z" fill="#989898"/><path d="M44.4,82.4H55.6a1.5,1.5,0,0,0-1.5-1.5H45.9a1.5,1.5,0,0,0-1.5,1.5Z" fill="gray"/><path d="M66.2,45.8a16.2,16.2,0,1,0-29,9.9,20.5,20.5,0,0,1,4.4,12.5v.8H58.4v-.8a19.8,19.8,0,0,1,4.3-12.3A16.1,16.1,0,0,0,66.2,45.8Z" fill="#fd0" opacity="0.5"/><path d="M51.1,85.7H49a2.9,2.9,0,0,1-2.7-2l-.5-1.4h8.6l-.5,1.4A2.9,2.9,0,0,1,51.1,85.7Z" fill="#666667"/><path d="M50.6,31.9a13.8,13.8,0,0,0-9.3,3.5,13.8,13.8,0,0,1,7.5-2.2A13.7,13.7,0,0,1,62.6,46.8a13.5,13.5,0,0,1-4.5,10.1,13.6,13.6,0,0,0,6.3-11.4A13.7,13.7,0,0,0,50.6,31.9Z" fill="#f1edb9" opacity="0.45"/><path d="M50,23.3a.5.5,0,0,1-.5-.5v-8a.5.5,0,0,1,1.1,0v8A.5.5,0,0,1,50,23.3Z" fill="#f1d235"/><path d="M58.4,26.1,58,26a.5.5,0,0,1,0-.8l5.6-5.6a.5.5,0,0,1,.8.8L58.8,26Z" fill="#f1d235"/><path d="M41.7,26.1l-.4-.2-5.6-5.6a.5.5,0,0,1,.8-.8L42,25.2a.5.5,0,0,1,0,.8Z" fill="#f1d235"/><path d="M35,33h-.1l-7.7-2.1a.5.5,0,1,1,.3-1l7.7,2.1A.5.5,0,0,1,35,33Z" fill="#f1d235"/><path d="M65,33a.5.5,0,0,1-.1-1.1l7.7-2.1a.5.5,0,1,1,.3,1L65.1,33Z" fill="#f1d235"/></svg>